<svg xmlns="http://www.w3.org/2000/svg" version="1.1" id="Layer_1" x="0" y="0" viewBox="0 0 300 300" style="enable-background:new 0 0 300 300" xml:space="preserve"><style>.st0{fill:#e4ecf9}.st1{fill:#d1dcf8}.st5{fill:#ea241f}.st14{fill:#2e363a}.st15{fill:#fec9ac}.st16{opacity:.5}.st17{fill:#ffab90}.st21{fill:#3a4146}.st24{fill:#fff}.st33{fill:#42c1f4}.st34{fill:#ee984f}.st35{fill:#ea7d20}.st50{fill:#2a2e33}.st53{fill:#393e46}.st70{fill:#aab8ca}.st73{fill:#803e38}.st74{fill:#8c6252}.st78{fill:#c2343a}.st79{fill:#fee182}</style><g id="Digital_Payment"><path class="st14" d="M218.342 120.434h.497a2.958 2.958 0 0 0 2.958-2.959v-9.352a2.958 2.958 0 0 0-2.958-2.958h-.497v15.269zM100.487 98.756h-.496a2.958 2.958 0 0 0-2.959 2.958v9.352a2.958 2.958 0 0 0 2.959 2.959h.496v-15.27zM100.487 79.164h-.496a2.958 2.958 0 0 0-2.959 2.958v9.352a2.958 2.958 0 0 0 2.959 2.958h.496V79.164z"/><path class="st53" d="M218.342 58.018v183.915c0 7.821-6.34 14.11-14.01 14.11h-89.73c-7.772 0-14.112-6.289-14.112-14.11V58.018c0-7.72 6.34-14.06 14.111-14.06h89.732c7.67 0 14.01 6.34 14.01 14.06z"/><path class="st24" d="M204.333 48.558h-36.29c-1.406 0-2.528.958-3.062 2.26a6.03 6.03 0 0 1-5.59 3.722 5.999 5.999 0 0 1-5.54-3.721c-.533-1.302-1.656-2.26-3.063-2.26H114.55a9.459 9.459 0 0 0-9.459 9.458v183.916c0 5.265 4.295 9.561 9.46 9.561h89.68c5.23 0 9.51-4.28 9.51-9.51V58.018c0-5.216-4.244-9.46-9.408-9.46z"/><path class="st0" d="M181.973 197.238h-38.319a3.836 3.836 0 0 1-3.831-3.832v-1.916a3.836 3.836 0 0 1 3.831-3.832h.958a.958.958 0 1 1 0 1.916h-.958a1.918 1.918 0 0 0-1.916 1.916v1.916a1.918 1.918 0 0 0 1.916 1.916h38.32a.958.958 0 0 1 0 1.916z"/><circle class="st53" cx="174.309" cy="197.801" r="3.832"/><path class="st0" d="M185.59 165.02a.958.958 0 0 0-.743-.353h-45.844l-2.08-8.841a.958.958 0 0 0-.932-.739h-6.706a.958.958 0 1 0 0 1.916h5.947l7.49 31.832a.958.958 0 0 0 .932.739h36.403a.958.958 0 0 0 .938-.763l4.79-22.99a.958.958 0 0 0-.195-.8zm-18.025 1.563h7.575l-.479 3.832h-7.256l.16-3.832zm-11.418 0 .16 3.832h-7.257l-.479-3.832h7.576zm-16.693 0h7.187l.479 3.832h-6.764l-.902-3.832zm1.353 5.748h6.552l.48 3.831h-6.13l-.902-3.831zm1.352 5.747h5.919l.479 3.832h-5.497l-.9-3.832zm2.254 9.58-.901-3.832h5.284l.48 3.832h-4.863zm4.877-15.327h7.097l.16 3.831h-6.778l-.479-3.831zm.718 5.747h6.618l.16 3.832h-6.299l-.479-3.832zm1.198 9.58-.479-3.832h6.139l.16 3.832h-5.82zm13.563 0h-5.826l-.16-3.832h6.145l-.16 3.832zm.24-5.748h-6.306l-.16-3.832h6.625l-.16 3.832zm.239-5.748h-6.784l-.16-3.831h7.103l-.16 3.831zm.24-5.747h-7.264l-.16-3.832h7.583l-.16 3.832zm7.018 17.243h-5.82l.16-3.832h6.139l-.48 3.832zm.718-5.748h-6.298l.16-3.832h6.617l-.479 3.832zm.719-5.748h-6.778l.16-3.831h7.097l-.48 3.831zm5.336 11.496h-4.842l.479-3.832h5.16l-.797 3.832zm1.197-5.748h-5.321l.479-3.832h5.64l-.798 3.832zm1.198-5.748h-5.8l.478-3.831h6.12l-.798 3.831zm1.197-5.747h-6.279l.479-3.832h6.598l-.798 3.832z"/><path class="st5" d="M133.024 156.008c0 .93-.747 1.678-1.677 1.678h-6.329a1.678 1.678 0 0 1 0-3.355h6.329c.465 0 .884.19 1.19.496.304.297.487.724.487 1.181z"/><circle class="st53" cx="147.486" cy="197.801" r="3.832"/><circle class="st70" cx="147.486" cy="197.801" r="1.734"/><circle class="st70" cx="174.309" cy="197.801" r="1.734"/><g id="XMLID_65_"><path class="st1" d="M255.612 217.518a.244.244 0 0 1-.244-.244v-7.262c0-3.703-3.012-6.715-6.715-6.715s-6.715 3.012-6.715 6.715v7.262a.244.244 0 1 1-.488 0v-7.262c0-3.972 3.231-7.204 7.203-7.204 3.972 0 7.204 3.232 7.204 7.204v7.262c0 .135-.11.244-.245.244z" id="XMLID_79_"/><path style="fill:#f0a667" d="M257.667 213.774h-29.484l-3.46 41.198h29.483z" id="XMLID_78_"/><path class="st34" d="M262.84 213.774h-5.173l-3.461 41.198H266.3z" id="XMLID_70_"/><path class="st35" d="m254.206 254.972 6.048-5.418 6.047 5.418z" id="XMLID_69_"/><path class="st35" d="M234.735 217.827a1.207 1.207 0 1 1 2.415-.001 1.207 1.207 0 0 1-2.415 0z" id="XMLID_68_"/><path class="st35" d="M248.654 217.827a1.207 1.207 0 1 1 2.415-.001 1.207 1.207 0 0 1-2.415 0z" id="XMLID_67_"/><path class="st1" d="M249.862 217.518a.244.244 0 0 1-.245-.244v-7.262a6.723 6.723 0 0 0-6.715-6.715 6.722 6.722 0 0 0-6.715 6.715v7.262a.244.244 0 1 1-.489 0v-7.262c0-3.972 3.232-7.204 7.204-7.204 3.972 0 7.204 3.232 7.204 7.204v7.262c0 .135-.11.244-.244.244z" id="XMLID_66_"/></g><path class="st15" d="M132.752 92.285c-1.53 2.537-7.548 11.817-12.936 17.84-2.744 3.068-5.323 5.294-7.066 5.353-5.57 2.508-18.465 5.064-18.465 5.064l-.565-16.493 9.203-.33 7.172-.259s10.557-12.023 17.376-17.052c.483-.783 4.316-7.012 5.181-5.905.86 1.1-.235 3.58-.37 3.892.276-.524 5.246-6.218 8.066-3.834 2.826 2.385-5.505 10.793-7.596 11.724z"/><g class="st16"><path class="st17" d="M119.816 110.126c-2.744 3.067-5.323 5.293-7.066 5.352-5.57 2.508-18.465 5.064-18.465 5.064l-.565-16.493 9.203-.33c.1.377.23.748.395 1.107.806 1.76 2.278 3.156 3.939 4.146 3.215 1.925 7.242 2.437 10.834 1.371.548-.164 1.201-.33 1.725-.217z"/></g><path class="st15" d="M75.048 236.26h7.485v12.189h-7.485z"/><path class="st17" d="M75.048 236.26v4.31a29.161 29.161 0 0 0 7.486-.522v-3.788h-7.486z"/><path class="st14" d="M72.173 252.934H95.94c.566 0 1.084-.239 1.46-.633.376-.393.61-.935.61-1.529 0-.903-.536-1.71-1.343-2.032-2.502-.981-6.876-2.072-7.8-3.04-1.238-1.29-3.4-3.452-4.947-3.342-1.546.11-2.47 2.697-4.842 4.207-1.682 1.071-3.5-1.575-4.405-3.2-.308-.549-1.078-.555-1.368 0-1.922 3.632-1.133 9.569-1.133 9.569z"/><path class="st15" d="M55.829 236.26h7.485v12.189h-7.485z"/><path class="st17" d="M55.829 236.26v4.31a29.161 29.161 0 0 0 7.485-.522v-3.788h-7.485z"/><path class="st21" d="M52.953 252.934H76.72c.567 0 1.084-.239 1.46-.633.376-.393.61-.935.61-1.529 0-.903-.536-1.71-1.343-2.032-2.501-.981-6.875-2.072-7.8-3.04-1.238-1.29-3.4-3.452-4.947-3.342-1.546.11-2.47 2.697-4.842 4.207-1.682 1.071-3.5-1.575-4.405-3.2-.308-.549-1.078-.555-1.367 0-1.923 3.632-1.134 9.569-1.134 9.569zM90.657 151.225c0 .005-.005.01 0 .016-.245 1.549.568 86.317-3.172 87.443-2.984.89-10.46.005-13.479-.408-.179-.021-.343-.048-.491-.07-.015 0-.026 0-.04-.005a23.238 23.238 0 0 1-.763-.112l-.082-2.83-.425-14.825s-.808 3.248-1.837 6.925a142.34 142.34 0 0 1-1.402 4.748c-.916 2.916-1.817 5.296-2.36 5.553-1.478.697-14.388-.96-14.86-1.812-.24-.434.18-21.61.66-42.62.477-20.902 1.009-41.639 1.009-41.639l37.242-.364z"/><path class="st14" d="M80.25 164.511s-.185 49.749-6.735 73.696c-.01.021-.015.048-.02.07l-.02-.076-.845-2.942-.425-14.825s-.808 3.248-1.837 6.925l-.292-1.024c1.408-19.579 5-40.288 10.173-61.824z"/><path class="st14" d="m66.518 237.93-.846-.535c1.547-2.442 2.92-11.406 4.82-23.813 2.023-13.211 4.794-31.305 9.217-50.713l.975.223c-4.415 19.372-7.183 37.445-9.203 50.64-1.99 12.995-3.305 21.58-4.963 24.198z"/><path class="st14" d="M52.405 193.228c4.9-10.859 11.678-20.795 19.934-29.136 5.303-5.352 11.498-10.162 18.316-12.85-.005-.005 0-.01 0-.015l-37.24.365s-.532 20.733-1.01 41.636z"/><path class="st73" d="M89.172 105.949c-2.046 4.866-8.648 5.44-11.928 9.497-3.09 3.832-2.512 9.824-5.454 13.774-1.72 2.31-4.6 3.586-7.38 3.382a1.541 1.541 0 0 0-1.596 1.137c-.553 1.93-2.098 3.542-3.889 4.373-2.2 1.024-4.703 1.056-7.102.799-4.268-.461-8.526-1.844-11.944-4.567-3.418-2.717-5.91-6.882-6.16-11.368-.252-4.486 1.995-9.18 5.853-11.142.164-.086.333-.161.502-.242a1.631 1.631 0 0 0 .972-1.645c-.041-.434-.102-.863-.174-1.286-.414-2.498-1.12-5.049-.614-7.53.645-3.157 3.147-5.559 5.864-7.08 2.15-1.207 4.488-1.99 6.755-2.954.143-.059.276-.14.394-.241.511-.445.92-.96 1.11-1.635.415-1.479-.466-2.964-1.034-4.39-1.668-4.164-.475-9.395 2.8-12.327 2.916-2.61 7.281-3.226 10.792-1.661.358.155.762.166 1.125.038 2.318-.826 4.928-.772 7.2.193 2.87 1.216 5.158 3.864 6.023 6.978.798 2.883.425 6.008 1.177 8.907.88 3.377 3.183 6.11 4.969 9.07 1.785 2.963 3.09 6.715 1.74 9.92z"/><path d="M99.148 120.19a34.993 34.993 0 0 1-.583 1.961l-1.356.086-9.769.605 1.449 7.327 4.646 23.47s-5.828 7.632-23.314 6.244c-17.48-1.388-21.323-4.025-21.323-4.025l.052-.273 4.324-24.001-12.138-6.91c-.792-.45-1-1.542-.437-2.278 3.542-4.626 15.111-18.99 22.768-19.802 9.139-.976 29.935-1.528 30.861-1.528.885 0 8.556 5.199 4.82 19.123z" style="fill:#fe4c40"/><path class="st5" d="M99.148 120.19a34.993 34.993 0 0 1-.583 1.961l-1.356.086-9.769.605 1.449 7.327-2.006-.991-2.349-19.37 2.681 2.508c1.51 1.415 3.03 2.835 4.677 4.063a26.36 26.36 0 0 0 7.256 3.81z"/><path class="st5" d="M87.846 122.817c-.23-.576-3.665-11.916-3.966-12.739.812 5.864 1.527 11.846.541 17.674-1.745 10.365-8.96 19.279-18.017 23.84-5.424 2.728-11.421 3.987-17.454 3.993l-.052.273s3.843 2.637 21.323 4.025c17.486 1.388 23.314-6.244 23.314-6.244l-6.095-30.797.406-.025z"/><path class="st78" d="M87.44 123.344a.5.5 0 0 1-.484-.38c-.028-.11-2.72-11.032-3.385-13.125a.5.5 0 1 1 .953-.303c.676 2.124 3.291 12.738 3.402 13.189a.5.5 0 0 1-.485.62z"/><path class="st15" d="M76.645 106.426c-5.797 5.484-13.28-1.603-13.515-2.375-.235-.772.36-8.14.36-8.14s-4.668.739-5.988-2.718c-1.32-3.457 3.255-5.14 3.255-5.14.327-14.021 8.466-12.88 10.963-12.338 2.502.541 6.435 6.512 7.044 13.228.614 6.715-4.38 8.296-4.38 8.296v5.028c.399.273.736.536 1.018.804 2.164 1.945 1.243 3.355 1.243 3.355z"/><g class="st16"><path class="st17" d="M75.402 103.07a8.826 8.826 0 0 1-1.131-.058c-2.257-.274-4.365-1.55-5.332-3.377-.676-1.27-.793-2.701-.9-4.1 1.575 1.115 3.586 1.742 5.603 1.742.245 0 .496-.01.741-.027v5.017c.4.273.737.536 1.019.804z"/></g><path class="st24" d="M78.888 109.764c.07.112-.262.508-1.108 1.068-.847.543-2.23 1.264-4.254 1.694a15.71 15.71 0 0 1-5.221.027c-1.706-.281-3.464-.85-4.913-1.966-1.674-1.38-2.304-2.92-2.578-3.897-.255-1.008-.167-1.532-.034-1.555.154-.031.342.432.78 1.264.452.809 1.18 2.06 2.65 3.12 1.215.937 2.735 1.446 4.315 1.707 1.577.256 3.193.25 4.767-.025 1.869-.276 3.222-.77 4.13-1.086.906-.33 1.382-.488 1.466-.351zM96.541 116.743c-.32-.068-.13-1.424-.305-4.067a16.748 16.748 0 0 0-1.527-6.507c-1.02-2.439-1.809-3.557-1.548-3.768.181-.17 1.422.66 2.77 3.206a18.09 18.09 0 0 1 1.65 7.026c-.071 2.88-.792 4.18-1.04 4.11z"/><path class="st74" d="M73.132 90.536c-.006-.07.125-.132.352-.213.11-.043.246-.094.364-.179.112-.079.226-.222.237-.346.072-.188-.205-.466-.56-.734a4.545 4.545 0 0 1-.936-1.051c-.281-.487-.388-.902-.422-1.178-.031-.279.007-.424.069-.438.146-.039.292.472.852 1.262.223.344.496.652.808.907.163.134.353.273.527.481.176.195.334.549.249.896a1.018 1.018 0 0 1-.602.67c-.223.089-.404.09-.54.083-.273-.023-.394-.092-.398-.16zM74.888 81.22c-.062.137-.42.004-1.065.099a1.742 1.742 0 0 0-1.357.836c-.392.544-.455.937-.603.926-.063-.003-.127-.106-.141-.326-.012-.216.03-.556.241-.948.388-.64 1.091-1.073 1.814-1.118.43-.003.734.124.909.24.176.12.23.23.202.29z"/><ellipse transform="rotate(-28.629 74.647 84.347)" class="st74" cx="74.647" cy="84.347" rx=".611" ry=".964"/><path class="st74" d="M69.015 84.088c-.062.138-.42.005-1.065.1a1.742 1.742 0 0 0-1.356.836c-.392.544-.455.936-.603.926-.064-.003-.127-.106-.142-.326-.011-.216.03-.557.241-.948.389-.64 1.091-1.073 1.814-1.118.43-.003.734.124.91.24.176.12.23.23.2.29z"/><ellipse transform="rotate(-28.629 68.774 87.216)" class="st74" cx="68.774" cy="87.216" rx=".611" ry=".964"/><path class="st73" d="M68.21 73.413c-2.535.918-4.882 2.055-5.573 4.765-.268 1.055-1.84 1.023-2.735 1.58-.182.113-.834.616-1.035.745-.414.437-.998 1.06-.92.895-.514.745-.952 1.569-1.355 2.376-.593 1.189-1.068 3.068-1.482 4.866-.881 3.835-1.457 7.66-2.731 11.333 1.045.247 2.17.13 3.127-.381 1.366-.724 2.343-2.208 2.502-3.805.112-1.094-.138-2.187-.23-3.28-.093-1.094.005-2.29.675-3.136.737-.927 1.98-1.195 3.126-1.281 1.152-.091 2.35-.059 3.388-.59 1.453-.745 2.241-2.417 2.732-4.035a22.204 22.204 0 0 0 .623-10.191c-.038.046-.057.12-.112.14z"/><path class="st15" d="M80.51 141.275c-.997.376-2.425 1.024-2.84 1.1-.24.042-.895.283-1.427.503 0 .005 0 .005-.005.005s-.01.006-.016.006c-.01.005-.02.01-.03.01-.149.07-.568.28-.727.654-.174.397.353.542.501.574.01 0 .021 0 .026.005h.015c.046.006.093.01.149.016 1.013.065 3.561.274 3.735.622.174.343.144.643-.358.922-.25.145-1.085.166-1.898.145a11.153 11.153 0 0 0-3.705.536c-.005 0-.01.005-.015.005-1.07.338-2.175.552-3.29.627-2.416.166-4.831.236-7.247.08-.015 0-.03 0-.046-.005-2.579-.166-5.106-.815-7.506-1.817-4.805-2.004-9.836-4.577-11.744-6.78-1.116-1.297-1.607-2.867-1.74-4.454-.338-3.885 1.458-7.836 1.458-7.836l9.472 5.392 5.046 3.248 4.687 3.023c1.525.98 3.52.14 3.96-1.677.098-.397.144-.703.134-.842 0 0 .107-.927.005-1.238-.103-.31-.466-.874-.251-1.115.087-.096.271-.171.501-.134h.01c.093.005.835.097 1.229 1.35.337 1.067.158 1.426.26 2.654.047.557.216.841.39.991.005.006.01.006.015.011.066.043.138.075.21.102a1.404 1.404 0 0 0 .184.032c0 .005.005.005.005.005h.067c.061 0 .128-.005.184-.016.358-.075 1.903-.997 2.303-1.27.399-.273 1.903-1.704 2.753-2.406.849-.697 2.415-1.92 3.07-1.7.655.226.348.938.015 1.27-.332.333-1.75 1.609-2.088 2.021-.122.156-.44.44-.788.745 0 0-.005 0-.005.006-.281.24-.578.498-.824.707-.394.397-.742.858-.532 1.12 0 0 0 .006.005.006.01.01.026.016.041.027.005.005.01.005.016.01.092.027.235-.027.368-.09.005-.006.01-.006.015-.006a10 10 0 0 0 .251-.156c.005-.005.015-.01.02-.016.006 0 .006 0 .01-.005.006 0 .006 0 .006-.005.005 0 .005 0 .01-.006.005 0 .01-.005.01-.005l.006-.006c.614-.407 1.473-1.13 2.092-1.414.952-.43 1.791-1.03 2.6-1.544.814-.51 1.535-.413 1.75.064.21.477-.22.987-1.12 1.581-.896.59-2.508 1.758-2.928 2.059l-.143.096-.056.032-.036.027s-1.382.9-1.556 1.034c-.005.006-.01.006-.01.011a.138.138 0 0 0-.03.027c-.006.01-.016.016-.021.027a.546.546 0 0 0-.118.24c0 .017-.005.028-.005.038v.016c-.005.017-.005.027-.005.038v.027a.552.552 0 0 0 .061.252.401.401 0 0 0 .246.16h.005a.99.99 0 0 0 .379-.01c.01 0 .02-.006.03-.006.021-.005.031-.005.047-.01.619-.15 1.663-.643 2.44-.783.83-.145 2.64-.697 2.687-.723.04-.022.87-.333 1.151.337.282.665-.527 1.099-1.52 1.48z"/><g class="st16"><path class="st17" d="M58.318 134.833c-3.434-.975-6.929-1.742-10.475-1.683-1.847.032-3.725.311-5.501.88-.338-3.886 1.458-7.837 1.458-7.837l9.472 5.392 5.046 3.248z"/></g><path class="st78" d="M52.378 131.06a.5.5 0 0 1-.396-.805l5.94-7.716a.5.5 0 0 1 .792.61l-5.94 7.715a.5.5 0 0 1-.396.195z"/><path class="st17" d="M62.473 94.7c-.696-.08-1.408-.16-2.047-.466-.64-.3-1.208-.863-1.346-1.587-.092-.471.01-.964.194-1.404.43-1.045 1.336-1.86 2.39-2.154l.538-.183c-.676.504-1.387 1.061-1.638 1.887-.225.74-.015 1.565.384 2.219.399.659.967 1.179 1.525 1.688z"/><path class="st24" d="M52.988 126.44c-.178.236-1.022-.113-2.56-.983a34.819 34.819 0 0 0-3.892-2.21c-1.53-.866-2.273-1.39-2.165-1.675.1-.266 1.043-.214 2.752.465a36.16 36.16 0 0 1 4.04 2.294c1.458 1.111 2.002 1.876 1.825 2.11z"/><path class="st74" d="M74.529 93.575c.148.22-.051.743-.946 1.011a3.552 3.552 0 0 1-2.226-.425c-.393-.283-.61-.69-.609-.994.001-.31.168-.428.308-.426.147-.001.284.074.427.105.142.033.289.075.541.147.406.233.903.325 1.378.26.57.044.965.054 1.127.322z"/><path class="st24" d="M154.857 93.431c.245.14.447.303.61.488.162.187.258.37.289.558l-.829.086c-.013-.126-.085-.262-.21-.412a1.856 1.856 0 0 0-.481-.386 1.527 1.527 0 0 0-.576-.197.816.816 0 0 0-.529.097c-.155.092-.21.196-.17.313.036.116.206.315.506.595.303.281.468.528.496.74.029.217-.12.42-.453.616-.33.195-.727.28-1.186.258a2.927 2.927 0 0 1-1.308-.388c-.6-.343-.929-.768-.984-1.274l.891-.053c.054.417.293.747.71.985.208.119.418.187.63.207.215.018.39-.017.537-.103s.204-.185.17-.3c-.033-.113-.158-.27-.375-.471-.214-.2-.368-.36-.458-.476a.854.854 0 0 1-.168-.353c-.059-.23.09-.448.44-.654s.751-.293 1.202-.256c.448.036.864.162 1.246.38zM160.245 96.619l-2.13 1.25a3.338 3.338 0 0 1-1.72.482c-.6 0-1.14-.136-1.616-.409-.477-.272-.719-.583-.728-.93-.006-.347.261-.682.808-1.003l2.13-1.25.648.37-2.103 1.235c-.348.204-.535.416-.559.636-.03.22.104.416.406.588.302.173.642.248 1.024.23a2.36 2.36 0 0 0 1.089-.334l2.103-1.235.648.37z"/><path d="m240.125 131.005-102.71.457a2.666 2.666 0 0 1-2.679-2.655l-.256-57.656a2.666 2.666 0 0 1 2.654-2.678l102.711-.457a2.666 2.666 0 0 1 2.678 2.654l.257 57.657a2.666 2.666 0 0 1-2.655 2.678z" style="fill:#64d3ff"/><path class="st33" d="M142.976 87.889c-.057.424.511.334.76.588.128.13.564.873.144.597-.086-.057-.049-.15-.128-.19-.051-.027-.224-.008-.275-.003-.183.02-.47.077-.632.177-.426.264.023.639.357.675.204.021.52.03.714-.022.109-.029.258-.193.401-.132.134.057.198.348.138.484-.106.241-.429.207-.645.242-.364.06-.59.401-.505.798.085.4.601.41.842.603.115.093.027.142.23.179.163.029.226-.075.365-.08.24-.006.421.25.451.493.045.36-.23.5-.398.773-.166.27-.106.568-.314.842.11-.255.322-.217.51-.367.127-.1.189-.275.266-.41.157-.272.337-.482.59-.673.47-.358.89-.813 1.483-.959a5 5 0 0 1 1.452-.122c.36.019.664.092 1.003.203.32.104.428.246.652.469.233.232.591.015.77.278.143.212.135.683.215.937.15-.015.235-.17.402-.121.014.095.01.19.004.286.135.058.323-.096.435-.008.114.091-.02.297.038.408.064.12.2.193.296.291.084.086.14.174.247.26.24.192.38.43.588.643.218.223.838.176.816.578-.125.038-.265.027-.398.017-.187.415.31.687.207 1.099-.078.312.027.59.029.92.002.446.052.795.32 1.17.289.405.681.733.832 1.221.12.393.163.631.629.61.005-.205.135-.147.218-.03.071.101.113.403.155.526.179.522.447.772.875 1.102.312-.431-.285-.906-.259-1.349.357.24.655.764.871 1.144.11.194.154.328.196.517.061.272.02.127.249.244.341.175.157.728.613.689.237-.02.365-.161.448.06.038.1-.003.298-.047.385.069.083.13.27.209.34.066.06.134.039.198.07.112.054.203.156.3.248.114.109.178.189.337.236.13.038.266.034.393.065.257.064.419.063.682-.008.353-.097.687.08.982.27.244.157.434.37.698.505.14.071.197.157.324.275.092.086.202.125.299.211.1.089.167.203.26.294.118.114.278.161.417.253.128.084.22.225.358.296.118.061.267.058.39.125.2.109.302.207.436-.08.057-.124.004-.132.121-.171.097-.033.174.006.234.06.205.188.153.569.154.82 0 .148.14.381.069.514-.036.067-.112.059-.162.108a.64.64 0 0 0-.142.236c-.028.1.041.29-.032.37-.134.147-.353-.052-.48-.045-.215.01-.213.384-.154.554.037.104.148.169.187.274.062.172-.01.194-.104.313-.108.136-.138.395.002.547.109.119.316.096.417.21.085.096.104.345.161.467.113.241.218.463.37.682.179.258.177.394.223.688.045.292.4.403.63.577.15.114.26.243.439.317.198.083.4.083.45.317.089.42.105.933.072 1.367-.012.16-.093.271-.128.424-.041.183-.042.401-.059.59-.032.37-.177.695-.245 1.052-.057.3.017.626-.038.927-.038.21-.192.278-.319.42-.118.135-.128.344-.141.513-.029.362.153.65.087 1.026-.072.407-.225.721-.21 1.155.005.16.073.408.048.55-.043.247-.198.261-.293.452-.135.27-.179.674-.135.987.073.527.428.657.75 1.042.233.28.552.8.861.978.582.336 1.697.087 1.747-.65-.8-.055-1.528-.02-1.632-1.025-.065-.636.878-.795.693-1.338-.057-.167-.365-.148-.358-.357.007-.216.18-.078.252-.167.32-.397.22-.644.295-1.164.014-.094.044-.379.103-.45.21-.26.195-.023.383-.077.123-.036.135.196.304-.12.054-.099-.01-.322.023-.441.622.164 1.003.273 1.342-.428.221-.459.15-.675.034-1.138.304-.123.345.266.593.233.251-.034.458-.54.586-.713.322-.436.742-.859.955-1.36.176-.417.087-.986.496-1.26.382-.254 1.186-.216 1.595-.062.074-.088.16-.127.196-.246.028-.094.02-.18.101-.246.11-.091.258-.12.324-.261.064-.137.053-.287.053-.435-.001-.203.014-.43-.061-.62-.127-.323-.214-.553.045-.857-.075-.479.58-.73.75-1.134.17-.404-.079-.787-.502-.856-.294-.049-.305-.028-.512-.284-.144-.178-.235-.206-.481-.19-.42.028-.58.31-.946-.048-.172-.168-.29-.349-.535-.425-.348-.108-.344.074-.62.231-.019-.114.027-.238.03-.357-.516-.32-.347.555-.785.409-.02-.384.229-.39.359-.691.07-.164.05-.234-.035-.383-.025-.044-.097-.073-.132-.136-.03-.056-.025-.157-.05-.217-.132-.305-.465-.328-.717-.471-.199-.114-.382-.237-.61-.261-.218-.023-.312.024-.48-.155-.15-.16-.21-.338-.39-.478-.17-.132-.338-.285-.534-.36-.329-.128-.638-.128-.992-.126-.1 0-.214.016-.313.001-.17-.025-.2-.119-.356-.173-.346-.122-.528.194-.85.159-.286-.032-.571-.173-.793.104-.1.126-.047.32-.146.396-.118.09-.425-.133-.425.134a.612.612 0 0 0-.198-.13c-.025-.008-.05-.003-.076-.006-.071-.006-.106-.057-.163-.094a.332.332 0 0 0-.189-.055c-.07 0-.091.013-.15.051-.077.05-.149.101-.242.111-.176.02-.254-.096-.364-.214-.093-.1-.21-.22-.348-.252-.037-.177.077-.342.084-.516a3.184 3.184 0 0 0-.001-.266 1.083 1.083 0 0 0-.068-.38c-.021-.046-.045-.057-.093-.085-.037-.021-.093-.072-.138-.067-.228.024-.532-.032-.762-.042-.312-.013-.375.005-.237-.324.028-.067.023-.16.07-.216.108-.122.193-.014.221-.192.02-.13-.126-.244-.076-.385.038-.107.14-.089.192-.204.035-.08 0-.158-.092-.193-.088-.033-.208-.018-.302-.018-.142.001-.446-.038-.489.142-.017.072.012.155 0 .227-.01.06-.039.085-.11.155-.021.04-.004.128-.017.174-.034.131-.156.143-.274.115-.05-.013-.069-.037-.128-.025-.062.014-.108.056-.173.066-.065.01-.138-.005-.203-.008-.105-.006-.094.006-.16.081-.048.058-.124.12-.164.025-.017-.04.014-.103.007-.147-.15-.015-.363.065-.407-.133-.038-.172.124-.306-.1-.408-.137-.063-.18-.094-.23-.248a1.85 1.85 0 0 1-.07-.419.684.684 0 0 1 .07-.375c.072-.14.18-.15.164-.332-.024-.27-.144-.5.13-.679.072-.047.153-.073.207-.14.04-.049.063-.106.103-.157.059-.073.09-.124.175-.145a.839.839 0 0 1 .317.004c.143.03.227.04.372.007.119-.027.136.038.237.078a.911.911 0 0 0 .292.03c.072-.011.084-.073.127-.125.094-.113.178-.11.318-.111.068 0 .14.006.207-.002.092-.011.179-.058.273-.052.1.007.132.085.218.112.027.008.08.002.107 0 .233-.023.308-.063.49.085.118.095.139.082.17.241.024.123.002.252.026.373.022.115.111.18.18.26.062.075.357.546.425.24.008-.037-.013-.085-.002-.122.011-.034.037-.037.051-.07.046-.1.016-.252-.043-.341a1.077 1.077 0 0 1-.175-.386c-.046-.183-.164-.398-.139-.59.048-.357.669-.577.937-.776.147-.109.313-.228.358-.408.04-.158.032-.358.02-.52-.016-.19-.076-.368-.106-.554-.013-.078-.084-.169.055-.19.132-.02.119.122.134.21.042.248.173.297.171.015 0-.057-.028-.21.032-.244.046-.025.161.075.24.05.048-.143.043-.299.098-.443.195-.044.647.172.777-.039.055-.088-.06-.236.042-.308.038-.027.188 0 .233.005.066-.146-.066-.277-.09-.416-.041-.226.061-.287.262-.342.136-.037.277-.058.407-.093.14-.038.352-.284.455-.28.022.157.007.327.008.485.141-.04.247-.183.405-.236.155-.051.276-.076.435-.076.406-.001.692-.092.626-.619-.141-.027-.206.156-.33.188-.09.024-.189-.007-.282.022-.076.023-.15.089-.25.101-.192.025-.312-.034-.333-.234-.006-.053.046-.152.015-.199-.08-.122-.278.023-.224-.255.156-.06.422.02.378-.266-.03-.198-.339-.207-.508-.237-.316-.056-.438.18-.7.303.348-.377.865-.64 1.376-.622.251.009.511.068.73-.068.212-.132.402-.3.652-.348.261-.051.327-.013.46-.23.047-.08.108-.148.129-.24.07-.307-.14-.33-.378-.4-.143-.043-.26-.056-.327-.195-.048-.1-.006-.183-.101-.28-.103-.105-.246-.133-.345-.251a1.048 1.048 0 0 1-.212-.342c-.183.027-.523-.696-.618-.847a.893.893 0 0 1-.14-.306c-.029-.12-.021-.304-.193-.27-.269.055-.089.642-.348.78-.194.105-.75.188-.897.001-.155-.196.046-.467-.038-.66-.056-.126-.207-.124-.308-.177a1.948 1.948 0 0 1-.342-.254c-.086-.075-.19-.256-.3-.3-.117-.048-.327-.003-.456-.002-.125 0-.276.025-.397-.006-.113-.029-.346-.216-.465-.084-.138.15.012.75-.013.948-.045.345-.192.595.035.928.166.245.399.425.372.758-.024.29-.194.166-.429.218-.165.037-.196.1-.229.283-.062.344.27.782.125 1.093-.067.144-.239.134-.403.063-.246-.107-.316-.408-.38-.646-.046-.175-.048-.333-.061-.51-.026-.349-.165-.36-.48-.416-.178-.032-.366-.021-.535-.072-.282-.084-.41-.296-.623-.456-.176-.132-.433-.17-.644-.144-.198.022-.302.186-.386-.037-.078-.21.03-.406-.246-.496-.225-.073-.462.102-.412-.269.03-.222.135-.265.309-.385.164-.112.297-.216.373-.402.06-.148.054-.348.15-.481.22-.307.521-.157.775-.314.189-.117.189-.431.424-.498.045.108-.055.265-.002.36.117.205.236-.203.404-.18.099.014.15.124.284.132.13.007.168-.045.29-.082.287-.087.455.043.708.058-.154-.23-.54-.263-.695-.497-.05-.075-.107-.334-.037-.409.037-.039.235-.045.296-.068.15-.058.161-.026.207-.176.064-.21-.117-.39-.183-.569-.166-.452.018-.807.508-.812.26-.003.288.084.48.243.238.198.399.164.682.188.176.015.15.006.286.154.148.161.26.23.423.343.1.07.242.317.155.485-.074.142-.34.152-.394.316-.045.138.166.287.06.394-.067.066-.498.013-.6.007-.157-.008-.225-.025-.368.036-.117.05-.289.158-.25.292.07.241.368.03.515.01.266-.033.678-.054.908.084.179.107.269.292.457.382.07.033.159.027.218.06.114.063.17.18.273.254.17.124.569.222.772.184.074-.368-.886-.566-.758-.703.174-.186.736.368.934.398.064-.095.02-.197.044-.301.014-.06.057-.078.069-.124.049-.186.037-.298-.096-.45-.23-.266-.634-.416-.646-.786.457-.084.668.452 1.071.553.051-.1.036-.233.061-.347.225 0 .491.138.698-.009-.004-.284-.088-.207-.306-.267a.595.595 0 0 1-.377-.306c-.103-.194-.036-.29-.255-.354-.17-.05-.311.074-.463.065-.503-.028-.11-.474-.19-.725-.061-.193-.22-.182-.372-.256-.17-.082-.204-.18-.324-.315-.231-.26-.49-.043-.762-.218-.17-.109-.346-.308-.479-.457-.09-.1-.173-.229-.313-.272-.141-.043-.305.036-.446-.027-.132-.06-.176-.224-.306-.278-.14-.059-.36-.018-.508-.016-.006.088.052.162.05.26-.11-.03-.173-.114-.262-.141-.143-.045-.356-.032-.506-.017-.152.015-.351.068-.42.225-.082.192.118.423.127.601.008.138-.019.27-.21.24-.15-.025-.2-.238-.235-.374-.097-.387.037-.535.151-.868-.32-.188-.872.008-.994.367-.106.31.02.613.235.842.252.267.65.424.824.753.14.263.147.844-.156 1.016-.46.26-.486-.4-.649-.61-.21-.27-.387-.07-.652-.173-.445-.171-.241-.794-.36-1.122-.118-.33-.348-.594.086-.826.117-.062.243-.137.302-.26.038-.08-.042-.221-.006-.303.101-.232.518-.11.711-.1.417.02.857.01 1.272-.006.25-.01.62-.042.836-.179.226-.144.106-.395.15-.634.068-.362.367-.512.51-.82.132-.287.203-.63.415-.876.271-.314.704-.37 1.046-.568.343-.2.561-.538.96-.65.42-.117 1.042-.223 1.333-.593.344-.436-.464-.349-.712-.339-.183.008-.371.066-.553.04-.279-.038-.52-.167-.814-.173-.241-.005-.418.103-.64.146-.336.064-.717.017-1.062.073-1.165.188-2.285.485-3.425.783-.92.241-1.824.458-2.647.949-.34.203-.672.393-1.072.408-.454.018-.881.047-1.313.188-.46.152-.769.337-1.162.614-.255.18-.47.143-.76.206a1.336 1.336 0 0 0-.609.315c-.103.087-.207.184-.324.253-.098.057-.314.094-.382.187-.097.134-.009.364-.033.516-.046.284-.278.341-.531.47-.373.192-.066.432-.08.775-.014.306-.567.444-.8.54.19.304.774-.048 1.022-.103.2-.044.266.01.445.067.272.086.591.046.873.045.324-.001.331.015.504.264.153.222.364.316.599.425.181.084.333.177.538.201.173.021.351-.016.525 0 .253.023.263.125.402.34.076.118.203.213.224.358-.338.12-.697-.003-1.014-.073-.087-.02-.198-.003-.286-.002-.269 0-.318-.049-.536-.206-.675-.487-1.587-.302-2.365-.448-.25-.047-.555-.317-.815-.29-.126.014-.146.077-.248.138-.156.093-.355.11-.533.087-.349-.044-.572-.196-.814.171-.118.178-.208.339-.448.125-.473.331-1.139-.298-1.65-.264-.226.015-.402.126-.634.057-.363-.108-.636-.364-1.049-.287-.243.046-.495.21-.756.138-.195-.054-.253-.248-.382-.375-.15-.146-.481-.34-.704-.313-.192.023-.177.117-.172.298a.62.62 0 0 1-.492-.062c-.052.05-.055.159-.067.203.062.21-.68.107-.836.144-.165.038-.167.095-.24.239-.168.326-.482.528-.852.393z"/><path class="st33" d="M168.642 82.929c.113.217.703.051.894.044.065.253-.17.54-.391.579-.089.015-.186-.027-.267.02-.074.042-.082.148-.163.191-.182.095-.4-.024-.576-.058-.224-.043-.35-.04-.49.075-.044.036-.07.1-.114.141-.059.054-.182.068-.206.143-.114.365.714.425.888.435-.068.206-.829.128-.65.452.054.098.452.152.562.171.108.02.174.004.272.06.086.05.125.15.233.186.225.077.538-.063.767-.076.279-.017.438-.011.703-.079.3-.076.547.026.789.197.46.324.756.873.865 1.417.075.373.046 1.38.586 1.449.089.437-.197.818-.084 1.259.04.154.1.28.13.441.06.326.031.726.145 1.033.074.2.271.34.426.466.193.156.362.31.522.502.197.237.252.311.548.296.066-.003.238-.064.295-.048.078.023.127.11.207.136.085.028.224.016.318.02.231.008.293.026.396-.135.212-.331-.084-.588-.015-.883.043-.18.214-.17.298-.297.123-.185-.019-.516.204-.643.083-.047.274-.011.377-.046.145-.049.191-.111.297-.2.21-.176.195-.114.472-.115a.645.645 0 0 0 .518-.238c.106-.128.12-.332.213-.463.244-.346.754-.126 1.068-.345.168-.117.314-.254.518-.308.233-.062.416-.105.635-.233.111-.065.205-.14.332-.17.089-.021.225.022.3-.012.186-.087.086-.199.07-.35-.021-.194.008-.397 0-.593-.01-.251-.182-.371-.217-.596-.036-.237.076-.25.271-.307.374-.112.426-.208.46-.59.032-.346.528-.749.205-1.107-.145-.16-.453-.148-.574-.378-.134-.255-.027-.463.126-.654.055-.068.098-.096.138-.179.055-.11.002-.298.057-.391.121-.201.333-.11.48-.19.222-.118.378-.342.635-.453.178-.077.862-.248.738-.488-.053-.101-.46-.089-.58-.093-.41-.017-.796.089-1.202.11-.52.028-.893.387-1.388.477-.26.047-.404-.063-.376-.316.01-.089.125-.096.023-.206-.105-.112-.532-.039-.676-.04-.43 0-.857.05-1.285.044.093-.323 1.388-.286 1.61-.33.355-.07.802-.101 1.1-.278-.197-.2-.569-.026-.809-.113-.186-.067-.1-.063-.203-.185-.12-.14-.1-.14-.3-.148-.267-.009-.533.027-.8.025-.782-.006-1.544-.195-2.332-.072-.432.068-.86.174-1.295.202-.354.023-.704.076-1.023.243-.039.314.419.165.361.47-.184.126-.58.08-.799.048-.076-.01-.143-.072-.227-.051-.23.056-.095.388-.407.415-.352.031-.532-.405-.841-.495-.539-.156-1.22-.014-1.75.062-.06.298.146.309.362.325.216.017.52.18.255.41-.443.383-1.637-.389-1.63.408zM181.44 104.812c.002.435-.032.88.26 1.234.136.165.305.221.472.363.194.165.25.322.368.54.205.382.549.71.94.897.25.12.374.038.612-.012.243-.05.53.023.756-.056.147-.051.225-.185.39-.202.152-.017.251.093.42.05.265-.066.564-.404.864-.42.418-.024.633.61 1.05.692.427.083.903-.207.802.465-.065.43-.322.604-.035 1.03.293.435.845.887.907 1.429.029.25-.028.514.007.763.041.292.192.608.127.915-.282.04-.418.514-.43.754-.023.404.173.665.377.967.44.652.356 1.604.709 2.306.07.141.203.269.253.421.068.203.043.447.118.656.14.39.432.473.83.472.46-.002 1.1.105 1.49-.119.32-.183.71-.376.915-.688.163-.248.394-.623.498-.884.07-.176-.005-.363.055-.53.101-.277.243-.204.482-.265.55-.14.293-.71.216-1.12-.074-.393-.076-.45.282-.634.184-.095.275-.2.427-.31.18-.128.44-.133.583-.312.243-.306.145-.808.128-1.164-.022-.472-.318-.769-.38-1.24-.046-.352-.118-.75.03-1.083.209-.474.707-.505 1.066-.831.146-.132.212-.307.346-.444.113-.117.25-.18.387-.274.82-.56.807-1.542 1.142-2.38-.227-.175-.79.142-1.036.212-.366.104-.7.158-1.082.149-.108-.222.112-.385-.043-.588-.13-.169-.4-.184-.538-.387-.085-.123-.087-.25-.208-.353-.166.033-.046-.288-.09-.403-.053-.144-.206-.253-.33-.331-.316-.2-.338-.226-.302-.601.039-.407-.126-.423-.37-.706-.276-.321-.382-.787-.644-1.09-.002-.383.022-.79-.22-1.1.2.3.35.751.668.932.064.037.157.006.233.055.047.03.155.205.187.256.109.172.203.368.29.544.091.182.247.303.35.474.107.176.106.427.218.622.104.18.242.263.368.42.14.173.18.394.3.578.246.383.282.939.727 1.09.122-.16.204-.257.375-.303.125-.034.297.047.415-.007.138-.063.149-.25.276-.329.176-.109.253.012.438.049.57.111.347-.38.697-.502.196-.068.241.12.426-.06.105-.103.179-.247.29-.352.112-.108.144-.092.252-.282.076-.134.162-.2.26-.309.18-.196.452-.46.226-.72-.197-.227-.504-.126-.68-.428-.255-.442-.209-.438-.584-.076-.854.823-1.533-.54-1.52-1.316.486-.188.66.422.974.686.266.223.397.211.705.094.436-.166.335.064.637.3.243.19.669.125.961.123.426-.001 1.08-.247 1.443-.021.237.147.44.463.604.68.069.091.324.727.45.726.296-.004.013-.565.539-.417.045.403-.03.822.012 1.226.05.48.262.907.424 1.36.042.118.024.298.079.398.076.138.274.151.388.314.115.164.146.703.41.479.063-.053.125-.336.153-.425.087-.272.183-.3.311-.506.231-.37.009-.996.128-1.416.124-.01.248.088.362.071.295-.044.427-.356.553-.577.15-.262.199-.328.454-.449.181-.085.184-.044.377-.213a.84.84 0 0 1 .194-.134c.131-.069.698-.307.855-.29.305.036.487.6.617.812.14.226.474.4.409.679-.043.183-.357.383-.014.5.266.09.378-.188.388-.4.52.45.28 1.406.392 2.002.052.28.268.607.433.83.208.28.388.618.64.87.418.417.862.377.423-.179-.201-.254-.012-.531-.157-.755-.198-.304-.648-.04-.846-.48-.122-.268-.317-.94-.188-1.224.21-.462.698.353.952.47.117.055.298-.032.403.072.121.121.01.373.158.495.056-.17.065-.3.235-.375.202-.09.432.079.613-.093.311-.296.145-1.224-.07-1.495-.23-.288-.745-.475-.66-.943.067-.365.506-.335.776-.424.388-.127.876-.245 1.264-.37.22-.071.438-.144.644-.25.49-.253.761-.606 1.079-1.03.343-.46.407-.917.388-1.476-.01-.32-.077-.48-.36-.644-.336-.192-.677-.35-.15-.563.237-.096.548-.134.21-.264-.104-.04-.223-.003-.34-.054-.138-.058-.212-.19-.372-.194-.097-.291.431-.202.58-.306.181-.125.17-.363.395-.426.06.164-.027.29.135.405.183.129.28-.018.41-.055.504-.144.145.12.333.4.209.313.575-.045.493.428-.036.207-.2.48.046.664.248.183.494-.056.48-.303-.019-.327-.643-.612-.45-1.02.093-.198.149-.047.288-.14.197-.134.198-.41.344-.584.191-.226.67-.522.94-.552.249-.028.574-.034.78-.209.198-.168.297-.605.412-.851.189-.405.458-.713.441-1.17-.01-.289.147-.43.325-.633.105-.121.212-.162.2-.349-.01-.155-.232-.388-.391-.43-.26-.07-.366.206-.554.22-.248.02-.146-.147-.282-.266-.13-.115-.457-.05-.49-.279-.032-.212.215-.227.35-.293.182-.089.265-.14.373-.303.194-.295.248-.707.592-.84.208-.08.421-.023.635-.08.24-.066.392-.306.616-.394.409-.16.812.325 1.264.304.179-.009.371-.222.513-.202.242.033.135.456.47.33.367-.138.168-.794.585-.938.145-.05.366-.003.519-.001.23.003.281-.043.489-.117.028.105.014.24.027.356.317.062.44-.166.602-.394.12-.169.421-.464.384-.027-.021.248-.359.426-.5.594-.093.111-.138.253-.26.337-.145.099-.377.086-.546.161-.256.115-.386.318-.594.5-.29.252-.482.338-.365.77.074.27.335.49.396.757.066.287-.008.638-.06.914.204-.219.176-.614.399-.802.189-.158.433-.011.645-.149.063-.041.373-.366.413-.439.12-.218-.127-.682.264-.69.003-.194.033-.356.021-.544-.014-.23-.084-.375.12-.534.34-.266.944-.123 1.289-.409.304.115.337.478.557.168.143-.2.127-.344.41-.442.297-.104.448-.192.722-.392.167-.121.16-.154.396-.119.154.023.28.159.454.055.238-.141.074-.209.006-.36-.007-.018-.037-.186-.04-.188-.066-.076-.176-.1-.22-.144a.574.574 0 0 1-.18-.5c.117.246.443.359.69.338.023-.155-.024-.62.23-.626.131-.003.147.196.227.253.148.106.141.057.32.057.14 0 .148-.054.304.017.107.048.132.13.268.173.102.033.219.004.318.035.166.053.178.187.377.161.035-.114.023-.245.016-.37.356-.103.655-.236.192-.485-.17-.092-.59-.373-.766-.337-.01.3-.476-.222-.645-.325-.558-.337-1.185-.698-1.809-.877-.336-.096-1.68-.38-1.637.172.016.192.283.15-.02.311-.184.097-.605-.049-.295-.22-.03-.332-.377-.127-.523-.103-.214.035-.468.006-.687.007-.24 0-1.442.167-1.176-.356.03-.06.01-.172-.004-.245-.572-.093-.972-.248-1.537-.044-.23.083-.358.111-.56-.035-.062-.045-.033-.148-.107-.19-.074-.044-.201.038-.277-.019-.063-.047.01-.19-.047-.254-.116-.13-.347-.09-.498-.089a2.564 2.564 0 0 1-.82-.122c-.234-.068-.924-.096-1.13.046-.077.053-.049.199-.126.265-.102.088-.19.058-.31.072-.146.017-.267.065-.392.084-.173.026-.367.003-.542.004-.133 0-.29.028-.418.003-.095-.018-.17-.152-.297-.115-.227.066-.065.398-.375.425-.284.024-.256-.26-.252-.475.008-.539-.323-.684-.857-.771-.233-.038-.71-.16-.851.069-.077.125.154.152-.053.282-.106.067-.379.006-.495-.007-.226-.027-.47 0-.685-.03-.384-.054-.072-.19-.135-.435-.451-.069-.618.124-.996.224-.412.11-.234-.158-.464-.3-.183-.115-.613.06-.78.11-.41.124-.922.204-1.23.527-.396-.253.532-.504.688-.55.376-.109.767-.232 1.094-.457.27-.185.734-.478.692-.838-.173-.076-.136-.343-.382-.416-.195-.058-.467.02-.657.059-.275.055-.5.115-.752-.063-.265-.186-.352-.369-.71-.346-.478.03-.673.477-1.147.56-.2.034-.358.006-.55.002-.322-.006-.307.164-.598.27-.322.118-.645.008-.97.074-.406.082-.7.337-1.093.414-.071.4.554.332.438.777-.228.04-.434-.104-.67-.104-.38 0-.773.057-1.154.089-1.022.085.23.548.134.905-.38.06-.334-.273-.577-.326-.224-.048-.333.232-.642.01-.213.097-.027.505-.102.697-.343-.135-.352-1.05-.701-.973.026.251-.12.411-.198.628-.088.244-.06.303.08.571.038.07.068.119.094.192.1.279.136.27.318.5.313.397-.13 1.113-.538 1.328-.32.168-.697.092-1.008-.042.562-.162.917-.476.79-1.133-.063-.332-.329-.558-.278-.92.045-.322.232-.562.186-.907-.047-.35-.249-.603-.53-.262-.189.227-.238.477-.519.661-.238.156-.338.154-.282.517.04.264.205.478.17.763-.414.13-.58-.172-.875-.398-.292-.224-.582-.175-.949-.178-.004.173-.11.303-.09.474-.287.146-.435-.008-.731 0-.29.009-.165.03-.387.292-.316.37-.602.505-1.075.496-.26-.006-.65-.154-.905-.106-.242.047-.33.237-.5.376-.165.135-.325.23-.55.24-.21.008-.46-.133-.674-.058-.376.13-.502.657-.888.817-.316.13-.648.103-.874-.117-.126-.122-.34-.376-.293-.567.347-.061.712.163 1.066.055.27-.084.511-.443.379-.726-.105-.222-.571-.5-.785-.586-.353-.142-.738.011-1.038-.243-.13-.11-.219-.293-.378-.366-.237-.108-.404.062-.616.107-.32.067-.625-.153-.934.013-.07.037-.118.147-.2.196-.13.075-.224.068-.362.081-.292.029-.456-.007-.708.167-.301.21-.31.241-.673.276-.453.043-.388.272-.68.515-.162.134-.295.133-.362.366-.058.203.077.466-.027.651-.1.177-.2.098-.326.181-.223.149-.148.379-.334.544-.134.12-.705.173-.91.148-.094.47-.577.911-.3 1.394.324.564.965.091 1.422.161.184.49-.284.447-.458.795-.166.334.126.841-.161 1.119-.105.101-.26.088-.383.159-.16.092-.174.227-.311.33-.295.223-.669.16-.849.551-.214.466-.742.272-.973.518-.142.151.07.237-.276.266-.235.02-.436-.124-.656-.102-.084.349.206.492.412.68.271.245.212.355.276.674.033.162.203.292.173.461-.04.22-.329.182-.554.15a19.294 19.294 0 0 0-1.411-.156c-.029.295-.007.6.024.888.013.123.062.24.003.359-.045.09-.192.08-.203.175-.042.365 1.274.238.97.962-.075.176-.332.245-.452.37-.251.265-.186.538-.277.868-.116.419-.338.26-.67.408-.43.19-.363.818-.63 1.11 0 .223.107.428-.095.567-.182.125-.466-.01-.661.045-.377.105-.33.494-.374.818-.027.197-.088.571.027.754.098.157.419.179.42.402zM227.686 116.56a1.68 1.68 0 0 1-.463 1.055c-.174.214-.27.41-.328.683-.076.293-.192.605-.503.664-.195.021-.235-.076-.41.041-.116.099-.096.274-.27.256-.06-.078-.08-.195-.158-.254-.058.117.001.254-.076.37-.174.294-.467.159-.701.082-.332-.135-.508-.192-.645-.503-.138-.273-.042-.643-.374-.798-.117-.057-.097.079-.195-.057-.079-.137.076-.312-.08-.429-.155.138-.31.45-.564.276-.254-.175-.177-.467-.528-.583-.196-.057-.37.04-.565.062-.234.04-.487.002-.721.003-.312.001-.545.021-.837.16-.311.176-.544.411-.914.374-.195-.02-.41-.097-.585-.018s-.252.274-.407.333c-.409.139-.644-.152-.626-.484.292-.02.134-.507.133-.702-.04-.33-.119-.525-.296-.817-.196-.33-.275-.525-.257-.915 0-.155.251-.517.095-.642-.081-.065-.223.328-.31.273-.12-.075.036-.428.153-.507.116-.078.506-.002.643-.002.584-.023.895-.218.95-.843.41-.099.878.23.934-.374.019-.175-.04-.37.076-.506.135-.157.506-.159.7-.081.255.095.743.307.877-.082.116-.274-.022-.585.25-.8a.414.414 0 0 1 .467-.042c.254.096.41.155.683.153.292-.02.584-.002.41.33-.154.273-.193.351.062.603.313.291.644.427 1.073.366.779-.1.208-1.306.342-1.833.253-.06.451.66.55.855.196.369.314.68.452 1.069.119.311.335.68.589.894.254.213.625.328.879.541.528.446.531 1.186.495 1.83zM181.69 89.034c-.005.038 0 .077-.003.115.16.064.541-.18.635-.04.155.233-.288.117-.28.279.004.086.126.081.169.158.048.088 0 .198.01.287.014.152.142.161.294.128s.2-.058.348-.027c.363.075.632-.081.99-.118.206-.021.243-.026.367-.17.079-.092.268-.104.321-.197.077-.136-.038-.278-.133-.35-.135-.101-.096-.155-.153-.31-.074-.206-.215-.278-.435-.255-.239.025-.272.296-.532.318-.161.014-.282-.053-.441-.008-.07.019-.134.06-.21.063-.134.003-.237-.068-.36-.104-.146-.044-.63-.059-.587.231z"/><path class="st33" d="M199.206 113.458c.428.41-.248 1.116-.12 1.645.066.272.353.714.688.729.334.015.365-.224.482-.477.247-.534.509-1.125.705-1.687.161-.465.339-1.17.16-1.68-.69-.08-.628.425-.978.816-.26.29-.851.168-.937.654z"/><path class="st50" d="m159.396 76.883.043 9.632a1.245 1.245 0 0 1-1.254 1.246l-15.54.07a1.246 1.246 0 0 1-1.264-1.236l-.043-9.631a1.245 1.245 0 0 1 1.254-1.247l15.54-.069a1.245 1.245 0 0 1 1.264 1.235z"/><path class="st79" d="M142.64 87.33a.744.744 0 0 1-.76-.738l-.042-9.63a.727.727 0 0 1 .212-.52.762.762 0 0 1 .544-.225l15.54-.07c.427 0 .76.325.762.738l.043 9.632a.728.728 0 0 1-.215.523.766.766 0 0 1-.54.22l-15.544.07z"/><path transform="rotate(-.255 150.372 78.043)" class="st50" d="M141.348 77.813h18.051v.463h-18.051z"/><path transform="rotate(-.255 150.406 81.91)" class="st50" d="M141.382 81.678h18.051v.463h-18.051z"/><path transform="rotate(-.255 150.405 85.431)" class="st50" d="M141.381 85.201h18.051v.463h-18.051z"/><path transform="rotate(-.255 154.45 76.843)" class="st50" d="M154.221 75.661h.463v2.365h-.463z"/><path transform="rotate(-.255 146.282 76.88)" class="st50" d="M146.053 75.697h.463v2.365h-.463z"/><path transform="rotate(-.255 154.494 86.596)" class="st50" d="M154.264 85.414h.463v2.365h-.463z"/><path transform="rotate(-.255 146.326 86.632)" class="st50" d="M146.096 85.45h.463v2.365h-.463z"/><path class="st79" d="M153.584 81.725c.009 2.037-1.41 3.691-3.17 3.7-1.778.007-3.211-1.634-3.22-3.672-.01-2.037 1.41-3.692 3.187-3.7 1.76-.008 3.193 1.634 3.203 3.672z"/><path class="st50" d="M150.407 85.675c-1.893.008-3.442-1.75-3.452-3.922s1.524-3.943 3.417-3.952 3.443 1.751 3.453 3.922-1.524 3.943-3.418 3.952zm-.032-7.388c-1.626.007-2.944 1.561-2.935 3.464s1.34 3.446 2.965 3.439c1.626-.008 2.943-1.562 2.935-3.465s-1.34-3.446-2.965-3.438z"/><path class="st24" d="M145.43 118.513c-.28-.389-.418-.912-.418-1.573 0-.66.139-1.183.417-1.571.279-.388.68-.582 1.21-.582.524 0 .925.194 1.205.582.28.388.42.912.42 1.571 0 .66-.14 1.184-.42 1.573s-.681.582-1.206.582c-.528 0-.93-.194-1.209-.582zm2.009-.36c.187-.292.28-.696.28-1.213 0-.511-.093-.913-.28-1.205-.186-.292-.453-.438-.8-.438s-.616.146-.802.438c-.186.292-.279.694-.279 1.205 0 .517.093.92.28 1.213.185.292.453.438.8.438s.615-.146.801-.438zM149.404 118.963a.246.246 0 0 1-.071-.18c0-.073.023-.133.07-.183a.242.242 0 0 1 .181-.075h.714v-3.042l-.612.3a.369.369 0 0 1-.138.036.255.255 0 0 1-.186-.072.251.251 0 0 1-.071-.186c0-.112.051-.194.155-.247l.816-.425a.375.375 0 0 1 .168-.042h.126c.08 0 .149.027.204.084s.084.124.084.204v3.39h.594c.072 0 .133.025.184.075.05.05.074.11.074.183a.24.24 0 0 1-.074.18.257.257 0 0 1-.184.072h-1.854a.247.247 0 0 1-.18-.072zM152.77 118.948a.3.3 0 0 1-.09-.225c0-.208.062-.4.184-.577.12-.175.27-.33.443-.464.174-.134.403-.293.688-.477.243-.156.437-.289.582-.396a1.78 1.78 0 0 0 .36-.354.665.665 0 0 0 .144-.408.69.69 0 0 0-.226-.543c-.15-.134-.39-.201-.723-.201-.36 0-.702.071-1.026.216a.256.256 0 0 1-.113.03.22.22 0 0 1-.162-.066.23.23 0 0 1-.067-.169c0-.1.044-.173.132-.221a2.938 2.938 0 0 1 1.332-.306c.256 0 .49.05.7.152.21.102.375.246.497.43s.183.396.183.636c0 .236-.068.455-.207.657a2.41 2.41 0 0 1-.494.53c-.193.153-.443.328-.75.529-.28.188-.491.339-.634.453-.142.114-.24.23-.297.35h2.088c.072 0 .133.026.184.076.05.05.075.11.075.183a.241.241 0 0 1-.075.18.257.257 0 0 1-.184.072h-2.315a.315.315 0 0 1-.229-.087zM156.568 118.854a.267.267 0 0 1-.114-.086.236.236 0 0 1-.042-.142c0-.067.023-.127.069-.176s.103-.076.17-.076c.037 0 .075.009.115.024.288.117.606.175.954.175.312 0 .574-.052.79-.154a.526.526 0 0 0 .32-.512c0-.504-.442-.756-1.327-.756h-.095c-.069 0-.127-.026-.177-.075s-.075-.11-.075-.178c0-.067.025-.126.075-.176a.242.242 0 0 1 .177-.076h.036c.4 0 .706-.06.918-.182s.318-.303.318-.543a.528.528 0 0 0-.24-.456c-.16-.112-.397-.168-.708-.168-.336 0-.647.066-.93.198a.293.293 0 0 1-.108.024.22.22 0 0 1-.222-.222c0-.092.04-.16.12-.204.384-.204.78-.306 1.188-.306.46 0 .816.094 1.068.282s.378.453.378.798c0 .276-.07.493-.207.65a1.236 1.236 0 0 1-.52.352c.229.052.432.16.61.327s.267.413.267.74c0 .369-.145.654-.435.855-.29.203-.663.304-1.12.304a3.28 3.28 0 0 1-1.253-.24zM168.445 118.987a.266.266 0 0 1-.077-.193v-.816h-1.83a.339.339 0 0 1-.246-.098.329.329 0 0 1-.103-.243v-.055c0-.083.024-.155.072-.215l1.885-2.407a.33.33 0 0 1 .129-.105.39.39 0 0 1 .17-.038h.12c.104 0 .188.033.253.098.063.066.096.15.096.25v2.328h.456c.067 0 .126.024.173.071.048.049.073.107.073.175s-.025.125-.073.17-.106.07-.173.07h-.456v.815a.271.271 0 0 1-.275.27.266.266 0 0 1-.194-.077zm-1.674-1.494h1.597v-2.058l-1.597 2.058zM170.312 118.747a.32.32 0 0 1-.09-.087.226.226 0 0 1-.031-.13c0-.072.022-.132.066-.182a.222.222 0 0 1 .174-.076c.045 0 .086.01.127.03.316.169.636.253.96.253.38 0 .669-.064.87-.192.2-.128.299-.346.299-.655 0-.247-.082-.443-.248-.587s-.394-.216-.682-.216c-.332 0-.64.086-.923.258a1.603 1.603 0 0 0-.069.039.284.284 0 0 1-.141.033c-.113 0-.207-.032-.283-.096s-.113-.148-.113-.252c0-.048.004-.097.012-.144l.27-1.597a.345.345 0 0 1 .105-.218.3.3 0 0 1 .213-.081h1.925a.25.25 0 0 1 .184.075c.05.05.074.11.074.182a.239.239 0 0 1-.074.18.257.257 0 0 1-.184.072h-1.74l-.191 1.273a2.098 2.098 0 0 1 1.013-.246c.296 0 .55.058.76.174.21.116.368.275.477.48.107.204.162.438.162.702 0 .404-.139.73-.414.98-.277.25-.686.376-1.23.376-.489 0-.915-.117-1.278-.348zM173.93 116.947c0-.348.057-.686.171-1.014.113-.329.3-.601.56-.82.26-.218.596-.326 1.008-.326.225 0 .42.024.588.072.168.048.327.11.475.185.035.02.066.05.09.09a.241.241 0 0 1-.033.298.23.23 0 0 1-.177.075.298.298 0 0 1-.103-.018 1.855 1.855 0 0 0-.797-.175c-.453 0-.771.159-.955.475s-.285.67-.305 1.062c.12-.152.28-.278.48-.378.2-.1.45-.15.75-.15.272 0 .51.058.717.174.206.116.366.28.483.492.116.212.174.46.174.744 0 .252-.06.482-.18.69s-.292.371-.516.492c-.224.12-.486.18-.786.18-1.096 0-1.645-.716-1.645-2.148zm2.139 1.52a.833.833 0 0 0 .44-.746c0-.272-.076-.49-.227-.654-.153-.164-.374-.246-.666-.246-.52 0-.898.22-1.134.66.107.736.474 1.103 1.098 1.103a.999.999 0 0 0 .489-.116zM178.53 118.987a.263.263 0 0 1-.077-.193c0-.047.012-.095.037-.143l1.65-3.282h-2.179a.245.245 0 0 1-.182-.076.246.246 0 0 1-.076-.182c0-.072.025-.134.076-.186a.24.24 0 0 1 .182-.078h2.449c.095 0 .175.03.24.09.063.06.096.136.096.228 0 .088-.02.176-.06.264l-1.704 3.486a.287.287 0 0 1-.11.107.286.286 0 0 1-.149.042.265.265 0 0 1-.192-.077zM191.107 119.022a2.555 2.555 0 0 1-.474-.186.233.233 0 0 1-.09-.09.242.242 0 0 1 .033-.297.23.23 0 0 1 .177-.075c.037 0 .07.007.102.019.248.116.515.174.798.174.452 0 .77-.158.954-.474.185-.316.286-.67.307-1.062-.12.152-.28.278-.48.378s-.451.15-.75.15a1.44 1.44 0 0 1-.718-.174c-.206-.116-.367-.28-.483-.492s-.174-.46-.174-.745c0-.252.06-.482.18-.69.12-.208.292-.372.516-.491.224-.12.487-.18.787-.18 1.095 0 1.643.716 1.643 2.148 0 .348-.057.686-.17 1.014s-.302.6-.561.819c-.261.218-.597.327-1.01.327-.223 0-.42-.024-.587-.073zm1.776-2.621c-.108-.736-.473-1.104-1.097-1.104a.996.996 0 0 0-.49.117.827.827 0 0 0-.327.314.851.851 0 0 0-.114.433c0 .272.076.49.229.653.15.164.374.247.666.247.52 0 .897-.22 1.133-.66zM194.671 118.963a.246.246 0 0 1-.072-.18c0-.073.025-.133.072-.183a.24.24 0 0 1 .18-.075h.714v-3.042l-.611.3a.377.377 0 0 1-.139.036c-.075 0-.138-.025-.186-.072s-.072-.11-.072-.186c0-.112.052-.194.156-.247l.817-.425a.372.372 0 0 1 .168-.042h.126c.079 0 .147.027.203.084a.276.276 0 0 1 .084.204v3.39h.595a.25.25 0 0 1 .182.075c.05.05.075.11.075.183a.241.241 0 0 1-.075.18.255.255 0 0 1-.182.072h-1.855a.245.245 0 0 1-.18-.072zM198.232 118.513c-.277-.389-.417-.912-.417-1.573 0-.66.14-1.183.417-1.571.278-.388.682-.582 1.209-.582.524 0 .927.194 1.206.582.28.388.42.912.42 1.571 0 .66-.14 1.184-.42 1.573-.28.388-.682.582-1.206.582-.527 0-.93-.194-1.21-.582zm2.01-.36c.186-.292.279-.696.279-1.213 0-.511-.093-.913-.278-1.205a.896.896 0 0 0-.802-.438.895.895 0 0 0-.8.438c-.186.292-.28.694-.28 1.205 0 .517.094.92.28 1.213a.895.895 0 0 0 .8.438.896.896 0 0 0 .802-.438zM202.207 118.963a.246.246 0 0 1-.072-.18c0-.073.024-.133.072-.183a.242.242 0 0 1 .18-.075h.714v-3.042l-.612.3a.369.369 0 0 1-.138.036.255.255 0 0 1-.186-.072.251.251 0 0 1-.072-.186c0-.112.052-.194.156-.247l.816-.425a.375.375 0 0 1 .168-.042h.126c.08 0 .148.027.204.084s.084.124.084.204v3.39h.594c.072 0 .133.025.183.075.05.05.075.11.075.183a.24.24 0 0 1-.075.18.257.257 0 0 1-.183.072h-1.854a.247.247 0 0 1-.18-.072zM213.001 118.948a.297.297 0 0 1-.09-.225c0-.208.061-.4.183-.577.122-.175.27-.33.445-.464.173-.134.402-.293.686-.477.244-.156.439-.289.582-.396.145-.108.264-.227.36-.354a.67.67 0 0 0 .144-.408.693.693 0 0 0-.225-.543c-.15-.134-.391-.201-.723-.201-.36 0-.701.071-1.026.216a.256.256 0 0 1-.114.03.221.221 0 0 1-.162-.066.229.229 0 0 1-.065-.169c0-.1.044-.173.131-.221a2.935 2.935 0 0 1 1.332-.306c.256 0 .489.05.7.152.21.102.375.246.497.43s.183.396.183.636c0 .236-.069.455-.207.657a2.39 2.39 0 0 1-.495.53c-.192.153-.442.328-.75.529a9.5 9.5 0 0 0-.633.453 1.006 1.006 0 0 0-.296.35h2.087c.073 0 .133.026.183.076.05.05.075.11.075.183a.241.241 0 0 1-.075.18.253.253 0 0 1-.183.072h-2.316a.313.313 0 0 1-.228-.087zM217.171 118.963a.246.246 0 0 1-.072-.18c0-.073.025-.133.072-.183a.24.24 0 0 1 .18-.075h.714v-3.042l-.611.3a.377.377 0 0 1-.139.036c-.075 0-.138-.025-.186-.072s-.072-.11-.072-.186c0-.112.052-.194.156-.247l.817-.425a.372.372 0 0 1 .168-.042h.126c.079 0 .147.027.203.084a.276.276 0 0 1 .084.204v3.39h.595a.25.25 0 0 1 .182.075c.05.05.075.11.075.183a.241.241 0 0 1-.075.18.255.255 0 0 1-.182.072h-1.855a.245.245 0 0 1-.18-.072zM220.567 118.854a.258.258 0 0 1-.113-.086.23.23 0 0 1-.042-.142c0-.067.022-.127.068-.176s.104-.076.172-.076c.035 0 .073.009.113.024.288.117.607.175.954.175.313 0 .575-.052.79-.154a.527.527 0 0 0 .32-.512c0-.504-.442-.756-1.326-.756h-.095a.245.245 0 0 1-.178-.075.242.242 0 0 1-.074-.178c0-.067.024-.126.074-.176.05-.05.11-.076.178-.076h.036c.4 0 .705-.06.918-.182a.59.59 0 0 0 .317-.543.528.528 0 0 0-.24-.456c-.16-.112-.396-.168-.708-.168a2.18 2.18 0 0 0-.93.198.293.293 0 0 1-.107.024c-.06 0-.112-.021-.156-.063s-.067-.095-.067-.16c0-.091.04-.16.12-.203.384-.204.78-.306 1.189-.306.46 0 .815.094 1.067.282s.378.453.378.798c0 .276-.068.493-.207.65-.138.159-.31.276-.518.352.227.052.43.16.608.327.179.166.268.413.268.74 0 .369-.146.654-.436.855-.29.203-.662.304-1.118.304-.445 0-.863-.08-1.255-.24zM226.231 118.987a.263.263 0 0 1-.078-.193v-.816h-1.83a.342.342 0 0 1-.348-.341v-.055a.33.33 0 0 1 .072-.215l1.884-2.407a.344.344 0 0 1 .13-.105.39.39 0 0 1 .17-.038h.12c.104 0 .188.033.252.098.064.066.096.15.096.25v2.328h.456c.068 0 .126.024.174.071.047.049.072.107.072.175s-.025.125-.072.17-.106.07-.174.07h-.456v.815a.271.271 0 0 1-.275.27.262.262 0 0 1-.193-.077zm-1.674-1.494h1.596v-2.058l-1.596 2.058zM197.434 79.527a2.275 2.275 0 0 1-.897-.92c-.216-.397-.32-.86-.315-1.388.006-.528.122-.988.348-1.38.225-.392.531-.692.919-.898a2.674 2.674 0 0 1 1.308-.3c.33.004.623.045.881.127.259.08.516.194.77.342.107.06.159.153.158.279a.28.28 0 0 1-.294.273.287.287 0 0 1-.13-.031 3.359 3.359 0 0 0-.623-.262 2.563 2.563 0 0 0-.704-.095c-.417-.005-.772.077-1.067.245s-.519.4-.67.697c-.152.296-.229.633-.234 1.011s.065.717.21 1.017c.144.3.362.537.653.713.29.175.644.266 1.061.27.267.003.502-.023.706-.079s.414-.137.628-.247a.292.292 0 0 1 .131-.027.286.286 0 0 1 .21.082c.053.055.079.12.078.197a.292.292 0 0 1-.163.275 3.755 3.755 0 0 1-.778.325c-.26.074-.555.11-.885.106a2.672 2.672 0 0 1-1.3-.332zM201.462 79.76a.315.315 0 0 1-.091-.233l.037-3.118a.33.33 0 0 1 .33-.33.32.32 0 0 1 .235.1.32.32 0 0 1 .096.237l-.004.313c.343-.452.727-.674 1.148-.67l.037.001a.305.305 0 0 1 .227.097c.06.064.089.142.088.234a.291.291 0 0 1-.097.224.338.338 0 0 1-.24.084h-.037c-.232-.003-.446.052-.642.163s-.358.266-.49.463l-.027 2.21a.33.33 0 0 1-.338.323.314.314 0 0 1-.232-.098zM204.317 79.42c-.328-.34-.488-.816-.48-1.427.003-.344.07-.66.2-.95.13-.29.326-.522.59-.698.263-.176.586-.262.97-.257.358.004.667.091.927.262s.455.395.588.675.196.585.192.915a.321.321 0 0 1-.094.231.324.324 0 0 1-.244.092l-2.464-.03c.036.34.159.606.369.797.21.192.507.29.89.295.204.002.382-.015.534-.052.155-.037.304-.091.45-.162a.292.292 0 0 1 .131-.028.289.289 0 0 1 .203.082.265.265 0 0 1 .085.205c-.001.107-.066.195-.193.267a2.6 2.6 0 0 1-.562.233c-.184.05-.423.075-.713.071-.592-.006-1.051-.18-1.38-.521zm2.335-1.699a1.158 1.158 0 0 0-.177-.597 1.007 1.007 0 0 0-.4-.358c-.158-.077-.32-.117-.486-.119s-.327.034-.488.107c-.16.074-.295.19-.403.348s-.172.356-.19.594l2.144.025zM208.834 79.75a1.74 1.74 0 0 1-.646-.676 2.046 2.046 0 0 1-.238-1.032c.004-.392.092-.734.262-1.025a1.73 1.73 0 0 1 1.519-.88c.475.006.888.195 1.236.567l.022-1.78a.33.33 0 0 1 .338-.33c.091 0 .17.034.231.1a.327.327 0 0 1 .092.237l-.056 4.717a.314.314 0 0 1-.097.232c-.064.062-.142.092-.234.091a.327.327 0 0 1-.33-.33l.002-.19c-.358.364-.775.544-1.25.538a1.706 1.706 0 0 1-.85-.239zm1.584-.52c.198-.096.372-.226.524-.39l.018-1.525c-.148-.167-.319-.3-.514-.403a1.373 1.373 0 0 0-.627-.156c-.359-.005-.649.106-.87.331-.22.225-.333.546-.338.963-.005.417.1.74.315.97.216.23.503.348.862.353.222.002.432-.045.63-.142zM212.844 75.382a.361.361 0 0 1-.106-.263v-.03a.365.365 0 0 1 .112-.26.36.36 0 0 1 .264-.106h.044c.101.002.187.04.26.113s.107.161.105.263v.029a.357.357 0 0 1-.111.26.36.36 0 0 1-.264.106h-.044a.355.355 0 0 1-.26-.112zm-.01 4.513a.315.315 0 0 1-.091-.233l.037-3.118a.33.33 0 0 1 .33-.33.323.323 0 0 1 .33.338l-.036 3.118a.33.33 0 0 1-.338.323.314.314 0 0 1-.232-.098zM214.777 79.09l.026-2.253-.515-.006a.132.132 0 0 1-.098-.041.134.134 0 0 1-.04-.1.153.153 0 0 1 .068-.122l1-.955c.044-.043.085-.064.124-.064s.072.016.099.045c.025.03.038.064.037.102l-.007.582.82.01a.275.275 0 0 1 .282.286.282.282 0 0 1-.288.28l-.82-.01-.026 2.196c-.003.188.041.31.13.36a.68.68 0 0 0 .337.081c.096.001.195-.012.292-.04l.06-.014a.446.446 0 0 1 .084-.006c.068 0 .128.027.181.078s.08.114.078.187c0 .111-.058.195-.17.252-.19.085-.391.126-.604.124-.708-.008-1.058-.333-1.05-.972zM220.28 79.798a2.275 2.275 0 0 1-.897-.919c-.216-.397-.32-.86-.314-1.388.006-.528.122-.988.348-1.38.225-.393.53-.692.918-.899a2.674 2.674 0 0 1 1.31-.3c.33.004.622.046.88.127.259.08.516.195.77.343.107.06.159.152.158.278a.28.28 0 0 1-.294.273.287.287 0 0 1-.131-.03c-.212-.114-.42-.202-.622-.262s-.438-.093-.704-.096c-.417-.005-.773.077-1.068.245s-.518.401-.67.698c-.151.296-.228.633-.233 1.01s.064.717.21 1.018c.143.299.361.537.652.712.291.176.645.266 1.062.271.266.003.502-.023.706-.08s.414-.137.628-.246a.292.292 0 0 1 .13-.028.286.286 0 0 1 .21.083c.053.054.08.12.079.197a.292.292 0 0 1-.163.274 3.726 3.726 0 0 1-.779.325c-.26.075-.554.11-.884.106a2.672 2.672 0 0 1-1.301-.332zM224.618 80.036a1.034 1.034 0 0 1-.429-.388 1.055 1.055 0 0 1-.152-.58c.004-.358.148-.641.435-.851.286-.21.702-.312 1.25-.305l.88.01.001-.058c.003-.32-.073-.55-.228-.693-.157-.143-.4-.216-.736-.22-.183-.002-.348.01-.491.038s-.303.069-.478.125a.398.398 0 0 1-.094.013.258.258 0 0 1-.189-.082.27.27 0 0 1-.077-.197c.001-.131.066-.222.192-.274.415-.17.834-.252 1.26-.246.335.004.616.075.845.213.228.139.396.316.502.533.107.217.16.451.156.703l-.024 2.057a.309.309 0 0 1-.102.231.324.324 0 0 1-.236.092.32.32 0 0 1-.323-.33l.002-.19c-.365.364-.822.543-1.374.536a1.347 1.347 0 0 1-.59-.137zm1.464-.59c.2-.102.369-.23.506-.383l.007-.61-.793-.01c-.731-.009-1.098.179-1.103.56a.542.542 0 0 0 .173.425c.117.108.314.164.59.167.213.002.42-.047.62-.15zM228.445 80.081a.316.316 0 0 1-.092-.233l.037-3.119a.33.33 0 0 1 .566-.23.321.321 0 0 1 .095.238l-.004.313c.344-.452.728-.675 1.149-.67h.036a.306.306 0 0 1 .227.098c.06.063.09.141.088.233a.293.293 0 0 1-.096.225.343.343 0 0 1-.242.084h-.035a1.237 1.237 0 0 0-.641.163c-.196.111-.36.266-.492.463l-.027 2.21a.308.308 0 0 1-.1.23.328.328 0 0 1-.238.092.318.318 0 0 1-.231-.097zM231.705 80.021a1.738 1.738 0 0 1-.647-.676 2.046 2.046 0 0 1-.238-1.032c.004-.392.093-.733.263-1.025.17-.291.39-.511.662-.66.27-.15.556-.223.856-.22.475.007.888.195 1.236.568l.022-1.781a.328.328 0 0 1 .338-.33.327.327 0 0 1 .323.338l-.056 4.717a.313.313 0 0 1-.097.231.313.313 0 0 1-.234.092.33.33 0 0 1-.33-.33l.002-.19c-.358.364-.775.544-1.25.538a1.696 1.696 0 0 1-.85-.24zm1.584-.518a1.8 1.8 0 0 0 .523-.39l.019-1.527c-.149-.166-.32-.3-.515-.402a1.38 1.38 0 0 0-.627-.157c-.358-.004-.648.107-.87.332-.22.225-.333.546-.338.962-.005.417.1.741.315.971.216.23.503.348.862.352.222.003.432-.044.63-.141z"/><circle cx="158.993" cy="228.815" r="13.455" style="fill:#71c687"/><path class="st24" d="M156.128 234.968c-.376 0-.753-.144-1.04-.431l-3.634-3.633a1.472 1.472 0 1 1 2.082-2.082l2.592 2.592 8.322-8.321a1.472 1.472 0 1 1 2.081 2.081l-9.362 9.363a1.467 1.467 0 0 1-1.04.43z"/><circle class="st34" cx="241.801" cy="235.18" r="6.679"/></g></svg>