<svg xmlns="http://www.w3.org/2000/svg" viewBox="0 0 92.26 55.12"><path fill="#f0f8ff" d="m84.91,33.36c0,8.32-3.04,15.93-8.08,21.76H26.29c-5.04-5.83-8.08-13.44-8.08-21.76C18.21,14.94,33.14,0,51.56,0s33.35,14.94,33.35,33.36Z"/><path fill="#66e2b2" d="m12.38,54.83S-3.87,37.97,4.63,33.93c0,0,4.75-.92,7.75,9.65,0,0-7.75-16.52-1.75-17.47,0,0,5.75-4.46,7.25,14.79,0,0-.75-11.82,4.5-12.53,0,0,11.75-3.52,1,26.76l-11-.29Z"/><path fill="#2cce8c" d="m14.53,54.98s-7.84-8.13-3.74-10.08c0,0,2.29-.45,3.74,4.65,0,0-3.74-7.96-.84-8.43,0,0,2.77-2.15,3.5,7.13,0,0-.36-5.7,2.17-6.04,0,0,5.67-1.7.48,12.9l-5.31-.14Z"/><rect width="50.11" height="34.97" x="24.17" y="17.17" fill="#3881f9" rx="5.04" ry="5.04"/><line x1="46.13" x2="35.6" y1="52.2" y2="52.2" fill="none" stroke="#181818" stroke-linecap="round" stroke-miterlimit="10" stroke-width=".5"/><path fill="none" stroke="#181818" stroke-linecap="round" stroke-miterlimit="10" stroke-width=".5" d="m74.28,31.66v15.43c0,2.77-2.27,5.04-5.04,5.04"/><path fill="none" stroke="#181818" stroke-linecap="round" stroke-miterlimit="10" stroke-width=".5" d="m24.17,22.21c0-2.77,2.27-5.04,5.04-5.04h28.93"/><rect width="50.11" height="6.33" x="24.17" y="23.75" fill="#181818"/><path fill="#c9e0fc" d="m67.47,33.12H31.1c-.4,0-.73-.33-.73-.73h0c0-.4.33-.73.73-.73h36.38c.4,0,.73.33.73.73h0c0,.4-.33.73-.73.73Z"/><g><rect width="1.19" height="2.47" x="18.07" y="45.84" fill="#ffc91d"/><path fill="#f4a517" d="m10.41,51.55v2.42h.04c.38.64,3.98,1.15,8.37,1.15s7.98-.51,8.37-1.15h.04v-2.42H10.41Z"/><path fill="#ffc91d" d="m13.47,51.62v3.21c.85.11,1.84.19,2.92.23v-3.44h-2.92Z"/><path fill="#ffc91d" d="m16.94,52.2v2.89c.24,0,.48.02.72.02v-2.91h-.72Z"/><path fill="#ffc91d" d="m27.21,51.55c0,.6-3.76,1.09-8.4,1.09s-8.4-.49-8.4-1.09,3.76-1.09,8.4-1.09,8.4.49,8.4,1.09Z"/><path fill="#f4a517" d="m25.18,51.61c0,.46-2.85.83-6.36.83s-6.36-.37-6.36-.83,2.85-.83,6.36-.83,6.36.37,6.36.83Z"/><path fill="#ffc91d" d="m24.54,51.69c0,.41-2.56.74-5.73.74s-5.73-.33-5.73-.74,2.56-.75,5.73-.75,5.73.34,5.73.75Z"/><path fill="#f4a517" d="m13,48.39v2.42h.04c.39.65,3.98,1.15,8.36,1.15s7.98-.51,8.37-1.15h.04v-2.42H13Z"/><path fill="#ffc91d" d="m16.06,48.46v3.21c.85.1,1.84.19,2.92.23v-3.44h-2.92Z"/><path fill="#ffc91d" d="m19.53,49.04v2.89c.24,0,.48.02.72.02v-2.91h-.72Z"/><path fill="#ffc91d" d="m29.8,48.39c0,.6-3.76,1.09-8.4,1.09s-8.4-.49-8.4-1.09,3.76-1.09,8.4-1.09,8.4.49,8.4,1.09Z"/><path fill="#f4a517" d="m27.77,48.46c0,.46-2.85.83-6.37.83s-6.36-.37-6.36-.83,2.85-.83,6.36-.83,6.37.37,6.37.83Z"/><path fill="#ffc91d" d="m27.13,48.54c0,.41-2.56.75-5.73.75s-5.73-.33-5.73-.75,2.56-.75,5.73-.75,5.73.33,5.73.75Z"/><path fill="#f4a517" d="m9.67,44.74v2.42h.04c.39.65,3.98,1.15,8.36,1.15s7.98-.51,8.37-1.15h.04v-2.42H9.67Z"/><path fill="#ffc91d" d="m12.73,44.82v3.21c.85.1,1.84.19,2.92.23v-3.44h-2.92Z"/><path fill="#ffc91d" d="m16.2,45.4v2.89c.24,0,.48.02.72.02v-2.91h-.72Z"/><path fill="#ffc91d" d="m26.48,44.74c0,.6-3.76,1.09-8.4,1.09s-8.4-.49-8.4-1.09,3.76-1.09,8.4-1.09,8.4.49,8.4,1.09Z"/><path fill="#f4a517" d="m24.44,44.81c0,.46-2.85.83-6.37.83s-6.36-.37-6.36-.83,2.85-.83,6.36-.83,6.37.37,6.37.83Z"/><path fill="#ffc91d" d="m23.8,44.89c0,.41-2.56.75-5.73.75s-5.73-.33-5.73-.75,2.56-.75,5.73-.75,5.73.33,5.73.75Z"/><path fill="#f7f7fc" d="m17.37,52.48c.1-.11.25-.51.25-.51,0,0,.19.39.3.49.11.1.51.25.51.25,0,0-.39.19-.49.3-.1.11-.25.51-.25.51,0,0-.19-.39-.3-.49-.11-.1-.51-.25-.51-.25,0,0,.39-.19.49-.3Z"/></g><polygon fill="#fcd63f" points="48.77 7.66 44.49 14.61 50.75 14.61 42.94 28.12 48.77 25.88 43.71 42.13 58.14 20.06 50.54 22.37 57.53 12.39 48.77 12.39 52.01 7.66 48.77 7.66"/><g><path fill="#f4a517" d="m66.89,51.55v2.42h.04c.38.64,3.98,1.15,8.37,1.15s7.98-.51,8.37-1.15h.04v-2.42h-16.8Z"/><path fill="#ffc91d" d="m69.94,51.62v3.21c.85.11,1.84.19,2.92.23v-3.44h-2.92Z"/><path fill="#ffc91d" d="m73.42,52.2v2.89c.24,0,.48.02.72.02v-2.91h-.72Z"/><path fill="#ffc91d" d="m83.69,51.55c0,.6-3.76,1.09-8.4,1.09s-8.4-.49-8.4-1.09,3.76-1.09,8.4-1.09,8.4.49,8.4,1.09Z"/><path fill="#f4a517" d="m81.65,51.61c0,.46-2.85.83-6.36.83s-6.36-.37-6.36-.83,2.85-.83,6.36-.83,6.36.37,6.36.83Z"/><path fill="#ffc91d" d="m81.01,51.69c0,.41-2.56.74-5.73.74s-5.73-.33-5.73-.74,2.56-.75,5.73-.75,5.73.34,5.73.75Z"/><path fill="#f4a517" d="m69.48,48.39v2.42h.04c.39.65,3.98,1.15,8.36,1.15s7.98-.51,8.37-1.15h.04v-2.42h-16.81Z"/><path fill="#ffc91d" d="m72.53,48.46v3.21c.85.1,1.84.19,2.92.23v-3.44h-2.92Z"/><path fill="#ffc91d" d="m76,49.04v2.89c.24,0,.48.02.72.02v-2.91h-.72Z"/><path fill="#ffc91d" d="m86.28,48.39c0,.6-3.76,1.09-8.4,1.09s-8.4-.49-8.4-1.09,3.76-1.09,8.4-1.09,8.4.49,8.4,1.09Z"/><path fill="#f4a517" d="m84.24,48.46c0,.46-2.85.83-6.37.83s-6.36-.37-6.36-.83,2.85-.83,6.36-.83,6.37.37,6.37.83Z"/><path fill="#ffc91d" d="m83.61,48.54c0,.41-2.56.75-5.73.75s-5.73-.33-5.73-.75,2.56-.75,5.73-.75,5.73.33,5.73.75Z"/><path fill="#f4a517" d="m66.15,44.74v2.42h.04c.39.65,3.98,1.15,8.36,1.15s7.98-.51,8.37-1.15h.04v-2.42h-16.81Z"/><path fill="#ffc91d" d="m69.2,44.82v3.21c.85.1,1.84.19,2.92.23v-3.44h-2.92Z"/><path fill="#ffc91d" d="m72.68,45.4v2.89c.24,0,.48.02.72.02v-2.91h-.72Z"/><path fill="#ffc91d" d="m82.95,44.74c0,.6-3.76,1.09-8.4,1.09s-8.4-.49-8.4-1.09,3.76-1.09,8.4-1.09,8.4.49,8.4,1.09Z"/><rect width="1.19" height="2.47" x="74.55" y="45.84" fill="#ffc91d"/><path fill="#f7f7fc" d="m73.85,52.48c.1-.11.25-.51.25-.51,0,0,.19.39.3.49.11.1.51.25.51.25,0,0-.39.19-.49.3-.1.11-.25.51-.25.51,0,0-.19-.39-.3-.49-.11-.1-.51-.25-.51-.25,0,0,.39-.19.49-.3Z"/></g><line x1="92.01" x2=".25" y1="54.87" y2="54.87" fill="none" stroke="#181818" stroke-linecap="round" stroke-miterlimit="10" stroke-width=".5"/></svg>