<svg xmlns="http://www.w3.org/2000/svg" viewBox="0 0 400 280"><defs><linearGradient id="a" x1="218.53" x2="278.48" y1="220.44" y2="122.76" gradientUnits="userSpaceOnUse"><stop offset="0" stop-color="#cccfd3"/><stop offset="1" stop-color="#b2b1b8" stop-opacity="0"/></linearGradient><clipPath id="b"><path fill="none" d="M153.18 235.62 217 198.2a4.2 4.2 0 0 0 6.3-3.64V180.8a4.2 4.2 0 0 0-2.1-3.64L163.59 144a4.2 4.2 0 0 0-6.3 3.64l-77.5 45c0 1.42 73.39 42.98 73.39 42.98Z"/></clipPath></defs><g data-name="Layer 1"><path style="mix-blend-mode:multiply" fill="url(#a)" d="m129.28 162.74 134.15 74.36 106.77-60.68-132.01-72.86-108.91 59.18z"/><path fill="#383838" d="M265.59 115.55 137.76 42.67c-3-1.69-9-.84-9 5.22l2.36 111a4.43 4.43 0 0 0 2.24 3.86l126 74.76c4.24 2 8.52-1.49 8.52-5.74V119.41a4.44 4.44 0 0 0-2.29-3.86Z"/><path fill="#969a9f" d="M263.24 117.19 135.4 44.31a4.44 4.44 0 0 0-6.64 3.86V160.5a4.43 4.43 0 0 0 2.24 3.86l127.84 72.88a4.44 4.44 0 0 0 6.64-3.86V121.05a4.46 4.46 0 0 0-2.24-3.86Z"/><path fill="#383838" d="M261 238.1a4.66 4.66 0 0 1-2.33-.63l-127.8-72.88a4.7 4.7 0 0 1-2.38-4.09V48.16a4.7 4.7 0 0 1 7-4.08L263.37 117a4.73 4.73 0 0 1 2.37 4.09v112.29a4.73 4.73 0 0 1-4.7 4.72ZM133.2 44a4.2 4.2 0 0 0-2.1.57 4.11 4.11 0 0 0-2.07 3.6V160.5a4.18 4.18 0 0 0 2.1 3.63L259 237a4.17 4.17 0 0 0 6.24-3.62V121.05a4.18 4.18 0 0 0-2.11-3.62L135.27 44.54a4.17 4.17 0 0 0-2.07-.54Z"/><path fill="#fff" d="m250.87 114.27-116.63-66.5a1.69 1.69 0 0 0-2.53 1.47v111.37a1.7 1.7 0 0 0 .85 1.47l116.64 66.49a1.69 1.69 0 0 0 2.52-1.47V115.74a1.68 1.68 0 0 0-.85-1.47Z"/><path fill="#383838" d="M250 229.13a2 2 0 0 1-1-.27l-116.6-66.49a2 2 0 0 1-1-1.76V49.24a2 2 0 0 1 3-1.76L251 114a2 2 0 0 1 1 1.76V227.1a2 2 0 0 1-2 2ZM133.4 47.88a1.4 1.4 0 0 0-.68.19 1.34 1.34 0 0 0-.67 1.17v111.37a1.36 1.36 0 0 0 .68 1.18l116.63 66.49a1.36 1.36 0 0 0 2-1.18V115.74a1.37 1.37 0 0 0-.69-1.18l-116.6-66.5a1.35 1.35 0 0 0-.67-.18Z"/><path fill="#969a9f" d="m153.57 163.85 68.48 39.46a5 5 0 0 0 7.49-4.33v-16.34a5 5 0 0 0-2.5-4.33l-68.49-39.46a5 5 0 0 0-7.49 4.32v16.35a5 5 0 0 0 2.51 4.33Z"/><path fill="#383838" d="M224.55 204.25a5.3 5.3 0 0 1-2.63-.71l-68.49-39.46a5.3 5.3 0 0 1-2.63-4.56v-16.35a5.27 5.27 0 0 1 7.89-4.56l68.49 39.47a5.27 5.27 0 0 1 2.63 4.56V199a5.21 5.21 0 0 1-2.63 4.56 5.3 5.3 0 0 1-2.63.69Zm-68.49-65.81a4.74 4.74 0 0 0-4.73 4.73v16.35a4.74 4.74 0 0 0 2.37 4.09l68.49 39.47a4.74 4.74 0 0 0 7.09-4.1v-16.34a4.74 4.74 0 0 0-2.37-4.1l-68.49-39.46a4.68 4.68 0 0 0-2.36-.64Z"/><path fill="#383838" d="M159.39 165 217 198.2a4.2 4.2 0 0 0 6.3-3.64V180.8a4.2 4.2 0 0 0-2.1-3.64L163.59 144a4.2 4.2 0 0 0-6.3 3.64v13.75a4.2 4.2 0 0 0 2.1 3.61Z"/><g clip-path="url(#b)"><path fill="#383838" d="M101.76 199.22c-2.34-1.34-2.34-3.54 0-4.89l76.69-44.15a9.49 9.49 0 0 1 8.5 0l42.67 24.5c2.33 1.34 2.34 3.53 0 4.88l-76.69 44.15a9.47 9.47 0 0 1-8.49 0Z"/><path fill="#feda39" d="m229.64 173.54-23.83-13.68L187 149a9.44 9.44 0 0 0-8.49 0l-76.72 44.2c-2.33 1.35-2.33 3.54 0 4.88l42.68 24.5a7.21 7.21 0 0 0 2 .76 9.53 9.53 0 0 0 6.51-.76l76.69-44.15c2.33-1.35 2.33-3.55-.03-4.89Z"/><path fill="#383838" d="M148.71 223.84a10.06 10.06 0 0 1-2.32-.26 7.54 7.54 0 0 1-2-.78l-42.67-24.5a2.82 2.82 0 0 1 0-5.32l76.68-44.15a9.71 9.71 0 0 1 8.74 0l42.68 24.5a2.81 2.81 0 0 1 0 5.31l-76.69 44.15a8.86 8.86 0 0 1-4.42 1.05Zm34-75.56a8.44 8.44 0 0 0-4.13 1l-76.68 44.15a2.33 2.33 0 0 0 0 4.45l42.67 24.5a6.91 6.91 0 0 0 1.92.72 9.19 9.19 0 0 0 6.32-.73l76.69-44.15a2.33 2.33 0 0 0 0-4.45l-42.67-24.5a8.51 8.51 0 0 0-4.1-.99Z"/><path fill="#383838" d="m174.65 168.28 3.95-2.23-1.42-.81-3.94 2.23 1.41.81zM181.37 164.5l2.92-1.65-1.41-.82-2.93 1.66 1.42.81zM194.79 168.88l-3.44-1.98-9.33 5.29 3.44 1.97 9.33-5.28zM163.19 171.37l18.11-10.24-1.8-1.04-18.11 10.25 1.8 1.03zM177 179.12l-3.44-1.98-9.33 5.29 3.44 1.97 9.33-5.28zM159.39 189.26l-3.44-1.98-9.51 5.39 3.44 1.97 9.51-5.38zM141.69 199.45l-3.44-1.98-9.6 5.44 3.44 1.97 9.6-5.43z"/><path fill="#fff" d="M193.58 177.63a.46.46 0 0 1 0-.88l11.66-6.75a1.71 1.71 0 0 1 1.54 0l7.76 4.46c.42.24.43.64 0 .88l-11.65 6.71a1.74 1.74 0 0 1-1.54 0Z"/><path fill="#383838" d="M202.12 182.52a1.93 1.93 0 0 1-.9-.21l-7.76-4.46a.72.72 0 0 1 0-1.32l11.65-6.71a2 2 0 0 1 1.79 0l7.77 4.46a.72.72 0 0 1 0 1.32L203 182.31a1.9 1.9 0 0 1-.88.21Zm-8.41-5.1 7.76 4.45a1.48 1.48 0 0 0 1.3 0l11.65-6.7c.12-.07.19-.16.19-.23s-.07-.16-.19-.23l-7.77-4.46a1.5 1.5 0 0 0-1.29 0L193.71 177c-.12.07-.19.16-.19.23s.07.16.19.23Z"/></g><path fill="#383838" d="M181.25 91.61a5.71 5.71 0 0 0-1.08-3.14 8.35 8.35 0 0 0-2.66-2.57l-4.85-2.9-2.36 1.25s1.73 2.13 1.87 2.48a2 2 0 0 0 .49.42v7.78l-.45-.23-.63.33 1.26 1.25 3.63 2.14.41-.57.7.42a1.16 1.16 0 0 1 0 .13l.9 1.84 2.11-1.16c.74-.22 1.11-.86 1.11-1.9a5.87 5.87 0 0 0-1.62-3.78c.79-.18 1.17-.77 1.17-1.79Zm-4.78-2 1.68 1.44a1.23 1.23 0 0 1-.64-.22l-2.43-1.45v-.66Zm-1.39 4.83v-2.9l2.71 1.63c-.37.23-.69.45-.69.45s0 1.32.08 1.42a6.13 6.13 0 0 1 .11.73ZM211.76 112.46l4.55-3.25-2.8-1.68-2.35 1.25.28.18-2.15 1.47V105l-2.42-1.46-2.29 1.21v-2.58l-2.42-1.46-2.36 1.29 2.36 1.41v4.85l-5.28-10.68-1.88-1.15-2.36 1.25s1.39 2.42 2.36 4.15V108l-1.2-1.1 1.27 4.57 2.35-1.25V106l2.91 4.55.27-1.42 1 2-.3.39.93 4.27 2.35-1.25v-9.64l2.29 1.38v8.54l-.27-.28-.73 1.86 1.07 2.23 2.35-1.26v-2.62l1.36 4 3.48 4.16 2.36-1.25Zm-2.47-.92.28.53-.28.14ZM186.51 91.31l-2.35 1.25 1.23 1.28-3.19 7.16.14.08-.4.24.53 2.5 2.35-1.25.47-1.12 2.57 1.67.14-.85.68.4c.38 1.35.68 2.36.72 2.46.13.33.63 1.9.63 1.9l-1.18.63 2.64 1.58 2.35-1.25-4.32-14.91Zm-.18 7.69.79-1.86c.23.83.51 1.82.79 2.81Z"/><path fill="#feda39" d="M177.64 100.22a4.14 4.14 0 0 1-2-.69l-5.13-3.09V84.55l4.58 2.75a8.14 8.14 0 0 1 2.61 2.52 5.52 5.52 0 0 1 1.05 3c0 .94-.33 1.46-1 1.59l-.29.06.19.23a5.73 5.73 0 0 1 1.58 3.67c0 1-.32 1.53-1 1.74a2 2 0 0 1-.59.11Zm-5.09-4.39 2.88 1.73a1.64 1.64 0 0 0 .84.28.8.8 0 0 0 .34-.07.93.93 0 0 0 .51-1 2.58 2.58 0 0 0-.43-1.37 3.1 3.1 0 0 0-1.08-1.08l-3.06-1.84Zm0-5.06 2.51 1.51a1.61 1.61 0 0 0 .77.25.72.72 0 0 0 .33-.07.86.86 0 0 0 .49-.9 2.42 2.42 0 0 0-.4-1.28 2.93 2.93 0 0 0-1-1l-2.7-1.62Z"/><path fill="#383838" d="m170.65 84.86 4.35 2.59a7.9 7.9 0 0 1 2.55 2.47 5.37 5.37 0 0 1 1 2.94c0 1.12-.5 1.35-.88 1.42l-.59.12.39.45a5.57 5.57 0 0 1 1.53 3.56c0 1.17-.49 1.45-.85 1.57a2.09 2.09 0 0 1-.51.07 4 4 0 0 1-1.94-.67l-5-3V84.86Zm5.18 7.85a1.06 1.06 0 0 0 .4-.08 1 1 0 0 0 .6-1.07 2.65 2.65 0 0 0-.43-1.37 3 3 0 0 0-1.07-1.07l-2.42-1.46-.53-.32v3.53l.17.1 2.45 1.46a1.7 1.7 0 0 0 .86.28Zm.44 5.3a1 1 0 0 0 .41-.08 1.08 1.08 0 0 0 .62-1.12 2.72 2.72 0 0 0-.46-1.46 3.36 3.36 0 0 0-1.14-1.14l-2.79-1.68-.53-.32v3.72l.17.1 2.79 1.68a1.75 1.75 0 0 0 .93.3Zm-6-13.78v12.31l5.22 3.14a4.27 4.27 0 0 0 2.12.72 2 2 0 0 0 .61-.09c.74-.22 1.11-.85 1.11-1.9a5.87 5.87 0 0 0-1.62-3.78c.77-.16 1.16-.75 1.16-1.77a5.65 5.65 0 0 0-1.08-3.13 8.21 8.21 0 0 0-2.67-2.58l-4.85-2.92Zm5.53 8.12a1.38 1.38 0 0 1-.68-.22l-2.42-1.46V88l2.42 1.46a2.7 2.7 0 0 1 .95 1 2.29 2.29 0 0 1 .37 1.19c0 .39-.12.64-.38.74a.55.55 0 0 1-.26 0Zm.44 5.31a1.48 1.48 0 0 1-.75-.25l-2.79-1.68v-2.9l2.79 1.68a3 3 0 0 1 1 1 2.41 2.41 0 0 1 .41 1.27c0 .42-.14.69-.41.8a.59.59 0 0 1-.27 0Z"/><path fill="#feda39" d="m189 107.57-.74-2.66-5.14-3.09-.74 1.77-2.31-1.38 4.17-9.4 2.76 1.67 4.18 14.41Zm-5.24-7.22 3.88 2.33-1.94-7Z"/><path fill="#383838" d="m184.32 93.07 2.54 1.52 4 13.91-1.75-1-.7-2.53v-.13l-.12-.08-4.9-2.94-.35-.21-.16.37-.58 1.4-2-1.21 4-9.06Zm3.61 10-.24-.85-1.68-6-.28-1-.39.94-1.68 4-.12.28.26.16 3.37 2 .76.45Zm-3.77-10.5-4.31 9.72 2.62 1.57.74-1.77 4.9 3 .74 2.66 2.64 1.58-4.33-14.91-3-1.8Zm3.19 9.74-3.37-2 1.69-4 1.68 6Z"/><path fill="#feda39" d="m200.47 114.46-5.54-11.29v7.97l-2.07-1.25v-11.9l1.58.95 5.54 11.28v-7.95l2.07 1.25v11.89l-1.58-.95z"/><path fill="#383838" d="m193 98.3 1.23.74 5.23 10.58.66 1.35v-8.39l1.73 1v11.52l-1.23-.73-5.23-10.6-.66-1.36v8.41l-1.73-1V98.3Zm-.35-.62V110l2.43 1.46v-7.53l5.27 10.7 1.85 1.1v-12.3l-2.4-1.43v7.51l-5.27-10.68-1.85-1.11Z"/><path fill="#feda39" d="m211.43 121.05-4.67-8.98v6.18l-2.07-1.25v-11.9l2.07 1.25v5.67l4.41-3.03 2.46 1.49-4.45 3.17 4.51 8.76-2.26-1.36z"/><path fill="#383838" d="m204.87 105.41 1.72 1v11.48l-1.72-1v-11.48Zm6.3 3.79 2.14 1.29-4.11 2.93-.25.18.14.27 4.16 8.07-1.65-1-4.35-8.32-.28-.54.17-.12 4-2.77Zm-6.66-4.41v12.31l2.43 1.46v-5.77l4.4 8.41 2.79 1.68-4.73-9.17 4.56-3.25-2.8-1.68-4.22 2.9v-5.43l-2.43-1.46ZM183.44 130.68l.12 2.06L167.9 124l-.11-2.06 15.65 8.74zM173.72 109.06l9.24 5.16.11 2.06-9.24-5.16-.11-2.06zM166.55 109.34l16.65 9.29.11 2.06-16.64-9.29-.12-2.06zM146.31 95.75l-.11-2.06 9.46 5.29.12 2.06-9.47-5.29zM179.37 120.77l4.07 2.28.12 2.06-4.08-2.28-.11-2.06zM157.36 101.92l-.11-2.06 14.88 8.31.12 2.06-14.89-8.31zM177.78 119.88l.11 2.06-14.88-8.31-.12-2.06 14.89 8.31zM148.5 99.25l.11 2.06-3.71-2.06-.11-2.06 3.71 2.06zM164.97 108.45l.11 2.06-14.88-8.31-.12-2.06 14.89 8.31zM161.31 110.69l.11 2.06-6.61-3.7-.12-2.06 6.62 3.7zM183.15 140.04l.12 2.06-15.66-8.74-.11-2.06 15.65 8.74zM165.95 132.63l-11.12-6.21-.35-2.19 11.36 6.34.11 2.06zM183.56 145.64l-10.63-5.94-.34-2.19 10.85 6.07.12 2.06zM166.25 136.17l-7.95-4.44-.35-2.19 8.18 4.57.12 2.06zM230.91 157.76l.12 2.06-15.66-8.74-.11-2.06 15.65 8.74zM221.19 136.13l9.24 5.16.11 2.06-9.24-5.16-.11-2.06zM214.02 136.41l16.65 9.3.11 2.06-16.64-9.3-.12-2.06zM193.78 122.83l-.12-2.06 9.47 5.28.11 2.06-9.46-5.28zM226.83 147.84l4.08 2.28.12 2.06-4.08-2.27-.12-2.07zM204.83 129l-.11-2.06 14.88 8.31.12 2.06-14.89-8.31zM225.25 146.96l.11 2.06-14.89-8.31-.11-2.06 14.89 8.31zM195.96 126.33l.12 2.06-3.71-2.07-.11-2.06 3.7 2.07zM212.44 135.53l.11 2.06-14.89-8.31-.11-2.06 14.89 8.31zM208.78 137.76l.11 2.06-6.62-3.69-.11-2.06 6.62 3.69zM230.62 167.12l.11 2.06-15.65-8.74-.11-2.06 15.65 8.74zM213.42 159.71l-11.12-6.21-.35-2.19 11.36 6.34.11 2.06zM231.03 172.71l-10.63-5.93-.35-2.19 10.86 6.06.12 2.06zM213.72 163.24l-7.95-4.43-.35-2.19 8.18 4.56.12 2.06z"/></g></svg>