<svg xmlns="http://www.w3.org/2000/svg" viewBox="0 0 2500 2500"><g data-name="Customer Service"><path fill="#142448" d="M1382.5 526.39H1187a2.81 2.81 0 0 1-2.81-2.81v-93.79a2.81 2.81 0 1 1 5.62 0v91h192.69a2.82 2.82 0 1 1 0 5.63Z"/><rect width="505.58" height="135.38" x="1658.91" y="252.43" fill="#fff" rx="67.69"/><path fill="#142448" d="M2099.22 387.34h-371a67.74 67.74 0 1 1 0-135.47h371a67.74 67.74 0 0 1 0 135.47Zm-371-129.85a62.12 62.12 0 1 0 0 124.23h371a62.12 62.12 0 0 0 0-124.23Z"/><path fill="#142448" d="M1910.74 687.16h-142.49a2.81 2.81 0 1 1 0-5.62h139.67v-297a2.82 2.82 0 0 1 5.63 0v299.81a2.81 2.81 0 0 1-2.81 2.81ZM1839.79 1174.25h-301.6a2.81 2.81 0 0 1-2.81-2.81V890.66a2.81 2.81 0 1 1 5.62 0v278h298.79a2.82 2.82 0 0 1 0 5.63Z"/><path fill="#46c869" d="m1284.8 1231.69-33.44-4.78c-9.21-1.32-9.16-14.64.06-15.89l33.34-4.49a8 8 0 0 0 6.87-6.85l4.63-33.31c1.28-9.22 14.6-9.22 15.88 0l4.65 33.45a8 8 0 0 0 6.81 6.84l33.44 4.78c9.21 1.31 9.16 14.64-.07 15.88l-33.33 4.5a8 8 0 0 0-6.87 6.84l-4.63 33.32c-1.28 9.22-14.6 9.22-15.88 0l-4.65-33.46a8 8 0 0 0-6.81-6.83Z"/><path fill="#dce0ec" d="m1371.94 1165.81-17-2.43a4.07 4.07 0 0 1 0-8.07l16.92-2.28a4.06 4.06 0 0 0 3.49-3.47l2.35-16.92a4.07 4.07 0 0 1 8.06 0l2.36 17a4.07 4.07 0 0 0 3.46 3.47l17 2.42a4.07 4.07 0 0 1 0 8.07l-16.93 2.28a4.09 4.09 0 0 0-3.49 3.48l-2.35 16.91a4.07 4.07 0 0 1-8.06 0l-2.36-17a4.06 4.06 0 0 0-3.45-3.46Z"/><path fill="#567aff" d="m1235.86 1075-14.86-2.12a3.56 3.56 0 0 1 0-7.06l14.81-2a3.56 3.56 0 0 0 3.05-3L1241 1046a3.56 3.56 0 0 1 7.06 0l2.06 14.86a3.55 3.55 0 0 0 3 3L1268 1066a3.56 3.56 0 0 1 0 7.06l-14.81 2a3.56 3.56 0 0 0-3.06 3l-2 14.8a3.56 3.56 0 0 1-7.06 0L1239 1078a3.55 3.55 0 0 0-3.14-3Z"/><path fill="#46c869" d="m2122.44 637.37 33.44-4.78c9.22-1.32 9.17-14.64-.06-15.88l-33.33-4.5a8 8 0 0 1-6.88-6.84l-4.61-33.32c-1.28-9.22-14.61-9.22-15.89 0l-4.65 33.46a8 8 0 0 1-6.8 6.83l-33.44 4.78c-9.22 1.32-9.17 14.64.06 15.89l33.33 4.49a8 8 0 0 1 6.87 6.85l4.63 33.31c1.28 9.22 14.61 9.22 15.89 0l4.64-33.46a8 8 0 0 1 6.8-6.83Z"/><path fill="#dce0ec" d="m2035.3 571.49 17-2.43a4.07 4.07 0 0 0 0-8.06l-16.93-2.29a4.06 4.06 0 0 1-3.49-3.47l-2.35-16.92a4.07 4.07 0 0 0-8.06 0l-2.36 17a4.07 4.07 0 0 1-3.46 3.47l-17 2.43a4.07 4.07 0 0 0 0 8.06l16.92 2.28a4.08 4.08 0 0 1 3.49 3.48l2.35 16.91a4.07 4.07 0 0 0 8.06 0l2.36-17a4.06 4.06 0 0 1 3.47-3.46Z"/><path fill="#567aff" d="m2171.39 480.72 14.85-2.12a3.56 3.56 0 0 0 0-7.06l-14.81-2a3.55 3.55 0 0 1-3.05-3l-2-14.8a3.56 3.56 0 0 0-7.06 0l-2.07 14.86a3.55 3.55 0 0 1-3 3l-14.86 2.12a3.56 3.56 0 0 0 0 7.06l14.81 2a3.56 3.56 0 0 1 3 3l2.06 14.8a3.56 3.56 0 0 0 7.06 0l2.06-14.86a3.57 3.57 0 0 1 3.01-3Z"/><circle cx="1538.19" cy="660.37" r="247.67" fill="#567aff"/><path fill="#fff" d="M1538.19 702A216.29 216.29 0 0 1 1711 788a215.73 215.73 0 0 0 43.84-130.68c0-119.65-97-216.64-216.64-216.64s-216.64 97-216.64 216.64A215.73 215.73 0 0 0 1365.39 788a216.28 216.28 0 0 1 172.8-86Z"/><circle cx="1538.19" cy="587.4" r="85.4" fill="#567aff"/><path fill="#567aff" d="M600.12 523.58S599 606.88 562.75 662c-12.33 18.72 1.34 43.65 23.75 43.65h195.28a28.17 28.17 0 0 0 24.39-42.27c-19.23-33.32-41.08-81.54-39.59-126.67ZM589.49 1127.3l75.79 1117.06H861.8L826.39 1127.3h-236.9z"/><path fill="#567aff" d="m478.04 1127.3-195.2 1117.06h196.52L714.94 1127.3h-236.9z"/><path fill="#46c869" d="M600.57 742.48h-5.22c-55.42 0-100.74 40.37-102.13 91l-8.06 293.85H837l-10.6-301.17c0-46.2-41-83.65-91.59-83.65Z"/><path fill="#46c869" d="M709.57 742.48h69.22a91.37 91.37 0 0 1 75 39.2l148.8 196.56 74.55-235.76h133.66l-113.15 406.06c-20.15 72.32-115.05 89.12-158.8 28.12L730 912.16Z"/><path fill="#fdd8a9" d="M623.82 638v104.48a57.42 57.42 0 0 0 57.42 57.42 57.42 57.42 0 0 0 57.42-57.42v-72.39Z"/><path fill="#567aff" d="M600.12 594.57v-71a31.47 31.47 0 0 1 31.47-31.47h87v38.56ZM786.05 571.4c-16.55 20-42.86 25.55-58.78 12.39s-15.4-40 1.14-60.06 31-31.62 62.21-31.62c15.91 13.17 11.97 59.29-4.57 79.29Z"/><path fill="#fdd8a9" d="M614 547.14h158.84v79a79.44 79.44 0 0 1-79.44 79.44 79.44 79.44 0 0 1-79.4-79.43v-79.01Z"/><ellipse cx="630.21" cy="578.28" fill="#567aff" rx="22.45" ry="41.62"/><circle cx="656.23" cy="542.84" r="42.28" fill="#567aff"/><ellipse cx="697.33" cy="608.5" fill="#142448" rx="6.75" ry="6.74"/><ellipse cx="752.67" cy="608.5" fill="#142448" rx="6.75" ry="6.74"/><path fill="#142448" d="M717 663.18a17.65 17.65 0 0 1-9.22-2.44c-8.25-4.91-9.87-15.41-9.93-15.86a2.81 2.81 0 1 1 5.56-.82c0 .13 1.35 8.36 7.28 11.87 3.62 2.15 8.41 2.16 14.21 0a2.81 2.81 0 1 1 1.93 5.28 28.74 28.74 0 0 1-9.83 1.97ZM738.66 695.68s-30.15 19.67-64.79 11.73c0 0 28 16.49 64.79 2.42ZM697.17 2244.36v109.77H858a10 10 0 0 0 7.8-16.13l-31-38.7v-54.89ZM463.17 2244.36l-15.26 109.77H287a9.9 9.9 0 0 1-7.73-16.1l31-38.78 15.26-54.89ZM834.05 1046.75a2.83 2.83 0 0 1-2.75-2.24l-17.2-82.74a3.66 3.66 0 0 1-.05-.57V854.89a2.81 2.81 0 0 1 5.62 0v106l17.14 82.45a2.82 2.82 0 0 1-2.18 3.33 2.93 2.93 0 0 1-.58.08ZM536.73 1126.72h-.45a2.82 2.82 0 0 1-2.33-3.23l33-204.91a2.81 2.81 0 0 1 5.55.89l-33 204.92a2.8 2.8 0 0 1-2.77 2.33ZM619.88 1580.88a2.67 2.67 0 0 1-.56-.06 2.8 2.8 0 0 1-2.2-3.31l17.51-87.38a2.81 2.81 0 1 1 5.51 1.1l-17.51 87.39a2.81 2.81 0 0 1-2.75 2.26Z"/><path fill="#fdd8a9" d="m1087 742.48 18.14-67.21a25 25 0 0 1 16.26-16.17l104.77-33.22a12.85 12.85 0 0 1 16.18 8.52 12.85 12.85 0 0 1-7.28 15.54l-52.15 22.14s20.72-5.33 26 9.47c0 0 17.31-5.65 20 14.29l-20.56 46.64Z"/><path fill="#142448" d="M1176.93 719.3a14.72 14.72 0 0 1-12.55-22.41l16.12-26.28a2.81 2.81 0 0 1 4.8 2.94l-16.12 26.28a9.1 9.1 0 0 0 7.75 13.85 9.15 9.15 0 0 0 7.29-3.66l22.48-30.15a2.82 2.82 0 0 1 4.51 3.37l-22.49 30.14a14.76 14.76 0 0 1-11.79 5.92Z"/><path fill="#142448" d="M1197.38 730a12.67 12.67 0 0 1-11-6.51 16 16 0 0 1-.37-15.75 2.81 2.81 0 1 1 5 2.65 10.43 10.43 0 0 0 .23 10.21 7.19 7.19 0 0 0 6.14 3.78 7.28 7.28 0 0 0 6-3.51l19.62-30.11a2.82 2.82 0 0 1 4.72 3.07L1208.06 724a12.86 12.86 0 0 1-10.68 6ZM1154.81 716.11a15.84 15.84 0 0 1-8.39-2.38c-5.94-3.69-10.44-12.28-5.28-25.33a2.55 2.55 0 0 1 .13-.29l11.84-22.21a2.82 2.82 0 0 1 5 2.65l-11.77 22.06c-3.23 8.28-2.08 15.13 3.08 18.34a11.23 11.23 0 0 0 14.17-2.46 2.81 2.81 0 1 1 4.16 3.78 17.49 17.49 0 0 1-12.94 5.84ZM826.39 1127.3l-250.89 44.14-36-44.14h286.89z"/><path fill="#fff" d="M329.37 2199.65a3.29 3.29 0 0 1-.54-.05 2.81 2.81 0 0 1-2.22-3.3l169.52-873.59a2.81 2.81 0 0 1 5.52 1.07l-169.52 873.59a2.81 2.81 0 0 1-2.76 2.28ZM816.86 2230.44a2.81 2.81 0 0 1-2.81-2.72L781.1 1222.57a2.81 2.81 0 1 1 5.62-.18l32.95 1005.14a2.82 2.82 0 0 1-2.72 2.91Z"/><path fill="#fff" d="M830.6 1262.93a2.78 2.78 0 0 1-1.78-.64c-29-23.66-76.48-61.78-81.94-64.27a2.81 2.81 0 0 1 .31-5.57c1.62-.13 3.31-.25 44.89 32.94 20.14 16.07 40.1 32.39 40.3 32.55a2.81 2.81 0 0 1-1.78 5Zm-83-64.87Zm0 0Z"/><path fill="#567aff" d="M693.39 492.11h97.23s11.35 76.52-38 74.45h-78.8v-72.65Z"/><path fill="#142448" d="M634.62 590.93H614V535a42.89 42.89 0 0 1 42.89-42.89h41.61l-32.29 9.43a42.89 42.89 0 0 0-30.86 40.53Z"/><ellipse cx="623.82" cy="608.5" fill="#46c869" rx="40.44" ry="40.33"/><ellipse cx="600.12" cy="608.5" fill="#142448" rx="20.22" ry="20.16"/><path fill="#142448" d="M688 694.25c-29.95-.1-46.55-12.22-55.2-22.36-9.44-11.06-11.68-22.06-11.77-22.52a2.81 2.81 0 0 1 2.76-3.35c11 0 20.29-17.84 20.29-38.95s-9.29-39-20.29-39a2.82 2.82 0 0 1 0-5.63c14.53 0 25.91 19.58 25.91 44.58 0 22.89-9.54 41.24-22.31 44.16a52.14 52.14 0 0 0 9.87 17.22c11.48 13.31 28.56 20.1 50.76 20.18a2.81 2.81 0 0 1 0 5.62Z"/><rect width="35.73" height="14.18" x="681.24" y="684.35" fill="#142448" rx="7.09"/><path fill="#142448" d="M816.86 964H783.1a2.81 2.81 0 0 1 0-5.62h33.76a2.81 2.81 0 0 1 0 5.62Z"/><path fill="#46c869" d="m600.57 742.48-77.87 2.71c-59.73 13.38-76.15 54.71-88.37 109.7l-69 313.63a114.86 114.86 0 0 0 57.73 91.67l283 134 76.52-120.93-253.33-150.6Z"/><rect width="279.42" height="409.02" x="739.73" y="1256.61" fill="#fff" rx="37" transform="rotate(41.97 879.422 1461.049)"/><path fill="#142448" d="M843.77 1694.15a39.63 39.63 0 0 1-26.6-10.19l-152.74-137.38a39.85 39.85 0 0 1-3-56.22l224-249.1a39.85 39.85 0 0 1 56.22-3l152.74 137.37a39.85 39.85 0 0 1 3 56.22l-224 249.1a39.72 39.72 0 0 1-29.62 13.2Zm-22.84-14.38a34.21 34.21 0 0 0 48.27-2.55l224-249.1a34.23 34.23 0 0 0-2.55-48.28L938 1242.47a34.23 34.23 0 0 0-48.28 2.56l-224 249.09a34.23 34.23 0 0 0 2.56 48.28Z"/><rect width="244.15" height="374.01" x="757.36" y="1274.12" fill="#46c869" rx="23.91" transform="rotate(41.97 879.422 1461.049)"/><rect width="153.56" height="41.26" x="939.42" y="1288.44" fill="#567aff" rx="17.41" transform="rotate(41.97 1016.172 1309.006)"/><path fill="#fdd8a9" d="m773.59 1287.84 48.74 32.58 14.2 89.33s1.84 29.72-25.69 9.38c0 0-9.43 34.47-27.87 10.18-1.58 10.24-10.39 27-25.1 8.19l-7.74-42.22-33-18.24Z"/><path fill="#142448" d="M783 1432.12a2.8 2.8 0 0 1-2.77-2.36l-7.42-45.41a2.81 2.81 0 1 1 5.55-.9l7.42 45.41a2.81 2.81 0 0 1-2.33 3.22 2.28 2.28 0 0 1-.45.04ZM810.84 1421.94a2.82 2.82 0 0 1-2.79-2.42l-6.36-45.8a2.82 2.82 0 0 1 5.58-.77l6.35 45.79a2.82 2.82 0 0 1-2.39 3.18ZM1155 2357a2.82 2.82 0 0 1 0-5.63c45-.28 90.58-.28 135.6 0a2.82 2.82 0 0 1 0 5.63c-45-.28-90.6-.28-135.53 0ZM1089.77 2357c-293.12-.28-590.39-.28-883.56 0a2.82 2.82 0 0 1 0-5.63c293.17-.27 590.44-.27 883.57 0a2.82 2.82 0 1 1 0 5.63Z"/><rect width="525.54" height="280.74" x="1768.25" y="1031.07" fill="#fff" rx="29.66"/><path fill="#142448" d="M2264.13 1314.62h-466.21a32.51 32.51 0 0 1-32.48-32.47v-221.42a32.52 32.52 0 0 1 32.48-32.48h466.21a32.51 32.51 0 0 1 32.47 32.48v221.42a32.51 32.51 0 0 1-32.47 32.47Zm-466.21-280.74a26.87 26.87 0 0 0-26.85 26.85v221.42a26.88 26.88 0 0 0 26.85 26.85h466.21a26.89 26.89 0 0 0 26.85-26.85v-221.42a26.88 26.88 0 0 0-26.85-26.85Z"/><path fill="#142448" d="M2293.79 1093.39h-525.54a2.81 2.81 0 1 1 0-5.62h525.54a2.81 2.81 0 0 1 0 5.62Z"/><circle cx="1809.44" cy="1061.25" r="16.12" fill="#567aff"/><circle cx="1862.2" cy="1061.25" r="16.12" fill="#567aff"/><circle cx="1914.97" cy="1061.25" r="16.12" fill="#567aff"/><path fill="#142448" d="M992 1033.86a2.65 2.65 0 0 1-.56 0 2.81 2.81 0 0 1-2.2-3.31l10.6-52.81a2.81 2.81 0 1 1 5.51 1.1l-10.6 52.81a2.81 2.81 0 0 1-2.75 2.21Z"/><rect width="470.14" height="70.78" x="1793.32" y="1138.5" fill="#46c869" rx="20.73"/><path fill="#142448" d="M2263.46 1249h-470.14a2.82 2.82 0 1 1 0-5.63h470.14a2.82 2.82 0 0 1 0 5.63ZM2263.46 1271h-470.14a2.82 2.82 0 1 1 0-5.63h470.14a2.82 2.82 0 0 1 0 5.63Z"/><rect width="525.54" height="280.74" x="840.55" y="145.87" fill="#fff" rx="29.66"/><path fill="#142448" d="M1336.42 429.42H870.21A32.51 32.51 0 0 1 837.73 397V175.53a32.52 32.52 0 0 1 32.48-32.48h466.21a32.51 32.51 0 0 1 32.47 32.48V397a32.51 32.51 0 0 1-32.47 32.42ZM870.21 148.68a26.88 26.88 0 0 0-26.85 26.85V397a26.89 26.89 0 0 0 26.85 26.85h466.21a26.89 26.89 0 0 0 26.85-26.85V175.53a26.88 26.88 0 0 0-26.85-26.85Z"/><path fill="#142448" d="M1366.08 208.19H840.55a2.81 2.81 0 1 1 0-5.62h525.53a2.81 2.81 0 1 1 0 5.62Z"/><circle cx="881.73" cy="176.05" r="16.12" fill="#567aff"/><circle cx="934.5" cy="176.05" r="16.12" fill="#567aff"/><circle cx="987.26" cy="176.05" r="16.12" fill="#567aff"/><path fill="#46c869" d="m1735.21 286.24 10.84 21.97 24.24 3.52-17.54 17.1 4.14 24.14-21.68-11.4-21.69 11.4 4.14-24.14-17.54-17.1 24.24-3.52 10.85-21.97zM1824.46 286.24l10.84 21.97 24.24 3.52-17.54 17.1 4.14 24.14-21.68-11.4-21.68 11.4 4.14-24.14-17.55-17.1 24.25-3.52 10.84-21.97zM1913.71 286.24l10.84 21.97 24.25 3.52-17.55 17.1 4.14 24.14-21.68-11.4-21.68 11.4 4.14-24.14-17.54-17.1 24.24-3.52 10.84-21.97zM2002.96 286.24l10.85 21.97 24.24 3.52-17.54 17.1 4.14 24.14-21.69-11.4-21.68 11.4 4.14-24.14-17.54-17.1 24.24-3.52 10.84-21.97zM2092.22 286.24l10.84 21.97 24.24 3.52-17.54 17.1 4.14 24.14-21.68-11.4-21.69 11.4 4.14-24.14-17.54-17.1 24.24-3.52 10.85-21.97z"/><path fill="#567aff" d="M1037.78 333v-30.45h-16.14a63 63 0 0 0-7.37-17.8l11.41-11.41-21.51-21.51-11.41 11.41a63.33 63.33 0 0 0-17.8-7.37v-16.13h-30.42v16.13a63.27 63.27 0 0 0-17.79 7.37l-11.41-11.41-21.51 21.51 11.41 11.41a63.35 63.35 0 0 0-7.38 17.8h-16.13V333h16.13a63.35 63.35 0 0 0 7.38 17.8l-11.41 11.4 21.51 21.51 11.41-11.4a63.56 63.56 0 0 0 17.79 7.37v16.13H975v-16.16a63.62 63.62 0 0 0 17.8-7.37l11.41 11.4 21.51-21.51-11.41-11.4a63 63 0 0 0 7.37-17.8Zm-78 26.09a41.3 41.3 0 1 1 41.3-41.3 41.3 41.3 0 0 1-41.33 41.27Z"/><path fill="#46c869" d="M1100.15 261.05v-11.72h-6.22a24.19 24.19 0 0 0-2.84-6.87l4.4-4.4-8.29-8.29-4.4 4.4a24.19 24.19 0 0 0-6.87-2.84v-6.22h-11.72v6.22a24.31 24.31 0 0 0-6.87 2.84l-4.39-4.4-8.3 8.29 4.4 4.4a24.48 24.48 0 0 0-2.84 6.87H1040v11.72h6.22a24.61 24.61 0 0 0 2.84 6.87l-4.4 4.39 8.3 8.3 4.39-4.4a24.61 24.61 0 0 0 6.87 2.84v6.22h11.72v-6.22a24.48 24.48 0 0 0 6.87-2.84l4.4 4.4 8.29-8.3-4.4-4.39a24.31 24.31 0 0 0 2.84-6.87Zm-30.08 10.06a15.92 15.92 0 1 1 15.93-15.92 15.92 15.92 0 0 1-15.93 15.92Z"/><rect width="192.24" height="35.88" x="1140.57" y="227.47" fill="#dce0ec" rx="10.02"/><rect width="192.24" height="118.05" x="1140.57" y="277.73" fill="#dce0ec" rx="10.02"/></g></svg>