<svg xmlns="http://www.w3.org/2000/svg" viewBox="0 0 4680 3120"><defs><clipPath id="a"><path fill="#f5a61d" d="M2152.33 1716s8.73 107.16 19 236c13.93 175 30.69 389.92 32.35 430.64 2.86 70.7 6 159.41 6 159.41s34.82 5.29 89.39-6c0 0 49.49-115.49 63.38-286.31.22-2.8.43-5.62.65-8.44 12.92-173.9 33-540.09 33-540.09Z"/></clipPath><clipPath id="b"><path fill="#ffc63a" d="M2192.17 1728.76s157.22 388.1 260.61 570.48 121.65 210.29 121.65 210.29 69.75-28.88 75.13-44.78c0 0-36-323.56-105.25-409.39-39.12-48.51-85.07-194.05-87.23-245s-17.51-130.94-17.51-130.94Z"/></clipPath><clipPath id="c"><path fill="#e93835" d="M2055.32 1304.18s-95.67 120.5-218.71 190.14c4.28 20 11.56 45.86 23.77 71.65 63.83-10.47 137.7-35.46 200.32-91Z"/></clipPath><clipPath id="d"><path fill="#e93835" d="M2432.27 1646.31c4.31-175.41-40.78-244.72-70.44-286.17-16.59-23.19-36.31-50.62-66.91-28.17-37.62 27.6-23.7 85.44-11.84 102 35.13 49 42.73 97.53 56.15 137.39 6.1 18.11 10.2 49.64 17.87 77.71 2.99-.07 74.5 24.54 75.17-2.76Z"/></clipPath><clipPath id="e"><path fill="#f5a61d" d="m1173.49 1336.32 5.94 159.52c200.25 95.68 307.43-72.21 335.07-106.69-15.89-19.23-65.69-11.17-48.44-39.28-186.43 154.27-292.57-13.55-292.57-13.55Z"/></clipPath><clipPath id="f"><path fill="#355a97" d="M1027.3 1859.83c12.67-46.65 63-57.3 106.37-72.94 26.23-9.45 65.79-27.58 91.87-6.71 19.9 15.93 13.64 47 15 69.16 1.81 30.63 12.66 38.82 18 69.05 7.4 41.55 15.88 101.16 27.66 141.37 10.27 35.06 41.66 104.72 42.13 141a71.21 71.21 0 0 1-4.46 25.68c1.3 45-2 90.69-3.36 135.25-1.4 46.71 11 134.44-64.89 118.86-32.79-6.74-37.76-21.7-44.88-50.38-14.14-56.95-33.36-129.68-16.65-189.13-29.69-28-54-68.1-68.73-92.38-34-56.07-58.94-116.85-81.78-177.85-12.58-33.67-26.06-74.93-16.28-110.98Z"/></clipPath><clipPath id="g"><path fill="#3465b0" d="M905.31 2333.89c-.1-7.6-.18-15.19-.18-22.75 0-45.86 10.38-100.63 31.77-146.51a23.72 23.72 0 0 0 5.73-1.92l.75-.36c-7.45-49.57-4.12-119.91 5-160.94 46.31-208.36 24.33-242.56 155.2-229.34 9.19 1 18.43 3.75 27.7 7.35 28.25 10.95 56.85 29.06 85.28 22.48-6.9 27.07-23.38 55.71-31.82 81.48-12.1 37-66.13 215-113.62 301.9-17.65 54.89-28.48 112.9-41.21 168.91-7.55 33.42-22.62 81.54-35.79 119.16-9.66 27.6-70.12 18.49-84.63-8.46-13.17-24.45-3.79-98.78-4.18-131Z"/></clipPath><clipPath id="h"><path fill="#ffc63a" d="M1112.15 1853.06c45.85 10.87 119.33 26 149.28 25 24.77-66.57 22-267.38 23.1-288.39 1.44-26.27 2-50.41 1.44-70.26-.26-9.08-.79-17.24-1.6-24.32-5-41.23-22.22-70.82-40.74-92.76l-21.39-17.18c-17.82 1.13-32.38-2.4-49.54-13.73-18.77-12.35-39-25.64-42.84-23.42-28.75 15.74-52.17 56.51-68.89 110.36-9.59 31-107.38 250.44-78 367.22 1.28 5.16 90.31 18.51 129.18 27.48Z"/></clipPath><clipPath id="i"><path fill="#e93835" d="M1069.55 1211.36c17.75 25.26 20.65 32.79 37.13 56.17 19.19 27.21 55.58 51.49 92.75 17.1l81-100.62c7.89-4.47 14.38-11.44 19.39-19.49a81 81 0 0 0 6.46-12.9c6.77-17 7.84-35.51 2.55-45.37-9.29-17.32-38.21 2.11-38.87 2.55.39-1 19.85-48-2.15-61.94-22.21-14.1-44 14.52-76.24 20.09-4.13.7-8.44 1.22-12.9 1.67-30.44 3.05-67.21 2.59-90.31 34.64-26.49 36.74-6.13 60.24-6.13 60.24a57.6 57.6 0 0 0-11.54 12.23c-6.22 8.96-10.8 21.9-1.14 35.63Z"/></clipPath><clipPath id="j"><path fill="#ffc63a" d="M1123.78 1436.27c-31.41 35-10.48 91.5 36.29 96.56q1.44.15 2.88.27c71.38 5.79 226.41 58.3 268.15 72.42 49.9 16.88 156.79 5.56 156.79 5.56s4.41-63.07-15.23-62.5c0 0-106.89-48.55-143.82-61.67-72.11-25.6-252.08-113-279.49-80-7.25 8.7-16.25 18.97-25.57 29.36Z"/></clipPath></defs><g data-name="8"><path fill="#fcf1dd" d="M3276.16 973.58c-1.13-11.47-.22-22.81-.22-33.9 0-2.64 0-5.24-.18-7.84-10.15-194.56-137.1-320.3-304.63-392.64q-8.13-3.53-16.34-6.84c-267.17-108.27-628.41-86-788.32 7.1-272.09 158.39-270.39 349-832.25 286.14s-669 463-522.75 730.88C1019 1936.63 236 1874.19 729.6 2621.19l3009.69-1s508.61-701 237.36-1169.88-667.46-137.96-700.49-476.73Z"/><rect width="994.15" height="566.48" x="1722.45" y="1707.84" fill="#83bcca" rx="42.79"/><path fill="#6c98ad" d="M1786.36 1820.49h244.82v141.84h-244.82z"/><path fill="#fff" d="M2219.52 1784.56h434.14v26.48h-434.14z"/><path d="M2218.52 1812h436.14v-28.48h-436.14Zm2-26.48h432.14V1810h-432.14Z"/><path fill="#6c98ad" d="M1822.42 2087.14h798.98v32.71h-798.98zM1822.42 2164.17h798.98v32.71h-798.98z"/><path fill="#fec972" d="m2177.77 2178.25-547-265.64a42.79 42.79 0 0 0-57.19 19.8L1438.25 2211a42.78 42.78 0 0 0 19.8 57.18l547.05 265.64a42.78 42.78 0 0 0 57.18-19.8l135.29-278.6a42.8 42.8 0 0 0-19.8-57.17Z"/><path fill="#faa94d" d="M1603.74 1980.52h98.97v170.83h-98.97z" transform="rotate(-64.1 1653.183 2065.926)"/><path fill="#faa94d" d="M2003.84 2016.59h18.47v302.94h-18.47z" transform="rotate(-64.1 2013.032 2168.05)"/><path fill="#faa94d" d="M1773.73 2015.75h22.83v557.52h-22.83z" transform="rotate(-64.1 1785.093 2294.495)"/><path fill="#faa94d" d="M1750.25 2064.1h22.82v557.52h-22.82z" transform="rotate(-64.1 1761.618 2342.84)"/><rect width="610.51" height="347.88" x="1233.02" y="2269.4" fill="#6bc9cd" rx="42.79"/><path fill="#499aa0" d="M1272.27 2338.58h150.34v87.1h-150.34zM1538.27 2316.51h266.61v16.26h-266.61zM1294.41 2502.33h490.65v20.09h-490.65zM1294.41 2549.63h490.65v20.09h-490.65z"/><path fill="#ffd49e" d="M2772.64 2126.46a42.78 42.78 0 0 0-49.5-34.8l-654.57 114.07a42.79 42.79 0 0 0-34.81 49.5l58.68 336.71a42.79 42.79 0 0 0 49.5 34.81l654.57-114.07a42.79 42.79 0 0 0 34.81-49.5Z"/><path fill="#fec972" d="M2096.33 2271.87h184.7v107.01h-184.7z" transform="matrix(.99 -.17 .17 .99 -366.73 410.29)"/><path fill="#499aa0" d="M2405.07 2177.45h327.53v19.97h-327.53z" transform="rotate(-9.89 2567.615 2186.555)"/><path fill="#fec972" d="M2147.49 2430.11h602.77v24.68h-602.77z" transform="rotate(-9.89 2447.692 2441.437)"/><path fill="#fec972" d="M2157.47 2487.35h602.77v24.68h-602.77z" transform="rotate(-9.89 2457.646 2498.657)"/><path fill="#499aa0" d="M815.52 2348.66c-29.89-26.49-39.6-55.59-39.6-55.59s50.44-58.85 3.11-96.23c0 0-34.58-20.93-62.77-19.23 0 0 40 67 27 73.65s-39.13-77.85-39.13-77.85-78.68-7.63-104 4.54c0 0 67.26 55 53.1 58.31s-86.82-50.74-86.82-50.74-73.23 12.46-69.33 57.13 29.14 58.47 40.23 57.28 76-26 77.38-16.87-37.64 38.79-65 40.18c0 0 51.63 56.93 85.95 40.5s37.24-42.48 58.63-52.25 39.64-9.74 30.81.22-47.54 19.65-59.77 41.28-23.21 36.23 12.29 30.89 93.21-31.32 95.74-61.06c.11-1.31.22-2.53.32-3.72a14.41 14.41 0 0 1-.32 3.72c7.4 1.32 22.75 14.91 33.86 25.59 1.71 1.88 4.26 4.41 7.9 7.77 1.55 1.57 2.82 2.87 3.68 3.76 22.33 24.85 34.61 77.4 34.61 77.4l7.75-.7c-2.93-56.41-45.62-87.98-45.62-87.98Z"/><path fill="#00b4bd" d="M1141.67 2013.63s-58.85 89.88-76 92S1101 2019 1101 2019c-33.17-3.21-117.69 37.45-117.69 37.45s5.35 104.85-11.77 102.71 0-93.08 0-93.08c-32.1 9.63-62.06 47.08-62.06 47.08-37.45 61 42.8 105.92 42.8 105.92l15 32.1c15 32.1 89.87 37.45 131.6 28.89s23.54-20.33 1.07-39.43-69.55-14.07-83.45-21.56 6.41-15 34.23-12.84 41.73 30 86.67 34.24 79.17-80.25 79.17-80.25c-31 9.63-86.66-7.48-88.8-18.19s80.24-9.62 93.08-12.83 35.31-28.89 21.4-80.25-100.58-35.33-100.58-35.33Z"/><path fill="#00768e" d="M952.29 2219.06s1.07 36.38-21.4 78.11c0 0-34.65 52.61-14.9 116.67l8.92-2.4s-7.79-63.55 6.92-100.36c.6-1.35 1.47-3.29 2.55-5.67 2.68-5.25 4.48-9.12 5.63-11.92 8-16.43 19.55-37.84 27.25-42.33 0 0-50.29-70.62 235.38-186.17.01.01-224.64 72.76-250.35 154.07Z"/><path fill="#6bc9cd" d="M799.24 1955.4s22.57 119.88 0 122.71-15.51-135.4-15.51-135.4-111.42-53.59-155.15-49.36c0 0 69.11 117.06 46.55 114.24S575 1886.29 575 1886.29s-114.24-21.15-132.57 46.55 11.28 101.54 28.2 105.78 125.53 2.82 122.7 16.92-76.15 36.67-117.06 24c0 0 45.14 111.41 104.37 105.77s77.57-42.31 114.24-45.13 63.47 7.05 45.13 16.93-80.39 3.23-110 28.41-53.59 40.69 1.42 52 153.73 4.23 173.47-38.08l19.75-42.31s105.75-59.28 56.35-139.67c0 0-39.45-49.36-81.76-62.06Z"/><path fill="#00b4bd" d="M824.63 2157.09c-33.85-107.19-330-203.1-330-203.1 376.57 152.32 310.28 245.41 310.28 245.41 10.15 5.92 25.36 34.14 35.92 55.8 1.51 3.69 3.89 8.79 7.43 15.71 1.43 3.13 2.58 5.69 3.37 7.48 19.39 48.51 9.12 132.29 9.12 132.29l11.75 3.16c26-84.44-19.64-153.8-19.64-153.8-29.65-55.04-28.23-102.95-28.23-102.95Z"/><path fill="#ffd49e" d="M828.19 2596.93c114.44 0 207.2-92.77 207.2-207.2H621c0 114.43 92.76 207.2 207.19 207.2Z"/><path fill="#fec972" d="M1012.69 2584.19h-369a25.56 25.56 0 0 0-25.56 25.56h420.12a25.56 25.56 0 0 0-25.56-25.56Z"/><path fill="#faa94d" d="M1039 2389.72H619.45a3.18 3.18 0 0 0 0 6.36H1039a3.18 3.18 0 1 0 0-6.36Z"/><path fill="#0877bc" d="M3681 746.27H2541.36a118.06 118.06 0 0 0-117.91 112.06l-84.12 1652.24a87.06 87.06 0 0 0 85.37 91.48l1306.15 23.74a82.64 82.64 0 0 0 84.14-82.63V880.28A134 134 0 0 0 3681 746.27Z"/><path fill="#045486" d="M3677.48 732.88c-155.63 21.1-690.78 86.37-1133.25 52.41a36 36 0 0 0-38.76 34l-88.2 1659.6a41.41 41.41 0 0 0 38.91 43.56c186.09 11 952.47 53.59 1225.83 25a32.81 32.81 0 0 0 29.36-32.48l10.26-1743.27a38.93 38.93 0 0 0-44.15-38.82Z"/><path fill="#e7f6fd" d="M3660.81 775.93C3511 796.24 2996 859.05 2570.24 826.37a34.63 34.63 0 0 0-37.3 32.67l-84.89 1597.11a39.87 39.87 0 0 0 37.45 41.92c179.09 10.6 916.61 51.57 1179.67 24a31.58 31.58 0 0 0 28.26-31.25l9.87-1677.54a37.46 37.46 0 0 0-42.49-37.35Z"/><path fill="#fff" d="m3540.73 912.22-374.82 13.11a27.43 27.43 0 0 0-26 22.32c-14.64 78.13-10 265-7.85 329.24a24.3 24.3 0 0 0 23 23.5c111.57 5.81 309.17 1 372.59-.79a21.78 21.78 0 0 0 21.12-20.77l15.91-342.4a23.16 23.16 0 0 0-23.95-24.21Z"/><path fill="#0877bc" d="M3039.88 935.67 2626.31 943c-6.64.12-12.23 5.39-12.41 11.71s5.1 11.48 11.74 11.48H3029c6.64 0 13.88-5.12 16.09-11.39l2.81-8c2.25-6.22-1.38-11.25-8.02-11.13Z" opacity=".6"/><path fill="#0877bc" d="m3039.88 1042.35-413.57 7.37c-6.64.12-12.23 5.38-12.41 11.7s5.1 11.49 11.74 11.49H3029c6.64 0 13.88-5.13 16.09-11.39l2.81-8c2.25-6.26-1.38-11.29-8.02-11.17Z" opacity=".6"/><path fill="#0877bc" d="m3039.88 1159.16-413.57 7.37c-6.64.12-12.23 5.39-12.41 11.71s5.1 11.48 11.74 11.48H3029c6.64 0 13.88-5.12 16.09-11.39l2.81-8c2.25-6.25-1.38-11.28-8.02-11.17Z" opacity=".6"/><path fill="#0877bc" d="m3552.69 1376.45-965.46 7.61c-6.64.06-12.41 5.27-12.83 11.59s4.67 11.48 11.32 11.48h942.47c6.64 0 15.46-4.25 19.6-9.45l9.45-11.87c4.14-5.2 2.09-9.41-4.55-9.36Z" opacity=".6"/><path fill="#0877bc" d="M3547.15 1746.67c-6.84-.46-16.49-1.29-26.69-2.16-21.5-1.83-48.25-4.1-63.3-4.29-10.92-.06-20.18 6.41-22.76 15.92-4.23 15.65-3.86 45.28-3.05 76.84.26 10.26 9.57 18.52 20.81 18.52h.22l81.27-.78c11.61-.11 21.19-8.1 22.3-18.58l7.14-68.19a14.83 14.83 0 0 0-3.5-11.14 17.88 17.88 0 0 0-12.44-6.14Zm9.73 16.63-7.14 68.19c-.77 7.32-7.71 12.91-16.15 13l-81.27.78h-.16c-7.88 0-14.4-5.55-14.57-12.44-.8-31.08-1.18-60.21 2.84-75.06 1.8-6.65 8.72-11.28 16.65-11.3 14.83.18 41.45 2.45 62.85 4.27 10.23.88 19.9 1.7 26.8 2.17a11.57 11.57 0 0 1 8.08 3.92 8.63 8.63 0 0 1 2.07 6.47Z"/><path fill="#fff" d="M3538 1759.94c-17.08-1.17-54.18-4.94-71.78-5.16-7.46-.09-14 4.42-15.75 10.88-3.39 12.56-2.94 37.59-2.35 60.7.17 6.92 6.53 12.44 14.29 12.37l64.94-.63c8-.08 14.62-5.52 15.36-12.61l5.71-54.49c.58-5.64-4.11-10.63-10.42-11.06Z"/><path fill="#0877bc" d="m3361.18 1780.9-751.95 3.43a15.26 15.26 0 0 0-.06 30.51l751.93 6.41a20.18 20.18 0 1 0 .08-40.35Z" opacity=".6"/><path fill="#0877bc" d="M3552.47 1568.17c-6.85-.46-16.49-1.29-26.7-2.15-21.49-1.83-48.24-4.11-63.29-4.3-10.92 0-20.19 6.41-22.76 15.92-4.23 15.65-3.86 45.28-3.06 76.84.26 10.26 9.58 18.52 20.82 18.52h.22l81.27-.78c11.61-.11 21.19-8.1 22.29-18.58l7.14-68.19a14.79 14.79 0 0 0-3.5-11.14 17.84 17.84 0 0 0-12.43-6.14Zm9.73 16.63-7.15 68.19c-.76 7.32-7.71 12.91-16.15 13l-81.26.78h-.17c-7.87 0-14.39-5.55-14.57-12.43-.79-31.09-1.17-60.22 2.84-75.06 1.8-6.66 8.73-11.29 16.66-11.31 14.82.19 41.45 2.45 62.84 4.28 10.24.87 19.91 1.69 26.8 2.16a11.55 11.55 0 0 1 8.09 3.93 8.64 8.64 0 0 1 2.07 6.46Z"/><path fill="#fff" d="M3543.3 1581.44c-17.07-1.17-54.18-4.94-71.78-5.15-7.45-.1-14 4.41-15.74 10.87-3.4 12.56-3 37.59-2.36 60.7.18 6.92 6.53 12.44 14.29 12.37l64.95-.63c8-.07 14.61-5.52 15.36-12.61l5.71-54.49c.59-5.64-4.1-10.63-10.43-11.06Z"/><path fill="#0877bc" d="m3366.49 1602.4-751.94 3.43a15.26 15.26 0 0 0-.06 30.52l751.92 6.41a20.18 20.18 0 1 0 .08-40.36Z" opacity=".6"/><path fill="#0877bc" d="M3547.15 1920.85c-6.84-.47-16.49-1.29-26.69-2.16-21.5-1.83-48.25-4.11-63.3-4.29h-.33c-10.68 0-19.88 6.51-22.43 15.92-4.23 15.66-3.86 45.29-3.05 76.85.26 10.25 9.57 18.52 20.81 18.52h.22l81.27-.78c11.61-.12 21.19-8.11 22.3-18.58l7.14-68.19a14.83 14.83 0 0 0-3.5-11.14 17.84 17.84 0 0 0-12.44-6.15Zm9.73 16.63-7.14 68.18c-.77 7.33-7.71 12.91-16.15 13l-81.27.78h-.16c-7.88 0-14.4-5.55-14.57-12.44-.8-31.08-1.18-60.21 2.84-75.06 1.8-6.65 8.82-11.43 16.65-11.3 14.83.18 41.45 2.45 62.85 4.27 10.23.87 19.9 1.7 26.8 2.17a11.57 11.57 0 0 1 8.08 3.92 8.63 8.63 0 0 1 2.07 6.48Z"/><path fill="#fff" d="M3538 1934.11c-17.08-1.16-54.18-4.93-71.78-5.15-7.46-.09-14 4.41-15.75 10.88-3.39 12.56-2.94 37.59-2.35 60.69.17 6.92 6.53 12.45 14.29 12.37l64.94-.62c8-.08 14.62-5.52 15.36-12.61l5.71-54.49c.58-5.64-4.11-10.63-10.42-11.07Z"/><path fill="#0877bc" d="m3361.18 1955.08-751.95 3.43a15.26 15.26 0 0 0-.06 30.51l751.93 6.41a20.18 20.18 0 1 0 .08-40.35Z" opacity=".6"/><path fill="#fbbd92" d="M3142.65 500.36c-25.2-7.43-61-8-102.16 20.64-80.73 56.16-2.32 162.28-2.32 162.28l129.31-11.48 10.86-118.6a50.25 50.25 0 0 0-35.69-52.84Zm-45.3 116.32a32.24 32.24 0 1 1 32.25-32.24 32.24 32.24 0 0 1-32.25 32.24Z"/><path fill="#fff" d="M3156.57 596.79a3.1 3.1 0 0 0-3.39 2.83l-1.73 18.89a3.12 3.12 0 0 0 2.82 3.39h.29a3.11 3.11 0 0 0 3.1-2.83l1.73-18.89a3.12 3.12 0 0 0-2.82-3.39ZM3128.36 517.39a96.55 96.55 0 0 0-47.26-1.94 3.12 3.12 0 0 0 1.25 6.11 90.48 90.48 0 0 1 44.24 1.81 41.73 41.73 0 0 1 29.57 43.78l-1.32 14.34a3.11 3.11 0 0 0 2.82 3.39h.29a3.11 3.11 0 0 0 3.1-2.84l1.32-14.34a48 48 0 0 0-34.01-50.31Z"/><path fill="#fbbd92" d="m3306.32 652.46-411.13 14.08a35.39 35.39 0 0 0-34.11 33.25l-3.44 57.3 486.36-8.64v-59.63a36.38 36.38 0 0 0-37.68-36.36Z"/><path fill="#fff" d="M3208.33 668.68h-17.68a3.12 3.12 0 1 0 0 6.24h17.68a3.12 3.12 0 0 0 0-6.24ZM3291 668.68h-65a3.12 3.12 0 1 0 0 6.24h65a27.59 27.59 0 0 1 27.56 27.56v24.13a3.12 3.12 0 0 0 6.24 0v-24.13a33.84 33.84 0 0 0-33.8-33.8Z"/><path fill="#faa94d" d="M3511.47 763.51a38.73 38.73 0 0 0-38.69-36.88h-718.94a53.14 53.14 0 0 0-52.36 44.07l-.61 3.52a45.63 45.63 0 0 0 45 53.42h737.59a29.68 29.68 0 0 0 29.64-31.1Z"/><path fill="#045486" d="M3043.92 2171.6a33.83 33.83 0 0 0-16.94-2.38 35.05 35.05 0 0 0-9.41 2.37c-1.73 7.87-3.6 15.71-5.55 23.53.68-.45 1.35-.92 2.05-1.36l4.24-2.84 2.12-1.42 1-.67.78-.46a19.26 19.26 0 0 1 6.8-2.32 16.75 16.75 0 0 1 11.11 2.17q1.48-6.19 2.86-12.41Z"/><path fill="#045486" d="M3034.08 2286.11a34.81 34.81 0 0 1 6.4-4.14q5.28-18.49 10.46-37l5.66-20.14 2.84-10.16a75.74 75.74 0 0 0 2.26-11.46 34.82 34.82 0 0 0-.94-13.4 26.93 26.93 0 0 0-7.87-12.51 30.9 30.9 0 0 0-9-5.68l-.93 4.21q-1.36 6.21-2.86 12.41a14.86 14.86 0 0 1 1.88 1.34 10.51 10.51 0 0 1 3.29 4.85 18.81 18.81 0 0 1 .61 7.32 59.19 59.19 0 0 1-1.58 9.08l-2.52 10.06-5.13 20.28c-5.34 20.93-10.49 41.91-15.68 62.87a52.93 52.93 0 0 1 3.55-6.95 43.27 43.27 0 0 1 9.56-10.98Z"/><path fill="#045486" d="M3029 2186.05a19.26 19.26 0 0 0-6.8 2.32l-.78.46-1 .67-2.12 1.42-4.24 2.84c-.7.44-1.37.91-2.05 1.36q-1.91 7.62-3.89 15.21a972.44 972.44 0 0 1-56.19 155.06l-8.86 18.65c-3.11 6.14-6.14 12.32-9.31 18.43l-4.81 9.14-2.41 4.56-2.36 4.25a117 117 0 0 1-10.68 15.64 64 64 0 0 1-12.65 12.13c-4.48 3.1-9 4.86-13.23 5.1a18.29 18.29 0 0 1-6.4-.67 17.5 17.5 0 0 1-6-2.73 26.12 26.12 0 0 1-8.93-11.11c-4.23-9.73-4.14-21.69-1.38-34.15a184.92 184.92 0 0 1 5.34-19.13l3.1-9.65 3.54-9.51a356 356 0 0 1 37.18-72.09 361 361 0 0 1 52.35-62.19l3.67-3.54 3.81-3.38 7.61-6.78c2.59-2.2 5.26-4.3 7.89-6.46s5.23-4.35 8-6.31c4.81-3.54 9.58-7.15 14.56-10.47 1.95-7.82 3.82-15.66 5.55-23.53a36.2 36.2 0 0 0-3.58 1.65l-1.5.83c-.49.28-.79.49-1.19.74l-2.26 1.42-4.54 2.87c-6.12 3.7-11.91 7.88-17.77 12-3 2-5.75 4.24-8.6 6.41s-5.68 4.34-8.47 6.57l-8.19 6.93-4.09 3.47-3.93 3.66a384.82 384.82 0 0 0-96.8 140.34l-3.91 10-3.47 10.2a204.45 204.45 0 0 0-6.21 21.06 99.27 99.27 0 0 0-2.81 23.37 66.21 66.21 0 0 0 4.83 24.72 49.33 49.33 0 0 0 16.74 21.25 40.85 40.85 0 0 0 12.82 6.2 39.22 39.22 0 0 0 7 1.47 34.52 34.52 0 0 0 7.25.26c9.76-.47 18.55-4.33 25.53-9.1a87.69 87.69 0 0 0 17.68-16.5 141.78 141.78 0 0 0 13.06-18.75l2.76-4.87 2.51-4.66 5-9.34c3.3-6.24 6.46-12.56 9.7-18.83l9.25-19.07a954.23 954.23 0 0 0 58.55-158.89c2.53-9.56 5-19.14 7.26-28.76a16.75 16.75 0 0 0-11.13-2.19Z"/><path fill="#045486" d="M3043.92 2171.6c1.21-5.5 2.41-11 3.46-16.54l2.07-10.39c.68-3.69 1.3-7.47 1.71-11.32a91.58 91.58 0 0 0-.17-24.28 56.41 56.41 0 0 0-1.39-6.5 48.15 48.15 0 0 0-2.27-6.63 40.65 40.65 0 0 0-8.31-12.58c-15.42-15.48-38.24-15.08-54.14-6.3-1 .53-2.09 1.18-2.91 1.69l-2.26 1.49-4.53 3-9 6c-5.93 4.12-11.64 8.55-17.41 12.88-5.65 4.5-11 9.31-16.55 13.95-5.36 4.82-10.47 9.91-15.7 14.85a375.18 375.18 0 0 0-53.42 67.5c-30.18 48.76-49.4 104.35-53.84 161a6 6 0 0 0 11.91 1.47 386.27 386.27 0 0 1 112.43-212.61c5-4.52 9.87-9.19 15-13.59 5.25-4.22 10.36-8.62 15.7-12.7 5.49-3.88 10.77-8.06 16.33-11.84l8.46-5.48 4.22-2.75 2.12-1.37c.66-.41 1.06-.64 1.61-.93a23.71 23.71 0 0 1 13.08-2.86 20 20 0 0 1 6 1.53 13.38 13.38 0 0 1 4.36 3.06c2.42 2.34 4.12 6.54 5 11.77a66.21 66.21 0 0 1 .07 17.43c-.31 3.08-.82 6.19-1.39 9.37l-2 10.12c-1.27 6.76-2.76 13.48-4.22 20.2-.1.45-.21.9-.31 1.36a35.05 35.05 0 0 1 9.41-2.37 33.83 33.83 0 0 1 16.88 2.37ZM3016.43 2322.42v-.07q2.28-9.15 4.55-18.33a65.69 65.69 0 0 0-4.74 19.39l11.77 2.1v-.06q2.92-10.3 5.88-20.59a51.14 51.14 0 0 0-5.72 19.66ZM3413 2179.16a6 6 0 0 0-8.43 1 312.48 312.48 0 0 1-72.35 66.22c-3.43 2.25-6.89 4.46-10.41 6.58-1.73 1.09-3.53 2.09-5.3 3.13l-2.65 1.55-2.37 1.08a26.7 26.7 0 0 1-9.82 2.45 26 26 0 0 1-9.9-1.77 26.37 26.37 0 0 1-13.35-11.31q-3.69 5.16-7.5 10.24a38.48 38.48 0 0 0 31.15 14.84 38.87 38.87 0 0 0 14.37-3.51l3.32-1.57 2.77-1.61c1.84-1.08 3.7-2.12 5.5-3.25 3.65-2.2 7.25-4.49 10.81-6.83a324.58 324.58 0 0 0 75.14-68.79 6 6 0 0 0-.98-8.45Z"/><path fill="#045486" d="M3277.14 2245.76a24.22 24.22 0 0 1-2-14q-5.16 7.52-10.55 14.86a33 33 0 0 0 1.65 4.16 40.32 40.32 0 0 0 4.63 7.52q3.81-5.08 7.5-10.24c-.44-.74-.86-1.52-1.23-2.3ZM3034.08 2286.11a43.27 43.27 0 0 0-9.53 11 52.93 52.93 0 0 0-3.55 6.89q-2.28 9.18-4.55 18.33v.07l11.78 2.1a51.14 51.14 0 0 1 5.72-19.66q3.27-11.45 6.55-22.89a34.81 34.81 0 0 0-6.42 4.16Z"/><path fill="#045486" d="M3264.59 2246.63q-11.52 15.67-24.11 30.54-16.08 18.91-33.82 36.32l-4.44 4.34-1.94 1.58-1 .8-1.06.59a18.88 18.88 0 0 1-9.11 2.91 23.2 23.2 0 0 1-4.85-.19 23.91 23.91 0 0 1-4.69-1.41 20.61 20.61 0 0 1-7.92-5.62 19.94 19.94 0 0 1-4.42-8.45 11.92 11.92 0 0 1-.39-2.39 9.39 9.39 0 0 1-.16-2.43l.08-2.48c.07-.94.23-2 .34-3 1-8.11 2.41-16.18 4.17-24.16s3.91-15.89 6.44-23.67l1.94-5.81 1-2.89a20.55 20.55 0 0 0 .61-2 10.4 10.4 0 0 0 .45-2.4 15.56 15.56 0 0 0-2.13-9.77 16.48 16.48 0 0 0-7.31-6.43 15.89 15.89 0 0 0-9.82-1.11 16.56 16.56 0 0 0-8.5 4.85l-8.58 9.15-17.17 18.31-17.16 18.31-8.59 9.16-1.07 1.14-.89.87a19.24 19.24 0 0 1-6 4 21.47 21.47 0 0 1-18.88-1.25l-2.37-1.49a29 29 0 0 0-3.51-1.89 28.23 28.23 0 0 0-7.51-2.26 34.71 34.71 0 0 0-15 1 41.25 41.25 0 0 0-6.78 2.69q-3.27 11.45-6.55 22.89c.28-.5.55-1 .84-1.5 3.78-6.18 9.2-10.67 15.8-12.53a22.61 22.61 0 0 1 9.8-.67 17.1 17.1 0 0 1 6.47 2.41l2.95 1.83a33.54 33.54 0 0 0 29.48 1.85 31.5 31.5 0 0 0 6.68-3.85 30.3 30.3 0 0 0 2.92-2.5l1.35-1.33 1.07-1.14 8.58-9.16L3137 2260l17.17-18.31 8.58-9.16a3.83 3.83 0 0 1 4.61-1 4.47 4.47 0 0 1 2 1.71 3.47 3.47 0 0 1 .46 2.28 1.56 1.56 0 0 1-.13.67 6.67 6.67 0 0 1-.28 1l-1.07 3-2 6.08c-2.64 8.14-4.86 16.41-6.73 24.76s-3.31 16.79-4.36 25.28l-.37 3.22-.14 3.8a17.38 17.38 0 0 0 .24 3.8 23.08 23.08 0 0 0 .64 3.79 31.92 31.92 0 0 0 7.07 13.56 32.65 32.65 0 0 0 12.34 8.78 36 36 0 0 0 7.29 2.16 35 35 0 0 0 7.66.33 30.89 30.89 0 0 0 14.53-4.63l1.65-1 1.48-1.19 2.91-2.41 4.53-4.43q18.09-17.78 34.56-37.12 11-13 21.24-26.63a40.32 40.32 0 0 1-4.63-7.52 33 33 0 0 1-1.66-4.19Z"/><path fill="#045486" d="m3276.6 2226 .4-1.24.61-1.38 1.23-2.76c.83-1.83 1.72-3.63 2.63-5.43q2.75-5.37 5.9-10.53a148.19 148.19 0 0 1 14.22-19.45c1.32-1.51 2.65-3 4-4.48.42-.45.85-.89 1.28-1.33l1.23-2.28.36-.69c0-.07 0 0 0 0s-.05.08 0 .14c0 .46.19.56.14.51a.43.43 0 0 0 .27 0 2.18 2.18 0 0 0 .36-.08s0 0-.07 0l-.49.5-1.05 1.07c-.28.27-.54.56-.81.84l-.24.45-2.94 5.47-6.08 10.82q-10.56 18.24-22.5 35.65a24.22 24.22 0 0 0 2 14c.37.78.79 1.56 1.23 2.31q15.93-22.25 29.67-45.94l6.21-11.06 3-5.59 1.5-2.8.38-.7c.19-.39.42-.92.6-1.39a10.86 10.86 0 0 0 .72-3.18 11.56 11.56 0 0 0-5.95-10.86 11.7 11.7 0 0 0-6.29-1.48 11.09 11.09 0 0 0-6.18 2.32c-.41.32-.82.67-1.18 1l-.58.58-1.14 1.16c-.77.77-1.52 1.56-2.26 2.36-1.5 1.57-2.94 3.2-4.37 4.84a162.76 162.76 0 0 0-15.36 21q-3.41 5.57-6.37 11.36c-1 1.94-1.94 3.89-2.84 5.86l-1.33 3-.65 1.49-.6 1.73a38.25 38.25 0 0 0-.76 24.85q5.38-7.34 10.55-14.86a28.74 28.74 0 0 1 1.55-5.8Z"/><path fill="#045486" d="m3308.76 2177.47.49-.5a2.18 2.18 0 0 1-.36.08.43.43 0 0 1-.27 0c.05 0-.15-.05-.14-.51 0-.06.07-.15 0-.14l-.36.69-1.23 2.28c.27-.28.53-.57.81-.84Z"/><circle cx="751.11" cy="1126.82" r="278.3" fill="#fbb56d"/><circle cx="764.2" cy="1103.5" r="269.8" fill="#ffd49e" transform="rotate(-45 764.203 1103.497)"/><path fill="#faa94d" d="M901.29 950a15.65 15.65 0 0 0-19.36-11.44l-286.74 78.71a21.22 21.22 0 0 0-15.11 25l44.11 200a24.08 24.08 0 0 0 28.7 18.34l291.87-64.36a14.85 14.85 0 0 0 11.25-18Z"/><path fill="#ffe7c4" d="M888.53 958.65a7.44 7.44 0 0 0-9.15-5.14l-287.88 79.71a6.47 6.47 0 0 0-4.46 8.11c23.09 76.35 32.34 172.8 34.66 200.94a7 7 0 0 0 8.52 6.24l305.56-69.26a5.89 5.89 0 0 0 4.57-6.41c-5.55-49.09-42.69-181.95-51.82-214.19Z"/><path fill="#fcbb6e" d="M629.1 994.61a5.37 5.37 0 0 0-8.41-3.61l-5.08 3.57a5.39 5.39 0 0 0-2.16 5.55l8.6 39a5.37 5.37 0 0 0 6.4 4.09l2.67-.58a5.39 5.39 0 0 0 4.16-6ZM683.16 979.63a5.38 5.38 0 0 0-8.42-3.61l-5.07 3.57a5.36 5.36 0 0 0-2.16 5.55l8.6 39a5.36 5.36 0 0 0 6.4 4.09l2.67-.58a5.39 5.39 0 0 0 4.16-6ZM756.09 963.55a5.38 5.38 0 0 0-8.41-3.62l-5.08 3.58a5.37 5.37 0 0 0-2.15 5.55l8.59 39a5.38 5.38 0 0 0 6.41 4.09l2.66-.59a5.37 5.37 0 0 0 4.16-6ZM828.16 943.52a5.37 5.37 0 0 0-8.41-3.61l-5.08 3.57a5.4 5.4 0 0 0-2.16 5.56l8.6 39a5.37 5.37 0 0 0 6.4 4.09l2.67-.58a5.38 5.38 0 0 0 4.16-6Z"/><path fill="#fec972" d="M801.79 1036.77a5.65 5.65 0 0 0-7.1-4.22l-20.42 5.93a5.65 5.65 0 0 0-3.95 6.65l4.46 20.21a5.65 5.65 0 0 0 6.82 4.29l20.66-4.89a5.67 5.67 0 0 0 4.22-6.72ZM725.3 1058.51a5.64 5.64 0 0 0-7-4.23l-20.51 5.72a5.67 5.67 0 0 0-4 6.67l3.8 17.21a5.67 5.67 0 0 0 6.83 4.29l20.65-4.9a5.65 5.65 0 0 0 4.22-6.72ZM751.66 1178.06a6.17 6.17 0 0 0-7.42-4.69l-19.67 4.63a6.17 6.17 0 0 0-4.63 7.34l4.07 18.47a6.17 6.17 0 0 0 7.23 4.72l19.81-3.93a6.17 6.17 0 0 0 4.83-7.38ZM713 1186.94a6.07 6.07 0 0 0-7.3-4.6l-19.89 4.66a6.07 6.07 0 0 0-4.55 7.22l3.84 17.41a6.06 6.06 0 0 0 7.11 4.64l20-4A6.06 6.06 0 0 0 717 1205ZM695.72 1108.66a6.53 6.53 0 0 0-7.93-4.93l-18.92 4.63a6.52 6.52 0 0 0-4.82 7.75l3.12 14.16a6.53 6.53 0 0 0 7.71 5l19.07-4a6.52 6.52 0 0 0 5-7.79ZM703.49 1143.89a6.08 6.08 0 0 0-7.17-4.64l-19.51 4.07a6.52 6.52 0 0 0-5 7.8l5 22.86a6.06 6.06 0 0 0 7.35 4.6l19.83-4.82a6.07 6.07 0 0 0 4.5-7.2ZM763.57 1047.75a5.65 5.65 0 0 0-7.05-4.23l-20.47 5.75a5.67 5.67 0 0 0-4 6.67l4.15 18.82a5.66 5.66 0 0 0 6.83 4.29l20.65-4.89a5.66 5.66 0 0 0 4.22-6.73ZM742.37 1135.89a6.18 6.18 0 0 0-7.29-4.71l-19.77 4.12a6.17 6.17 0 0 0-4.77 7.37l4.82 21.85a6.18 6.18 0 0 0 7.49 4.67l19.62-4.77a6.17 6.17 0 0 0 4.57-7.33ZM772.44 1087.94a4.69 4.69 0 0 0-5.69-3.54l-22.51 5.51a4.69 4.69 0 0 0-3.46 5.56l4.49 20.39a4.68 4.68 0 0 0 5.53 3.57l22.69-4.73a4.67 4.67 0 0 0 3.61-5.59ZM811.26 1079.71a5.88 5.88 0 0 0-7.15-4.45l-20.17 4.93a5.89 5.89 0 0 0-4.35 7l4.28 19.42a5.89 5.89 0 0 0 7 4.49l20.33-4.24a5.89 5.89 0 0 0 4.55-7ZM733.88 1097.38a4.68 4.68 0 0 0-5.69-3.54l-22.51 5.51a4.68 4.68 0 0 0-3.46 5.56l4.2 19a4.67 4.67 0 0 0 5.53 3.57l22.68-4.73a4.68 4.68 0 0 0 3.62-5.59ZM781.22 1127.79a6.18 6.18 0 0 0-7.29-4.71l-19.76 4.12a6.17 6.17 0 0 0-4.77 7.37l4.54 20.58a6.16 6.16 0 0 0 7.48 4.67l19.63-4.76a6.18 6.18 0 0 0 4.57-7.33ZM819.93 1119a5.48 5.48 0 0 0-6.46-4.18l-21.15 4.41a5.46 5.46 0 0 0-4.22 6.53l4.57 20.72a5.47 5.47 0 0 0 6.63 4.14l21-5.1a5.45 5.45 0 0 0 4-6.49ZM687.28 1070.38a7 7 0 0 0-8.72-5.23L661.3 1070a7.68 7.68 0 0 0-5.42 9l2.39 10.84a8.57 8.57 0 0 0 10.35 6.49l15.67-3.71a7.84 7.84 0 0 0 5.85-9.32ZM674.42 1196.39a6.52 6.52 0 0 0-7.85-5l-6.84 1.59c-5.19 1.21-8.6 5.66-7.64 10l2.77 12.55c.94 4.3 5.84 6.91 11 5.88l7.39-1.47a6.07 6.07 0 0 0 4.75-7.26ZM904.06 1144.65c-1-4.42-6.11-7-11.41-5.8l-13.44 3.15a6.17 6.17 0 0 0-4.63 7.35l5.18 23.51a6.18 6.18 0 0 0 7.24 4.73l13.49-2.67c5.37-1.07 9-5.63 8-10.08ZM664.73 1152.43a6.53 6.53 0 0 0-7.71-5l-6.75 1.4c-5.33 1.11-8.88 5.64-7.91 10.06l4.45 20.16c1 4.46 6.18 7.07 11.51 5.78l6.66-1.62a6.52 6.52 0 0 0 4.83-7.75ZM656.81 1116.51a4.93 4.93 0 0 0-6-3.73l-8.45 2.07c-5.13 1.25-8.46 5.67-7.52 10l2.24 10.15c1 4.34 5.92 6.94 11.14 5.86l8.45-1.76a5 5 0 0 0 3.81-5.9ZM876.26 1018.58c-1-4.59-6.49-7.19-11.92-5.67l-13.34 3.75a5.89 5.89 0 0 0-4.16 6.93l5.12 23.23a5.89 5.89 0 0 0 7.11 4.46l13.86-3.28c5.18-1.23 8.56-5.67 7.6-10ZM790.32 1169.07a6.17 6.17 0 0 0-7.42-4.69l-19.67 4.62a6.17 6.17 0 0 0-4.63 7.34L763 1196a6.18 6.18 0 0 0 7.23 4.73l19.81-3.93a6.19 6.19 0 0 0 4.83-7.39ZM886.22 1063.75c-1-4.46-6.2-7.07-11.54-5.77l-13.62 3.34a5.88 5.88 0 0 0-4.35 7l4.87 22.1a5.88 5.88 0 0 0 6.95 4.49l13.8-2.87c5.32-1.11 8.88-5.64 7.9-10.06ZM895.52 1105.91c-1-4.33-5.92-6.94-11.15-5.86L870 1103a5.48 5.48 0 0 0-4.22 6.53l4 18.2a5.46 5.46 0 0 0 6.63 4.13l14.3-3.47c5.14-1.24 8.48-5.67 7.53-10ZM858.78 1110.91a5.46 5.46 0 0 0-6.45-4.18l-21.15 4.41a5.46 5.46 0 0 0-4.22 6.53l4.29 19.46a5.47 5.47 0 0 0 6.62 4.14l21-5.1a5.47 5.47 0 0 0 4-6.49ZM867.64 1151.09a6.18 6.18 0 0 0-7.43-4.69l-19.66 4.6a6.19 6.19 0 0 0-4.63 7.35l4.9 22.25a6.19 6.19 0 0 0 7.24 4.73l19.8-3.93a6.18 6.18 0 0 0 4.83-7.39ZM648.54 1079a4.93 4.93 0 0 0-6.15-3.69l-8.62 2.42c-4.93 1.39-8 5.7-7.13 9.87l2.14 9.71c1 4.44 6.14 7 11.45 5.79l8.22-1.95a4.92 4.92 0 0 0 3.68-5.87ZM829 1160.08a6.18 6.18 0 0 0-7.43-4.69l-19.33 4.5a6.51 6.51 0 0 0-4.89 7.75l4.56 20.66a6.18 6.18 0 0 0 7.23 4.73l19.8-3.93a6.18 6.18 0 0 0 4.83-7.39ZM840.1 1026.19a5.89 5.89 0 0 0-7.34-4.4l-20 5.63a5.9 5.9 0 0 0-4.16 6.94l4.77 21.61a5.88 5.88 0 0 0 7.1 4.46l20.21-4.79a5.87 5.87 0 0 0 4.39-7ZM849.82 1070.27a5.88 5.88 0 0 0-7.14-4.45l-20.18 4.94a5.88 5.88 0 0 0-4.35 7l4.58 20.76a5.88 5.88 0 0 0 6.95 4.49l20.33-4.24a5.89 5.89 0 0 0 4.54-7ZM637.73 1057.64a4.6 4.6 0 0 0-6.06-3.33l-1.37.49a4.6 4.6 0 0 0-2.71 6l2.58 6.58a4.6 4.6 0 0 0 5.28 2.81l.32-.07a4.59 4.59 0 0 0 3.5-5.48ZM668.91 1048.21a4.61 4.61 0 0 0-6.07-3.33l-1.36.49a4.6 4.6 0 0 0-2.71 6l2.58 6.58a4.61 4.61 0 0 0 5.28 2.82l.32-.07a4.61 4.61 0 0 0 3.5-5.49ZM707.92 1039.31a4.6 4.6 0 0 0-6.06-3.34l-1.36.49a4.61 4.61 0 0 0-2.72 6l2.58 6.58a4.61 4.61 0 0 0 5.28 2.82l.32-.07a4.61 4.61 0 0 0 3.51-5.49ZM745.4 1028.41a4.61 4.61 0 0 0-6.07-3.34l-1.36.5a4.59 4.59 0 0 0-2.71 6l2.58 6.59a4.59 4.59 0 0 0 5.27 2.81l.33-.07a4.6 4.6 0 0 0 3.5-5.48ZM783.11 1014a4.61 4.61 0 0 0-6.07-3.33l-1.36.49a4.6 4.6 0 0 0-2.71 6l2.58 6.58a4.59 4.59 0 0 0 5.27 2.81l.33-.07a4.59 4.59 0 0 0 3.5-5.48ZM824.54 1004.88a4.6 4.6 0 0 0-6.06-3.34l-1.36.49a4.6 4.6 0 0 0-2.72 6l2.58 6.59a4.61 4.61 0 0 0 5.28 2.81l.32-.07a4.62 4.62 0 0 0 3.51-5.49ZM859.16 995.7a4.6 4.6 0 0 0-6.07-3.34l-1.36.5a4.59 4.59 0 0 0-2.71 6l2.58 6.59a4.61 4.61 0 0 0 5.28 2.81l.32-.07a4.6 4.6 0 0 0 3.5-5.49Z"/><circle cx="1712.77" cy="833.35" r="325.76" fill="#fbb56d" transform="rotate(-45 1712.777 833.355)"/><circle cx="1735.61" cy="811.94" r="315.82" fill="#ffd49e" transform="rotate(-45 1735.606 811.938)"/><path fill="#faa94d" d="m1915.4 719.41-186.1-81.19a4.61 4.61 0 0 0-3.71 0l-186.09 81.19c-5.21 2.27-3.74 10.84 1.85 10.84h372.19c5.6 0 7.06-8.57 1.86-10.84ZM1553.66 747.86h7.98v151.87h-7.98zM1565.63 747.86h7.98v151.87h-7.98zM1577.6 747.86h7.98v151.87h-7.98zM1544.88 741.83l7.18 3.55h35.12l7.18-3.55v-2.22h-49.48v2.22zM1552.46 901.38l-7.18 3.55v8h49.48v-8l-7.18-3.55h-35.12zM1616.71 747.86h7.98v151.87h-7.98zM1628.68 747.86h7.98v151.87h-7.98zM1640.65 747.86h7.98v151.87h-7.98zM1607.93 741.83l7.18 3.55h35.12l7.18-3.55v-2.22h-49.48v2.22zM1615.51 901.38l-7.18 3.55v8h49.48v-8l-7.18-3.55h-35.12zM1679.76 747.86h7.98v151.87h-7.98zM1691.73 747.86h7.98v151.87h-7.98zM1703.7 747.86h7.98v151.87h-7.98zM1670.98 741.83l7.18 3.55h35.12l7.18-3.55v-2.22h-49.48v2.22zM1678.56 901.38l-7.18 3.55v8h49.48v-8l-7.18-3.55h-35.12zM1742.81 747.86h7.98v151.87h-7.98zM1754.78 747.86h7.98v151.87h-7.98zM1766.75 747.86h7.98v151.87h-7.98zM1734.03 741.83l7.18 3.55h35.12l7.19-3.55v-2.22h-49.49v2.22zM1741.61 901.38l-7.18 3.55v8h49.48v-8l-7.18-3.55h-35.12zM1805.86 747.86h7.98v151.87h-7.98zM1817.83 747.86h7.98v151.87h-7.98zM1829.8 747.86h7.98v151.87h-7.98zM1797.08 741.83l7.19 3.55h35.11l7.19-3.55v-2.22h-49.49v2.22zM1804.66 901.38l-7.18 3.55v8h49.48v-8l-7.18-3.55h-35.12zM1868.91 747.86h7.98v151.87h-7.98zM1880.88 747.86h7.98v151.87h-7.98zM1892.86 747.86h7.98v151.87h-7.98zM1860.13 741.83l7.19 3.55h35.11l7.19-3.55v-2.22h-49.49v2.22zM1867.71 901.38l-7.18 3.55v8h49.48v-8l-7.18-3.55h-35.12z"/><rect width="393.22" height="9.49" x="1532.09" y="922.78" fill="#faa94d" rx="3.6"/><rect width="429.4" height="24.26" x="1512.75" y="937.02" fill="#faa94d" rx="4.63"/><circle cx="1120.22" cy="728.66" r="194.02" fill="#fbb56d"/><circle cx="1120.22" cy="716.12" r="182.12" fill="#ffd49e"/><path fill="#faa94d" d="M1178.45 719.31a50.3 50.3 0 0 0-14.82-14.31 85.37 85.37 0 0 0-20.94-9.37q-11.91-3.63-26.24-6.63a130 130 0 0 1-15-3.91 38.74 38.74 0 0 1-10-4.85 19 19 0 0 1-5.91-6.47 25.85 25.85 0 0 1-2.72-8.48 27.89 27.89 0 0 1 0-9.17 19.35 19.35 0 0 1 3.23-7.87 20.53 20.53 0 0 1 6.75-5.93 30.24 30.24 0 0 1 10.56-3.4q11.61-1.77 19.7 4.91t10.45 22.25l40.39-6.14a70.78 70.78 0 0 0-7.26-22.87 53.11 53.11 0 0 0-31.83-26.44 70.15 70.15 0 0 0-22.77-3l-4.28-28.17-22.36 3.4 4.22 27.78a78.32 78.32 0 0 0-21.89 8.84 58.79 58.79 0 0 0-15.73 13.58 47.12 47.12 0 0 0-8.77 17.54 50.83 50.83 0 0 0-.86 20.71q1.93 12.72 7.74 21.27A49.54 49.54 0 0 0 1065 706.8a84.2 84.2 0 0 0 21 9.23 266.64 266.64 0 0 0 26.4 6.28 102.27 102.27 0 0 1 14.34 3.53 38.52 38.52 0 0 1 10 4.87 20.28 20.28 0 0 1 6.17 6.76 27.84 27.84 0 0 1 3 9.37 23.5 23.5 0 0 1-.32 9.15 19.36 19.36 0 0 1-4 7.84 24.17 24.17 0 0 1-7.61 5.94 36.19 36.19 0 0 1-11.27 3.44 43.27 43.27 0 0 1-11.48.21 25.39 25.39 0 0 1-10.64-3.69 26.08 26.08 0 0 1-8.41-8.82q-3.53-5.76-4.93-15l-40.38 6.14q2.36 15.57 9.09 26a53.93 53.93 0 0 0 16.23 16.46 60.07 60.07 0 0 0 20.92 8.31 95.15 95.15 0 0 0 23.2 1.65l3.9 25.7 22.22-3.37-3.97-25.8a84.53 84.53 0 0 0 22.06-8.66 56.65 56.65 0 0 0 15.92-13.34 46.5 46.5 0 0 0 8.86-17.42 51 51 0 0 0 .87-21.11q-1.92-12.62-7.72-21.16Z"/><path fill="#0877bc" d="m3229.81 1234.29 21.77 6.84 206.52-246.91-21.78-6.85-206.51 246.92zM3423.61 1108.21c-30.79-9.68-63.76 18-80 69.52-16.73 53.22-2.7 90.12 25.29 98.92s61.87-13 79.93-70.47c15.57-49.41 6.82-87.89-25.22-97.97Zm-4.47 91.41c-10.5 33.36-24.56 53.07-40.11 48.18-15.24-4.79-16.2-31.08-6.06-62.24 9.69-30.82 25.17-52.87 40.73-48 16.48 5.2 15.13 31.23 5.44 62.06ZM3265.45 1118.8c27.68 8.71 61.72-12.61 79.92-70.47 15.54-49.41 6.66-87.47-25.38-97.54-31.11-9.78-63.95 17.48-80.28 69.42-16.29 52.89-2.57 89.69 25.74 98.59Zm4-91.08c9.69-30.83 25.17-52.88 40.72-48 16.49 5.19 15 31.63 5.44 62-10.49 33.36-24.85 53-40.1 48.18s-16.3-30.61-6.03-62.18Z"/><path fill="#f9b4a4" d="M2203.14 1087.59c-23.53-26.39-65.67-47-94.8-32-7.33 3.78-13.85 9.81-19 18.58-11 18.57-22.32 41.18-30 63.3-8.82 25.44-9.12 81.42-9.11 81.43a35.35 35.35 0 0 0 4.66 8.08s51.49 10 75.73 12l-15.75 39.44c-14.3 95.47 90.44-12.81 90.92-13a121.19 121.19 0 0 1-3.16-36.16c.53-8 16.77-14.76 20-22.87 2.3-5.8-6.09-18.6-4-26.37 8.07-29.64 7.86-66.25-15.49-92.43Z"/><path fill="#ecab9c" d="M2128.54 1227.52c-38.8 0-66.64.32-78.31-8.58a26.62 26.62 0 0 0 3.88 7s29.58 9.44 70.27 13.65l-9.51 38.79c6.93-7.71 48.24-44.14 44.61-50.63s-30.94-.23-30.94-.23Z"/><path fill="#733f07" d="M2311.13 1144.88a4.45 4.45 0 0 1-1.44-7.5c7-6.39 15.1-19.22 8.43-42.48a89.79 89.79 0 0 0-2.34-7c-12.82-33.65-44.85-33.49-58.3-31.78a4.44 4.44 0 0 1-5-4.88c1-9.68-.78-29.13-26.32-42.57-10.94-5.77-21-6.08-29.57-3.78-12.86 3.46-22.58 12.75-27.56 18.45a4.47 4.47 0 0 1-7.07-.5c-28.46-42.16-53.06-24-63.8 2.22a78.11 78.11 0 0 0-5.52 22.35 47 47 0 0 0 1.28 17.28c9.51 31.91 63.36 48.76 99.39 60 27.94 8.75 25.33 17 25.33 17-3.55 12.38 6.41 9.87 1.36 16.62-1.66 2.22-.62 12.23 1.85 13.51l5.77 7.13c2.07 1.07-6.35 33.11-7.25 35.26l-11.28 9.46c-1.26 3-15.33 20.17-12 20 37.87-2 74.9-36 83.22-44.11a4.49 4.49 0 0 1 4.05-1.15c8.92 1.86 40.38 6.34 43.73-21.85a42.72 42.72 0 0 0 .33-4.89c.28-16.78-9.42-23.83-17.29-26.79Z"/><path fill="#9a582b" d="M2252.52 1051.25c1-9.68-.78-29.13-26.32-42.57-10.94-5.77-21-6.08-29.57-3.78 30.67-2.11 38 33.54 44.09 48.87s16.76 2.36 16.76 2.36a4.44 4.44 0 0 1-4.96-4.88Z" opacity=".56"/><path fill="#9a582b" d="M2311.13 1144.88a4.45 4.45 0 0 1-1.44-7.5c7-6.39 15.1-19.22 8.43-42.48 5.65 27.62-9.13 33.17-16.61 41.52s-5.6 12.71 6.6 16.79c16.87 5.65 20.31 18.51 20.31 18.51.28-16.83-9.42-23.88-17.29-26.84Z" opacity=".3"/><path fill="#9a582b" d="M2223.81 1051.85c-19.1-4.9-23 2.1-23 2.1s-1.14-20.42-20.17-17.62-13.21 15.2-13.21 15.2 14.66-26.35 29.31 12.3c0 0 29.07-21.42 45.41 21.73.03 0 .77-28.81-18.34-33.71Z" opacity=".3"/><path fill="#653b1b" d="M2238.86 1207.31c-20.83-9.76 2.35-37.55 8.69-74.08 9.11-52.56-47.75-42.72-47.75-42.72-53.35 14-62-44.2-62-44.2-12.86 13.58-39.81 12.14-45.13 1.11a47 47 0 0 0 1.28 17.28c9.51 31.91 45 44.65 81 55.92 28 8.76 13.68 51.64 8.63 58.38a4.47 4.47 0 0 0 1.53 6.66l9.44-8.2c3.95-3.44 9.39-2.11 12.88 1.79 14 15.61 5.85 37.29-7.45 36.32 0 0-11.93 1.49-9.83 17.75 0 0 3.64 10.62 6.92 10.44 37.87-2 74.9-36 83.22-44.11-1.04.84-21.13 17.17-41.43 7.66Z"/><path fill="#9a582b" d="M2273.31 1105.13c4.93 2.28 9.76 2.55 12.53 5.06 18.17 16.47-6.47 38.28-6.47 38.28s22.76-6.61 17.3-29-23.36-14.34-23.36-14.34Z" opacity=".3"/><path d="M2123.62 1103.33a3.29 3.29 0 0 0 1.84 6.32c.67-.19 15.06-4 22.59 11.76a3.29 3.29 0 1 0 5.93-2.84c-7.98-16.74-23.36-17.28-30.36-15.24ZM2078.36 1084.39a4.78 4.78 0 0 0-1.85 4.23 1.92 1.92 0 0 0 1.12 1.78 1.59 1.59 0 0 0 1.33-.23c7.51-4.67 10.92 2.49 11.07 2.8.55 1.24 1.87 1.24 2.93 0a4.69 4.69 0 0 0 .9-4.48c-.19-.49-4.93-10.68-15.5-4.1ZM2126.28 1130.2c-3.22-1.64-8 1.33-10.73 6.64s-2.29 11 .93 12.59 8-1.33 10.73-6.64 2.29-10.95-.93-12.59ZM2075.27 1106.6c-3.22-1.65-4.07 3.36-6.77 8.67s-6.26 8.92-3 10.56 8-1.33 10.74-6.64 2.25-10.95-.97-12.59ZM2081.57 1128.58c-5 6.46-11.27 12.94-14.54 20.5-3.59 8.3 4.06 12.85 9.94 17.1 2.2 1.59 4.3-2 2.12-3.62-2.74-2-7.92-4.56-8.8-8.1-.79-3.21 2.67-7.52 4.39-10 3.32-4.74 7-9.21 10.52-13.79 1.65-2.11-2-4.2-3.63-2.09Z"/><path fill="#fff" d="M2066.43 1186.84c17.64 33.62 39 6.9 38-4.14-6.52 2.79-33.54 4.97-38 4.14Z"/><path d="M2102.33 1182.7a12.1 12.1 0 0 1-.22 3c1-.29 1.95-.6 2.88-1ZM2067 1184.81h.14a2.23 2.23 0 0 0-2.77 2.26 2.33 2.33 0 0 1 2.63-2.26Z"/><path d="M2103.88 1180.67c-6 2.36-12.93 2.74-19.22 3.36-5.57.54-11.93 1.62-17.53.8a1.87 1.87 0 0 1 1.11 1c.61 1.11 1.28 2.28 2 3.44a119.92 119.92 0 0 0 14.4-1c5.65-.55 11.87-.92 17.45-2.54a12.1 12.1 0 0 0 .22-3l2.66 2c-.93.37-1.9.68-2.88 1-1 5.54-5.44 11-10 13.61-9.34 5.37-17-2.4-21.83-10.08a33.61 33.61 0 0 1-4.39-.36 1.89 1.89 0 0 1-.95-.41c5.53 9.94 15.39 21.09 27.81 15.25 7.36-3.47 14.27-12.57 13.8-21-.06-1.26-1.31-2.6-2.65-2.07ZM2064.36 1187.09a1.66 1.66 0 0 0 .56 1.36l-.3-.55a2.25 2.25 0 0 1-.26-.81Z"/><path d="M2070.26 1189.22c-.74-1.16-1.41-2.33-2-3.44a1.87 1.87 0 0 0-1.11-1h-.14a2.33 2.33 0 0 0-2.63 2.28 2.25 2.25 0 0 0 .26.81l.3.55a1.89 1.89 0 0 0 .95.41 33.61 33.61 0 0 0 4.37.39Z"/><path fill="#ffd49e" d="M1694.32 697.86a9.83 9.83 0 0 0-4.32-3v-.1a6.44 6.44 0 0 0 2.07-1 8.3 8.3 0 0 0 1.8-1.8 8.82 8.82 0 0 0 1.26-2.42 9 9 0 0 0 .46-2.95 10.25 10.25 0 0 0-.8-4.06 8.16 8.16 0 0 0-2.46-3.19 12.4 12.4 0 0 0-4.14-2.1 20 20 0 0 0-5.86-.76 30.7 30.7 0 0 0-5.91.56 22.79 22.79 0 0 0-4.83 1.44v34.26a21.81 21.81 0 0 0 2.17.79 20.71 20.71 0 0 0 2.66.63c.94.17 1.93.31 2.95.42s2 .16 3.06.16q7 0 10.54-2.85a9.52 9.52 0 0 0 3.52-7.84 9.43 9.43 0 0 0-.61-3.53 9.62 9.62 0 0 0-1.56-2.66Zm-16.14-15.31a11.1 11.1 0 0 1 1.85-.43 15.86 15.86 0 0 1 2.3-.17c2.28 0 4 .46 5 1.4a4.89 4.89 0 0 1 1.61 3.92 6.29 6.29 0 0 1-.46 2.47 4.92 4.92 0 0 1-1.21 1.77 5.06 5.06 0 0 1-1.9.94 11.51 11.51 0 0 1-2.87.29h-4.35Zm4.2 26.69a15.11 15.11 0 0 1-2.3-.17 12.3 12.3 0 0 1-1.9-.42v-10.79h4.45a11 11 0 0 1 2.87.3 6.9 6.9 0 0 1 2 .87 5 5 0 0 1 2.25 4.55q-.05 5.67-7.37 5.66ZM1710.75 677.08l-11.86 37h7.22l2.59-8.64h12.3l2.6 8.64h7.21l-11.91-37Zm-.65 23.07 3.72-12.63c.17-.52.31-1 .44-1.56s.22-1 .29-1.47.18-1 .25-1.47h.1c.06.47.15 1 .25 1.47s.16.94.28 1.47.27 1 .44 1.56l3.72 12.63ZM1754.88 697.86v4.94h-.1c-.2-.46-.42-.94-.65-1.42s-.45-.88-.7-1.39-.51-1-.8-1.53l-12.41-21.38h-5.94v37h5.94v-24.71c0-.46-.07-1.07-.07-1.55h.12l.6 1.44c.17.4.38.86.64 1.38a14.38 14.38 0 0 0 .86 1.52l12.66 22h5.74v-37h-5.94ZM1793.32 677.08h-7.77l-11.14 16.78h-.1v-16.78h-6.97v37.04h6.97v-18.41h.1l11.29 18.41h7.89l-12.19-19.34 11.92-17.7z"/><path fill="#fbcb0c" d="M3495.94 2563.39c0 7 1.63 17.64 14.09 23.55l5.28 2.43a216.31 216.31 0 0 0 31.69 9.82c1.68.43 3.48.85 5.28 1.27 9.66 2.17 20.28 4.12 31.68 5.81 1.75.31 3.49.58 5.29.79 10 1.48 20.59 2.7 31.68 3.75 1.74.22 3.48.37 5.28.53 10.19.9 20.75 1.69 31.69 2.27 1.74 0 3.48.16 5.28.26 9.24.42 18.75.74 28.41.85 1.75.05 3.54.1 5.28.1 4.33.06 8.66.11 13 .11 6.29 0 12.52 0 18.65-.21l5.28-.11q16.23-.32 31.68-1.21c1.8-.11 3.54-.21 5.28-.37 10.93-.63 21.55-1.53 31.69-2.54l5.28-.58c11.14-1.16 21.76-2.58 31.69-4.18 1.79-.25 3.54-.57 5.28-.89 11.51-1.9 22.12-4.12 31.68-6.49 1.8-.47 3.6-.95 5.29-1.38 13-3.59 23.76-7.55 31.68-11.82a53 53 0 0 0 5.28-3.12c6.86-4.65 10.56-9.56 10.56-14.63v-76.57h-433.3s.05 58.35.05 72.56Z"/><path fill="#fdb914" d="M3712.58 2443c-119.65 0-216.64 21.43-216.64 47.85s97 47.83 216.64 47.83 216.65-21.41 216.65-47.83-96.99-47.85-216.65-47.85Z"/><ellipse cx="3712.58" cy="2483.67" fill="#fbcb0c" rx="166.48" ry="29.6"/><path fill="#f4a337" d="M3712.58 2454.07c-91.94 0-166.47 13.25-166.47 29.6 0 2.87 2.33 5.63 6.6 8.25 20.1-12.33 84-21.35 159.87-21.35s139.78 9 159.88 21.35c4.27-2.62 6.6-5.38 6.6-8.25 0-16.35-74.53-29.6-166.48-29.6Z"/><path fill="#f4a346" d="M3691.59 2614.72c1.75.05 3.54.1 5.28.1v-71.18h-5.28ZM3728.56 2614.72l5.28-.11v-70.97h-5.28v71.08zM3765.52 2613.4c1.8-.11 3.54-.21 5.28-.37v-69.39h-5.28ZM3802.49 2610.49l5.28-.58v-66.27h-5.28v66.85zM3839.46 2605.73c1.79-.25 3.54-.57 5.28-.89v-68.49h-5.28ZM3876.42 2598.35c1.8-.47 3.6-.95 5.29-1.38v-68.54h-5.29ZM3913.39 2585.15a53 53 0 0 0 5.28-3.12v-65.43h-5.28ZM3657.9 2613.61c1.74 0 3.48.16 5.28.26v-70.23h-5.28ZM3620.93 2610.81c1.74.22 3.48.37 5.28.53v-67.7h-5.28ZM3584 2606.27c1.75.31 3.49.58 5.29.79v-63.42H3584ZM3547 2599.19c1.68.43 3.48.85 5.28 1.27v-64.11H3547ZM3510.03 2586.94l5.28 2.43v-69.49h-5.28v67.06z"/><path fill="#fbcb0c" d="M3437.72 2451.22c0 7 1.63 17.64 14.09 23.55l5.28 2.43a216.53 216.53 0 0 0 31.68 9.82c1.69.43 3.49.85 5.28 1.27 9.67 2.17 20.29 4.12 31.69 5.81 1.75.32 3.49.58 5.28.79 10 1.49 20.6 2.7 31.69 3.75 1.74.22 3.48.37 5.28.53 10.19.9 20.75 1.69 31.69 2.27 1.74 0 3.48.16 5.27.27 9.25.41 18.76.74 28.42.85 1.75 0 3.54.1 5.28.1 4.33.05 8.66.11 13 .11 6.29 0 12.52-.06 18.65-.21l5.28-.11q16.23-.33 31.68-1.22c1.8-.1 3.54-.21 5.28-.37 10.93-.63 21.55-1.53 31.69-2.54l5.28-.57c11.14-1.17 21.76-2.59 31.69-4.18 1.79-.26 3.53-.58 5.28-.89 11.51-1.91 22.12-4.13 31.68-6.5l5.28-1.38c13.05-3.59 23.77-7.55 31.69-11.82a54.18 54.18 0 0 0 5.28-3.12c6.86-4.64 10.56-9.55 10.56-14.63v-76.57h-433.3s.05 58.34.05 72.56Z"/><path fill="#fdb914" d="M3654.36 2330.81c-119.65 0-216.64 21.43-216.64 47.85s97 47.83 216.64 47.83 216.64-21.41 216.64-47.83-97-47.85-216.64-47.85Z"/><path fill="#fbcb0c" d="M3654.36 2341.9c-91.94 0-166.47 13.25-166.47 29.6s74.53 29.61 166.47 29.61 166.48-13.26 166.48-29.61-74.53-29.6-166.48-29.6Z"/><path fill="#f4a337" d="M3654.36 2341.9c-91.94 0-166.47 13.25-166.47 29.6 0 2.87 2.33 5.63 6.6 8.25 20.1-12.33 84-21.35 159.87-21.35s139.78 9 159.88 21.35c4.27-2.62 6.6-5.38 6.6-8.25 0-16.35-74.53-29.6-166.48-29.6Z"/><path fill="#f4a346" d="M3633.37 2502.56c1.75 0 3.54.1 5.28.1v-71.19h-5.28ZM3670.34 2502.55l5.27-.1v-70.98h-5.27v71.08zM3707.3 2501.23c1.8-.1 3.54-.21 5.28-.37v-69.39h-5.28ZM3744.27 2498.32l5.28-.58v-66.27h-5.28v66.85zM3781.24 2493.57c1.79-.26 3.53-.58 5.28-.89v-68.5h-5.28ZM3818.2 2486.18l5.28-1.38v-68.54h-5.28ZM3855.17 2473a54.18 54.18 0 0 0 5.28-3.12v-65.43h-5.28ZM3599.68 2501.44c1.74 0 3.48.16 5.27.27v-70.24h-5.27ZM3562.71 2498.64c1.74.22 3.48.37 5.28.53v-67.7h-5.28ZM3525.74 2494.1c1.75.32 3.49.58 5.28.79v-63.42h-5.28ZM3488.77 2487c1.69.43 3.49.85 5.28 1.27v-64.11h-5.28ZM3451.81 2474.77l5.28 2.43v-69.49h-5.28v67.06z"/><path fill="#fbcb0c" d="M3475.42 2350.62c0 7 1.63 17.64 14.09 23.55l5.28 2.43a216.31 216.31 0 0 0 31.69 9.82c1.69.43 3.49.85 5.28 1.27 9.67 2.17 20.28 4.12 31.68 5.81 1.75.32 3.49.58 5.29.79 10 1.48 20.59 2.7 31.68 3.75 1.74.22 3.49.37 5.28.53 10.19.9 20.76 1.69 31.69 2.27 1.74 0 3.48.16 5.28.26 9.24.42 18.75.74 28.41.85 1.75.05 3.54.1 5.28.1 4.33.06 8.66.11 13.05.11 6.28 0 12.51 0 18.64-.21l5.28-.11q16.23-.32 31.68-1.21c1.8-.11 3.54-.21 5.29-.37 10.92-.63 21.54-1.53 31.68-2.54l5.28-.58c11.14-1.16 21.76-2.58 31.69-4.18 1.79-.25 3.54-.57 5.28-.89 11.51-1.9 22.13-4.12 31.68-6.49 1.8-.47 3.6-.95 5.29-1.38 13-3.59 23.76-7.55 31.68-11.82a53 53 0 0 0 5.28-3.12c6.86-4.65 10.57-9.56 10.57-14.63v-76.57h-433.31s.01 58.35.01 72.56Z"/><path fill="#fdb914" d="M3692.07 2230.21c-119.66 0-216.65 21.43-216.65 47.85s97 47.83 216.65 47.83 216.65-21.41 216.65-47.83-97-47.85-216.65-47.85Z"/><path fill="#fbcb0c" d="M3692.07 2241.3c-92 0-166.48 13.25-166.48 29.6s74.53 29.6 166.48 29.6 166.47-13.26 166.47-29.6-74.54-29.6-166.47-29.6Z"/><path fill="#f4a337" d="M3692.07 2241.3c-92 0-166.48 13.25-166.48 29.6 0 2.87 2.33 5.63 6.6 8.25 20.1-12.33 84-21.35 159.88-21.35s139.77 9 159.87 21.35c4.27-2.62 6.6-5.38 6.6-8.25 0-16.35-74.54-29.6-166.47-29.6Z"/><path fill="#f4a346" d="M3671.07 2402c1.75.05 3.54.1 5.28.1v-71.18h-5.28ZM3708.04 2401.95l5.28-.11v-70.97h-5.28v71.08zM3745 2400.63c1.8-.11 3.54-.21 5.29-.37v-69.39H3745ZM3781.97 2397.72l5.28-.58v-66.27h-5.28v66.85zM3818.94 2393c1.79-.25 3.54-.57 5.28-.89v-68.49h-5.28ZM3855.9 2385.58c1.8-.47 3.6-.95 5.29-1.38v-68.54h-5.29ZM3892.87 2372.38a53 53 0 0 0 5.28-3.12v-65.43h-5.28ZM3637.38 2400.84c1.74 0 3.48.16 5.28.26v-70.23h-5.28ZM3600.41 2398c1.74.22 3.49.37 5.28.53v-67.7h-5.28ZM3563.44 2393.5c1.75.32 3.49.58 5.29.79v-63.42h-5.29ZM3526.48 2386.42c1.69.43 3.49.85 5.28 1.27v-64.11h-5.28ZM3489.51 2374.17l5.28 2.43v-69.49h-5.28v67.06z"/><circle cx="4012.5" cy="2384.09" r="230.86" fill="#f99d1d" transform="rotate(-87.84 4012.254 2384.146)"/><path fill="#ffcb05" d="M4008.63 2152.38c-127.19-9-237.55 86.88-246.51 214.07S3849 2604 3976.19 2613s237.55-86.88 246.51-214.07-86.88-237.59-214.07-246.55Z"/><path fill="#faa61a" d="M4007 2175.58c-115.69-8.15-216.45 79.32-224.6 195s79.35 216.46 195 224.61 216.43-79.36 224.58-195-79.29-216.46-194.98-224.61Zm182.52 223.69c-7.67 108.8-102.4 191.09-211.2 183.43s-191.09-102.43-183.42-211.22 102.43-191.06 211.22-183.4 191.06 102.4 183.4 211.19Z"/><path fill="#faa61a" d="M4074.66 2302.12a62.62 62.62 0 0 0-16.26-17.84 81.1 81.1 0 0 0-23.5-12l6.13-32.15-25.52-4.86-6.05 31.71a89.85 89.85 0 0 0-27.09 1.2 67.47 67.47 0 0 0-22.25 8.73 54.13 54.13 0 0 0-16.21 15.65 58.56 58.56 0 0 0-8.84 22.11q-2.78 14.52.25 26a57.06 57.06 0 0 0 10.61 21.07 96.81 96.81 0 0 0 19.21 18 304 304 0 0 0 26.2 16.9 117.24 117.24 0 0 1 14.18 9.31 44.16 44.16 0 0 1 8.93 9.07 23.51 23.51 0 0 1 4.11 9.69 32.27 32.27 0 0 1-.34 11.3 26.9 26.9 0 0 1-3.85 9.78 22.1 22.1 0 0 1-7.28 7 27.66 27.66 0 0 1-10.51 3.53 41.82 41.82 0 0 1-13.53-.58 50 50 0 0 1-12.51-4.16 28.93 28.93 0 0 1-10.12-8.07 30 30 0 0 1-5.74-12.76q-1.62-7.61.39-18.12l-46.1-8.79q-3.39 17.78-.07 31.61a61.92 61.92 0 0 0 11.28 24 69.11 69.11 0 0 0 19.49 17 109.61 109.61 0 0 0 24.5 10.66l-5.59 29.33 25.36 4.84 5.62-29.48a97.43 97.43 0 0 0 27.21-1 65.21 65.21 0 0 0 22.33-8.33 53.47 53.47 0 0 0 16.26-15.48 58.68 58.68 0 0 0 9-22.54q2.74-14.39-.27-25.86a58 58 0 0 0-10.6-21.14 98.22 98.22 0 0 0-19.1-18.15q-11.54-8.49-25.9-17.22a153.52 153.52 0 0 1-14.72-9.95 44.66 44.66 0 0 1-9-9.08 22.1 22.1 0 0 1-3.93-9.28 29.65 29.65 0 0 1 .3-10.23 32.39 32.39 0 0 1 3.54-9.92 21.88 21.88 0 0 1 6.52-7.28 23.59 23.59 0 0 1 9.57-3.85 34.91 34.91 0 0 1 12.75.35q13.23 2.52 19.45 12.85t2.83 28.1l46.09 8.79a81.25 81.25 0 0 0 .87-27.55 62.51 62.51 0 0 0-8.1-22.91Z"/><path fill="#e0ada4" d="M1664.89 1576.63a23.68 23.68 0 0 0-35.33-5.14 42.87 42.87 0 0 0-13.15 21.59s34.72 34 41.42 29c2.38-1.75 8.4-8.14 14.23-15.26a14.9 14.9 0 0 0 1-17.56Z"/><path fill="#6bc9cd" d="M2656.2 2522.86s5.62 29.81-16 39.84c-34.09 15.81-44.92-32.12-43.49-6.67s-14.5 84.27-47.14 75.81c-3.12 8.46 2 28.16 2 28.16h61.61c12.92 0 27.28-12.72 30.87-36.05s30.9-43 36.64-62.07-24.49-39.02-24.49-39.02Z"/><path fill="#f9b4a4" d="M2276 2456.78c-11.62-5.27-35.25-24.28-46.47-12-7 7.71-.32 18.43.57 26.75 3.77 35.45 1.38 72.81-1.52 108.34-.7 8.61-.78 17.08-3.39 25a36 36 0 0 1-4.11 8.63c6.76-10.27 44.11 27.57 63.11-39.17 4-14.16 4.37-75 6-90.33 1.97-18.22 1.23-20.2-14.19-27.22Z"/><path fill="#499aa0" d="M2286.72 2561.88c-2.86 35.82-26.73 31.29-39.77 32.36-19.22 1.59-18-21.34-21.2-22.71-12.91 10.13-69.93 39.32-86.33 41.71-49.94 7.32-1.68 26.76 22.47 27.05 19.85.24 56.46-3.49 75.46-8.13 19.6-4.79 44.73 2.08 52.84 3.87 4.92-12.62 5.18-66.94-3.47-74.15Z"/><path fill="#6bc9cd" d="M2282.08 2628.48c-6.59-.95-13.58-.27-20.18.19-11.52.83-22.91 2.91-34.42 3.77q-10.18.78-20.24 1.71c-25.51 2.42-69.2 10-90.69-8.84.8.71.45 13.43 3.93 17.24 11.48 12.62 50.6 8.35 65.5 7.19 21.77-1.63 43.71-2.67 65.6-4.4 13.54-1.07 26.51.2 40.05-1.41.37-12.14 1.88-13.79-9.55-15.45Z"/><path fill="#f9b4a4" d="M2621.72 2444.81c-6-17.35-7.5-18.82-24.48-18.59-12.75.19-42.23-6.94-47.14 9-3 10 7.57 16.8 11.92 24 18.52 30.46 32.27 65.28 44.8 98.66 3 8.08 6.56 15.79 7.59 24.06a36.46 36.46 0 0 1 0 9.56c1.74-12.17 51.65 6.14 40.4-62.33-2.44-14.6-28.07-69.82-33.09-84.36Z"/><path fill="#499aa0" d="M2653.08 2510.13s5.62 29.81-16 39.84c-34.09 15.81-44.92-32.12-43.49-6.67s-8.75 77.66-31.73 82.6-13.46 21.37-13.46 21.37h61.6c12.92 0 27.28-12.73 30.87-36.05s30.16-36.06 35.9-55.14-23.69-45.95-23.69-45.95Z"/><path fill="#f5a61d" d="M2152.33 1716s8.73 107.16 19 236c13.93 175 30.69 389.92 32.35 430.64 2.86 70.7 6 159.41 6 159.41s34.82 5.29 89.39-6c0 0 49.49-115.49 63.38-286.31.22-2.8.43-5.62.65-8.44 12.92-173.9 33-540.09 33-540.09Z"/><g clip-path="url(#a)"><path fill="#f08822" d="M2235.64 1833.48s50.07 250.14 129.29 381.65c23.09-107.64-14.26-294.5-14.26-294.5Z"/><path fill="#f9db77" d="M2219.52 2196.88c.79-36.67-27.35-376.39-27.35-376.39l-39.84-14-41 469.76s25.62 292.84 108.16 273.39c12.51-33.53-.76-316.1.03-352.76Z" opacity=".4"/></g><path fill="#ffc63a" d="M2192.17 1728.76s157.22 388.1 260.61 570.48 121.65 210.29 121.65 210.29 69.75-28.88 75.13-44.78c0 0-36-323.56-105.25-409.39-39.12-48.51-85.07-194.05-87.23-245s-17.51-130.94-17.51-130.94Z"/><g clip-path="url(#b)"><path fill="#f5a61d" d="M2603 1991.08c-13.93-44-72.86-198.36-77.57-210.18s-92.87-22.43-92.87-22.43 18.62 190.94 43.37 245.15 78.6 99.05 92.93 164.44 60.66 244.3 60.33 314.47c64.78 3.14 100.14-36.93 77.74-113.54s-90.01-333.88-103.93-377.91Z" opacity=".61"/><path fill="#f9db77" d="M2404 2168.06c-47.14-79.53-148-347.57-148-347.57l-50.39-9.45-1.39 308.81s208 308.07 216.64 323.49 134 110.69 194.08 56.35c-39.79-29.41-163.78-252.1-210.94-331.63Z" opacity=".71"/></g><path fill="#e93835" d="M2055.32 1304.18s-95.67 120.5-218.71 190.14c4.28 20 11.56 45.86 23.77 71.65 63.83-10.47 137.7-35.46 200.32-91Z"/><g clip-path="url(#c)"><path fill="#d2322f" d="m2058 1271-4.07 36.77s-33.78 68.22-18.36 129.57c3.56 14.15 5.11 43.72-36.19 81.23 32.19-15 115.08-93 115.08-93l-27.88-89.21Z"/><path fill="#fff" d="M1842.07 1525h2.5s.3-18.64 15.81-27 121.88-82.92 144.65-137.88c-97.09 40.57-195 91.6-195 91.6Z" opacity=".2"/><path fill="#d2322f" d="m1854.74 1553.24-18.13 33.18 44 4.75s127.59-28.49 116.24-71.22c-100.33 33.22-142.11 33.29-142.11 33.29Z"/></g><path fill="#f9b4a4" d="M1701.35 1541.32s-12.42-32.7-26.92-29.7-30.38 14.13-30.38 14.13l-23.3 31.52s65.42 25.77 88.43 11c0 0 66.82 11.55 151.2-2.3-12.21-25.79-19.49-51.61-23.77-71.65-42.74 24.2-88.77 42.27-135.26 47Z"/><path fill="#e93835" d="M2312 1302.44c-101.62-53.76-124.36 34.38-169.71 38.09-56.12 4.59-87-36.35-87-36.35l-9.69 62.82c-8.65 55.9 9.25 109.53 29 162.54 62.65 168.46 55.4 208.52 74.11 297.39 74.11 20.23 256.82-3.43 313.2-66.5C2448 1334.79 2312 1302.44 2312 1302.44Z"/><path fill="#c13432" d="M2275.11 1302.89c-5.52-2.47-37-9.8-37-9.8l-103.89 55.19-53.37-47.68s-21.25 3.14-26.18 7.62 4.9 63.93 3.29 70.8 19.54 21.55 19.54 21.55-19.55 57.18-17.34 61.29 94.92 217.61 94.92 217.61 109.39-222.47 110.31-233.54-25.76-62.54-25.76-62.54 36.3-38.88 37.59-46.12 6.85-30.37-2.11-34.38Z"/><path fill="#d8322d" d="M2283.19 1295.14c-5.52-2.46-37-9.8-37-9.8l-103.89 55.19-53.3-47.68s-28.7 6.85-33.63 11.33 7.06 59.08 9.21 66c2.08 6.75 21.07 22.6 21.07 22.6s-22.93 60.45-20.72 64.56 87.4 191.66 87.4 191.66 120.24-199.69 121.16-210.77-25.76-62.54-25.76-62.54 36.3-38.88 37.59-46.12 6.83-30.42-2.13-34.43Z"/><path fill="#fff" d="M2144.27 1332.62c-2.06.51-58.07-38.9-60.13-38.36l51.11 221.48s48.54 75.24 64.18-8.28c19.87-106.17 42.44-226.73 42.44-226.74Z"/><path fill="#a9abae" d="m2163 1340.53-82.9-38.07c-2 .48-5.93 1.75-8.07 2.33-.06.22-.11.45-.17.68l9.46 41s5.54 21.78 14.64 22.21c11.25-2.11 20.22-3.92 26.81-13.27 6.07 5.71 13.23 9.46 19.3 15.17l-13.41 181 27.34 118.56c1.33-2.38 2.64-4.84 3.93-7.42l28.26-151c-9.77-48.75-21.11-101.37-27-141.87 2.58-3.37 6.3-15.57 20.14-4.26 4 3.29 39.8-33.69 43.31-58.15.44-3.3-61.82 34.79-61.64 33.09Z"/><path fill="#045486" d="m2172.91 1344.21-46.59-22.69-13.76 30.69 24.12 18.66-16.84 162.4 34.58 149.86s14-74.63 29.6-158.15a1451.8 1451.8 0 0 0-31.23-154.92Z"/><path fill="#fff" d="M2199.84 1264.77s-59.43 47.19-73 47.51-12.64-36.35-12.64-36.35-44.51 22.31-49 30 17.21 57.48 24 59.45c14.25 4.14 33.69-38.08 42.66-40.2 7.82-1.84 46.21 35.35 52.74 33.35s54.13-52.3 47.54-71-32.3-22.76-32.3-22.76Z"/><path fill="#bec0c2" d="M2501.06 1496a7 7 0 0 0-8.52-4.83l-338.63 89.28a7 7 0 0 0-4.43 10l91.33 175.13a7 7 0 0 0 8.16 3.49l298.76-86.25a7 7 0 0 0 4.79-8.68Z"/><path fill="#e6e7e8" d="M2511.74 1487a7.34 7.34 0 0 0-8.87-5.59l-329.69 78.54a7.34 7.34 0 0 0-5.18 9.68l73.11 198.59a7.33 7.33 0 0 0 8.92 4.52l297.85-86a7.34 7.34 0 0 0 5.14-8.6Z"/><path fill="#fff" d="M2507.15 1501.27a9.06 9.06 0 0 0-10.14-6.71l-297.89 45.31a9.07 9.07 0 0 0-7.47 11l49.66 214.39a9.06 9.06 0 0 0 11.35 6.67l293.34-84.7a9.07 9.07 0 0 0 6.27-11Z"/><path fill="#bec0c2" d="M2252.47 1581.29h2v155.59h-2z" transform="rotate(-15.45 2253.289 1658.975)"/><path fill="#bec0c2" d="M2267.81 1566.45h2v155.59h-2z" transform="rotate(-15.45 2268.629 1644.126)"/><path fill="#bec0c2" d="M2293.92 1578.9h2v155.59h-2z" transform="rotate(-15.45 2294.752 1656.603)"/><path fill="#bec0c2" d="M2317.49 1577.15h2v155.59h-2z" transform="rotate(-15.45 2318.339 1654.848)"/><path fill="#bec0c2" d="M2338.21 1554.74h2v155.59h-2z" transform="rotate(-15.45 2339.023 1632.428)"/><path fill="#bec0c2" d="M2432.28 1553.67h2v155.59h-2z" transform="rotate(-15.45 2433.049 1631.369)"/><path fill="#bec0c2" d="M2460.88 1530.77h2v155.59h-2z" transform="rotate(-15.45 2461.715 1608.493)"/><path fill="#bec0c2" d="M2487.05 1537.78h2v155.59h-2z" transform="rotate(-15.45 2487.868 1615.494)"/><path fill="#f9b4a4" d="M2349.28 1606c12.09 49.92 10.81 87.16 9 104.94a13.85 13.85 0 0 1-12.81 12.41c-7.63.54-18 1.24-27.32 1.77-10.21.59-21.54-5.86-29.12-11.25a4.55 4.55 0 0 0-6.71 5.76c5.66 11.06 20 20.91 29.91 26.71a4.72 4.72 0 0 1-1.09 8.62l-42.31 12c69.52 65.5 115.42-7.78 115.42-7.78 30.69-47.42 42.51-97.52 48.31-141.31-28.56-28.51-66.04-16.87-83.28-11.87Z"/><path fill="#e93835" d="M2432.27 1646.31c4.31-175.41-40.78-244.72-70.44-286.17-16.59-23.19-36.31-50.62-66.91-28.17-37.62 27.6-23.7 85.44-11.84 102 35.13 49 42.73 97.53 56.15 137.39 6.1 18.11 10.2 49.64 17.87 77.71 2.99-.07 74.5 24.54 75.17-2.76Z"/><g clip-path="url(#d)"><path fill="#fff" d="M2449.91 1405.21c-25.15-36.54-114.22-115.84-152.7-75.12 0 0 60-10.82 86.84 89.45 10.54 39.36 65.3 161.55 26.29 248.67 23.74 26.92 96.32 19.29 79.62-47.84s-14.9-178.62-40.05-215.16Z" opacity=".2"/><path fill="#d2322f" d="M2287.68 1422.13c-13.18-14.94-20.72-54.3-20.72-54.3l-7 75.08s49.35 138.31 49.35 141.29 24 68.45 49.21 75c9.6-46.71-21.29-122.13-21.15-144.85s-36.51-77.29-49.69-92.22Z"/></g><path fill="#ffcdbb" d="M1275.54 1412.82c-17.25 28.11-38.32 65.91-47.88 96.72 232.17 51.18 286.84-162.26 286.84-162.26l-24.59-13.68c-86.91 93.87-157.31 99.4-214.37 79.22ZM1582.68 1308.51c-11.55 9.82-28 3.38-46.59 0s-28.55 7.38-28.55 7.38l56.16 22.27 34.58-26.29s-4.06-13.18-15.6-3.36Z"/><path fill="#ffcdbb" d="m1615.65 1339.67 14-17.38c-7.93-4-23.4 7.28-35.5 12s-59.05-20.83-79.73-24.76-27.54 24.76-27.54 24.76c23.62 22.3 111.12 31.06 111.12 31.06l59.8-33.65c-6.21-12.76-42.15 7.97-42.15 7.97Z"/><path fill="#f5a61d" d="m1173.49 1336.32 5.94 159.52c200.25 95.68 307.43-72.21 335.07-106.69-15.89-19.23-65.69-11.17-48.44-39.28-186.43 154.27-292.57-13.55-292.57-13.55Z"/><g clip-path="url(#e)"><path fill="#f18f21" d="M1247.73 1421.75s19.76 67.61 20.29 72.57 104.66 35 121 35 56-36.29 52.86-59.83c-13.88-7.95-194.15-47.74-194.15-47.74Z"/><path fill="#f9db77" d="M1409 1347.72h-180.09s-22.16 32.75-4.34 59.42 112.21 27.41 146.51 18.39 102.34-67.28 102.34-67.28l-5.19-20.09Z" opacity=".42"/></g><path fill="#ffcdbb" d="M1642.35 1528.18s-40.53-3.43-51.13 25.61c0 0-116.8 26-259.91-95.77 0 0-13.09 56.27-35.06 92.25 0 0 143.22 93.08 290.76 43.15a35.1 35.1 0 0 1 27.69 2.08l42.42 22.41a37.86 37.86 0 0 0 50.18-14.05c5.89-9.86 10.92-21.12 11.92-31.91l-83-33.59ZM991.07 2444.37c6.3-26.48-2.54-42.38-24.87-58.11-7.94-5.6-22.87-15-31.5-4.4-3.27 4-9.06 6.7-9.33 13.19-1 24.52-.14 49.15.17 73.68.14 11.1-2.26 21.17-1.69 32.29 1.15 22.17-12 41.37 7.22 59.25 13.51 12.55 34.75 15.21 51.5 8.2 20.08-8.4 5.73-29.71 2.67-43.15-5.58-24.5.14-57.06 5.83-80.95Z"/><path fill="#db5d41" d="M1004.92 2570.09c-16.33-2.77-35.74 3.66-50.57-5.14a17 17 0 0 1-3.75-3 34.93 34.93 0 0 1-7.26.75 30.17 30.17 0 0 1-21.28-8.82 28.8 28.8 0 0 1-2.41-2.77c-6.18 16.66-7.25 45.78-6.4 55.85 146.25 19.44 169.58 17.88 169.58 17.88s4.91-16.88 3.78-22.24c-2.92-13.81-68.92-30.33-81.69-32.51Z"/><path fill="#c63c31" d="M988 2526.18c-4.83 14.73-9.42 23.33-34.65 24-33.71.91-26.12-43.74-32.85-38-5.52 4.72-7.69 54.53-7.51 61.54.47 18.79-2.83 20 49.17 20 93.15 8.42 123.62 23.57 124.44 8.8 1.25-22.31-70.66-23.43-98.6-76.34Z"/><path fill="#fff" d="M1269.59 2182.6a187.36 187.36 0 0 0-20.4 23.28c-2.1 2.88 1.78 6.57 3.87 3.67a187.22 187.22 0 0 1 20.38-23.26c2.56-2.49-1.36-6.14-3.85-3.69Z"/><path d="M1272.44 2180.92a3.6 3.6 0 0 0-3.55 1 186.39 186.39 0 0 0-20.51 23.4 3.92 3.92 0 0 0-.45 4 3.83 3.83 0 0 0 3 2.31h.32a3.24 3.24 0 0 0 2.64-1.48 185.47 185.47 0 0 1 20.27-23.13 3.44 3.44 0 0 0 1-3.35 3.93 3.93 0 0 0-2.72-2.75Zm.3 4.66a188 188 0 0 0-20.49 23.38 1.27 1.27 0 0 1-1.13.64 1.87 1.87 0 0 1-1.36-1.13 1.92 1.92 0 0 1 .24-2 184 184 0 0 1 20.29-23.16 1.61 1.61 0 0 1 1.61-.46 2 2 0 0 1 1.33 1.3 1.43 1.43 0 0 1-.49 1.43Z"/><path fill="#ffcdbb" d="M1311 2540.31c-8.48-39.23-16.67-80.57-17.7-120.7-.23-9.41 5.65-22.36-3.31-29.93-14.34-12.09-37.91 12.62-50.09 20.23-16.22 10.11-16.74 12.43-11.85 32.5 4.11 16.83 9.72 33.52 13.61 50.68a268.91 268.91 0 0 1 6.46 49.25c.37 9.81-5.44 33.39 1.5 41.09 14.88 16.54 65.67-17.16 74.73-6.7a40.58 40.58 0 0 1-5.87-9c-4.1-8.47-5.48-17.92-7.48-27.42Z"/><path fill="#355a97" d="M1027.3 1859.83c12.67-46.65 63-57.3 106.37-72.94 26.23-9.45 65.79-27.58 91.87-6.71 19.9 15.93 13.64 47 15 69.16 1.81 30.63 12.66 38.82 18 69.05 7.4 41.55 15.88 101.16 27.66 141.37 10.27 35.06 41.66 104.72 42.13 141a71.21 71.21 0 0 1-4.46 25.68c1.3 45-2 90.69-3.36 135.25-1.4 46.71 11 134.44-64.89 118.86-32.79-6.74-37.76-21.7-44.88-50.38-14.14-56.95-33.36-129.68-16.65-189.13-29.69-28-54-68.1-68.73-92.38-34-56.07-58.94-116.85-81.78-177.85-12.58-33.67-26.06-74.93-16.28-110.98Z"/><g clip-path="url(#f)"><path fill="#d4effc" d="m1341.69 1883.17-116.37-14.08s20.75 184.55 20.87 201.17 40.41 84.6 50.06 117.18-7.32 263.41-15.74 287.22c55.41 27.67 105-63 108.51-78.58s32.32-307.66 16.16-345.76-63.49-167.15-63.49-167.15Z" opacity=".1"/><path fill="#27467f" d="m1209.4 1867.78-27-39.46-101 70.81-34.93 112.13S1111 2234.44 1176.08 2222c-11.6-12.72-39-85-33.33-118.54s66.65-235.68 66.65-235.68Z"/><path fill="#e7f6fd" d="M1241 1926.67a1 1 0 0 0-2 .31q.9 5.83 1.84 11.89a1 1 0 0 0 1 .85h.16a1 1 0 0 0 .83-1.15c-.67-4.04-1.29-8-1.83-11.9ZM1251.51 1997.06a1 1 0 0 0-.81 1.16q1.08 6 2.18 11.84a1 1 0 0 0 1 .82h.19a1 1 0 0 0 .8-1.17c-.73-3.88-1.46-7.83-2.18-11.82a1 1 0 0 0-1.18-.83ZM1244.66 1950.44a1 1 0 0 0-2 .32c.63 3.93 1.27 7.9 1.92 11.88a1 1 0 0 0 1 .84h.16a1 1 0 0 0 .83-1.14c-.65-4-1.29-7.97-1.91-11.9ZM1268 2068.3a1 1 0 1 0-1.92.57c1.36 4.59 2.68 8.46 3.91 11.48a1 1 0 0 0 .93.63 1 1 0 0 0 .38-.08 1 1 0 0 0 .55-1.3c-1.22-2.97-2.51-6.77-3.85-11.3ZM1262.07 2045a1 1 0 0 0-1.19-.76 1 1 0 0 0-.76 1.2c1 4.19 1.89 8.14 2.8 11.74a1 1 0 0 0 1.94-.49c-.86-3.56-1.86-7.49-2.79-11.69ZM1257.12 2021.5a1 1 0 1 0-2 .39c.81 4.12 1.62 8.09 2.4 11.8a1 1 0 0 0 1 .8.69.69 0 0 0 .2 0 1 1 0 0 0 .78-1.18c-.76-3.73-1.57-7.7-2.38-11.81ZM1247.4 1973.36a1 1 0 0 0-.82 1.15q1 5.94 2 11.86a1 1 0 0 0 1 .83h.17a1 1 0 0 0 .82-1.16q-1-5.91-2-11.85a1 1 0 0 0-1.17-.83ZM1237.4 1902.87a1 1 0 0 0-2 .29c.56 3.83 1.15 7.81 1.76 11.91a1 1 0 0 0 1 .85h.15a1 1 0 0 0 .84-1.13q-.91-6.17-1.75-11.92ZM1301.38 2144.69a1 1 0 0 0 .95.7 1 1 0 0 0 .3 0 1 1 0 0 0 .65-1.26c-1.21-3.84-2.5-7.68-3.85-11.41a1 1 0 0 0-1.88.68c1.34 3.66 2.63 7.48 3.83 11.29ZM1312.62 2192.24h.12a1 1 0 0 0 .88-1.11c-.46-3.88-1-7.9-1.75-11.93a1 1 0 0 0-1.15-.82 1 1 0 0 0-.82 1.16c.69 4 1.28 8 1.73 11.83a1 1 0 0 0 .99.87ZM1307.58 2167.79a1 1 0 0 0 1 .79.78.78 0 0 0 .22 0 1 1 0 0 0 .76-1.19c-.86-3.86-1.82-7.79-2.87-11.7a1 1 0 0 0-1.23-.7 1 1 0 0 0-.7 1.22c1.01 3.85 1.97 7.79 2.82 11.58ZM1232.33 1867.1c-1-7.59-1.62-12-1.62-12a1 1 0 0 0-2 .26s.58 4.4 1.62 12a1 1 0 0 0 1 .86h.13a1 1 0 0 0 .87-1.12ZM1235.68 1891c-.62-4.28-1.18-8.27-1.69-11.92a1 1 0 1 0-2 .27c.51 3.66 1.07 7.65 1.69 11.93a1 1 0 0 0 1 .86h.15a1 1 0 0 0 .85-1.14ZM1311.74 2250.22a1 1 0 0 0-1 .94c-.21 3.81-.43 7.83-.64 12a1 1 0 0 0 .94 1.05h.06a1 1 0 0 0 1-.94q.33-6.3.64-12a1 1 0 0 0-1-1.05ZM1309.3 2298.28a1 1 0 0 0-1 .95l-.59 12a1 1 0 0 0 .95 1.05h.05a1 1 0 0 0 1-.95l.58-12a1 1 0 0 0-.99-1.05ZM1310.49 2274.25a1 1 0 0 0-1 .95q-.3 5.85-.6 12a1 1 0 0 0 1 1.05 1 1 0 0 0 1-1q.3-6.15.59-12a1 1 0 0 0-.99-1ZM1308.13 2322.3a1 1 0 0 0-1.05.95q-.28 6-.59 12a1 1 0 0 0 1 1 1 1 0 0 0 1-.95q.3-6 .59-12a1 1 0 0 0-.95-1ZM1313.24 2226.19a1 1 0 0 0-1.07.92c-.25 3.41-.51 7.35-.79 12a1 1 0 0 0 .93 1.06h.07a1 1 0 0 0 1-.94c.29-4.67.55-8.6.8-12a1 1 0 0 0-.94-1.04ZM1313.61 2202.2a1 1 0 0 0-.94 1.05c.16 3 .25 6 .25 8.85v3.07a1 1 0 0 0 1 1 1 1 0 0 0 1-1v-3.12c0-2.9-.09-5.92-.26-9a1 1 0 0 0-1.05-.85ZM1306.93 2346.31a1 1 0 0 0-1 1c-.21 4-.41 8-.63 12a1 1 0 0 0 1 1.05 1 1 0 0 0 1-1l.63-12a1 1 0 0 0-1-1.05ZM1300.93 2442.35a1 1 0 0 0-1.08.91c-.37 4.3-.75 8.33-1.11 12a1 1 0 0 0 .89 1.1h.1a1 1 0 0 0 1-.9c.37-3.65.74-7.69 1.11-12a1 1 0 0 0-.91-1.11ZM1298.5 2466.3a1 1 0 0 0-1.12.87c-.64 4.92-1.29 8.89-1.93 11.79a1 1 0 0 0 .76 1.19.83.83 0 0 0 .22 0 1 1 0 0 0 1-.79c.65-3 1.31-7 2-12a1 1 0 0 0-.93-1.06ZM1305.66 2370.35a1 1 0 0 0-1.05.94c-.22 4-.44 8-.67 12a1 1 0 0 0 .94 1.06h.06a1 1 0 0 0 1-.94q.33-6 .67-12a1 1 0 0 0-.95-1.06ZM1290.18 2110.42a1 1 0 1 0-1.8.86c1.65 3.45 3.28 7.13 4.85 10.92a1 1 0 0 0 .92.62 1.07 1.07 0 0 0 .39-.07 1 1 0 0 0 .54-1.31c-1.59-3.83-3.23-7.54-4.9-11.02ZM1278 2089.51a1 1 0 0 0-1.6 1.2 94.13 94.13 0 0 1 6.44 10 1 1 0 0 0 1.37.37 1 1 0 0 0 .37-1.36 97.06 97.06 0 0 0-6.58-10.21ZM1302.75 2418.36a1 1 0 0 0-1.06.93c-.29 4.12-.58 8.13-.87 12a1 1 0 0 0 .92 1.08h.08a1 1 0 0 0 1-.93c.3-3.86.59-7.87.87-12a1 1 0 0 0-.94-1.08ZM1304.29 2394.36a1 1 0 0 0-1.06.94c-.24 4.06-.49 8.07-.74 12a1 1 0 0 0 .93 1.06h.07a1 1 0 0 0 1-.94c.26-3.92.5-7.93.75-12a1 1 0 0 0-.95-1.06Z"/></g><path fill="#3465b0" d="M905.31 2333.89c-.1-7.6-.18-15.19-.18-22.75 0-45.86 10.38-100.63 31.77-146.51a23.72 23.72 0 0 0 5.73-1.92l.75-.36c-7.45-49.57-4.12-119.91 5-160.94 46.31-208.36 24.33-242.56 155.2-229.34 9.19 1 18.43 3.75 27.7 7.35 28.25 10.95 56.85 29.06 85.28 22.48-6.9 27.07-23.38 55.71-31.82 81.48-12.1 37-66.13 215-113.62 301.9-17.65 54.89-28.48 112.9-41.21 168.91-7.55 33.42-22.62 81.54-35.79 119.16-9.66 27.6-70.12 18.49-84.63-8.46-13.17-24.45-3.79-98.78-4.18-131Z"/><g clip-path="url(#g)"><path fill="#e7f6fd" d="M1039.14 2253.69a1 1 0 0 0-1.19.77c-.84 3.8-1.68 7.75-2.51 11.74a1 1 0 0 0 .78 1.18.71.71 0 0 0 .2 0 1 1 0 0 0 1-.79c.82-4 1.67-7.93 2.5-11.72a1 1 0 0 0-.78-1.18ZM1034.26 2277.19a1 1 0 0 0-1.18.79c-.77 4-1.52 7.93-2.24 11.79a1 1 0 0 0 .8 1.17h.19a1 1 0 0 0 1-.82q1.08-5.79 2.24-11.78a1 1 0 0 0-.81-1.15ZM1029.84 2300.77a1 1 0 0 0-1.16.81l-2.13 11.81a1 1 0 0 0 .8 1.16h.18a1 1 0 0 0 1-.82l2.13-11.81a1 1 0 0 0-.82-1.15ZM1051.13 2207.24a1 1 0 0 0-1.24.67c-1.12 3.8-2.23 7.69-3.3 11.56a1 1 0 0 0 .7 1.23 1.24 1.24 0 0 0 .27 0 1 1 0 0 0 1-.73c1.06-3.86 2.17-7.74 3.29-11.52a1 1 0 0 0-.72-1.21ZM1075.53 2139.55a1 1 0 0 0-1.32.54c-1.56 3.69-3.1 7.43-4.58 11.1a1 1 0 0 0 .55 1.3 1 1 0 0 0 .38.07 1 1 0 0 0 .92-.62c1.48-3.67 3-7.39 4.58-11.08a1 1 0 0 0-.53-1.31ZM1066.54 2161.8a1 1 0 0 0-1.29.58c-1.42 3.72-2.82 7.51-4.17 11.27a1 1 0 0 0 .61 1.28 1 1 0 0 0 .33.06 1 1 0 0 0 1-.66c1.34-3.75 2.74-7.53 4.15-11.24a1 1 0 0 0-.63-1.29ZM1058.4 2184.37a1 1 0 0 0-1.27.63c-1.27 3.78-2.53 7.63-3.73 11.42a1 1 0 0 0 .65 1.26 1.1 1.1 0 0 0 .31 0 1 1 0 0 0 1-.7c1.19-3.78 2.45-7.61 3.72-11.38a1 1 0 0 0-.68-1.23ZM999 2441.45a1 1 0 0 0-1.22.72c-1.07 4.14-2.1 8-3.06 11.61a1 1 0 0 0 .71 1.22 1.15 1.15 0 0 0 .26 0 1 1 0 0 0 1-.74c1-3.59 2-7.47 3.06-11.62a1 1 0 0 0-.75-1.19ZM992.81 2464.67a1 1 0 0 0-1.23.7c-1.33 4.84-2.42 8.75-3.22 11.57a1 1 0 0 0 .69 1.23.84.84 0 0 0 .27 0 1 1 0 0 0 1-.73c.8-2.82 1.9-6.73 3.23-11.58a1 1 0 0 0-.74-1.19ZM1004.9 2418.18a1 1 0 0 0-1.22.73c-1 4-2 7.91-2.92 11.64a1 1 0 0 0 .73 1.21 1 1 0 0 0 1.21-.72q1.42-5.61 2.93-11.65a1 1 0 0 0-.73-1.21ZM1020.89 2347.93a1 1 0 0 0-1.18.78q-1.23 5.92-2.48 11.74a1 1 0 0 0 .77 1.19h.21a1 1 0 0 0 1-.79q1.26-5.82 2.48-11.75a1 1 0 0 0-.8-1.17ZM1025.54 2324.38a1 1 0 0 0-1.16.8c-.47 2.49-1 5-1.42 7.4l-.87 4.37a1 1 0 0 0 .79 1.18h.19a1 1 0 0 0 1-.81l.87-4.37q.72-3.67 1.42-7.42a1 1 0 0 0-.82-1.15ZM1015.86 2371.42a1 1 0 0 0-1.19.76q-1.32 5.94-2.64 11.7a1 1 0 0 0 .76 1.2.83.83 0 0 0 .22 0 1 1 0 0 0 1-.78q1.32-5.77 2.64-11.72a1 1 0 0 0-.79-1.16ZM1010.52 2394.83a1 1 0 0 0-1.2.74q-1.4 6-2.78 11.68a1 1 0 0 0 .74 1.2.85.85 0 0 0 .23 0 1 1 0 0 0 1-.76q1.38-5.7 2.79-11.69a1 1 0 0 0-.78-1.17ZM1044.73 2230.36a1 1 0 0 0-1.22.72c-1 3.82-1.94 7.74-2.87 11.67a1 1 0 0 0 .74 1.2.85.85 0 0 0 .23 0 1 1 0 0 0 1-.77c.93-3.91 1.9-7.83 2.87-11.63a1 1 0 0 0-.75-1.19ZM1155.07 1913.31a1 1 0 0 0-1.22.71q-1.47 5.7-3 11.62a1 1 0 0 0 .71 1.22 1.07 1.07 0 0 0 .25 0 1 1 0 0 0 1-.74q1.58-5.93 3-11.63a1 1 0 0 0-.74-1.18ZM1142.41 1959.66a1 1 0 0 0-1.24.68q-1.65 5.7-3.38 11.51a1 1 0 0 0 .67 1.25 1 1 0 0 0 .29 0 1 1 0 0 0 1-.71q1.72-5.82 3.39-11.53a1 1 0 0 0-.73-1.2ZM1160.91 1890a1 1 0 0 0-1.21.73q-1.38 5.67-2.88 11.66a1 1 0 0 0 .72 1.21 1.07 1.07 0 0 0 .25 0 1 1 0 0 0 1-.75q1.5-6 2.88-11.67a1 1 0 0 0-.76-1.18ZM1148.91 1936.53a1 1 0 0 0-1.23.7q-1.56 5.7-3.21 11.57a1 1 0 0 0 .69 1.23.84.84 0 0 0 .27 0 1 1 0 0 0 1-.73q1.65-5.86 3.21-11.58a1 1 0 0 0-.73-1.19ZM1166.42 1866.6a1 1 0 0 0-1.2.76c-.85 3.72-1.76 7.63-2.72 11.69a1 1 0 0 0 .74 1.21.93.93 0 0 0 .23 0 1 1 0 0 0 1-.77q1.44-6.1 2.72-11.71a1 1 0 0 0-.77-1.18ZM1176.32 1819.51a1 1 0 0 0-1.16.8s-.79 4.3-2.32 11.82a1 1 0 0 0 .79 1.18h.19a1 1 0 0 0 1-.8c1.53-7.55 2.32-11.82 2.33-11.86a1 1 0 0 0-.83-1.14ZM1085.3 2117.64a1 1 0 0 0-1.32.49l-.6 1.3c-1.48 3.19-3 6.43-4.38 9.63a1 1 0 0 0 .51 1.32 1 1 0 0 0 .4.09 1 1 0 0 0 .92-.59c1.42-3.2 2.89-6.43 4.36-9.61l.6-1.3a1 1 0 0 0-.49-1.33ZM1171.59 1843.12a1 1 0 0 0-1.19.77c-.76 3.57-1.61 7.5-2.55 11.75a1 1 0 0 0 .76 1.19h.22a1 1 0 0 0 1-.78c.94-4.26 1.79-8.19 2.55-11.76a1 1 0 0 0-.79-1.17ZM1104.11 2073.4a1 1 0 0 0-1.3.56c-1.48 3.76-3 7.51-4.48 11.15a1 1 0 0 0 .54 1.3 1.08 1.08 0 0 0 .38.08 1 1 0 0 0 .93-.62c1.49-3.65 3-7.41 4.5-11.17a1 1 0 0 0-.57-1.3ZM1135.57 1982.68a1 1 0 0 0-1.25.66q-1.75 5.7-3.57 11.46a1 1 0 0 0 .65 1.26 1 1 0 0 0 .3 0 1 1 0 0 0 1-.7q1.81-5.76 3.57-11.47a1 1 0 0 0-.7-1.21ZM1095 2095.68a1 1 0 0 0-1.31.52 860.27 860.27 0 0 1-4.77 11 1 1 0 0 0 .51 1.31.93.93 0 0 0 .4.09 1 1 0 0 0 .91-.59c1.6-3.6 3.21-7.31 4.79-11a1 1 0 0 0-.53-1.33ZM1112.66 2051a1 1 0 0 0-1.28.6q-2.09 5.61-4.22 11.22a1 1 0 0 0 .58 1.29.92.92 0 0 0 .36.07 1 1 0 0 0 .93-.65q2.15-5.61 4.22-11.24a1 1 0 0 0-.59-1.29ZM1120.72 2028.36a1 1 0 0 0-1.27.62q-2 5.65-4 11.32a1 1 0 0 0 .61 1.28 1 1 0 0 0 .34.06 1 1 0 0 0 .94-.67q2-5.67 4-11.33a1 1 0 0 0-.62-1.28ZM1128.34 2005.59a1 1 0 0 0-1.26.64q-1.85 5.67-3.76 11.39a1 1 0 0 0 .63 1.27 1.12 1.12 0 0 0 .31 0 1 1 0 0 0 1-.68q1.92-5.73 3.77-11.41a1 1 0 0 0-.69-1.21Z"/><path fill="#2751a1" d="m887.27 1850.22-36.95 346 10.86 302.89 82.93 7.71-18.57-38.07c-18.56-38.07-16.37-213.81 5.78-245.51 27.47-39.31 31.4-101.38 33.49-155.38s39.3-261.88 39.3-261.88l-83.6-21.4Z"/><path fill="#d4effc" d="M1042.21 2180.52c-23.05 69.33-71.94 303.2-54.2 345.66s85.07-3.76 85.07-3.76l74.26-274.27 55.31-203.37 30.35-190.29-51.81-20.56s-124.37 302.62-138.98 346.59Z" opacity=".18"/></g><path fill="#223f74" d="M905.5 2451.38c-7.32-1.8 5.43 30.33 5.43 30.33s26.14 12.22 80.63 11.17c7.94-.15 8.18-31.29 8.18-31.29s-36.74 3.87-94.24-10.21ZM1227.32 2468.57c-6.74-.39 6.85 28.31 6.85 28.31s24.45 7 73.68-4c7.2-1.61 5.44-31.72 5.44-31.72s-33.03 10.5-85.97 7.41Z"/><path fill="#c63c31" d="M1410.67 2580.39c-18.47-2.69-82.66-35.56-97.19-47-3.65 1.54 4.6 25.3-23.87 25.57-14.73.14-41.56 3.89-44.78-36.44-9.73 8.11-9.45 69.27-3.9 83.48 9.13-2 37.42-9.75 59.49-4.35 21.38 5.22 62.6 9.42 84.95 9.15 27.19-.29 81.52-22.17 25.3-30.41Z"/><path fill="#db5d41" d="M1334.71 2602.53q-11.13-1-22.41-1.89c-12.75-.95-25.37-3.29-38.13-4.2-7.31-.51-15.06-1.26-22.36-.19-12.66 1.89-11 3.75-10.59 17.4 15 1.8 29.36.35 44.35 1.54 24.25 1.92 48.56 3.06 72.67 4.87 16.51 1.28 59.85 6 72.58-8.19 3.86-4.3 3.49-18.61 4.38-19.41-23.84 21.28-72.2 12.76-100.49 10.07Z"/><path fill="#ffcdbb" d="M1222.64 1385.41a27.94 27.94 0 0 1-10.83-26.59c.51-3.17.94-6.16 1.29-9a189.33 189.33 0 0 0 2.11-29.53l-32.75-24.73-31.59-26.11c1.1 71.68-46.27 105.43-46.27 105.43s86.89 44.07 137.78 29.36a112.5 112.5 0 0 0-19.74-18.83Z"/><path fill="#ffc63a" d="M1112.15 1853.06c45.85 10.87 119.33 26 149.28 25 24.77-66.57 22-267.38 23.1-288.39 1.44-26.27 2-50.41 1.44-70.26-.26-9.08-.79-17.24-1.6-24.32-5-41.23-22.22-70.82-40.74-92.76l-21.39-17.18c-17.82 1.13-32.38-2.4-49.54-13.73-18.77-12.35-39-25.64-42.84-23.42-28.75 15.74-52.17 56.51-68.89 110.36-9.59 31-107.38 250.44-78 367.22 1.28 5.16 90.31 18.51 129.18 27.48Z"/><g clip-path="url(#h)"><path fill="#f18f21" d="M1118.33 1507.17s-3.23 42.31 75.25 45.93 74.93 93.69 74.44 117 12.39 81.58 10.63 102.16c90.32-31.72 136.51-167.57 136.51-167.57l-15.31-97.56Z"/><path fill="#f5a61d" d="M993.09 1507.17c-25.38 67.28-75.15 213.48-90.65 303.87s129.62 78.07 186.69 37.22c-105.94-43.57-75.19-115.83-81.53-140.42s47.1-176.47 62.5-244.4 86.9-129.84 86.9-129.84-57.06 4-93.06 25.69-45.47 80.6-70.85 147.88Z" opacity=".61"/><path fill="#f5a61d" d="M1176.14 1866.89c-52.71-11.2 18 35.81 18 35.81l140.38-19.53V1852l-63.42-13.75s-42.25 39.84-94.96 28.64Z" opacity=".61"/></g><path fill="#e0ada4" d="m1182.46 1295.61-32.72 1.27s21.37 40.85 63.36 53c3.79-21.68 2.68-55.74 2.68-55.74Z"/><path fill="#e93835" d="M1069.55 1211.36c17.75 25.26 20.65 32.79 37.13 56.17 19.19 27.21 55.58 51.49 92.75 17.1l81-100.62c7.89-4.47 14.38-11.44 19.39-19.49a81 81 0 0 0 6.46-12.9c6.77-17 7.84-35.51 2.55-45.37-9.29-17.32-38.21 2.11-38.87 2.55.39-1 19.85-48-2.15-61.94-22.21-14.1-44 14.52-76.24 20.09-4.13.7-8.44 1.22-12.9 1.67-30.44 3.05-67.21 2.59-90.31 34.64-26.49 36.74-6.13 60.24-6.13 60.24a57.6 57.6 0 0 0-11.54 12.23c-6.22 8.96-10.8 21.9-1.14 35.63Z"/><g clip-path="url(#i)"><path fill="#cc3430" d="M1283.58 998.77c-23.32 6.72-124.17 13.45-146.29 23.71s-84 59.24-57 85.66c0 0 26.84 29.2 44.78 24.65s37.44-25.21 40.82-40.73c23.37 9.51 37.44 7.7 51.06-15.51 53.66 15.14 81.26-30.29 81.26-30.29 6.36-13.57 8.7-54.21-14.63-47.49Z"/></g><path fill="#ce3a36" d="M1280.41 1144.27s-29 27.92-48.73 30.48-12.69-32.17-59.35-3.83c-42.94 26.07-85.19 22.14-101.66 4.81-6.2 9-10.78 21.9-1.12 35.63 17.75 25.26 10.45 13.68 27.6 40.28 15.5 24 53.09 71.66 113.48 59.54l69.78-127.18c7.89-4.47 14.38-11.44 19.39-19.5-13.8-4.43-19.39-20.23-19.39-20.23Z"/><path fill="#ffcdbb" d="M1281.25 1146.42c-16.43 25.76-71.43 49.48-70.1 20.78-.52 11.33-11.61 22.13-25.49 30.49-10.46 6.31-30.41 10.63-30.41 10.63a31.14 31.14 0 0 0-6.07-12.39c-4-4.74-10.29-8.74-20.21-7.48-21.79 2.78-22.39 51.65-1.92 54 10.72 1.26 16.73-3.5 19.61-6.94a15.55 15.55 0 0 0 2.17-3.3s-5.51 74.83 57.46 94.92a99.05 99.05 0 0 0 13.39 3.23 26.69 26.69 0 0 0 4.25.65c48 0 58.67-53.78 62-90.86a436.208 436.208 0 0 0 1.73-39.48 290.56 290.56 0 0 0-2.14-36.74c-1.05-7.86-2.52-13.93-4.27-17.51Z"/><path d="m1129 1204.38-.41 2c1.61.33 3.33 2 4.73 4.58 2.48 4.61 3.83 12.18 1.24 18.71l1.86.74c2.83-7.13 1.37-15.39-1.34-20.4-1.67-3.19-3.83-5.17-6.08-5.63Z"/><path fill="#fff" d="m1136.47 1216.76-9.21 2.38a90.72 90.72 0 0 0 9.21-2.38Z"/><path d="m1127.07 1218.16.38 2a89 89 0 0 0 9.32-2.41l-.61-1.9a91.19 91.19 0 0 1-9.09 2.31ZM1229.8 1192.9c-5.64-4.12-19.66-8.63-32.32 3.85a3.14 3.14 0 0 0 0 4.45 3 3 0 0 0 1.64.88 3.14 3.14 0 0 0 2.81-.84c11.92-11.76 23.64-3.63 24.19-3.24a3.15 3.15 0 0 0 3.71-5.1ZM1287 1190.84c-12.22-9.5-24.5-1.95-25-1.62a3.15 3.15 0 0 0 3.35 5.33c.37-.22 9.11-5.48 17.81 1.26a3.12 3.12 0 0 0 1.84.67 3.15 3.15 0 0 0 2-5.64ZM1218.66 1216.24c-3.44.43-5.65 5.37-4.94 11s4.07 9.91 7.51 9.48 5.64-5.37 4.93-11-4.07-9.91-7.5-9.48ZM1272.3 1211.58c-3.44.43-5.65 5.37-4.94 11s4.08 9.91 7.51 9.48 5.65-5.37 4.93-11-4.07-9.91-7.5-9.48ZM1259.51 1229.14c-.82-2.56-4.88-1.47-4 1.12 1.72 5.37 3.62 10.71 5.08 16.17.94 3.52 2.59 8.1-.7 11-2.15 1.92-6.73 2.48-9.39 3.25s-1.49 4.79 1.11 4c6.9-2 15.11-3.72 14.41-12.56-.68-7.77-4.13-15.56-6.51-22.98Z"/><path fill="#fff" d="M1227.5 1278.74c-.78 10.59 20.11 35.84 36.46 3.35-4.26.91-30.17-.78-36.46-3.35Z"/><path d="M1266 1282.12a2.24 2.24 0 0 0-2.86-2h.24a2.27 2.27 0 0 1 2.62 2ZM1266 1282.12v.13a.57.57 0 0 0 0-.13ZM1266 1282.25ZM1265.78 1283.15l-.27.49a1.74 1.74 0 0 0 .52-1.37 2.35 2.35 0 0 1-.25.88ZM1226.94 1280.77c1 .35 1.94.65 2.94.91a11.73 11.73 0 0 1-.28-2.94Z"/><path d="M1266 1282.27v-.13a2.27 2.27 0 0 0-2.62-2.06h-.24a1.86 1.86 0 0 0-1 .94c-.59 1.13-1.26 2.32-2 3.51a34.61 34.61 0 0 0 4.36-.43 1.81 1.81 0 0 0 1-.47l.27-.49a2.35 2.35 0 0 0 .23-.87Z"/><path d="M1260.16 1284.54c-4.51 7.35-11.57 14.71-20.53 9.83-4.36-2.39-8.63-7.47-9.75-12.69-1-.26-2-.56-2.94-.91l2.66-2a11.73 11.73 0 0 0 .28 2.94c5.34 1.43 11.25 1.69 16.61 2.12a118.68 118.68 0 0 0 13.67.74c.73-1.19 1.4-2.38 2-3.51a1.86 1.86 0 0 1 1-.94c-5.33.84-11.36-.06-16.67-.49-6-.48-12.7-.73-18.44-2.88a2.11 2.11 0 0 0-2.65 2c-.3 8.14 6.44 16.76 13.6 20 12 5.44 21.36-5.43 26.51-15.09a1.81 1.81 0 0 1-1 .47 34.61 34.61 0 0 1-4.35.41Z"/><path fill="#ffc63a" d="M1123.78 1436.27c-31.41 35-10.48 91.5 36.29 96.56q1.44.15 2.88.27c71.38 5.79 226.41 58.3 268.15 72.42 49.9 16.88 156.79 5.56 156.79 5.56s4.41-63.07-15.23-62.5c0 0-106.89-48.55-143.82-61.67-72.11-25.6-252.08-113-279.49-80-7.25 8.7-16.25 18.97-25.57 29.36Z"/><g clip-path="url(#j)"><path fill="#f9db77" d="M1096.76 1435.08s73.36-36.16 113.87-21.29 239.63 113.58 285.14 111.16 47.63-94.32 47.63-94.32l-296.77-65.3s-149.87 36.4-149.87 69.75Z" opacity=".71"/><path fill="#f5a61d" d="M1587.9 1583.12c-48.42 65.83-213.53-20.85-270.55-30.92-53-9.36-141.21-17.64-141.21-17.64s211 134.09 220.19 135.58 185 13.8 201.66 4.63 58.33-73.77-10.09-91.65Z" opacity=".61"/></g></g></svg>