<svg xmlns="http://www.w3.org/2000/svg" viewBox="0 0 1159 771"><defs><style>.cls-2{fill:#00af83}.cls-3{fill:#ffbf17}.cls-4{fill:#111}.cls-5{fill:#8b75f3}.cls-6{opacity:.6}.cls-13,.cls-6{mix-blend-mode:multiply}.cls-7{fill:#32303c}.cls-8{fill:#00ddb0}.cls-9{fill:#044742}.cls-10{fill:#ffa8d2}.cls-11{fill:#ffa7d3}.cls-12{fill:#fff}.cls-13{opacity:.5}.cls-14{fill:#c1fbe8}.cls-15{fill:#076}.cls-21{fill:#ffebb9}.cls-27{fill:#554d43}</style></defs><g style="isolation:isolate"><g id="Layer_1" data-name="Layer 1"><path class="cls-2" transform="rotate(-28.26 372.427 304.347)" d="M44.91 303.78h654.91v1.08H44.91z"/><path class="cls-2" transform="rotate(-28.26 417.226 330.346)" d="M89.71 329.77h654.9v1.08H89.71z"/><path class="cls-2" transform="rotate(-28.21 286.623 250.06)" d="M71.99 249.5h429.22v1.08H71.99z"/><path class="cls-2" transform="rotate(-28.27 331.392 276.033)" d="M3.95 275.49h654.91v1.08H3.95z"/><path class="cls-2" transform="rotate(-28.26 462.05 356.33)" d="M134.51 355.76h654.9v1.08h-654.9z"/><path class="cls-2" transform="rotate(-28.27 506.734 382.285)" d="M179.31 381.75h654.91v1.08H179.31z"/><path class="cls-2" transform="rotate(-28.27 551.48 408.249)" d="M224.11 407.74h654.91v1.08H224.11z"/><path class="cls-2" transform="rotate(-28.27 596.401 434.277)" d="M268.91 433.73h654.9v1.08h-654.9z"/><path class="cls-2" transform="rotate(-28.27 641.202 460.276)" d="M313.71 459.71h654.9v1.08h-654.9z"/><path class="cls-2" transform="rotate(-28.26 686.036 486.278)" d="M358.51 485.7h654.91v1.08H358.51z"/><path class="cls-2" transform="rotate(-28.26 730.88 512.267)" d="M403.31 511.69h654.91v1.08H403.31z"/><path class="cls-2" transform="rotate(-28.26 775.678 538.266)" d="M448.11 537.68h654.91v1.08H448.11z"/><path class="cls-2" transform="rotate(-28.22 820.307 564.192)" d="M528.07 563.67h584.6v1.08h-584.6z"/><path class="cls-2" transform="rotate(-61.73 786.668 289.512)" d="M786.09-37.94h1.08v654.9h-1.08z"/><path class="cls-2" transform="rotate(-61.73 741.866 315.499)" d="M741.29-11.95h1.08v654.9h-1.08z"/><path class="cls-2" transform="rotate(-61.73 827.632 261.209)" d="M827.06-66.23h1.08v654.91h-1.08z"/><path class="cls-2" transform="rotate(-61.73 697.063 341.486)" d="M696.49 14.04h1.08v654.91h-1.08z"/><path class="cls-2" transform="rotate(-61.73 652.269 367.477)" d="M651.69 40.03h1.08v654.91h-1.08z"/><path class="cls-2" transform="rotate(-61.73 607.461 393.472)" d="M606.89 66.01h1.08v654.91h-1.08z"/><path class="cls-2" transform="rotate(-61.73 562.659 419.46)" d="M562.09 92h1.08v654.9h-1.08z"/><path class="cls-2" transform="rotate(-61.73 517.865 445.45)" d="M517.29 117.99h1.08v654.9h-1.08z"/><path class="cls-2" transform="rotate(-61.73 473.062 471.438)" d="M472.49 143.98h1.08v654.91h-1.08z"/><path class="cls-2" transform="rotate(-61.73 428.26 497.424)" d="M427.69 169.97h1.08v654.91h-1.08z"/><path class="cls-2" transform="rotate(-61.73 383.46 523.424)" d="M382.89 195.96h1.08v654.9h-1.08z"/><path class="cls-2" transform="rotate(-61.73 338.658 549.411)" d="M338.1 257.1h1.08v584.6h-1.08z"/><path class="cls-2" transform="rotate(-61.73 293.856 575.398)" d="M293.3 340.79h1.08v469.19h-1.08z"/><path class="cls-3" d="m391.31 119.38 23.66 13.18v-27.78L391.31 91.6v27.78z"/><path class="cls-4" d="M415 133.1a.54.54 0 0 1-.27-.07l-23.65-13.18a.53.53 0 0 1-.28-.47V91.6a.52.52 0 0 1 .27-.46.53.53 0 0 1 .53 0l23.66 13.18a.56.56 0 0 1 .28.47v27.78a.57.57 0 0 1-.27.47.54.54 0 0 1-.27.06Zm-23.12-14 22.58 12.58V105.1l-22.61-12.58Z"/><path class="cls-5" d="m391.31 91.63 23.8 13.21 21.59-12.11-23.79-13.2-21.6 12.1z"/><path class="cls-4" d="M415.11 105.38a.64.64 0 0 1-.27-.07L391.05 92.1a.53.53 0 0 1-.28-.47.56.56 0 0 1 .28-.47l21.59-12.1a.55.55 0 0 1 .53 0L437 92.26a.56.56 0 0 1 .28.47.51.51 0 0 1-.28.47l-21.59 12.11a.59.59 0 0 1-.3.07Zm-22.69-13.75 22.68 12.59 20.5-11.48-22.69-12.59Z"/><path class="cls-4" d="m436.7 121.39-21.29 11.37V104.7l21.29-11.97v28.66z"/><path class="cls-4" d="M415.41 133.3a.57.57 0 0 1-.28-.08.54.54 0 0 1-.26-.46V104.7a.52.52 0 0 1 .27-.47l21.3-12a.54.54 0 0 1 .8.47v28.66a.55.55 0 0 1-.28.48l-21.3 11.36a.59.59 0 0 1-.25.1ZM416 105v26.85l20.21-10.79v-27.4Z"/><g class="cls-6"><path class="cls-7" d="m435.85 170.43-19.62-10.89-17.74 9.98 19.55 10.88 17.81-9.97z"/></g><path class="cls-3" d="m414.97 151.03 23.65 13.19v-27.78l-23.65-13.19v27.78z"/><path class="cls-4" d="M438.62 164.75a.58.58 0 0 1-.26-.06l-23.66-13.18a.55.55 0 0 1-.27-.47v-27.79a.54.54 0 0 1 .26-.46.55.55 0 0 1 .54 0L438.88 136a.53.53 0 0 1 .28.47v27.78a.55.55 0 0 1-.26.47.55.55 0 0 1-.28.03Zm-23.11-14 22.57 12.58v-26.58l-22.57-12.58Z"/><path class="cls-5" d="m414.97 123.29 23.79 13.2 21.6-12.1-23.8-13.21-21.59 12.11z"/><path class="cls-4" d="M438.76 137a.48.48 0 0 1-.26-.07l-23.79-13.2a.53.53 0 0 1-.28-.47.52.52 0 0 1 .27-.47l21.6-12.11a.53.53 0 0 1 .52 0l23.8 13.21a.53.53 0 0 1 .28.47.56.56 0 0 1-.28.47L439 137a.48.48 0 0 1-.24 0Zm-22.69-13.75 22.69 12.59 20.49-11.48-22.69-12.56Z"/><g class="cls-6"><path class="cls-7" d="m467.53 197.57-19.62-10.89-17.74 9.98 19.55 10.88 17.81-9.97z"/></g><path class="cls-4" d="m460.36 153.05-21.3 11.36v-28.06l21.3-11.96v28.66z"/><path class="cls-4" d="M439.06 165a.53.53 0 0 1-.27-.08.51.51 0 0 1-.26-.46v-28.11a.55.55 0 0 1 .27-.47l21.29-12a.54.54 0 0 1 .81.47v28.66a.52.52 0 0 1-.29.47l-21.29 11.37a.58.58 0 0 1-.26.15Zm.54-28.28v26.84l20.22-10.78v-27.47Z"/><path class="cls-8" d="m650.83 379.08 230.66 126.38a30.35 30.35 0 0 0 28.8.18l105-55.83a16.79 16.79 0 0 0 .18-29.55L784.83 293.89a30.3 30.3 0 0 0-28.8-.18L651 349.53a16.79 16.79 0 0 0-.17 29.55Z"/><path class="cls-4" d="M896.06 509.72a31 31 0 0 1-14.83-3.79L650.58 379.55a17.32 17.32 0 0 1 .19-30.49l105-55.83a30.9 30.9 0 0 1 29.32.18l230.65 126.38a17.33 17.33 0 0 1-.19 30.5l-105 55.82a31 31 0 0 1-14.49 3.61Zm-125.8-219a29.88 29.88 0 0 0-14 3.48L651.27 350a16.25 16.25 0 0 0-.18 28.6L881.75 505a29.83 29.83 0 0 0 14.31 3.66 29.88 29.88 0 0 0 14-3.48l105-55.83a16.23 16.23 0 0 0 .18-28.59l-230.67-126.4a29.83 29.83 0 0 0-14.31-3.66Z"/><path class="cls-8" d="m427.33 577.33 181.91 105.48a20.41 20.41 0 0 0 19.81.36L802 591.24a20.39 20.39 0 0 0 .66-35.65L620.7 450.11a20.41 20.41 0 0 0-19.81-.37L428 541.68a20.39 20.39 0 0 0-.67 35.65Z"/><path class="cls-4" d="M619.47 686.1a21 21 0 0 1-10.5-2.83L427.06 577.8a20.93 20.93 0 0 1 .67-36.6l172.91-91.93a21 21 0 0 1 20.33.37l181.92 105.48a20.94 20.94 0 0 1-.68 36.6L629.3 683.65a21 21 0 0 1-9.83 2.45Zm-9-238.2a19.92 19.92 0 0 0-9.32 2.32l-172.92 91.93a19.85 19.85 0 0 0-.63 34.71l181.91 105.48a19.88 19.88 0 0 0 19.29.36l172.91-91.93a19.87 19.87 0 0 0 .64-34.72L620.43 450.58a19.81 19.81 0 0 0-9.96-2.68Z"/><path class="cls-8" d="m747.83 427.57-97.07 53.73 61.92 35.81 102.74-56.87a7.77 7.77 0 0 0 .11-13.53l-32.66-18.83a35.61 35.61 0 0 0-35.04-.31ZM429.26 656.86l97.07-53.73-61.92-35.8-102.74 56.87a7.76 7.76 0 0 0-.12 13.52l32.67 18.84a35.61 35.61 0 0 0 35.04.3Z"/><path class="cls-4" d="M412 661.83a36.18 36.18 0 0 1-18-4.83l-32.67-18.84a8.32 8.32 0 0 1 .13-14.47l78-43.17.52.94-78 43.18a7.23 7.23 0 0 0-.11 12.59l32.67 18.83a35.26 35.26 0 0 0 34.51.3l73.46-40.66.52.94-73.46 40.67a36.22 36.22 0 0 1-17.57 4.52Z"/><path class="cls-4" transform="rotate(-28.97 710.393 448.267)" d="M669.21 447.73h82.43v1.08h-82.43z"/><path class="cls-4" transform="rotate(-28.97 764.458 488.414)" d="M713.19 487.89h102.6v1.08h-102.6z"/><g class="cls-6"><path class="cls-7" d="m404.87 658.44-42.11-24.23a21.43 21.43 0 0 1-7.12-6.72l49.91-27.78.17 39c0 16.51 13.14 20.38 21.28 19.25 0 .04-11.09 5.04-22.13.48Z"/></g><path class="cls-9" d="m714.05 390.22 115.61 63.34s25.09-29.82-20.46-53.14-95.15-10.2-95.15-10.2Z"/><path class="cls-4" d="m829.78 454.25-.38-.21-116.79-64 1.3-.35A148.11 148.11 0 0 1 747.8 386c22.84 0 43.58 4.69 61.64 13.93 15.75 8.06 24.87 17.78 27.11 28.9 2.8 13.84-6.39 25-6.48 25.07Zm-114.24-63.83 114 62.45c1.48-1.94 8.41-11.84 6-23.83-2.18-10.77-11.11-20.24-26.55-28.14-17.91-9.17-38.48-13.81-61.15-13.81a152.58 152.58 0 0 0-32.3 3.33Z"/><path class="cls-4" d="M809.2 405.67c19.84 10.16 26.28 21.55 27.22 31.18 1-10.52-3.62-24.35-27.22-36.43-45.55-23.31-95.15-10.2-95.15-10.2l7 3.82c15.17-2.63 52.87-6.43 88.15 11.63Z"/><path class="cls-10" d="m774.47 419.99 47.15 9.57-47.53-7.45.38-2.12z"/><path class="cls-10" d="m761.11 415.94 21.16 11.59s4.59-5.46-3.75-9.72-17.41-1.87-17.41-1.87Z"/><path class="cls-4" d="m782.4 428.22-22.74-12.46 1.31-.34a26.85 26.85 0 0 1 6.32-.69 24.88 24.88 0 0 1 11.48 2.6c3 1.53 4.76 3.42 5.19 5.59a6.28 6.28 0 0 1-1.28 5Zm-19.74-12 19.45 10.65a5.17 5.17 0 0 0 .8-3.71c-.38-1.83-1.94-3.46-4.63-4.83a23.87 23.87 0 0 0-11-2.49 28.43 28.43 0 0 0-4.62.34Z"/><path class="cls-8" d="m754.2 400.73-12.09-6.79 1.65-.22 12.09 6.79-1.65.22zM830.47 442.16l-12.09-6.78.72-.96 12.09 6.79-.72.95zM796.83 414.16l12.71-6.92 1.34.72-12.7 6.92-1.35-.72zM779.11 400.5l-.12-4.6 1.4.17.11 4.6-1.39-.17zM827.72 421.34l-4.51.93-.82-.97 4.51-.94.82.98z"/><path class="cls-9" d="M896.06 505.41a26.68 26.68 0 0 1-12.75-3.26L652.65 375.77a13 13 0 0 1 .14-22.91L757.8 297a26.54 26.54 0 0 1 25.21.15l230.66 126.38a13 13 0 0 1-.14 22.91l-105 55.83a26.65 26.65 0 0 1-12.47 3.14Zm-125.8-206.09a21.2 21.2 0 0 0-9.93 2.47l-105 55.83a7.62 7.62 0 0 0-.08 13.42L885.9 497.42a21.51 21.51 0 0 0 20.09.13l105-55.83a7.63 7.63 0 0 0 .08-13.42L780.42 301.92a21.24 21.24 0 0 0-10.16-2.6Z"/><path class="cls-11" d="M896.06 503.8a25 25 0 0 1-12-3.07l-8.06-4.42a1.09 1.09 0 0 1-.43-1.47 1.08 1.08 0 0 1 1.47-.42l8.07 4.42a22.79 22.79 0 0 0 21.63.14l7.24-3.85a1.08 1.08 0 1 1 1 1.9l-7.24 3.85a25 25 0 0 1-11.68 2.92ZM921.5 493.43a1.07 1.07 0 0 1-1-.57 1.08 1.08 0 0 1 .44-1.46l13.77-7.32a1.08 1.08 0 1 1 1 1.91L922 493.31a1.19 1.19 0 0 1-.5.12ZM942 482.51a1.08 1.08 0 0 1-.5-2l5.62-3a1.08 1.08 0 0 1 1.46.45 1.07 1.07 0 0 1-.45 1.45l-5.62 3a1 1 0 0 1-.51.1Z"/><path class="cls-5" d="M978.16 463.31a1.07 1.07 0 0 1-.95-.57 1.08 1.08 0 0 1 .44-1.46l34.11-18.13a9.25 9.25 0 0 0 .1-16.27l-7.08-3.88a1.08 1.08 0 1 1 1-1.89l7.07 3.88a11.39 11.39 0 0 1-.12 20.06l-34.11 18.13a1 1 0 0 1-.46.13ZM992.44 416.09a1 1 0 0 1-.51-.13l-14.29-7.83a1.08 1.08 0 1 1 1-1.89l14.36 7.83a1.08 1.08 0 0 1-.52 2ZM974.05 406a1.06 1.06 0 0 1-.52-.13l-5.14-2.82a1.07 1.07 0 0 1-.43-1.46 1.08 1.08 0 0 1 1.46-.43l5.15 2.82a1.07 1.07 0 0 1 .42 1.46 1.06 1.06 0 0 1-.94.56ZM964.44 400.75a1.11 1.11 0 0 1-.52-.13l-10.68-5.86a1.08 1.08 0 0 1-.43-1.46 1.1 1.1 0 0 1 1.47-.43l10.72 5.86a1.08 1.08 0 0 1-.52 2ZM912.63 372.36a1.06 1.06 0 0 1-.52-.13l-103.83-56.89a1.08 1.08 0 1 1 1-1.89l103.83 56.89a1.07 1.07 0 0 1 .42 1.46 1.06 1.06 0 0 1-.9.56ZM713.19 407a1 1 0 0 1-.51-.13l-59.26-32.47a11.4 11.4 0 0 1 .13-20.06l83.78-44.54a1.08 1.08 0 0 1 1 1.9l-83.78 44.54a9.25 9.25 0 0 0-.1 16.27l59.25 32.47a1.07 1.07 0 0 1 .43 1.46 1.08 1.08 0 0 1-.94.56ZM742.24 422.86a1.08 1.08 0 0 1-.52-.13l-21-11.51a1.08 1.08 0 1 1 1-1.89l21 11.51a1.07 1.07 0 0 1 .42 1.46 1.06 1.06 0 0 1-.9.56Z"/><path class="cls-11" d="M869.27 492.47a1.06 1.06 0 0 1-.51-.14l-19.66-10.77a1.08 1.08 0 1 1 1-1.89l19.66 10.77a1.08 1.08 0 0 1-.52 2Z"/><path class="cls-12" d="m889 498.89-87.76-47.53a33.15 33.15 0 0 0-32.14.22L698.6 491l-.53-.94 70.49-39.4a34.22 34.22 0 0 1 33.18-.22l86 46.57c-.67-5.4-5-30.74-26.23-30.74h-1.18c-5.37 0-6.49-9-7.78-19.38-1.2-9.62-2.56-20.53-7.77-23.86-7.07-4.53-10.63 1-14.4 6.89-2.39 3.73-4.86 7.58-8.32 8.53-7.82 2.14-15.53-7.55-19.43-13.52-8.07-12.35-15.84-10.09-24.84-7.46-6.78 2-14.46 4.21-22.95-.24l-48.5-26.69.52-.94 48.49 26.68c8.09 4.24 15.24 2.16 22.14.15 9-2.63 17.54-5.11 26 7.91 3.74 5.72 11.08 15 18.24 13.07 3.06-.84 5.32-4.35 7.71-8.08 3.7-5.77 7.9-12.32 15.88-7.21 5.63 3.6 7 14.3 8.26 24.64 1.17 9.47 2.29 18.43 6.73 18.43h.12c25.63-.94 28.41 32.38 28.44 32.72Z"/><path class="cls-9" d="M901.84 421.52a12.76 12.76 0 0 1-6.2-1.51l-137.17-75.87c-5.86-3.25-6.55-10.67-1.54-16.58s13.83-8.09 19.69-4.85l137.17 75.88c5.86 3.24 6.55 10.66 1.53 16.58a18.16 18.16 0 0 1-13.48 6.35Z"/><path class="cls-4" d="M901.84 422.05a13.34 13.34 0 0 1-6.46-1.57l-137.17-75.87a9.72 9.72 0 0 1-5-6.81 13 13 0 0 1 3.31-10.59 18.77 18.77 0 0 1 13.9-6.54 13.34 13.34 0 0 1 6.46 1.57l137.17 75.88a9.68 9.68 0 0 1 5 6.81 13 13 0 0 1-3.31 10.59 18.76 18.76 0 0 1-13.9 6.53Zm-131.42-100.3a17.62 17.62 0 0 0-13.07 6.15c-2.54 3-3.66 6.53-3.08 9.7a8.63 8.63 0 0 0 4.46 6.06l137.17 75.88a12.28 12.28 0 0 0 5.94 1.44 17.6 17.6 0 0 0 13.07-6.16 11.94 11.94 0 0 0 3.08-9.7 8.65 8.65 0 0 0-4.46-6.06l-137.17-75.87a12.17 12.17 0 0 0-5.94-1.44Z"/><g class="cls-13"><path class="cls-7" d="M901.46 415h149.15c10.48 0 14.07-14 4.89-19l-127.38-70.14a10.09 10.09 0 0 0-4.89-1.26H762.56l13.69 23.83Z"/></g><g class="cls-13"><path class="cls-7" d="m924.73 466.21-21.3-.06v12.94h21.29a6.33 6.33 0 0 0 5.2-2.57 6.54 6.54 0 0 0-5.19-10.31Z"/></g><g class="cls-13"><path class="cls-7" d="m963.09 445.58-21.3-.06v12.94h21.28a6.35 6.35 0 0 0 5.21-2.57 6.54 6.54 0 0 0-5.19-10.31Z"/></g><path class="cls-8" d="m114.6 330.83 221.19 128.25a24.8 24.8 0 0 0 24.08.44l210.25-111.77a24.81 24.81 0 0 0 .79-43.36L349.72 176.14a24.82 24.82 0 0 0-24.08-.44L115.4 287.48a24.8 24.8 0 0 0-.8 43.35Z"/><path class="cls-4" d="M348.23 463a25.46 25.46 0 0 1-12.71-3.41l-221.19-128.3a25.34 25.34 0 0 1 .82-44.29l210.24-111.78a25.34 25.34 0 0 1 24.6.46l221.19 128.25a25.33 25.33 0 0 1-.81 44.29L360.13 460a25.46 25.46 0 0 1-11.9 3Zm-11-289.62a24.29 24.29 0 0 0-11.38 2.84L115.65 288a24.27 24.27 0 0 0-.78 42.41l221.19 128.2a24.24 24.24 0 0 0 23.56.44l210.24-111.78a24.26 24.26 0 0 0 .78-42.41L349.45 176.61a24.29 24.29 0 0 0-12.17-3.27Z"/><path class="cls-4" d="M348.23 456.5a18.82 18.82 0 0 1-9.46-2.55l-73-42.31.54-.93 73 42.31a18.06 18.06 0 0 0 17.28.31l210.24-111.77a17.79 17.79 0 0 0 .57-31.11L346.21 182.2a18.09 18.09 0 0 0-17.28-.31L118.69 293.66a17.8 17.8 0 0 0-.57 31.11l54.8 31.77-.54.94-54.8-31.78a18.87 18.87 0 0 1 .6-33l210.25-111.76a18.88 18.88 0 0 1 18.32.33l221.19 128.25a18.87 18.87 0 0 1-.61 33L357.09 454.29a19 19 0 0 1-8.86 2.21Z"/><path class="cls-8" d="M327.76 691c-16.56 10.45-27.18 13.47-44.15 3.71L114.86 597a113.84 113.84 0 0 1 7.63-201.39l67.59-32.32L255 404.26 150.39 454a49.17 49.17 0 0 0-3.3 87L334 653.7c12.82 7.88 6.5 29.26-6.23 37.29Z"/><path class="cls-14" d="m277.19 683.57-.48-1 16.6-8.25a5.48 5.48 0 0 0 .32-9.63l-158.51-92.3c-28.05-16.34-44-45.46-42.65-77.89s19.63-60.14 48.94-74.1l72.15-34.4.46 1-72.15 34.39c-28.93 13.79-47 41.14-48.33 73.18s14.42 60.77 42.12 76.91l158.51 92.33a6.55 6.55 0 0 1-.38 11.52Z"/><path class="cls-4" d="M302.48 701.16c-5.85 0-11.94-1.85-19.14-6L114.59 597.5a114.38 114.38 0 0 1 7.67-202.35l60.21-28.79.47 1-60.21 28.78a113.3 113.3 0 0 0-7.6 200.45l168.75 97.67c16.79 9.65 27.43 6.49 43.59-3.7 7.59-4.79 13.06-14.65 13-23.44 0-4-1.21-9.53-6.77-12.94L146.81 541.43a49.71 49.71 0 0 1 3.34-87.94l98.57-47.12.46 1-98.56 47.12a48.63 48.63 0 0 0-3.26 86l186.9 112.74c4.67 2.86 7.26 7.78 7.29 13.85.06 9.14-5.62 19.39-13.51 24.36-9.64 6.09-17.36 9.72-25.56 9.72Z"/><path class="cls-2" d="M389.42 398.82A22.22 22.22 0 0 1 377 395l-12.3-8.24a11.53 11.53 0 0 1 .94-19.74L489.92 300a2.92 2.92 0 0 0 .13-5.06l-15.29-9.26a13.68 13.68 0 0 0-13.51-.36l-136.42 73a4.31 4.31 0 0 1-4.07-7.6l136.43-73a22.38 22.38 0 0 1 22 .59l15.28 9.26a11.55 11.55 0 0 1-.49 20l-124.26 67.1a2.92 2.92 0 0 0-.24 5l12.31 8.24a13.61 13.61 0 0 0 14.08.67L530 316a4.31 4.31 0 0 1 4.1 7.58L400 396.13a22.26 22.26 0 0 1-10.58 2.69Z"/><path class="cls-9" d="M390.22 401a21.8 21.8 0 0 1-12.15-3.71L365.76 389a11.11 11.11 0 0 1 .91-19l124.26-67.1a3.35 3.35 0 0 0 .14-5.81l-15.29-9.25a14.12 14.12 0 0 0-13.93-.38l-136.42 73a3.88 3.88 0 0 1-3.66-6.84l136.42-73a21.91 21.91 0 0 1 21.61.58l15.29 9.26a11.1 11.1 0 0 1-.48 19.27l-124.25 67.1a3.35 3.35 0 0 0-.28 5.73l12.31 8.24a14 14 0 0 0 14.53.69L531 318.94a3.88 3.88 0 0 1 3.69 6.83l-134.1 72.55a21.86 21.86 0 0 1-10.37 2.68Z"/><path class="cls-4" d="M390.22 401.5a22.31 22.31 0 0 1-12.45-3.8l-12.31-8.24a11.65 11.65 0 0 1 1-19.93l124.26-67.1a2.79 2.79 0 0 0 1.48-2.4 2.76 2.76 0 0 0-1.36-2.47l-15.34-9.26a13.83 13.83 0 0 0-13.4-.36l-136.42 73a4.35 4.35 0 0 1-2.08.53 4.42 4.42 0 0 1-2.09-8.32l136.42-73a22.42 22.42 0 0 1 22.15.59l15.29 9.26a11.65 11.65 0 0 1-.5 20.21l-124.26 67.1a2.81 2.81 0 0 0-.23 4.8l12.31 8.25a13.53 13.53 0 0 0 14 .66l134.11-72.55a4.41 4.41 0 0 1 6 1.79 4.41 4.41 0 0 1-1.78 6l-134.16 72.53a22.43 22.43 0 0 1-10.64 2.71Zm78.27-116.23a14.66 14.66 0 0 1 7.57 2.1l15.29 9.26a3.89 3.89 0 0 1-.17 6.75l-124.25 67.1a10.57 10.57 0 0 0-.87 18.08l12.31 8.24a21.19 21.19 0 0 0 22 1l134.09-72.5a3.34 3.34 0 0 0-1.59-6.28 3.41 3.41 0 0 0-1.59.4L397.17 392a14.58 14.58 0 0 1-15.08-.72L369.78 383a3.89 3.89 0 0 1 .32-6.65l124.26-67.1a10.57 10.57 0 0 0 .45-18.34l-15.29-9.26a21.36 21.36 0 0 0-21.08-.56L322 354.1a3.34 3.34 0 1 0 3.15 5.89l136.42-73a14.64 14.64 0 0 1 6.92-1.72Z"/><path class="cls-12" d="M400.75 317.08a2.66 2.66 0 1 1-2.66-2.66 2.66 2.66 0 0 1 2.66 2.66Z"/><path class="cls-4" d="M398.09 320.28a3.2 3.2 0 1 1 3.2-3.2 3.2 3.2 0 0 1-3.2 3.2Zm0-5.32a2.12 2.12 0 1 0 2.12 2.12 2.12 2.12 0 0 0-2.12-2.08Z"/><path class="cls-12" d="M336.52 351.59a2.66 2.66 0 1 1-2.65-2.66 2.65 2.65 0 0 1 2.65 2.66Z"/><path class="cls-4" d="M333.87 354.78a3.2 3.2 0 1 1 3.19-3.19 3.19 3.19 0 0 1-3.19 3.19Zm0-5.31a2.12 2.12 0 1 0 2.11 2.12 2.12 2.12 0 0 0-2.11-2.12Z"/><path class="cls-12" d="M435.58 338.47a2.66 2.66 0 1 1-2.66-2.66 2.66 2.66 0 0 1 2.66 2.66Z"/><path class="cls-4" d="M432.92 341.66a3.2 3.2 0 1 1 3.2-3.19 3.19 3.19 0 0 1-3.2 3.19Zm0-5.31a2.12 2.12 0 1 0 2.12 2.12 2.12 2.12 0 0 0-2.12-2.12Z"/><path class="cls-11" d="M390.22 398.15a18.94 18.94 0 0 1-10.59-3.23l-12.31-8.24a8.31 8.31 0 0 1 .68-14.21l41.17-22.23a1.08 1.08 0 1 1 1 1.9L369 374.37a6.14 6.14 0 0 0-.51 10.52l12.31 8.24a16.82 16.82 0 0 0 17.42.83l134.11-72.55a1.08 1.08 0 1 1 1 1.9l-134.1 72.54a19 19 0 0 1-9.01 2.3Z"/><path class="cls-11" d="M415.18 349.3a1.09 1.09 0 0 1-.95-.57 1.08 1.08 0 0 1 .44-1.46l9.07-4.9a1.08 1.08 0 0 1 1 1.9l-9.08 4.9a1 1 0 0 1-.48.13ZM428.1 342.32a1.08 1.08 0 0 1-.51-2l3.88-2.09a1.08 1.08 0 1 1 1 1.9l-3.88 2.09a1 1 0 0 1-.49.1Z"/><path class="cls-5" d="M442.1 334.76a1.08 1.08 0 0 1-.51-2l50.67-27.36a6.15 6.15 0 0 0 .26-10.67l-15.29-9.26a16.92 16.92 0 0 0-16.7-.45 1.07 1.07 0 0 1-1.46-.44 1.08 1.08 0 0 1 .44-1.46 19.15 19.15 0 0 1 18.84.5l15.29 9.26a8.31 8.31 0 0 1-.36 14.42l-50.66 27.36a1.08 1.08 0 0 1-.52.1ZM438.72 296.52a1.09 1.09 0 0 1-1-.57 1.08 1.08 0 0 1 .45-1.46l12.12-6.49a1.07 1.07 0 0 1 1.46.44 1.08 1.08 0 0 1-.44 1.46l-12.08 6.46a1 1 0 0 1-.51.16ZM424.26 304.26a1.08 1.08 0 0 1-.51-2l6.35-3.4a1.08 1.08 0 1 1 1 1.9l-6.35 3.4a1.07 1.07 0 0 1-.49.1ZM368.7 334a1.08 1.08 0 0 1-.51-2l28.45-15.22a1.08 1.08 0 0 1 1 1.9l-28.44 15.19a1.11 1.11 0 0 1-.5.13ZM353.89 341.91a1.07 1.07 0 0 1-.51-2l8.44-4.52a1.08 1.08 0 1 1 1 1.9l-8.44 4.52a1.16 1.16 0 0 1-.49.1Z"/><path class="cls-11" d="M341.68 348.45a1.08 1.08 0 0 1-.51-2l7.58-4.05a1.08 1.08 0 1 1 1 1.9l-7.58 4.05a1 1 0 0 1-.49.1ZM323.6 358.12a1.05 1.05 0 0 1-1-.57 1.06 1.06 0 0 1 .44-1.45l9.35-5a1.08 1.08 0 1 1 1 1.9l-9.35 5a1.19 1.19 0 0 1-.44.12Z"/><path class="cls-9" d="m166 334.32 77 44.53a4.23 4.23 0 0 0 4.11.07L455 268.43a4.25 4.25 0 0 0 .13-7.42l-77-44.53a4.21 4.21 0 0 0-4.11-.08L166.15 326.9a4.25 4.25 0 0 0-.15 7.42Z"/><path class="cls-4" d="M245.12 380a4.75 4.75 0 0 1-2.39-.64l-77-44.53a4.79 4.79 0 0 1 .15-8.37l207.85-110.53a4.87 4.87 0 0 1 4.64.08l77 44.53a4.78 4.78 0 0 1-.15 8.36L247.37 379.4a4.78 4.78 0 0 1-2.25.6ZM376 216.44a3.63 3.63 0 0 0-1.74.44l-207.85 110.5a3.7 3.7 0 0 0-.12 6.47l77 44.53a3.75 3.75 0 0 0 3.59.07L454.69 268a3.7 3.7 0 0 0 .12-6.48l-77-44.53a3.75 3.75 0 0 0-1.81-.55Z"/><path class="cls-4" d="m166 334.32.14.09L374 223.91a4.23 4.23 0 0 1 4.11.08l76.84 44.45a4.25 4.25 0 0 0 .13-7.42l-77-44.53a4.21 4.21 0 0 0-4.11-.08L166.15 326.9a4.25 4.25 0 0 0-.15 7.42Z"/><path class="cls-15" d="M175.27 340.05a.27.27 0 0 1-.24-.14.28.28 0 0 1 .11-.37L384 227.35a.27.27 0 0 1 .25.47L175.4 340a.31.31 0 0 1-.13.05ZM187.59 347.28a.27.27 0 0 1-.24-.14.28.28 0 0 1 .11-.37l208.87-112.19a.27.27 0 0 1 .25.47l-208.87 112.2ZM199.9 354.51a.28.28 0 0 1-.24-.14.28.28 0 0 1 .11-.37l208.87-112.19a.28.28 0 0 1 .37.11.27.27 0 0 1-.11.36L200 354.48a.31.31 0 0 1-.1.03ZM212.22 361.74a.27.27 0 0 1-.24-.14.28.28 0 0 1 .11-.37L421 249a.27.27 0 0 1 .25.47l-208.9 112.24a.31.31 0 0 1-.13.03ZM224.53 369a.27.27 0 0 1-.23-.14.27.27 0 0 1 .11-.37l208.86-112.22a.28.28 0 0 1 .37.11.27.27 0 0 1-.11.36l-208.87 112.2a.28.28 0 0 1-.13.06ZM236.85 376.2a.27.27 0 0 1-.24-.14.27.27 0 0 1 .11-.37L445.59 263.5a.27.27 0 0 1 .25.47L237 376.17a.31.31 0 0 1-.15.03Z"/><path class="cls-15" d="M314.35 343a.25.25 0 0 1-.14 0l-79.43-46.08a.27.27 0 1 1 .27-.47l79.43 46.09a.27.27 0 0 1 .1.37.28.28 0 0 1-.23.09ZM390.84 303a.22.22 0 0 1-.13 0l-79.43-46.08a.27.27 0 0 1-.1-.37.27.27 0 0 1 .37-.1L391 302.49a.26.26 0 0 1 .1.36.27.27 0 0 1-.26.15Z"/><g class="cls-6"><path class="cls-7" d="m355.8 294.23-24.17-14.33-5.15 2.75 24.17 14.34 5.15-2.76zM322.63 299.61l-34.35-20.26-5.15 2.75 34.35 20.26 5.15-2.75zM311.62 329.56l-28.31-17.07-5.15 2.76 28.31 17.06 5.15-2.75zM317.66 287.8l-7.52-4.58-5.15 2.76 7.52 4.57 5.15-2.75zM313.3 321.79l-5.55-3.32-5.15 2.75 5.55 3.33 5.15-2.76zM326.23 309.74l-17.91-10.25-5.15 2.75 17.91 10.26 5.15-2.76zM331.15 287.68l-10.76-6.41-5.15 2.75 10.76 6.42 5.15-2.76zM309.86 308.97l-14.91-8.56-5.15 2.76 14.91 8.56 5.15-2.76zM286.43 321.78l-17.91-10.26-5.15 2.76 17.91 10.26 5.15-2.76z"/></g><path class="cls-10" d="m354.68 289.26-24.17-14.34-5.15 2.76 24.17 14.34 5.15-2.76z"/><path class="cls-5" d="m321.51 294.63-34.34-20.26-5.15 2.76 34.35 20.26 5.14-2.76zM310.5 324.58l-28.31-17.06-5.15 2.75 28.31 17.07 5.15-2.76z"/><path class="cls-10" d="m316.54 282.82-7.52-4.57-5.15 2.75 7.52 4.58 5.15-2.76zM312.19 316.82l-5.56-3.33-5.15 2.76 5.56 3.33 5.15-2.76zM325.11 304.77l-17.91-10.26-5.14 2.76 17.9 10.26 5.15-2.76zM285.31 316.81l-17.9-10.26-5.15 2.76 17.91 10.25 5.14-2.75z"/><path class="cls-5" d="m330.03 282.7-10.76-6.41-5.15 2.76 10.77 6.41 5.14-2.76zM308.74 304l-14.91-8.56-5.14 2.75 14.9 8.56 5.15-2.75z"/><g class="cls-6"><path class="cls-7" d="m417.76 255.06-24.17-14.34-5.15 2.76 24.17 14.33 5.15-2.75zM397.78 268.53l-34.34-20.26-5.15 2.75 34.34 20.27 5.15-2.76zM369.1 290.51l-15.77-9.54-5.14 2.76 15.76 9.54 5.15-2.76zM393.11 257.3l-7.51-4.58-5.15 2.76 7.51 4.58 5.15-2.76zM375.26 282.62l-37.16-21.49-5.15 2.76 37.17 21.48 5.14-2.75zM386.79 271.05l-17.9-10.25-5.15 2.75 17.9 10.26 5.15-2.76zM393.11 248.5l-10.76-6.41-5.15 2.76 10.76 6.41 5.15-2.76zM368.67 269.72l-14.91-8.56-5.14 2.75 14.9 8.56 5.15-2.75z"/></g><path class="cls-10" d="m417.76 250.76-24.17-14.33-5.15 2.75 24.17 14.34 5.15-2.76z"/><path class="cls-5" d="m397.78 264.24-34.34-20.26-5.15 2.75 34.34 20.26 5.15-2.75zM369.1 286.22l-15.77-9.54-5.14 2.75 15.76 9.55 5.15-2.76z"/><path class="cls-10" d="m393.11 253.01-7.51-4.58-5.15 2.76 7.51 4.58 5.15-2.76zM375.26 278.32l-37.16-21.48-5.15 2.75 37.17 21.49 5.14-2.76zM386.79 266.76l-17.9-10.26-5.15 2.76 17.9 10.26 5.15-2.76z"/><path class="cls-5" d="m393.11 244.21-10.76-6.41-5.15 2.76 10.76 6.4 5.15-2.75zM368.67 265.43l-14.91-8.56-5.14 2.75 14.9 8.56 5.15-2.75z"/><g class="cls-6"><path class="cls-7" d="m192.22 346 24.17 14.33 5.15-2.75-24.17-14.34-5.15 2.76zM225.39 340.62l34.35 20.26 5.14-2.75-34.34-20.26-5.15 2.75zM236.4 310.67l28.31 17.07 5.15-2.76-28.31-17.06-5.15 2.75zM230.36 352.43l7.52 4.58 5.15-2.76-7.52-4.57-5.15 2.75zM234.72 318.44l5.55 3.32 5.15-2.75-5.55-3.33-5.15 2.76zM221.79 330.49l17.91 10.25 5.15-2.75-17.91-10.26-5.15 2.76zM216.87 352.55l10.76 6.41 5.15-2.76-10.76-6.4-5.15 2.75zM238.16 331.26l14.91 8.56 5.14-2.76-14.9-8.56-5.15 2.76z"/></g><path class="cls-10" d="m192.22 340.58 24.17 14.33 5.15-2.75-24.17-14.34-5.15 2.76z"/><path class="cls-5" d="m225.39 335.2 34.35 20.26 5.14-2.75-34.34-20.26-5.15 2.75zM236.4 305.25l28.31 17.07 5.15-2.76-28.31-17.06-5.15 2.75z"/><path class="cls-10" d="m230.36 347.01 7.52 4.58 5.15-2.76-7.52-4.57-5.15 2.75zM234.72 313.02l5.55 3.33 5.15-2.76-5.55-3.33-5.15 2.76zM221.79 325.07l17.91 10.25 5.15-2.75-17.91-10.26-5.15 2.76z"/><path class="cls-5" d="m216.87 347.13 10.76 6.41 5.15-2.75-10.76-6.41-5.15 2.75zM238.16 325.84l14.91 8.56 5.14-2.76-14.9-8.56-5.15 2.76z"/><g class="cls-13"><path class="cls-7" d="m1001.44 425-21.29-.06v12.94h21.28a6.34 6.34 0 0 0 5.21-2.58 6.54 6.54 0 0 0-5.2-10.3Z"/></g><path class="cls-9" d="M304.46 413.35c-15.53 0-27.24-7-27.24-16.28s11.71-16.28 27.24-16.28 27.23 7 27.23 16.28-11.69 16.28-27.23 16.28Zm0-24.55c-11.74 0-19.22 4.9-19.22 8.27s7.48 8.26 19.22 8.26 19.22-4.89 19.22-8.26-7.49-8.27-19.22-8.27Z"/><path class="cls-4" d="M304.46 413.89c-15.84 0-27.78-7.24-27.78-16.82s11.94-16.82 27.78-16.82 27.77 7.23 27.77 16.82-11.94 16.82-27.77 16.82Zm0-32.57c-15.22 0-26.7 6.77-26.7 15.75s11.48 15.74 26.7 15.74 26.69-6.77 26.69-15.74-11.47-15.75-26.69-15.75Zm0 24.55c-12.25 0-19.76-5.13-19.76-8.8s7.51-8.81 19.76-8.81 19.76 5.13 19.76 8.81-7.52 8.8-19.76 8.8Zm0-16.53c-11.23 0-18.69 4.65-18.69 7.73s7.46 7.72 18.69 7.72 18.68-4.65 18.68-7.72-7.45-7.73-18.68-7.73Z"/><path class="cls-4" d="M323.68 397.07c.14 2.93-7.47 8.71-19.22 8.26-10.46-.4-18.12-3.87-19.22-8v11.35c5.1 3 11.7 4.67 19.22 4.67 7.76 0 14.58-1.76 19.22-4.67Z"/><path class="cls-14" d="M288.82 389v20.61c0 1.61 11 4.49 11 2.88V389Z"/><path class="cls-4" d="M298.64 413.46c-2.32 0-10.36-1.88-10.36-3.89V389a.54.54 0 0 1 .54-.54h11a.54.54 0 0 1 .54.54v23.49a.91.91 0 0 1-.68.87 3.45 3.45 0 0 1-1.04.1Zm-9.28-24v20.07c.35.84 6.34 2.81 9.28 2.81a2.32 2.32 0 0 0 .68-.07V389.5Z"/><g class="cls-13"><path class="cls-7" d="M295.41 389v17c0 3.87-5.16 4.39-6.59 1.59v2c0 1.61 11 4.49 11 2.88V389Z"/></g><path class="cls-12" d="M299.86 389c0 1.61-2.47 2.92-5.52 2.92s-5.52-1.31-5.52-2.92 2.47-2.92 5.52-2.92 5.52 1.27 5.52 2.92Z"/><path class="cls-4" d="M294.34 392.41c-3.4 0-6.06-1.51-6.06-3.45s2.66-3.46 6.06-3.46 6.06 1.5 6.06 3.5-2.66 3.41-6.06 3.41Zm0-5.83c-2.93 0-5 1.25-5 2.38s2.05 2.38 5 2.38 5-1.26 5-2.38-2.06-2.38-5-2.38Z"/><g class="cls-13"><path class="cls-7" d="M328.25 404.3h-28v9.14h28a4.46 4.46 0 0 0 3.67-1.82 4.62 4.62 0 0 0-3.67-7.32Z"/></g><g class="cls-13"><path class="cls-7" d="m322.46 696.38 78.34-43.15-61.93-35.8-84 46.28a7.77 7.77 0 0 0-.12 13.53l32.66 18.83a35.61 35.61 0 0 0 35.05.31Z"/></g><path class="cls-9" d="m911.55 401.75 1.75-244.5a27 27 0 0 0-13.95-23.83L782.81 69.11a12.65 12.65 0 0 0-18.76 11L762.3 324.6a27 27 0 0 0 14 23.83l116.53 64.31a12.65 12.65 0 0 0 18.72-10.99Z"/><path class="cls-4" d="M898.88 414.87a13 13 0 0 1-6.36-1.66L776 348.91a27.53 27.53 0 0 1-14.23-24.31l1.75-244.51A13.24 13.24 0 0 1 776.72 67a13 13 0 0 1 6.35 1.66l116.54 64.3a27.53 27.53 0 0 1 14.23 24.31l-1.75 244.51a13.25 13.25 0 0 1-13.21 13.09ZM776.72 68.05a12.16 12.16 0 0 0-12.13 12l-1.75 244.51A26.43 26.43 0 0 0 776.51 348L893 412.27a12 12 0 0 0 5.84 1.53A12.17 12.17 0 0 0 911 401.75l1.75-244.51a26.43 26.43 0 0 0-13.67-23.35L782.55 69.58a12 12 0 0 0-5.83-1.53Z"/><path class="cls-14" d="m908 404.06 1.76-244.51a27 27 0 0 0-14-23.83L779.28 71.41a12.65 12.65 0 0 0-18.76 11l-1.76 244.51a27 27 0 0 0 14 23.83L889.25 415A12.64 12.64 0 0 0 908 404.06Z"/><path class="cls-4" d="M895.81 135.72 868 120.35v283L889.25 415a12.64 12.64 0 0 0 18.76-11l1.76-244.51a27 27 0 0 0-13.96-23.77Z"/><path d="m849.28 376 .31-42.22a4.67 4.67 0 0 0-2.41-4.11l-20.12-11.11a2.18 2.18 0 0 0-3.24 1.9l-.31 42.22a4.67 4.67 0 0 0 2.41 4.11l20.08 11.1a2.18 2.18 0 0 0 3.28-1.89Z" style="fill:#ffb434"/><path d="M823.71 364a4.63 4.63 0 0 0 2.21 2.76L846 377.89a2.18 2.18 0 0 0 3.24-1.9l.28-37.81Z" style="fill:#ffe1b1"/><path class="cls-4" d="M895.35 417.18a13 13 0 0 1-6.36-1.66l-116.53-64.31a27.49 27.49 0 0 1-14.23-24.31L760 82.4a13.24 13.24 0 0 1 13.2-13.12 13 13 0 0 1 6.36 1.66l116.53 64.31a27.52 27.52 0 0 1 14.24 24.3l-1.76 244.51a13.24 13.24 0 0 1-13.22 13.12ZM773.18 70.36a12.16 12.16 0 0 0-12.13 12l-1.75 244.55a26.45 26.45 0 0 0 13.7 23.36l116.53 64.3a12 12 0 0 0 5.84 1.53 12.16 12.16 0 0 0 12.13-12.05l1.75-244.5a26.43 26.43 0 0 0-13.68-23.36L779 71.88a12 12 0 0 0-5.82-1.52Z"/><path class="cls-14" d="M908.53 198.17h1.08v63.42h-1.08zM908.17 291.99h1.08v21.64h-1.08z"/><path class="cls-4" d="M847.1 378.7a2.79 2.79 0 0 1-1.32-.34l-20.12-11.1a5.23 5.23 0 0 1-2.69-4.59l.31-42.22a2.73 2.73 0 0 1 2.72-2.71 2.68 2.68 0 0 1 1.32.34l20.12 11.1a5.2 5.2 0 0 1 2.68 4.6l-.3 42.21a2.73 2.73 0 0 1-2.72 2.71ZM826 318.82a1.66 1.66 0 0 0-1.65 1.63l-.3 42.22a4.12 4.12 0 0 0 2.13 3.64l20.12 11.11a1.72 1.72 0 0 0 .8.2 1.66 1.66 0 0 0 1.65-1.63l.3-42.22a4.12 4.12 0 0 0-2.13-3.64L826.8 319a1.72 1.72 0 0 0-.8-.18Z"/><path class="cls-4" d="m849.15 357.21-3.58-2a.52.52 0 0 1-.27-.47v-11.89l-3.43-1.85a.54.54 0 0 1-.28-.47v-14h1.08v13.69l3.42 1.85a.53.53 0 0 1 .28.47v11.85l3.32 1.9ZM838 349.31a.59.59 0 0 1-.23-.05l-5.07-2.42a.54.54 0 0 1-.31-.49v-5.9l-9-4.95.52-.94 9.24 5.11a.53.53 0 0 1 .28.47V346l4 1.91v-9.43l-4.8-2.71a.52.52 0 0 1-.27-.47v-14h1.08V335l4.8 2.71a.52.52 0 0 1 .27.47v10.59a.53.53 0 0 1-.25.46.6.6 0 0 1-.26.08ZM842.67 375.6h-1.08v-14a.54.54 0 0 1 .82-.46l7.41 4.54-.56.91-6.59-4ZM833.49 370.38h-1.08v-13.71l-4.72-2.8a.54.54 0 0 1-.26-.46V343.2l-4-2.19.52-.95 4.26 2.35a.54.54 0 0 1 .28.47v10.22l4.71 2.8a.52.52 0 0 1 .27.46Z"/><path class="cls-4" d="M837.09 372.34H836v-19.13a.54.54 0 0 1 .26-.46.55.55 0 0 1 .53 0l12.85 6.87-.5.95-12.06-6.45ZM780.67 142.17h1.08V301.8h-1.08zM792.02 268.96h1.08v40.74h-1.08zM792.02 153.88h1.08v89.83h-1.08zM861.93 186.64a3.66 3.66 0 0 1-1.68 2 3.21 3.21 0 0 1-2.52 0 7.07 7.07 0 0 1-3-2.09 11.06 11.06 0 0 1-2.14-3.71 13.48 13.48 0 0 1-.78-4.58 8 8 0 0 1 .82-3.85 3.06 3.06 0 0 1 2.22-1.72l1.67 5.22c-.89.13-1.33.71-1.33 1.75a3.54 3.54 0 0 0 .65 2.05 3.19 3.19 0 0 0 1.66 1.27 1.19 1.19 0 0 0 1.23-.13 1.73 1.73 0 0 0 .46-1.39 3.7 3.7 0 0 0-.31-1.53 4.88 4.88 0 0 0-1-1.39l1.82-3.4a10.07 10.07 0 0 1 2.13 3.5 12.54 12.54 0 0 1 .75 4.37 9.4 9.4 0 0 1-.65 3.63ZM852 155.26l10.38 6.13v5.18l-1-.57a7.62 7.62 0 0 1 1.14 4 5.14 5.14 0 0 1-.57 2.44 3.16 3.16 0 0 1-1.66 1.5 3.75 3.75 0 0 1-2.57-.08 7.45 7.45 0 0 1-3-2 10.24 10.24 0 0 1-2.15-3.3 9.89 9.89 0 0 1-.78-3.79q0-2.67 1.29-3.36l-1.1-.66Zm6.75 12.82a1.64 1.64 0 0 0 .44-1.3 3.23 3.23 0 0 0-.64-1.95 3.43 3.43 0 0 0-1.73-1.25 1.17 1.17 0 0 0-1.18.13 1.6 1.6 0 0 0-.45 1.29 3.25 3.25 0 0 0 .65 2 3.47 3.47 0 0 0 1.72 1.25 1.18 1.18 0 0 0 1.15-.17ZM851.77 143.21l3.8 2.24a9.2 9.2 0 0 0-.08 1.17A5.28 5.28 0 0 0 856 149a4 4 0 0 0 1.56 1.63l4.8 2.85V159L852 152.85v-5.18l1.07.63a9.58 9.58 0 0 1-1.3-5.09ZM848.26 125l14.08 8.32v5.18l-1-.56a7.55 7.55 0 0 1 1.14 3.95 5.14 5.14 0 0 1-.57 2.44 3.16 3.16 0 0 1-1.66 1.5 3.75 3.75 0 0 1-2.57-.08 7.45 7.45 0 0 1-3-2 10.28 10.28 0 0 1-2.15-3.31 9.8 9.8 0 0 1-.78-3.78c0-1.77.43-2.89 1.28-3.36l-4.79-2.83Zm10.45 15a1.64 1.64 0 0 0 .44-1.3 3.23 3.23 0 0 0-.64-2 3.43 3.43 0 0 0-1.73-1.25 1.17 1.17 0 0 0-1.18.13 1.6 1.6 0 0 0-.45 1.29 3.25 3.25 0 0 0 .65 2 3.47 3.47 0 0 0 1.72 1.25 1.18 1.18 0 0 0 1.19-.12Z"/><g class="cls-13"><path class="cls-7" d="M823.77 380.37h-21.3v6.47h21.29a9.55 9.55 0 0 0 5.21-1.29c3.12-2.12-.09-5.18-5.2-5.18Z"/></g><path class="cls-9" d="M803.29 387a2.58 2.58 0 0 1-1.26-.31l-32.35-18.11c-1.18-.65-1.32-2.15-.31-3.34a3.38 3.38 0 0 1 4-1l32.35 18.11c1.18.65 1.32 2.15.31 3.34a3.68 3.68 0 0 1-2.74 1.31Z"/><path class="cls-4" d="M803.29 387.53a3.09 3.09 0 0 1-1.52-.38l-32.35-18.1a2.38 2.38 0 0 1-1.22-1.68 3 3 0 0 1 .76-2.49 4 4 0 0 1 4.65-1.1L806 381.89a2.35 2.35 0 0 1 1.22 1.67 3 3 0 0 1-.76 2.49 4.22 4.22 0 0 1-3.17 1.48Zm-31.19-23a3.1 3.1 0 0 0-2.32 1.09 2 2 0 0 0-.52 1.6 1.28 1.28 0 0 0 .68.92l32.36 18.11a2.92 2.92 0 0 0 3.3-.85 2 2 0 0 0 .52-1.61 1.32 1.32 0 0 0-.68-.92l-32.36-18.11a2.06 2.06 0 0 0-.98-.27Z"/><path class="cls-10" d="M804.88 386.59v-18h-8.11v15.2a64 64 0 0 0 6 3.17 3.56 3.56 0 0 0 2.11-.37Z"/><path class="cls-4" d="M803.26 387.55a2.28 2.28 0 0 1-.66-.1 59.48 59.48 0 0 1-6.1-3.21.56.56 0 0 1-.26-.47v-15.2a.53.53 0 0 1 .53-.53h8.11a.54.54 0 0 1 .54.53v18a.52.52 0 0 1-.3.48 4.76 4.76 0 0 1-1.86.5Zm-6-4.09a54 54 0 0 0 5.61 3 2.68 2.68 0 0 0 1.42-.19v-17.16h-7Z"/><g class="cls-13"><path class="cls-7" d="M804.78 386.59v-17.23h-3.27v16.35c0 .53 3.27.88 3.27.88Z"/></g><path d="M804.88 368.58c0 1.18-1.81 2.14-4 2.14s-4.05-1-4.05-2.14 1.81-2.14 4.05-2.14 4 .96 4 2.14Z" style="fill:#ffdbfa"/><path class="cls-4" d="M800.83 371.26c-2.57 0-4.59-1.18-4.59-2.68s2-2.68 4.59-2.68 4.59 1.18 4.59 2.68-2.02 2.68-4.59 2.68Zm0-4.28c-2 0-3.51.84-3.51 1.6s1.5 1.6 3.51 1.6 3.51-.85 3.51-1.6-1.5-1.58-3.51-1.58Z"/><g class="cls-13"><path class="cls-7" d="M869.66 407.46h-21.3v6.47h21.29a9.47 9.47 0 0 0 5.21-1.29c3.14-2.12-.09-5.17-5.2-5.18Z"/></g><path class="cls-9" d="M849.44 413.75a2.58 2.58 0 0 1-1.26-.3l-32.35-18.11c-1.18-.65-1.32-2.15-.31-3.34a3.38 3.38 0 0 1 4-1l32.35 18.11c1.18.65 1.32 2.15.31 3.34a3.66 3.66 0 0 1-2.74 1.3Z"/><path class="cls-4" d="M849.44 414.29a3.08 3.08 0 0 1-1.52-.37l-32.35-18.11a2.35 2.35 0 0 1-1.22-1.67 3 3 0 0 1 .76-2.49 4 4 0 0 1 4.65-1.1l32.35 18.11a2.35 2.35 0 0 1 1.22 1.67 3 3 0 0 1-.76 2.49 4.21 4.21 0 0 1-3.13 1.47Zm-31.19-23a3.1 3.1 0 0 0-2.31 1.09 2 2 0 0 0-.53 1.61 1.32 1.32 0 0 0 .68.92L848.45 413a2.93 2.93 0 0 0 3.3-.86 2 2 0 0 0 .52-1.6 1.28 1.28 0 0 0-.68-.92l-32.35-18.11a2.1 2.1 0 0 0-.99-.26Z"/><path class="cls-5" d="M851 413.36v-18h-8.1v15.2a63.59 63.59 0 0 0 6 3.17 3.56 3.56 0 0 0 2.1-.37Z"/><path class="cls-4" d="M849.41 414.31a2.29 2.29 0 0 1-.66-.09 61.53 61.53 0 0 1-6.1-3.21.56.56 0 0 1-.26-.47v-15.2a.54.54 0 0 1 .54-.54H851a.54.54 0 0 1 .54.54v18a.53.53 0 0 1-.3.48 4.83 4.83 0 0 1-1.83.49Zm-5.95-4.08a56 56 0 0 0 5.61 3 2.68 2.68 0 0 0 1.42-.19v-17.16h-7Z"/><g class="cls-13"><path class="cls-7" d="M850.93 413.36v-17.23h-3.27v16.35c0 .52 3.27.88 3.27.88Z"/></g><path d="M851 395.35c0 1.18-1.81 2.14-4 2.14s-4.05-1-4.05-2.14 1.81-2.14 4.05-2.14 4 .95 4 2.14Z" style="fill:#a08ef6"/><path class="cls-4" d="M847 398c-2.57 0-4.59-1.17-4.59-2.67s2-2.68 4.59-2.68 4.59 1.17 4.59 2.68S849.55 398 847 398Zm0-4.27c-2 0-3.51.84-3.51 1.6S845 397 847 397s3.51-.85 3.51-1.6-1.51-1.65-3.51-1.65Z"/><path class="cls-9" d="M396.84 637.58V571a35.1 35.1 0 0 0-17.16-30.17l-43.17-25.66v88.77s-.79 19 12.53 26.65l42.11 24.23c11.19 6.45 21 9.26 35.85 3.22 0-.04-30.16 6.37-30.16-20.46Z"/><path class="cls-4" d="M411.73 661.89c-8.24 0-15.16-3.36-20.85-6.64L348.77 631c-13.44-7.75-12.81-26.94-12.8-27.13v-88.73a.53.53 0 0 1 .81-.46L380 540.34A35.79 35.79 0 0 1 397.38 571v66.61c0 17 12.08 20.56 22.22 20.56a40.22 40.22 0 0 0 7.28-.65.54.54 0 0 1 .32 1 41 41 0 0 1-15.47 3.37Zm-74.68-145.8v87.82c0 .21-.62 18.75 12.26 26.18l42.11 24.23c7.88 4.55 14 6.49 20.31 6.49a36.11 36.11 0 0 0 10.51-1.67c-.81.05-1.7.08-2.64.08-8.7 0-23.3-2.81-23.3-21.64V571a34.71 34.71 0 0 0-16.9-29.71Z"/><path class="cls-8" d="M377.72 537.38 337 510.91c-12.9-8.36-29.43 1-29.43 1l-52.78 27a47.69 47.69 0 0 0-25.91 39.75c-.07.81-.08 67.87-.08 67.87s-1.05 15.45 12.27 23.13l42.11 24.23c11.19 6.45 20.52 9.63 34.64 3.11 0 0-24.75 8.07-29.36-18.38v-63.45a40.58 40.58 0 0 1 22.1-37l56.38-28.82c25.24-8.19 30 18.54 30 18.54-1.42-16.03-8.38-23.49-19.22-30.51Z"/><path class="cls-2" d="M377.72 537.38 337 510.91l24.82 18.21a9.92 9.92 0 0 1-1.26 16.79l-80.79 42.33c-21.78 11.63-50.89-9.63-50.89-9.63-.07.81-.08 67.87-.08 67.87s-1.05 15.45 12.27 23.13l42.11 24.23c11.19 6.45 20.52 9.63 34.64 3.11 0 0-24.75 8.07-29.36-18.38v-63.45a40.58 40.58 0 0 1 22.1-37l56.38-28.82c25.24-8.19 30 18.54 30 18.54-1.42-15.98-8.38-23.44-19.22-30.46Z" style="opacity:.4"/><path class="cls-14" d="M264.13 683.55c-13.35-7.7-12.45-23.29-12.44-23.45 0-6.78 0-66.55.08-67.36a48 48 0 0 1 26-39.87l52.38-26.78c.15-.08 16.81-9.31 29.74-.93l-.59.91c-12.38-8-28.48.88-28.64 1l-52.4 26.79a46.94 46.94 0 0 0-25.41 39c-.06.93-.08 44.44-.08 67.32 0 .18-.86 15.12 11.9 22.48Z"/><path class="cls-4" d="M303.24 701.07c-7.14 0-13.3-2.7-20.35-6.76l-42.11-24.24c-13.45-7.76-12.55-23.47-12.54-23.63 0-6.83 0-67.07.08-67.88a48.39 48.39 0 0 1 26.2-40.18l52.79-27a38.82 38.82 0 0 1 17.25-4.51 22.93 22.93 0 0 1 12.71 3.57L378 536.92c11 7.11 18 14.75 19.43 30.86a.54.54 0 0 1-.46.58.55.55 0 0 1-.6-.44c0-.2-3.69-19.66-20.43-19.66a29.05 29.05 0 0 0-8.84 1.53l-56.3 28.79a40.25 40.25 0 0 0-21.8 36.53v63.46c2.74 15.69 12.72 19 20.61 19a29 29 0 0 0 8-1.13.55.55 0 0 1 .67.32.53.53 0 0 1-.27.68 35 35 0 0 1-14.77 3.63ZM324.56 508a38.4 38.4 0 0 0-16.74 4.38l-52.81 27a47.32 47.32 0 0 0-25.61 39.3c-.06.94-.08 44.78-.08 67.84 0 .19-.86 15.24 12 22.66l42.11 24.23c6.9 4 12.91 6.63 19.81 6.63a30.2 30.2 0 0 0 9-1.47c-.84.07-1.74.12-2.69.12-8.3 0-18.8-3.47-21.68-20v-63.57a41.32 41.32 0 0 1 22.39-37.5l56.44-28.82a30 30 0 0 1 9.25-1.62c11.22 0 16.84 8.22 19.46 14.26-2.52-11.43-8.88-17.71-18-23.61l-40.74-26.47a21.94 21.94 0 0 0-12.11-3.36Z"/><g class="cls-13"><path class="cls-7" d="M1056.2 675a2.56 2.56 0 0 0 1-2.37.17.17 0 0 0 0-.07c0-2.21-1.58-5.1-4.92-8.44L808.45 524.3a74.89 74.89 0 0 0-36.15-9.92l-318.59-5.84c-9.83-.15-3.59 12.95-3.59 12.95l51.13 30.33-43.46-.3S453.25 561.2 462 570l120.64 93.23c10.64 10.62 29.16 21.81 48.56 29.35l140.91 44.33c11.23 4.37 22.57-1 22.57-7.57 0-.89-1-22-1-22a25.2 25.2 0 0 1-.38-2.89s0-.09 0-.13a19.59 19.59 0 0 1 0-2.65 1.41 1.41 0 0 1 0-.2 17.54 17.54 0 0 1 .32-2.43v-.24a16.4 16.4 0 0 1 .66-2.23l.09-.26a17.64 17.64 0 0 1 1-2.06l.15-.25a16.62 16.62 0 0 1 1.29-1.89l.19-.24a19.9 19.9 0 0 1 1.61-1.72l.23-.21a20 20 0 0 1 1.94-1.56 2.48 2.48 0 0 1 .26-.19 24.58 24.58 0 0 1 2.25-1.4l.28-.15a28.46 28.46 0 0 1 2.6-1.24l.26-.11c.94-.39 1.92-.76 2.95-1.09l.23-.07c1.07-.34 2.17-.65 3.33-.93h.16c1.19-.28 2.44-.54 3.74-.75l45.83.53c7.06.11 9.21-3 6-7.89 75.45 1.14 179.9 2.07 179.9 2.07 3.83-.06 6.35-.81 7.63-2.16Z"/></g><path class="cls-21" d="M730.58 313.34 696.83 421.4a104.35 104.35 0 0 0 10.52 85.44L746 570.09a18.18 18.18 0 0 1-6.39 25.2l-94 54.58a39.93 39.93 0 0 1-40 0L465 568.8a15.41 15.41 0 0 1-.13-26.62l93.42-55.09a15.43 15.43 0 0 0 5.37-21.24l-39.79-65.93a104.34 104.34 0 0 1-10.26-85l31-99.11a19.5 19.5 0 0 1 28.37-11.08l148.78 85.9a19.51 19.51 0 0 1 8.82 22.71Z"/><path class="cls-3" d="m746 570.09-38.6-63.25a104.34 104.34 0 0 1-11.4-82.48l-21.34 72.35s-144.75-88.35-144.46-87.88l33.46 57a15.43 15.43 0 0 1-5.37 21.24l-76.24 45L595.12 598c13.44 13.44 11 28.14-1.46 41.71l-.17 3.31 12 6.93a39.93 39.93 0 0 0 40 0l94-54.58a18.18 18.18 0 0 0 6.51-25.28Z"/><path class="cls-4" d="M725.65 595.24 565.8 500.53 624.32 466l50.3 30.7s8.3-3.77 23.4 21l34.4 52.58c5.32 8.72 2.06 19.84-6.77 24.96Z"/><path class="cls-4" d="M624.64 653a37.55 37.55 0 0 1-18.82-5l-66.94-38.65.54-.93L606.36 647a36.68 36.68 0 0 0 36.64 0l83.38-53a16.34 16.34 0 0 0 5.77-22.66L697.57 518c-14.06-23-23-21-23.11-20.95a.58.58 0 0 1-.46-.05l-133.42-81.53.57-.92L674.41 496c1.62-.27 10.62-.59 24.07 21.46l34.59 53.29a17.43 17.43 0 0 1-6.07 24.12l-83.38 53a37.7 37.7 0 0 1-18.98 5.13Z"/><path class="cls-4" d="M625.47 655.81a40.55 40.55 0 0 1-20.25-5.42l-140.49-81.12a15.94 15.94 0 0 1-.13-27.55l93.4-55.1a14.85 14.85 0 0 0 5.18-20.49l-39.78-65.94a104.92 104.92 0 0 1-10.31-85.43l30.95-99.11a20 20 0 0 1 29.16-11.38l148.8 85.9a19.93 19.93 0 0 1 9.11 23.33l-33.77 108.06a103.83 103.83 0 0 0 10.47 85l38.6 63.26a18.72 18.72 0 0 1-6.58 26l-94 54.58a40.56 40.56 0 0 1-20.36 5.41Zm-62.26-453.16A18.91 18.91 0 0 0 545.08 216l-31 99.11a103.85 103.85 0 0 0 10.2 84.56l39.79 65.93a16 16 0 0 1-5.56 22l-93.41 55.1a14.87 14.87 0 0 0 .12 25.69l140.49 81.11a39.38 39.38 0 0 0 39.5 0l94-54.58a17.65 17.65 0 0 0 6.2-24.45l-38.6-63.26a104.91 104.91 0 0 1-10.58-85.88l33.76-108.06a18.86 18.86 0 0 0-8.62-22.08l-148.7-85.99a18.93 18.93 0 0 0-9.46-2.55Z"/><path class="cls-9" d="m537.3 499.53-18.15 56.21a11.59 11.59 0 0 1-16.8 6.49l-12.74-7.32a13.19 13.19 0 0 1-6-15.38L502 480.6a3.73 3.73 0 0 1 5.43-2.13L536 495a3.41 3.41 0 0 1 1.3 4.53Z"/><path class="cls-4" d="M508.11 564.31a12.24 12.24 0 0 1-6-1.61l-12.74-7.32a13.67 13.67 0 0 1-6.27-16l18.41-58.93a4.26 4.26 0 0 1 6.19-2.45l28.54 16.47a4 4 0 0 1 1.55 5.28l-18.12 56.15a12.12 12.12 0 0 1-11.56 8.41Zm-2.54-85.8a3.19 3.19 0 0 0-3.06 2.25L484.1 539.7a12.57 12.57 0 0 0 5.78 14.74l12.74 7.32a11 11 0 0 0 16-6.19l18.15-56.21a2.9 2.9 0 0 0-1.09-3.95l-28.54-16.47a3.19 3.19 0 0 0-1.57-.43Z"/><path class="cls-4" d="m536 495-28.54-16.48a3.73 3.73 0 0 0-5.46 2.08l-17.7 56.66 22.62 13.07a3.41 3.41 0 0 1 1.33 4.58l-2.76 8.54a11.57 11.57 0 0 0 13.66-7.71l18.15-56.21A3.41 3.41 0 0 0 536 495Z"/><path class="cls-4" d="M508.12 564.3a12.09 12.09 0 0 1-2.75-.32l-.57-.14 2.94-9.09a2.91 2.91 0 0 0-1.09-4l-23-13.28 17.83-57.07a4.26 4.26 0 0 1 6.22-2.4l28.54 16.47a4 4 0 0 1 1.55 5.28l-18.12 56.15a12.1 12.1 0 0 1-11.55 8.4Zm-1.93-1.25a11.35 11.35 0 0 0 1.93.17 11 11 0 0 0 10.52-7.65l18.15-56.21a2.9 2.9 0 0 0-1.09-3.95l-28.54-16.47a3.19 3.19 0 0 0-4.65 1.82L484.94 537l22.25 12.85a4 4 0 0 1 1.55 5.28Z"/><path class="cls-9" d="M768.86 155.06S640.44 566.19 640.29 566.59a22.14 22.14 0 0 1-10.86 11.78l-15.34 8.18-171.7-107.82a22.23 22.23 0 0 1-10.11-25.88L556 37.71l21.46-4a31.18 31.18 0 0 1 22 3.5l159.22 91.93a22.22 22.22 0 0 1 10.18 25.92Z"/><path class="cls-4" d="m614.07 587.17-.27-.16-171.7-107.82a22.64 22.64 0 0 1-10.33-26.5L555.61 37.24l21.78-4a31.81 31.81 0 0 1 22.41 3.56L759 128.72a22.63 22.63 0 0 1 10.35 26.5c-13.14 42.09-128.43 411.16-128.58 411.56a22.51 22.51 0 0 1-11.12 12.07Zm-57.62-549L432.8 453a21.55 21.55 0 0 0 9.86 25.25l171.45 107.68 15.07-8a21.42 21.42 0 0 0 10.6-11.49C640.26 565 767.06 159 768.34 154.9a21.57 21.57 0 0 0-9.86-25.25L599.26 37.72a30.88 30.88 0 0 0-21.66-3.43Z"/><path class="cls-4" d="m650.83 531 117.25-375.37-45.3 24.16-290.5 273.06a22.23 22.23 0 0 0 10.11 25.88l144.88 91ZM604.29 580.39l9.8 6.16 15.34-8.18a22.14 22.14 0 0 0 10.86-11.78l3-9.54ZM742.37 146.8l9.8 6.15 17.19-9.22c-.75-5.11-4.65-9.17-4.65-9.17Z"/><path class="cls-9" d="M750.12 165.15 622 575.47c-2.05 12.22-17.8 18.37-30.14 11.25l-169.57-97.9a22.23 22.23 0 0 1-10.11-25.88L540.3 52.62A22.22 22.22 0 0 1 572.63 40l169.58 97.9c9 5.2 13.2 15.95 7.91 27.25Z"/><path class="cls-4" d="M603.05 590.28a23.08 23.08 0 0 1-11.5-3.09L422 489.28a22.63 22.63 0 0 1-10.35-26.5L539.78 52.46a22.75 22.75 0 0 1 33.12-12.93l169.58 97.9c9.83 5.68 13.17 17.17 8.13 27.95L622.48 575.63c-1.42 8.46-9.6 14.65-19.43 14.65Zm-41.5-552.74a21.62 21.62 0 0 0-20.74 15.24L412.66 463.1a21.57 21.57 0 0 0 9.86 25.25l169.57 97.91a22 22 0 0 0 11 2.94c9.3 0 17-5.81 18.38-13.82L749.6 165c4.91-10.48 1.81-21.15-7.66-26.63L572.36 40.46a21.68 21.68 0 0 0-10.81-2.92Z"/><path class="cls-12" d="M745.77 161.74 617.63 572.06a15.35 15.35 0 0 1-14.72 10.81 15.13 15.13 0 0 1-7.67-2.07l-169.58-97.91a15.31 15.31 0 0 1-7-17.91L546.83 54.65a15.35 15.35 0 0 1 22.38-8.73l55.46 32a9.82 9.82 0 0 1 4.71 5.19 22.15 22.15 0 0 0 9.79 11.43c4.72 2.7 13.86 7.87 19 10.82s11.11 4.33 16.86 3.08a5 5 0 0 1 3.59.53l60.15 34.83a15.28 15.28 0 0 1 7 17.94Z"/><path class="cls-4" d="M602.91 583.41a15.6 15.6 0 0 1-7.94-2.15l-169.57-97.9a15.83 15.83 0 0 1-7.24-18.54L546.32 54.49a15.89 15.89 0 0 1 23.16-9l55.46 32a10.44 10.44 0 0 1 4.95 5.47 21.61 21.61 0 0 0 9.55 11.15c2.44 1.4 6.07 3.46 9.71 5.53l9.29 5.29a23.52 23.52 0 0 0 16.48 3 5.55 5.55 0 0 1 4 .6l60.15 34.82a15.83 15.83 0 0 1 7.24 18.55L618.14 572.22a15.88 15.88 0 0 1-15.23 11.19Zm-41.37-539a14.8 14.8 0 0 0-14.19 10.43l-128.16 410.3a14.77 14.77 0 0 0 6.74 17.29l169.58 97.9a14.61 14.61 0 0 0 7.4 2 14.79 14.79 0 0 0 14.2-10.43l128.15-410.32a14.75 14.75 0 0 0-6.75-17.29l-60.15-34.83a4.46 4.46 0 0 0-3.21-.47 24.58 24.58 0 0 1-17.24-3.15l-9.29-5.28c-3.65-2.07-7.28-4.13-9.72-5.54a22.63 22.63 0 0 1-10-11.7 9.26 9.26 0 0 0-4.48-4.91l-55.46-32a14.69 14.69 0 0 0-7.42-2.03Z"/><path class="cls-9" d="M640.07 88.48a1.64 1.64 0 0 1-2.38 1 2.5 2.5 0 0 1-1.2-2.85 1.64 1.64 0 0 1 2.38-1 2.48 2.48 0 0 1 1.2 2.85Z"/><path class="cls-4" d="M638.5 90.26a2.32 2.32 0 0 1-1-.25 3 3 0 0 1-1.5-3.49 2.19 2.19 0 0 1 2.09-1.63 2.29 2.29 0 0 1 1 .26 3 3 0 0 1 1.48 3.48 2.19 2.19 0 0 1-2.07 1.63Zm-.43-4.26a1.11 1.11 0 0 0-1.06.86 2 2 0 0 0 .93 2.21 1.11 1.11 0 0 0 1.62-.72 2 2 0 0 0-.93-2.21 1.32 1.32 0 0 0-.56-.14ZM663.79 104.45a2.12 2.12 0 0 1-1.08-.3L643.38 92.9a2.15 2.15 0 1 1 2.17-3.72l19.33 11.25a2.16 2.16 0 0 1-1.09 4Z"/><path transform="rotate(-72.48 652.983 525.79)" style="fill:#fadcc3" d="M620.17 525.25h65.53v1.08h-65.53z"/><path d="m496.49 256.41 44.7-142.32a25.1 25.1 0 0 1 36.31-14.32l130.11 73.61a25.1 25.1 0 0 1 11.58 29.37l-44.7 142.32a25.11 25.11 0 0 1-36.31 14.33l-130.11-73.62a25.1 25.1 0 0 1-11.58-29.37Z" style="fill:#9becd5"/><path class="cls-10" d="M455.07 386.58 475.82 321a17.65 17.65 0 0 1 25.51-10l143.39 81.14a17.65 17.65 0 0 1 8.14 20.68l-20.76 65.54a17.64 17.64 0 0 1-25.5 10l-143.4-81.1a17.63 17.63 0 0 1-8.13-20.68Z"/><path class="cls-4" d="M605.19 289.64a45.88 45.88 0 0 1-20.75-5.12c-25.39-12.78-39.25-45.63-30.91-73.24 5.9-19.52 21.85-32.13 40.63-32.13a45.94 45.94 0 0 1 20.76 5.13c25.38 12.77 39.24 45.63 30.9 73.24-5.9 19.48-21.82 32.12-40.63 32.12Zm-11-109.41c-18.3 0-33.84 12.31-39.6 31.36-8.19 27.13 5.42 59.41 30.36 72a44.8 44.8 0 0 0 20.27 5c18.3 0 33.84-12.31 39.6-31.36 8.2-27.13-5.42-59.41-30.36-72a44.74 44.74 0 0 0-20.3-5Z"/><path class="cls-10" d="M559.62 272.82c-14.25-18.17-19.15-42.52-12.79-63.57l14.44 4.37c-5 16.41-1 35.53 10.22 49.88Z"/><path class="cls-5" d="M605.21 296.65h-.84l.25-15.09h.57c15.16 0 28-10.3 32.89-26.38 7.26-24-4.76-52.59-26.8-63.68l6.79-13.5c28.28 14.23 43.74 50.8 34.46 81.52-6.84 22.64-25.35 37.13-47.32 37.13Z"/><path d="M606.63 462.7a14.6 14.6 0 0 1-8.62-2.4c-11.29-8.42-5.23-37-2.31-50.72.33-1.57.62-2.91.82-3.95 2.17-11.42-1.38-22.09-8.26-24.83-7.53-3-17.18 3.6-26.46 18.09-.47.74-1 1.64-1.64 2.66-4.23 7-11.31 18.68-19.82 20.48a10.78 10.78 0 0 1-8.64-1.95c-7.29-5.1-7.2-16.84-7.11-27.19.07-8.54.13-16.61-3.83-19.57-6.31-4.71-13.6 3.76-19.46 10.57-1.27 1.47-2.46 2.86-3.59 4.06-4.73 5-9.39 7.2-13.83 6.48-7.23-1.17-11.18-9.51-11.34-9.87l1-.45c0 .08 3.88 8.18 10.54 9.26 4.07.66 8.4-1.42 12.87-6.16 1.12-1.19 2.3-2.56 3.56-4 6.15-7.15 13.81-16 20.93-10.73 4.39 3.28 4.33 11.61 4.25 20.44-.08 10.09-.17 21.52 6.66 26.29a9.74 9.74 0 0 0 7.8 1.79c8-1.7 15.25-13.6 19.12-20 .63-1 1.18-1.94 1.65-2.68 9.59-15 19.71-21.72 27.77-18.51 7.47 3 11.22 13.92 8.91 26-.19 1.05-.48 2.4-.82 4-2.64 12.45-8.83 41.62 1.91 49.62 2.15 1.61 6.47 2.91 12.16 1.77 4.89-1 14.28-4.66 22.23-18.17l.93.54c-8.16 13.88-17.88 17.66-23 18.68a22.36 22.36 0 0 1-4.38.45Z" style="fill:#f5f7e2"/><path class="cls-14" d="M612.43 560.89c-2.51 8.31-10.74 11.93-18.38 8.08s-11.8-13.7-9.29-22 10.74-11.93 18.38-8.09 11.8 13.69 9.29 22.01Z"/><path class="cls-4" d="M600.27 571.05a14.25 14.25 0 0 1-6.46-1.6c-7.85-4-12.14-14.11-9.56-22.65 1.83-6.08 6.81-10 12.67-10a14.27 14.27 0 0 1 6.47 1.59c7.85 4 12.13 14.11 9.56 22.65-1.84 6.08-6.82 10.01-12.68 10.01Zm-3.35-33.18c-5.37 0-9.95 3.63-11.64 9.24-2.44 8.06 1.61 17.65 9 21.38a13.24 13.24 0 0 0 6 1.48c5.38 0 10-3.63 11.65-9.24 2.43-8.06-1.61-17.65-9-21.38a13.24 13.24 0 0 0-6.01-1.48Z"/><path class="cls-14" d="M573.56 538.19c-2.51 8.31-10.74 11.93-18.38 8.09s-11.8-13.7-9.29-22 10.74-11.93 18.38-8.08 11.8 13.68 9.29 21.99Z"/><path class="cls-4" d="M561.4 548.35a14.27 14.27 0 0 1-6.47-1.59c-7.85-4-12.14-14.11-9.56-22.65 1.84-6.08 6.81-10 12.68-10a14.25 14.25 0 0 1 6.46 1.6c7.85 3.95 12.14 14.11 9.56 22.65-1.83 6.07-6.81 9.99-12.67 9.99Zm-3.35-33.17c-5.38 0-9.95 3.63-11.65 9.24-2.43 8.06 1.61 17.65 9 21.38a13.24 13.24 0 0 0 6 1.48c5.37 0 10-3.63 11.64-9.24 2.44-8.07-1.61-17.65-9-21.38a13.24 13.24 0 0 0-5.99-1.48Z"/><path class="cls-14" d="M534.68 515.5c-2.51 8.31-10.74 11.93-18.38 8.09s-11.8-13.71-9.29-22 10.75-11.93 18.39-8.08 11.8 13.68 9.28 21.99Z"/><path class="cls-4" d="M522.52 525.66a14.39 14.39 0 0 1-6.46-1.59c-7.85-4-12.14-14.11-9.56-22.65 1.84-6.08 6.81-10 12.68-10a14.39 14.39 0 0 1 6.46 1.59c7.85 4 12.14 14.12 9.56 22.65-1.84 6.07-6.81 10-12.68 10Zm-3.34-33.17c-5.38 0-9.95 3.63-11.65 9.24-2.43 8.06 1.61 17.65 9 21.37a13.12 13.12 0 0 0 6 1.48c5.38 0 10-3.63 11.65-9.24 2.43-8.06-1.61-17.65-9-21.37a13.31 13.31 0 0 0-6-1.48Z"/><path class="cls-14" d="M495.81 492.81c-2.51 8.31-10.74 11.93-18.38 8.08s-11.8-13.7-9.29-22 10.74-11.93 18.38-8.09 11.8 13.69 9.29 22.01Z"/><path class="cls-4" d="M483.65 503a14.25 14.25 0 0 1-6.46-1.6c-7.86-3.95-12.15-14.11-9.57-22.65 1.84-6.08 6.82-10 12.68-10a14.23 14.23 0 0 1 6.46 1.59c7.86 3.95 12.15 14.11 9.57 22.65-1.84 6.01-6.82 10.01-12.68 10.01Zm-3.35-33.18c-5.38 0-9.95 3.63-11.64 9.25-2.44 8 1.6 17.64 9 21.37a13.24 13.24 0 0 0 6 1.48c5.38 0 10-3.63 11.64-9.24 2.44-8.06-1.6-17.65-9-21.38a13.24 13.24 0 0 0-6-1.51Z"/><path class="cls-14" d="M456.94 470.11c-2.52 8.31-10.74 11.93-18.39 8.09s-11.79-13.7-9.28-22 10.74-11.94 18.38-8.09 11.8 13.69 9.29 22Z"/><path class="cls-4" d="M444.77 480.27a14.26 14.26 0 0 1-6.46-1.59c-7.85-3.95-12.14-14.11-9.56-22.65 1.84-6.08 6.81-10 12.68-10a14.28 14.28 0 0 1 6.46 1.6c7.85 3.95 12.14 14.11 9.56 22.65-1.83 6.07-6.81 9.99-12.68 9.99Zm-3.34-33.17c-5.38 0-9.95 3.63-11.65 9.24-2.43 8.06 1.61 17.65 9 21.38a13.23 13.23 0 0 0 6 1.48c5.38 0 10-3.63 11.65-9.24 2.43-8.06-1.61-17.65-9-21.38a13.24 13.24 0 0 0-6-1.48Z"/><path class="cls-12" d="m398.79 637.11-.51-1 80.56-43a1.24 1.24 0 0 0 .69-1.12 1.28 1.28 0 0 0-.66-1.15l-5.75-3.24a2.38 2.38 0 0 1 .11-4.2l8.5-4.25a1.3 1.3 0 0 0 .72-1.16v-3.18a2.37 2.37 0 0 1 1.21-2.07l7.95-4.44a1.29 1.29 0 0 0 .67-1.1 1.28 1.28 0 0 0-.62-1.13 2.36 2.36 0 0 1-.81-3.18l3.11-5.54.94.52-3.11 5.55a1.29 1.29 0 0 0 .44 1.73 2.37 2.37 0 0 1 1.12 2.08 2.33 2.33 0 0 1-1.21 2l-7.95 4.44a1.3 1.3 0 0 0-.67 1.13v3.18a2.35 2.35 0 0 1-1.31 2.12l-8.5 4.26a1.27 1.27 0 0 0-.72 1.12 1.28 1.28 0 0 0 .66 1.17l5.75 3.35a2.38 2.38 0 0 1 0 4.17Z"/><path class="cls-9" d="M903.72 488.7v-7h.28l.07 7Zm-1.09 0h-.34l.21-6.95h.27Zm2.55 0-.28-6.95h.31l.28 7Zm-4-.05h-.35l.5-6.94h.27Zm5.44 0-.49-6.94h.27l.56 6.94Zm-6.87-.08h-.34l.71-6.93h.26Zm8.33 0-.77-6.92h.3l.78 6.92Zm-9.79-.12h-.34l1-6.89h.27Zm11.21-.05-1-6.89h.26l1.06 6.88Zm-12.66-.15-.3-.05 1.2-6.86h.3Zm14.11-.07-1.27-6.86h.26l1.35 6.83Zm-15.55-.19-.3-.07 1.48-6.81.3.06Zm17-.09-1.55-6.8.26-.05 1.62 6.78Zm-18.4-.32-.3-.08 1.77-6.74.29.07Zm19.84-.11-1.84-6.73.25-.06 1.91 6.7Zm-21.26-.27-.34-.1 2.13-6.64.25.07Zm22.72-.13-2.19-6.63.29-.09 2.19 6.63Zm-24.15-.32-.34-.12 2.49-6.52.23.08Zm25.57-.15-2.52-6.52.27-.1 2.55 6.5Zm-27-.37-.21-.09 2.69-6.45.26.1Zm28.39-.18-2.87-6.38.23-.1 3 6.34Zm-29.8-.44-.29-.14 3.19-6.23.25.12Zm31.21-.21-3.29-6.18.22-.11 3.39 6.13Zm-32.6-.5-.21-.12 3.56-6 .24.14Zm34-.24-3.72-6 .2-.12 3.84 5.88Zm-35.33-.6-.31-.21 4.19-5.65.2.13Zm36.69-.28-4.28-5.61.17-.12 4.39 5.5Zm-38-.73-.28-.24 4.78-5.19.18.16Zm39.38-.34-4.87-5.1.16-.16 5 5Zm-40.65-.84-.29-.33 5.49-4.48.11.13Zm41.89-.42-5.63-4.45.12-.14 5.68 4.24a3.92 3.92 0 0 1-.27.35Zm-43-1-.24-.38 6.17-3.54.08.12Zm44.16-.5-6.23-3.46.07-.11 6.39 3.17Zm-45.1-1.26c-.06-.15-.12-.3-.17-.45l6.8-2.2v.1Zm45.94-.58-6.99-2.11 7 1.64c-.06.11-.11.27-.16.43Zm-46.5-1.46v-.5l7.15-.52Zm46.9-.65-7.16-.41 3.59-.09h-3.59l7.18-.11v.14c-.15.1-.16.27-.17.47Zm-39.77-.78-7.14-.73c0-.16 0-.33.07-.49Zm32.58 0v-.1l6.92-1.85c0 .16.09.31.12.47Zm-32.48-.3-6.73-2.43.19-.45 6.58 2.78Zm32.31-.17v-.1l6.33-3.28c.08.14.15.28.22.43Zm-32-.32-6.06-3.74.24-.35 5.91 3.95Zm31.72-.21-.09-.12 5.43-4.4.28.35Zm-31.27-.36-5.36-4.64a3.83 3.83 0 0 0 .28-.29l5.21 4.79Zm30.76-.22-.15-.14 5-5 .29.27Zm-30.15-.36-4.69-5.27.31-.25 4.54 5.39Zm29.5-.2-.2-.15 4.35-5.54.26.2Zm-28.74-.38-4.13-5.69.32-.22 4 5.79Zm27.93-.19-.19-.12 3.78-5.92.32.2Zm-27.07-.34-3.61-6 .31-.18 3.52 6.07Zm26.18-.18-.24-.13 3.36-6.14.3.15Zm-25.23-.32-3.18-6.24.32-.15 3.09 6.29Zm24.26-.15-.25-.12 2.94-6.34.3.13Zm-23.26-.28-2.77-6.43.34-.13 2.66 6.46Zm22.03-.24-.24-.09 2.53-6.51.33.12Zm-21.18-.25-2.4-6.55.33-.12 2.31 6.59Zm20.12-.13-.26-.08 2.19-6.63.32.11Zm-19-.21-2.06-6.67.3-.09 2 6.68Zm17.93-.12-.28-.07 1.89-6.71.31.08Zm-16.8-.19-1.77-6.74.34-.08 1.69 6.76Zm15.63-.1h-.3l1.62-6.78.3.07Zm-14.52-.17-1.48-6.8.34-.07 1.41 6.82Zm13.37-.07-.29-.06 1.33-6.84.31.06Zm-12.2-.14-1.21-6.86h.34l1.13 6.87Zm11-.06h-.3l1-6.89h.31Zm-9.87-.11-.93-6.9h.31l.91 6.9Zm8.66-.05h-.26l.77-6.92h.34Zm-7.46-.08-.7-6.93h.34l.63 6.94Zm6.29 0h-.31l.57-6.94h.3Zm-5.11-.06-.42-6.95h.34l.35 6.95Zm3.89 0h-.27l.28-7h.34Zm-2.67 0-.21-6.95h.34l.14 6.95Zm1.49 0h-.31l.07-7h.31Z"/><path class="cls-14" d="M895.51 463.22v10.94c0 2.36 3.63 4.28 8.1 4.28s8.1-1.92 8.1-4.28v-10.94Z"/><path class="cls-4" d="M903.61 479c-4.84 0-8.64-2.11-8.64-4.82v-10.96a.54.54 0 0 1 .54-.54h16.2a.54.54 0 0 1 .54.54v10.94c0 2.71-3.79 4.84-8.64 4.84Zm-7.56-15.23v10.41c0 2 3.46 3.74 7.56 3.74s7.56-1.71 7.56-3.74v-10.43Z"/><g class="cls-13"><path class="cls-7" d="M905.18 463.22V470c0 5.67-7.57 6.44-9.67 2.33v1.8c0 2.36 3.63 4.28 8.1 4.28s8.1-1.92 8.1-4.28v-10.91Z"/></g><path class="cls-12" d="M911.71 463.22c0 2.36-3.62 4.28-8.1 4.28s-8.1-1.92-8.1-4.28 3.63-4.28 8.1-4.28 8.1 1.91 8.1 4.28Z"/><path class="cls-4" d="M903.61 468c-4.84 0-8.64-2.12-8.64-4.82s3.8-4.82 8.64-4.82 8.64 2.11 8.64 4.82-3.79 4.82-8.64 4.82Zm0-8.56c-4.1 0-7.56 1.71-7.56 3.74s3.46 3.74 7.56 3.74 7.56-1.71 7.56-3.74-3.46-3.7-7.56-3.7Z"/><path class="cls-9" d="M942.08 468.06v-7h.26l.08 7Zm-1.09 0h-.35l.22-7h.27Zm2.55 0-.28-7h.3l.28 7Zm-4-.05h-.34l.49-6.94h.27Zm5.45 0-.49-7h.26l.57 6.93Zm-6.87-.08h-.35l.71-6.93h.27Zm8.33 0-.78-6.92h.31l.77 6.92Zm-9.79-.12h-.34l1-6.89h.26Zm11.21-.05-1-6.89h.27l1.06 6.88Zm-12.66-.15h-.3l1.2-6.86h.3Zm14.11-.08L948 460.6h.26l1.35 6.83Zm-15.55-.19-.3-.06 1.48-6.81.29.06Zm17-.08-1.55-6.8.26-.05 1.62 6.78Zm-18.45-.26-.31-.08 1.78-6.74.28.07Zm19.84-.11-1.82-6.73.25-.06 1.91 6.7Zm-21.26-.27-.34-.1 2.13-6.64.25.07Zm22.71-.13-2.18-6.63.29-.09 2.19 6.63Zm-24.14-.32-.35-.12 2.5-6.53.23.09ZM955 466l-2.52-6.52.27-.1 2.56 6.51Zm-27-.37-.21-.09 2.68-6.45.27.1Zm28.39-.18-2.82-6.45.23-.1 3 6.34Zm-29.8-.44-.3-.14 3.2-6.23.25.12Zm31.21-.21-3.3-6.18.22-.11 3.4 6.13Zm-32.6-.5-.21-.12 3.56-6 .24.14Zm34-.24-3.72-5.95.2-.12 3.83 5.88Zm-35.33-.6-.31-.21 4.19-5.65.19.13Zm36.69-.28-4.25-5.61.17-.13 4.4 5.5Zm-38-.73-.28-.24L927 457l.17.16Zm39.38-.34L957 457l.17-.16 5 5Zm-40.65-.85-.3-.32 5.5-4.48.11.13Zm41.89-.41-5.53-4.43.11-.14 5.69 4.24c-.11.08-.19.19-.29.3Zm-43-1a3 3 0 0 1-.24-.38l6.17-3.54.08.12Zm44.16-.5-6.34-3.53.06-.11 6.39 3.17c-.03.12-.1.27-.18.4ZM919.17 458l-.18-.45 6.81-2.2v.1Zm45.93-.58-6.83-2.12 7 1.64a4.42 4.42 0 0 1-.17.5ZM918.61 456c0-.17 0-.34-.05-.5l7.15-.52Zm46.9-.65-7.16-.41 3.59-.09h-3.59l7.17-.11v.14c.01.12 0 .29-.01.45Zm-39.78-.78-7.14-.73c0-.16 0-.33.08-.49Zm32.59 0v-.1l6.92-1.85.12.47Zm-32.49-.3-6.72-2.43a4.68 4.68 0 0 1 .19-.45l6.58 2.78Zm32.32-.17-.06-.11 6.33-3.27c.08.14.16.28.23.43Zm-32.06-.32L920 450l.24-.35 5.91 3.95Zm31.72-.21-.09-.12 5.62-4.33.28.36Zm-31.27-.36-5.35-4.64.28-.29 5.21 4.79Zm30.76-.22-.14-.14 5-5 .28.27Zm-30.15-.36-4.68-5.27.3-.25 4.54 5.38Zm29.51-.2-.2-.15 4.35-5.54.26.2Zm-28.74-.43-4.13-5.69.32-.22 4 5.79Zm27.93-.19-.2-.13 3.79-5.91.32.2Zm-27.07-.34-3.62-6 .32-.17 3.51 6.07Zm26.17-.18-.24-.13 3.37-6.14.29.15Zm-25.22-.29-3.18-6.24.32-.15 3.08 6.29Zm24.27-.2-.26-.11 2.94-6.34.31.13Zm-23.27-.28L928 444.1l.33-.13 2.67 6.46Zm22.23-.14-.23-.09 2.53-6.52.33.13Zm-21.17-.25-2.41-6.56.34-.11 2.31 6.59Zm20.11-.13-.25-.08 2.18-6.63.33.11Zm-19-.21-2.05-6.67.3-.09 2 6.68Zm17.94-.12-.29-.07 1.9-6.71.3.08Zm-16.8-.19-1.77-6.74.33-.08 1.69 6.76Zm15.66-.09-.29-.07 1.62-6.78.3.07Zm-14.52-.17-1.48-6.81.34-.06 1.41 6.82Zm13.37-.07-.3-.06 1.34-6.84.3.06ZM936.3 449l-1.2-6.86h.34l1.13 6.87Zm11.05-.06-.3-.05 1.05-6.89.31.05Zm-9.88-.11-.92-6.9h.31l.91 6.9Zm8.67 0h-.27l.78-6.92h.34Zm-7.46-.08-.71-6.93h.35l.63 6.94Zm6.28 0h-.3l.56-6.94h.31Zm-5.1-.05-.42-6.95h.34l.35 6.95Zm3.89 0h-.27l.28-7h.34Zm-2.67 0-.21-6.95h.34l.14 6.95Zm1.49 0h-.31l.07-7h.31Z"/><path class="cls-14" d="M933.87 442.59v10.94c0 2.36 3.62 4.28 8.1 4.28s8.1-1.92 8.1-4.28v-10.94Z"/><path class="cls-4" d="M942 458.35c-4.85 0-8.64-2.12-8.64-4.82v-10.94a.54.54 0 0 1 .54-.54h16.2a.54.54 0 0 1 .54.54v10.94c-.03 2.7-3.83 4.82-8.64 4.82Zm-7.56-15.23v10.41c0 2 3.46 3.74 7.56 3.74s7.56-1.71 7.56-3.74v-10.41Z"/><g class="cls-13"><path class="cls-7" d="M943.53 442.59v6.81c0 5.67-7.56 6.43-9.66 2.34v1.79c0 2.36 3.62 4.28 8.1 4.28s8.1-1.92 8.1-4.28v-10.94Z"/></g><path class="cls-12" d="M950.07 442.59c0 2.36-3.63 4.27-8.1 4.27s-8.1-1.91-8.1-4.27 3.62-4.28 8.1-4.28 8.1 1.91 8.1 4.28Z"/><path class="cls-4" d="M942 447.4c-4.85 0-8.64-2.11-8.64-4.81s3.79-4.82 8.64-4.82 8.64 2.11 8.64 4.82-3.83 4.81-8.64 4.81Zm0-8.56c-4.1 0-7.56 1.72-7.56 3.75s3.46 3.74 7.56 3.74 7.56-1.72 7.56-3.74-3.49-3.75-7.56-3.75Z"/><path class="cls-9" d="M980.43 447.43v-7h.27l.07 7Zm-1.09 0H979l.21-7h.27Zm2.56 0-.29-7h.31l.28 7Zm-4 0h-.34l.49-6.94h.27Zm5.44 0-.49-6.95h.27l.57 6.93Zm-6.87-.08h-.34l.71-6.93h.27Zm8.33 0-.8-7.05h.3l.78 6.92Zm-9.8-.25h-.34l1-6.89h.26Zm11.2-.05-1-6.89h.26l1.07 6.88Zm-12.66-.15h-.3l1.2-6.86h.3Zm14.11-.08-1.26-6.82h.26l1.34 6.83Zm-15.55-.19-.3-.06 1.48-6.81.3.06Zm17-.08-1.55-6.8.27-.05 1.62 6.77Zm-18.42-.23-.3-.08 1.77-6.74.29.07Zm19.85-.11-1.83-6.73.25-.06 1.92 6.7Zm-21.26-.27-.34-.1 2.13-6.64.24.07Zm22.71-.13-2.18-6.63.28-.09 2.2 6.63Zm-24.15-.32-.34-.12 2.49-6.53.24.08Zm25.57-.15-2.52-6.52.27-.1 2.55 6.5Zm-27-.37-.22-.09 2.69-6.46.27.11Zm28.38-.18-2.86-6.38.23-.1 3 6.34Zm-29.8-.44-.29-.14 3.19-6.23.26.12Zm31.22-.21-3.3-6.18.22-.11 3.39 6.13Zm-32.6-.5-.21-.12 3.55-6 .24.14Zm34-.24-3.71-5.95.2-.12 3.83 5.88Zm-35.33-.6-.3-.21 4.19-5.65.19.13Zm36.7-.28-4.25-5.61.17-.13 4.4 5.5Zm-38.05-.73-.28-.24 4.78-5.19.18.16Zm39.39-.34-4.88-5.1.17-.16 5 5Zm-40.66-.85c-.1-.1-.19-.21-.29-.32l5.5-4.48.11.12Zm41.9-.41-5.55-4.43.11-.14 5.69 4.24Zm-43.06-1-.24-.38 6.18-3.54.08.12Zm44.16-.5-6.22-3.46.06-.11 6.39 3.17Zm-45.1-1.26-.17-.45 6.81-2.2v.1Zm45.94-.58-6.83-2.12 7 1.64c-.1.12-.15.28-.2.44Zm-46.49-1.5-.06-.5 7.16-.52Zm46.9-.65-7.16-.41 3.58-.09h-3.58l7.17-.11v.14c-.03.14-.03.31-.04.47Zm-39.78-.78-7.14-.73c0-.16 0-.33.08-.49Zm32.58 0v-.1l6.92-1.85c0 .15.08.31.11.47Zm-32.48-.3-6.72-2.44c.06-.15.12-.3.19-.44l6.57 2.78Zm32.31-.17v-.11l6.33-3.27c.08.14.15.28.22.43Zm-32-.32-6.06-3.74.25-.35 5.91 3.95Zm31.72-.21-.09-.12 5.62-4.33.28.36Zm-31.27-.36-5.35-4.64.28-.29 5.21 4.78Zm30.76-.22-.15-.14 5-5 .29.27Zm-30.15-.36-4.69-5.27.31-.25 4.54 5.38Zm29.51-.2-.2-.15 4.34-5.54.27.2Zm-28.75-.38-4.12-5.69.31-.22 4 5.79Zm27.93-.19L994 431l3.78-5.91.33.2Zm-27.07-.34-3.61-6 .31-.17 3.52 6.07Zm26.18-.18-.24-.13 3.36-6.15.3.16Zm-25.23-.32-3.18-6.24.33-.15 3.08 6.29Zm24.26-.16-.25-.11 2.94-6.34.31.13Zm-23.26-.28-2.76-6.42.33-.13 2.67 6.46Zm22.23-.14-.24-.09 2.53-6.51.34.12Zm-21.17-.25-2.41-6.56.34-.11 2.31 6.59Zm20.11-.13-.25-.08 2.18-6.63.33.11Zm-19-.21-2.05-6.67.3-.09 2 6.67Zm17.94-.12-.29-.07 1.9-6.71.3.08Zm-16.81-.19-1.76-6.75.33-.07 1.69 6.76Zm15.67-.09-.29-.07 1.61-6.78.31.07Zm-14.52-.17-1.61-6.85.33-.06 1.41 6.82Zm13.37-.07-.3-.06 1.33-6.84.31.06Zm-12.21-.14-1.2-6.86h.34l1.13 6.87Zm11-.06-.3-.05 1.06-6.88h.3Zm-9.87-.11-.92-6.9h.31l.91 6.9Zm8.66 0h-.26l.77-6.92h.35Zm-7.45-.08-.71-6.93h.34l.64 6.94Zm6.28 0h-.3l.56-6.94h.31Zm-5.1-.05-.43-6.95h.34l.36 7Zm3.88 0h-.26l.28-7h.34Zm-2.67 0-.21-6.95h.34l.14 6.95Zm1.49 0h-.3l.07-7h.3Z"/><path class="cls-14" d="M972.22 422v10.9c0 2.36 3.63 4.28 8.11 4.28s8.1-1.92 8.1-4.28V422Z"/><path class="cls-4" d="M980.33 437.72c-4.85 0-8.64-2.12-8.64-4.82V422a.54.54 0 0 1 .53-.54h16.21a.54.54 0 0 1 .54.54v10.9c.03 2.7-3.8 4.82-8.64 4.82Zm-7.57-15.23v10.41c0 2 3.47 3.74 7.57 3.74s7.56-1.71 7.56-3.74v-10.41Z"/><g class="cls-13"><path class="cls-7" d="M981.89 422v6.81c0 5.67-7.57 6.43-9.67 2.33v1.8c0 2.36 3.63 4.28 8.11 4.28s8.1-1.92 8.1-4.28V422Z"/></g><ellipse class="cls-12" cx="980.33" cy="421.96" rx="8.1" ry="4.28"/><path class="cls-4" d="M980.33 426.77c-4.85 0-8.64-2.11-8.64-4.81s3.79-4.82 8.64-4.82S989 419.25 989 422s-3.83 4.77-8.67 4.77Zm0-8.55c-4.1 0-7.57 1.71-7.57 3.74s3.47 3.74 7.57 3.74 7.56-1.72 7.56-3.74-3.46-3.74-7.56-3.74Z"/><path d="M477.47 423a251.85 251.85 0 0 0-31.24 1.64s-1.88-10.93 10.55-20.32 61.31-50.27 54.68-67.39-18.23-4.69-24 0-45 33.7-45 33.7-9.67-12.16-27.9-8.84c0 0-8.59-10.86-29.34-2.66s-49.37 53.75-78.37 79.16L389 504.92s14.14-12.17 22.69-18.1 21.05-5.91 32.89-14.8 20.07-17.1 33.55-19.4S508.59 448 509 438.8 496.88 423 477.47 423Z" style="fill:#ffdbc4"/><path class="cls-4" d="m389.35 505.32-.71-.81c.15-.12 14.27-12.26 22.75-18.13 3.84-2.66 8.47-4.15 13.37-5.72 6.08-2 13-4.16 19.5-9.07 2.1-1.57 4.09-3.13 6-4.64C459.15 460 466.82 454 478 452.09l2.35-.4c13-2.19 27.7-4.66 28.06-12.91a9.6 9.6 0 0 0-2.94-7.2c-4.88-5.1-15.1-8-28-8a256.55 256.55 0 0 0-31.17 1.63.53.53 0 0 1-.6-.44c0-.11-1.79-11.36 10.75-20.84 13.13-9.92 60.87-50.33 54.51-66.76-1.84-4.75-4.21-7.51-7-8.23-4.82-1.22-10.27 3.45-14.25 6.86-.68.58-1.31 1.12-1.89 1.59-5.74 4.65-44.64 33.42-45 33.71a.55.55 0 0 1-.75-.1c-.09-.12-9.7-11.86-27.37-8.64a.54.54 0 0 1-.52-.2c-.08-.1-8.63-10.43-28.72-2.49-11.85 4.68-26.56 22-42.14 40.31-11.69 13.76-23.78 28-36.07 38.75l-.71-.81c12.23-10.72 24.3-24.91 36-38.64 15.67-18.43 30.46-35.83 42.56-40.61 19.09-7.54 28.25 1 29.74 2.57 16.27-2.82 25.89 6.62 27.77 8.7 4.16-3.08 39.19-29 44.6-33.39.57-.46 1.19-1 1.86-1.57 4.16-3.56 9.85-8.43 15.22-7.08 3.2.8 5.82 3.79 7.79 8.88 7.62 19.67-54.23 67.53-54.86 68-10.49 7.92-10.55 17.05-10.39 19.29a263.58 263.58 0 0 1 30.76-1.58c13.23 0 23.73 3 28.82 8.36a10.59 10.59 0 0 1 3.23 8c-.39 9.11-15.56 11.67-28.95 13.92l-2.35.4c-11 1.87-18.52 7.79-27.28 14.65-1.93 1.51-3.92 3.07-6 4.65-6.69 5-13.66 7.26-19.82 9.24-4.82 1.55-9.38 3-13.09 5.58-8.58 5.81-22.66 17.91-22.8 18.03Z"/><path class="cls-4" d="M448.3 429.75a10.45 10.45 0 0 1-2.6-5l1.06-.22A9.38 9.38 0 0 0 449 429ZM431.12 379.05l-.63-.87c.09-.06 8.22-5.91 12.08-8.32l.57.91c-3.83 2.4-11.93 8.23-12.02 8.28ZM404.72 367.65l-.76-.77a23.31 23.31 0 0 1 11-5.69l.2 1.06a22.43 22.43 0 0 0-10.44 5.4ZM490.47 450.9s-4.18-1-3.19-6.67c.8-4.55 11.09-9.61 17.47-8.59 1.14.19 1.65 1.18 2.09 2.05s.83 1.53 1.57 1.53v1.08c-1.43 0-2-1.17-2.51-2.11s-.75-1.39-1.31-1.48c-6.11-1-15.6 4.08-16.24 7.71-.81 4.65 2.24 5.4 2.37 5.43ZM493.44 345.79a9 9 0 0 1-1.39-.1 5.34 5.34 0 0 1-3.86-2.28c-3-4.48 1.2-8.8 1.24-8.85l.77.76c-.15.15-3.59 3.75-1.11 7.49a4.27 4.27 0 0 0 3.12 1.81c3.53.54 8.17-1.41 10.15-3a46.06 46.06 0 0 0 5.59-5.45 10 10 0 0 0-8.35-7l.17-1.06a11.14 11.14 0 0 1 9.29 8.11.48.48 0 0 1-.11.44 43.69 43.69 0 0 1-5.91 5.81 17.41 17.41 0 0 1-9.6 3.32Z"/><path d="M298.92 436.05s-12.13 6.1-17.18 10.65l103.15 80.18L393.2 516c-19-62-94.28-79.95-94.28-79.95Z" style="fill:#00c481"/><path class="cls-4" d="m385.31 527.21-.85-.66 8.15-10.68c-18.37-59.29-89.42-78.18-93.63-79.25-1.51.77-12.27 6.33-16.88 10.48l-.72-.8c5.05-4.54 16.8-10.48 17.3-10.73a.5.5 0 0 1 .36-.05 169.08 169.08 0 0 1 40.16 16.76c19.43 11.21 44.65 31.33 54.52 63.54a.52.52 0 0 1-.09.48Z"/><path class="cls-9" d="M180.8 302.32c0 8-12.33 14.55-27.54 14.55s-27.54-6.51-27.54-14.55 12.33-14.55 27.54-14.55 27.54 6.51 27.54 14.55Z"/><path class="cls-4" d="M153.26 317.41c-15.48 0-28.08-6.77-28.08-15.09s12.6-15.09 28.08-15.09 28.08 6.77 28.08 15.09-12.6 15.09-28.08 15.09Zm0-29.1c-14.89 0-27 6.28-27 14s12.11 14 27 14 27-6.28 27-14-12.11-14-27-14Z"/><path class="cls-9" d="M238.33 272.53c0 8-12.33 14.55-27.55 14.55s-27.54-6.51-27.54-14.55S195.57 258 210.78 258s27.55 6.5 27.55 14.53Z"/><path class="cls-4" d="M210.78 287.62c-15.48 0-28.08-6.77-28.08-15.09s12.6-15.09 28.08-15.09 28.09 6.77 28.09 15.09-12.6 15.09-28.09 15.09Zm0-29.1c-14.89 0-27 6.29-27 14s12.11 14 27 14 27-6.29 27-14-12.11-14-27-14Z"/><path class="cls-9" d="M295.85 241.45c0 8-12.33 14.55-27.54 14.55s-27.55-6.51-27.55-14.55 12.34-14.55 27.55-14.55 27.54 6.51 27.54 14.55Z"/><path class="cls-4" d="M268.31 256.54c-15.49 0-28.09-6.77-28.09-15.09s12.6-15.09 28.09-15.09 28.08 6.77 28.08 15.09-12.6 15.09-28.08 15.09Zm0-29.1c-14.89 0-27 6.28-27 14s12.12 14 27 14 27-6.29 27-14-12.11-14-27-14Z"/><path class="cls-9" d="M352.08 211.67c0 8-12.33 14.55-27.54 14.55S297 219.7 297 211.67s12.34-14.56 27.55-14.56 27.53 6.52 27.53 14.56Z"/><path class="cls-4" d="M324.54 226.76c-15.49 0-28.09-6.77-28.09-15.09s12.6-15.1 28.09-15.1 28.08 6.77 28.08 15.1-12.62 15.09-28.08 15.09Zm0-29.11c-14.89 0-27 6.29-27 14s12.12 14 27 14 27-6.29 27-14-12.11-14-27-14ZM176.21 304.75c0 6.69-10.27 12.12-23 12.12s-22.95-5.43-22.95-12.12 10.28-12.13 22.95-12.13 23 5.43 23 12.13ZM233.74 274.55c0 6.7-10.28 12.13-23 12.13s-22.95-5.43-22.95-12.13 10.28-12.12 22.95-12.12 23 5.43 23 12.12ZM290.78 243.61c0 6.56-10.06 11.87-22.47 11.87s-22.47-5.31-22.47-11.87 10.06-11.87 22.47-11.87 22.47 5.32 22.47 11.87Z"/><path class="cls-4" d="M347.35 214.16c0 6.66-10.21 12.06-22.81 12.06s-22.82-5.4-22.82-12.06 10.22-12 22.82-12 22.81 5.35 22.81 12Z"/><g class="cls-6"><path class="cls-7" d="m336.89 228.5-70.44-.12v27.1h32.43l.59 8s48 9.05 57.53-6.54c2.86-4.67-6.37-12.48-14.37-16.28l.13-8.22c0-2.24-2.76-3.93-5.87-3.94Z"/></g><g class="cls-6"><path class="cls-7" d="m278.32 259.46-70.44-.12v27.1h32.44l.59 8.05s40.63.32 48.68-7.41c3.95-3.79 2.48-11.61-5.52-15.41l.13-8.22c-.01-2.3-2.82-3.98-5.88-3.99Z"/></g><g class="cls-6"><path class="cls-7" d="m219.89 290.58-70.45-.12v26.92h32.44l.59 8.23s57-15.27 43.15-22.82l.13-8.22c0-2.29-2.81-3.98-5.86-3.99Z"/></g><g class="cls-6"><path class="cls-7" d="m390 199-64.73-.12V226h83.36c4.78 0 11.18-3.6 12.65-8.3 0 0 8.9-2.51 5.52-5.25-5.52-4.47-21.85-9.88-30.93-9.88Z"/></g><path class="cls-3" d="M132 274.86v28.74c0 6.21 9.52 11.24 21.27 11.24s21.27-5 21.27-11.24v-28.74Z"/><path class="cls-4" d="M153.26 315.38c-12 0-21.81-5.28-21.81-11.78v-28.74a.54.54 0 0 1 .54-.54h42.54a.54.54 0 0 1 .54.54v28.74c0 6.5-9.78 11.78-21.81 11.78Zm-20.73-40v28.2c0 5.9 9.3 10.7 20.73 10.7S174 309.5 174 303.6v-28.2Z"/><g class="cls-13"><path class="cls-27" d="M157.37 274.86v17.89c0 14.9-19.87 16.9-25.38 6.14v4.71c0 6.21 9.52 11.24 21.27 11.24s21.27-5 21.27-11.24v-28.74Z"/></g><path class="cls-21" d="M174.53 274.86c0 6.21-9.52 11.24-21.27 11.24s-21.27-5-21.27-11.24 9.52-11.24 21.27-11.24 21.27 5.04 21.27 11.24Z"/><path class="cls-4" d="M153.26 286.64c-12 0-21.81-5.28-21.81-11.78s9.79-11.78 21.81-11.78 21.81 5.29 21.81 11.78-9.78 11.78-21.81 11.78Zm0-22.48c-11.43 0-20.73 4.8-20.73 10.7s9.3 10.7 20.73 10.7 20.73-4.8 20.73-10.7-9.3-10.7-20.73-10.7Z"/><path class="cls-3" d="M165.67 276.57c0 3.62-5.55 6.56-12.41 6.56s-12.41-2.94-12.41-6.56 5.56-6.56 12.41-6.56 12.41 2.99 12.41 6.56Z"/><path class="cls-4" d="M151 280.57a15.2 15.2 0 0 1-11.7-5.32l.84-.69c4.79 5.85 13.1 5.48 14.9 4a2.25 2.25 0 0 0 1.05-1.58c0-1-1.19-2.08-2.37-3.14a20.63 20.63 0 0 1-1.71-1.65 2.19 2.19 0 0 1-.33-3c1.64-2.1 7.42-2.14 14.24 1.4l-.49 1c-7.14-3.71-11.93-2.94-12.9-1.7-.34.44-.24 1 .29 1.58a20.19 20.19 0 0 0 1.62 1.56c1.36 1.22 2.77 2.48 2.73 4a3.25 3.25 0 0 1-1.45 2.39 8.2 8.2 0 0 1-4.72 1.15Z"/><path class="cls-4" transform="rotate(-27.57 151.715 273.01)" d="M145.18 272.5h13.12v1.08h-13.12z"/><path class="cls-4" transform="rotate(-27.57 154.074 274.842)" d="M147.53 274.32h13.12v1.08h-13.12z"/><path class="cls-3" d="M171.19 283.35h.54v22.24h-.54zM168.75 285.23h.54v22.24h-.54zM166.3 287.11h.54v22.24h-.54zM158.96 289.7h.54v22.24h-.54zM156.51 290.12h.54v22.24h-.54zM154.06 289.7h.54v22.24h-.54zM151.62 289.7h.54v22.24h-.54zM149.17 289.7h.54v22.24h-.54zM146.72 289.61h.54v22.24h-.54zM161.41 289.04h.54v22.24h-.54zM163.85 288.1h.54v22.24h-.54zM136.93 285.23h.54v22.24h-.54zM139.38 287.11h.54v22.24h-.54zM144.27 289.04h.54v22.24h-.54zM141.83 288.1h.54v22.24h-.54zM190.08 219v54.61c0 6.2 9.53 11.23 21.27 11.23s21.27-5 21.27-11.23V219Z"/><path class="cls-4" d="M211.35 285.42c-12 0-21.81-5.28-21.81-11.77V219a.54.54 0 0 1 .54-.54h42.54a.54.54 0 0 1 .54.54v54.61c0 6.53-9.78 11.81-21.81 11.81Zm-20.73-65.85v54.08c0 5.89 9.3 10.69 20.73 10.69s20.73-4.8 20.73-10.69v-54.08Z"/><g class="cls-13"><path class="cls-27" d="M215.46 219v45.34c0 14.89-19.87 15.31-25.38 4.55v4.72c0 6.2 9.53 11.23 21.27 11.23s21.27-5 21.27-11.23V219Z"/></g><ellipse class="cls-21" cx="211.35" cy="219.04" rx="21.27" ry="11.24"/><path class="cls-4" d="M211.35 230.81c-12 0-21.81-5.28-21.81-11.77s9.79-11.78 21.81-11.78 21.81 5.28 21.81 11.78-9.78 11.77-21.81 11.77Zm0-22.47c-11.43 0-20.73 4.8-20.73 10.7s9.3 10.69 20.73 10.69 20.73-4.8 20.73-10.69-9.3-10.7-20.73-10.7Z"/><path class="cls-3" d="M223.77 220.74c0 3.62-5.56 6.56-12.42 6.56s-12.41-2.94-12.41-6.56 5.56-6.56 12.41-6.56 12.42 2.94 12.42 6.56Z"/><path class="cls-4" d="M209.09 224.74a15.18 15.18 0 0 1-11.69-5.32l.83-.68c4.79 5.85 13.1 5.47 14.91 4a2.22 2.22 0 0 0 1-1.57c0-1-1.19-2.09-2.37-3.14-.59-.54-1.2-1.09-1.71-1.66a2.2 2.2 0 0 1-.33-3c1.64-2.09 7.42-2.14 14.24 1.4l-.49 1c-7.15-3.71-11.93-2.93-12.9-1.69-.34.43-.24 1 .29 1.57a20.19 20.19 0 0 0 1.62 1.56c1.36 1.22 2.77 2.49 2.73 4a3.24 3.24 0 0 1-1.45 2.39 8.29 8.29 0 0 1-4.68 1.14Z"/><path class="cls-4" transform="rotate(-27.57 209.81 217.195)" d="M203.27 216.68h13.12v1.08h-13.12z"/><path class="cls-4" transform="rotate(-27.56 212.208 219.05)" d="M205.62 218.5h13.12v1.08h-13.12z"/><path class="cls-3" d="M229.29 227.52h.54v48.11h-.54zM226.84 229.41h.54v48.11h-.54zM224.39 231.29h.54v48.11h-.54zM217.05 233.87h.54v48.11h-.54zM214.6 234.3h.54v48.11h-.54zM212.15 233.87h.54v48.11h-.54zM209.71 233.87h.54v48.11h-.54zM207.26 233.87h.54v48.11h-.54zM204.81 233.78h.54v48.11h-.54zM219.5 233.21h.54v48.11h-.54zM221.95 232.27h.54v48.11h-.54zM195.03 229.41h.54v48.11h-.54zM197.47 231.29h.54v48.11h-.54zM202.37 233.21h.54v48.11h-.54zM199.92 232.27h.54v48.11h-.54zM247 161.49V242c0 6.21 9.52 11.24 21.27 11.24s21.27-5 21.27-11.24v-80.51Z"/><path class="cls-4" d="M268.31 253.74c-12 0-21.81-5.29-21.81-11.78v-80.47a.54.54 0 0 1 .5-.49h42.54a.54.54 0 0 1 .53.54V242c.04 6.45-9.74 11.74-21.76 11.74ZM247.58 162v80c0 5.9 9.3 10.7 20.73 10.7S289 247.86 289 242v-80Z"/><g class="cls-13"><path class="cls-27" d="M272.42 161.49v71.2c0 14.9-19.88 15.32-25.38 4.55V242c0 6.21 9.52 11.24 21.27 11.24s21.27-5 21.27-11.24v-80.51Z"/></g><path class="cls-21" d="M289.58 161.49c0 6.2-9.53 11.23-21.27 11.23s-21.27-5-21.27-11.23 9.52-11.24 21.27-11.24 21.27 5.03 21.27 11.24Z"/><path class="cls-4" d="M268.31 173.26c-12 0-21.81-5.28-21.81-11.77s9.78-11.78 21.81-11.78 21.8 5.28 21.8 11.78-9.78 11.77-21.8 11.77Zm0-22.47c-11.43 0-20.73 4.8-20.73 10.7s9.3 10.69 20.73 10.69S289 167.39 289 161.49s-9.26-10.7-20.69-10.7Z"/><path class="cls-3" d="M280.72 163.19c0 3.62-5.56 6.56-12.41 6.56s-12.42-2.94-12.42-6.56 5.56-6.56 12.42-6.56 12.41 2.94 12.41 6.56Z"/><path class="cls-4" d="M266.05 167.19a15.19 15.19 0 0 1-11.7-5.32l.83-.68c4.8 5.85 13.11 5.47 14.91 4a2.27 2.27 0 0 0 1.05-1.57c0-1-1.19-2.09-2.37-3.14a22.49 22.49 0 0 1-1.71-1.66 2.18 2.18 0 0 1-.33-2.95c1.64-2.09 7.41-2.14 14.24 1.4l-.5 1c-7.14-3.71-11.92-2.93-12.89-1.69-.34.43-.25 1 .29 1.57a20.19 20.19 0 0 0 1.62 1.56c1.36 1.22 2.77 2.49 2.72 4a3.21 3.21 0 0 1-1.45 2.39 8.23 8.23 0 0 1-4.71 1.09Z"/><path class="cls-4" transform="rotate(-27.57 266.752 159.65)" d="M260.22 159.13h13.12v1.08h-13.12z"/><path class="cls-4" transform="rotate(-27.56 269.16 161.5)" d="M262.58 160.95h13.12v1.08h-13.12z"/><path class="cls-3" d="M286.24 169.97h.54v73.97h-.54zM283.79 171.85h.54v73.97h-.54zM281.35 173.74h.54v73.97h-.54zM274 176.32h.54v73.97H274zM271.56 176.75h.54v73.97h-.54zM269.11 176.32h.54v73.97h-.54zM266.66 176.32h.54v73.97h-.54zM264.22 176.32h.54v73.97h-.54zM261.77 176.23h.54v73.97h-.54zM276.45 175.66h.54v73.97h-.54zM278.9 174.72h.54v73.97h-.54zM251.98 171.85h.54v73.97h-.54zM254.43 173.74h.54v73.97h-.54zM259.32 175.66h.54v73.97h-.54zM256.88 174.72h.54v73.97h-.54zM303.27 106.69V213c0 6.2 9.52 11.23 21.27 11.23s21.27-5 21.27-11.23V106.69Z"/><path class="cls-4" d="M324.54 224.81c-12 0-21.81-5.28-21.81-11.77V106.69a.54.54 0 0 1 .54-.54h42.54a.54.54 0 0 1 .54.54V213c0 6.53-9.79 11.81-21.81 11.81Zm-20.73-117.58V213c0 5.89 9.3 10.69 20.73 10.69s20.73-4.8 20.73-10.69V107.23Z"/><g class="cls-13"><path class="cls-27" d="M328.65 106.69v97.08c0 14.89-19.88 15.31-25.38 4.55V213c0 6.2 9.52 11.23 21.27 11.23s21.27-5 21.27-11.23V106.69Z"/></g><path class="cls-21" d="M345.81 106.69c0 6.21-9.53 11.24-21.27 11.24s-21.27-5-21.27-11.24 9.52-11.23 21.27-11.23 21.27 5.03 21.27 11.23Z"/><path class="cls-4" d="M324.54 118.47c-12 0-21.81-5.28-21.81-11.78s9.78-11.77 21.81-11.77 21.81 5.28 21.81 11.77-9.79 11.78-21.81 11.78Zm0-22.48c-11.43 0-20.73 4.8-20.73 10.7s9.3 10.7 20.73 10.7 20.73-4.8 20.73-10.7S336 96 324.54 96Z"/><path class="cls-3" d="M337 108.4c0 3.62-5.56 6.56-12.41 6.56s-12.42-2.94-12.42-6.56 5.56-6.56 12.42-6.56S337 104.78 337 108.4Z"/><path class="cls-4" d="M322.28 112.4a15.19 15.19 0 0 1-11.7-5.32l.84-.69c4.78 5.85 13.09 5.48 14.9 4a2.29 2.29 0 0 0 1.05-1.58c0-1-1.19-2.08-2.37-3.14a20.63 20.63 0 0 1-1.71-1.65 2.18 2.18 0 0 1-.33-3c1.64-2.1 7.41-2.14 14.24 1.4l-.5 1c-7.14-3.71-11.92-2.94-12.89-1.7-.34.44-.25 1 .29 1.58a20.19 20.19 0 0 0 1.62 1.56c1.36 1.22 2.77 2.48 2.73 4a3.23 3.23 0 0 1-1.46 2.39 8.14 8.14 0 0 1-4.71 1.15Z"/><path class="cls-4" transform="rotate(-27.57 322.973 104.865)" d="M316.45 104.33h13.12v1.08h-13.12z"/><path class="cls-4" transform="rotate(-27.57 325.312 106.692)" d="M318.81 106.15h13.12v1.08h-13.12z"/><path class="cls-3" d="M342.47 115.18h.54v99.84h-.54zM340.02 117.06h.54v99.84h-.54zM337.58 118.95h.54v99.84h-.54zM330.23 121.53h.54v99.84h-.54zM327.79 121.96h.54v99.84h-.54zM325.34 121.53h.54v99.84h-.54zM322.89 121.53h.54v99.84h-.54zM320.44 121.53h.54v99.84h-.54zM318 121.44h.54v99.84H318zM332.68 120.87h.54v99.84h-.54zM335.13 119.93h.54v99.84h-.54zM308.21 117.06h.54v99.84h-.54zM310.66 118.95h.54v99.84h-.54zM315.55 120.87h.54v99.84h-.54zM313.1 119.93h.54v99.84h-.54z"/><path class="cls-12" d="M1040.54 248.43a22.81 22.81 0 1 1-22.8-22.8 22.8 22.8 0 0 1 22.8 22.8Z"/><path class="cls-4" d="M1017.74 271.78a23.35 23.35 0 1 1 23.34-23.35 23.38 23.38 0 0 1-23.34 23.35Zm0-45.61a22.27 22.27 0 1 0 22.26 22.26 22.29 22.29 0 0 0-22.26-22.26Z"/><g class="cls-13"><path class="cls-7" d="M1043.87 308.15c0 3.63-8.15 6.57-18.21 6.57s-18.21-2.94-18.21-6.57 8.16-6.56 18.21-6.56 18.21 2.94 18.21 6.56Z"/></g><path d="M1017.74 225.63h-.22a19 19 0 1 1-22 18.73c0-.39 0-.77.06-1.15a22.45 22.45 0 0 0-.63 5.21 22.81 22.81 0 1 0 22.81-22.8Z" style="fill:#899aa6" class="cls-13"/><g class="cls-13"><path class="cls-7" d="m1096.73 602.62-13.93-20c-3-4.3-12.87-6-20.19-3.51h.08c-.69.21-1.4.46-2.12.76l-29.12 14.87a10.17 10.17 0 0 0-1.72 1.1c-6.15 3.67-3.22 9.44 6 10.2l47.78 3.82h-.06c3.44.82 16.65-.42 13.28-7.24Zm-57.59-3.89c4.55-2.35 23.43-12.09 29.51-15.12a2.4 2.4 0 0 1 3 .71l12.82 18.26a.33.33 0 0 1-.32.51c-5.32-.44-38.31-3.16-44.88-3.74a.32.32 0 0 1-.13-.62Z"/></g><path class="cls-7" d="M1041.67 485.41 998.38 528c-9.36 9.12-8.53 27.72 3.66 31.46s-4.13-6.88 1.13-12.78l51.36-50.83s6.56-8.19 14-.83c.02-5.66-11.26-22.25-26.86-9.61Z"/><path class="cls-7" d="m1003.22 560.39-1.34-.42c-4.94-1.51-8.42-5.46-9.79-11.11a23 23 0 0 1 5.91-21.24l43.29-42.62c3.94-3.2 7.86-4.8 11.71-4.8 9.85 0 16.09 10.4 16.09 14.79v1.28l-.91-.9a8.82 8.82 0 0 0-6.14-2.91c-4.08 0-7.06 3.66-7.09 3.7l-51.41 50.87c-4.9 5.51-1.2 11.86-1 12.12Zm49.78-79.08c-3.59 0-7.29 1.52-11 4.52l-43.25 42.56a21.84 21.84 0 0 0-5.62 20.21c1.16 4.79 3.93 8.27 7.85 9.91a11.38 11.38 0 0 1 1.77-12.19l51.39-50.85c.09-.12 3.29-4.06 7.89-4.06a9.15 9.15 0 0 1 5.79 2.24c-1.05-4.47-6.71-12.34-14.82-12.34Z"/><path class="cls-8" d="m1076.42 571.38-71.7-11.07c-13.7-2.16-18.06-18.69-8.91-29.19s1.14 11.06 13.83 13l71.11 11.2s10.08 2.76 11.84-7.62c3.3 4.58 3.83 24.68-16.17 23.68Z"/><path class="cls-7" d="M1077.84 572h-1.44l-71.76-11.07a16.25 16.25 0 0 1-13.09-10.72 19.47 19.47 0 0 1 3.85-19.37l.81-.93.13 1.23c0 .43 1.27 10.68 13.38 12.52l71.12 11.21a11.23 11.23 0 0 0 2.78.33c3.27 0 7.39-1.31 8.44-7.51l.21-1.27.76 1c2 2.81 2.94 10.41-.14 16.43-1.89 3.68-6.06 8.15-15.05 8.15Zm-82.34-39.66a18.33 18.33 0 0 0-2.94 17.42 15.2 15.2 0 0 0 12.24 10l71.71 11.07h1.33c8.44 0 12.32-4.11 14.09-7.56a18.53 18.53 0 0 0 .87-14.09c-1.64 6-6.38 7-9.18 7a12.12 12.12 0 0 1-3-.35l-71.06-11.19c-10.46-1.58-13.34-9.32-14.06-12.3Z"/><path class="cls-10" d="m1095.42 550.58-20.7-57.29a20.12 20.12 0 0 0-30-10.06s8-.49 11.16 6.77l24.83 68.09s4.71 9.4-5 13.23c5.09 2.33 24.73-1.21 19.71-20.74Z"/><path class="cls-7" d="M1079.43 572.49a10 10 0 0 1-4-.68l-1.15-.53 1.18-.46a8.69 8.69 0 0 0 5.31-4.8c1.4-3.65-.56-7.65-.58-7.69l-24.86-68.14c-2.6-6-8.57-6.42-10.33-6.42h-.29l-2 .12 1.68-1.1a20.43 20.43 0 0 1 11.32-3.43 20.82 20.82 0 0 1 19.51 13.75l20.7 57.29c1.64 6.36.9 11.58-2.19 15.56-3.73 4.82-10.03 6.53-14.3 6.53Zm-2.22-1.27a11.48 11.48 0 0 0 2.22.19c4 0 10-1.6 13.46-6.11 2.87-3.7 3.55-8.61 2-14.59l-20.69-57.24a19.73 19.73 0 0 0-18.49-13 19.43 19.43 0 0 0-9.22 2.34 11.94 11.94 0 0 1 9.85 7l24.85 68.12c.06.12 2.16 4.39.6 8.49a9.09 9.09 0 0 1-4.58 4.8Z"/><g class="cls-6"><path class="cls-7" d="M92.43 398.5C85 398.5 79 402.4 79 407.2s6 8.7 13.45 8.7 13.46-3.89 13.46-8.7-6.04-8.7-13.48-8.7Zm0 9.58c-1.88 0-3.41-.62-3.41-1.39s1.53-1.39 3.41-1.39 3.42.62 3.42 1.39-1.53 1.39-3.42 1.39Z"/></g><path d="M84.26 362.7c-14.29 0-25.86 7.48-25.86 16.71s11.6 16.72 25.86 16.72 25.85-7.49 25.85-16.72-11.58-16.71-25.85-16.71Zm0 18.41c-3.63 0-6.57-1.2-6.57-2.67s2.94-2.68 6.57-2.68 6.56 1.2 6.56 2.68-2.94 2.67-6.56 2.67Z" style="fill:#b7a7ff"/><path class="cls-5" d="M78.29 377.33c1-.92 3.31-1.57 6-1.57a14.41 14.41 0 0 1 3.14.33c-1.18-1.6-6.72-3.59-9.14 1.24ZM105.56 370a10.82 10.82 0 0 1 2.53 7.12c0 9.23-12.66 16.77-26.94 16.77a31.31 31.31 0 0 1-21-8.42c3.73 6.26 13.12 10.71 24.13 10.71 14.27 0 25.85-7.49 25.85-16.72a13 13 0 0 0-4.57-9.46Z"/><path class="cls-4" d="M84.26 396.67c-14.56 0-26.4-7.74-26.4-17.26s11.84-17.25 26.4-17.25 26.39 7.74 26.39 17.25-11.84 17.26-26.39 17.26Zm0-33.43c-14 0-25.32 7.26-25.32 16.17s11.35 16.18 25.32 16.18 25.31-7.26 25.31-16.18-11.36-16.17-25.31-16.17Zm0 18.41c-3.45 0-7.11-1.13-7.11-3.21s3.66-3.21 7.11-3.21 7.1 1.12 7.1 3.21-3.66 3.21-7.1 3.21Zm0-5.35c-3.74 0-6 1.25-6 2.14s2.29 2.13 6 2.13 6-1.24 6-2.13-2.26-2.14-6-2.14Z"/><path class="cls-4" d="m90.86 377.71-.76-.77c.08-.07 8.14-7.86 18.57-3.89l-.38 1c-9.78-3.72-17.35 3.59-17.43 3.66ZM58.82 380.62l-.78-.74c7.76-8.12 19.63-2.14 19.75-2.08l-.5 1c-.11-.1-11.29-5.7-18.47 1.82ZM84.17 375.82l-1.07-.11c0-.08.84-8.08-2.11-11a3.68 3.68 0 0 0-3.23-1l-.14-1.07a4.73 4.73 0 0 1 4.12 1.36c3.33 3.23 2.47 11.47 2.43 11.82ZM87.93 396.09l-1.06-.18c1.7-10 .42-13-.5-13.86a1.2 1.2 0 0 0-1-.41l-.23-1.06a2.18 2.18 0 0 1 1.91.65c1.95 1.83 2.25 6.83.88 14.86Z"/></g></g></svg>