<svg xmlns="http://www.w3.org/2000/svg" data-name="Livello 1" viewBox="0 0 1600 1200"><path fill="#d3d3d3" d="M882,1087.13c11,6.34,28.91,6.35,39.88,0l324.87-187.37c11-6.32,11-16.66,0-23l-195-112.08c-11-6.31-28.93-6.28-39.89.07L688.42,952.1c-11,6.35-11,16.73,0,23.07Z"/><path fill="#cecece" d="M882,1073.47c11,6.34,28.91,6.35,39.88,0l324.87-187.37c11-6.32,11-16.66,0-23l-195-112.08c-11-6.31-28.93-6.28-39.89.07L688.42,938.44c-11,6.34-11,16.73,0,23.07Z"/><path fill="#49a59e" d="M680.21,919.36v30.95s-.2,6.31,7.66,10.87l197,113.74a44.19,44.19,0,0,0,36.07-.92l327.45-188.93s6.74-3.75,6.49-11.51V845.05Z"/><path fill="#76ddd3" d="M882,1043.12c11,6.34,28.91,6.35,39.88,0l324.87-187.37c11-6.33,11-16.67,0-23l-195-112.07c-11-6.31-28.93-6.28-39.89.07L688.42,908.08c-11,6.35-11,16.73,0,23.08Z"/><polygon fill="#bee9f4" points="1229.93 853.34 963.63 1007.74 748.98 884 1016.89 727.99 1229.93 853.34"/><path fill="#3b8985" d="M781.62,961.05h2.74a24.68,24.68,0,0,1,7.86-6.79c14-8.07,36.51-8.2,50.11-.29a22.75,22.75,0,0,1,7.83,7.08h2.24v7.56h0c-.15,5.2-3.65,10.4-10.49,14.38-13.82,8-36.37,8.17-50.1.28-7-4-10.35-9.32-10.17-14.66h0Z"/><path fill="#afafaf" d="M842.33,946.41c13.59,7.92,13.4,21-.43,29s-36.37,8.17-50.1.28-13.54-20.94.42-29S828.73,938.5,842.33,946.41Z"/><path fill="#76ddd3" d="M833,951.81c8.57,5,8.45,13.24-.27,18.31s-23,5.16-31.62.18-8.55-13.21.27-18.31S824.41,946.82,833,951.81Z"/><polygon fill="#d8d8d8" points="1231.05 875.36 1231.05 890.01 1205.01 905.19 1205.01 890.27 1231.05 875.36"/><polygon fill="#b7b7b7" points="1205.01 890.27 1201.74 888.25 1201.74 903.52 1205.01 905.19 1205.01 890.27"/><polygon fill="#56afa8" points="1231.05 875.36 1227.39 873.15 1201.74 888.25 1205.01 890.27 1231.05 875.36"/><path fill="#d3d3d3" d="M769.23,830.21c8.23,4.76,8.23,12.54,0,17.3L634.53,925.3c-8.23,4.76-21.71,4.76-29.95,0L351.23,779.13c-8.24-4.75-8.22-12.5,0-17.22l135.62-77.54c8.26-4.72,21.75-4.69,30,.07Z"/><polygon fill="#d8d8d8" points="1198.27 894.32 1198.27 908.98 1172.22 924.15 1172.22 909.24 1198.27 894.32"/><polygon fill="#b7b7b7" points="1172.22 909.24 1168.95 907.21 1168.95 922.49 1172.22 924.15 1172.22 909.24"/><polygon fill="#56afa8" points="1198.27 894.32 1194.6 892.11 1168.95 907.21 1172.22 909.24 1198.27 894.32"/><polygon fill="#d8d8d8" points="1151.73 920.31 1151.73 934.96 1125.68 950.14 1125.68 935.22 1151.73 920.31"/><polygon fill="#b7b7b7" points="1125.68 935.22 1122.41 933.2 1122.41 948.48 1125.68 950.14 1125.68 935.22"/><polygon fill="#56afa8" points="1151.73 920.31 1148.06 918.1 1122.41 933.2 1125.68 935.22 1151.73 920.31"/><path fill="#848484" d="M1091.37,756.11l5.86,3.16a31.58,31.58,0,0,1,11.16,4L1156,791l29.69,16v5.88l-.35-.19a2.09,2.09,0,0,1-.63.54c-2.63,1.54-9.77-.08-15.86-3.6L1098.56,769c-4.87-2.81-7.61-6-7.14-8Z"/><path fill="#afafaf" d="M1178.45,799c6.09,3.53,8.91,7.68,6.29,9.21s-9.77-.08-15.86-3.6L1098.56,764c-6.09-3.51-8.86-7.68-6.15-9.26s9.9,0,16,3.56Z"/><polygon fill="#d7f2f9" points="1045.61 744.88 875.35 956.84 748.98 884 1016.89 727.99 1045.61 744.88"/><path fill="#3b8985" d="M962.52,237.63,745.88,112.53c-7.65-4.42-14.7-5.41-20.29-3.5h0l-.05,0a15.91,15.91,0,0,0-4.41,2.37L683.55,131.6l29.65,69.33V524.59c0,20.76,14.69,46.25,32.64,56.66L918.75,681.5l22,51.51,44.75-23.78h0c6-3.39,9.67-10.71,9.67-21.13V294.23C995.2,273.48,980.49,248,962.52,237.63Z"/><path fill="#52b2af" d="M670.87,154.06c0-20.75,14.7-29.24,32.68-18.86L920.19,260.3c18,10.38,32.67,35.85,32.67,56.6V710.77c0,20.75-14.68,29.21-32.64,18.81L703.51,603.92c-18-10.41-32.64-35.9-32.64-56.65Z"/><polygon fill="#68d8d2" points="759.57 206.8 759.57 225.49 855.35 280.39 855.35 262.22 759.57 206.8"/><path fill="#68d8d2" d="M807.55,553.9c-20.68-11.73-37.6-1.86-37.6,22s16.92,53,37.6,64.94,37.6,2,37.6-21.95S828.23,565.64,807.55,553.9Z"/><path fill="#9aede6" d="M807.55,564.36C791.84,555.44,779,563,779,581s12.85,40.29,28.56,49.33,28.57,1.54,28.57-16.67S823.26,573.28,807.55,564.36Z"/><polygon fill="#8bd8cf" points="952.87 372.71 970.52 361.48 970.52 597.4 952.87 607.5 952.87 372.71"/><polygon fill="#c6f7f3" points="670.87 209.67 670.87 444.54 830.24 536.64 767.23 265.38 670.87 209.67"/><polygon fill="#aceae7" points="952.87 372.71 767.23 265.38 830.24 536.64 952.87 607.5 952.87 372.71"/><path fill="#428e8a" d="M746.17,628.66s17-7.88,17-27.28V398.62L670.48,296.25v73l57.15,248.88,4.85,3.23Z" opacity=".34"/><path fill="#0973d3" d="M738.05,398.62v207.6s-11.44,79.93-128.67,72.44L717,413.61Z"/><path fill="#1278ff" d="M613.16,307l-108.8-2.77V499.09s4.94,105.47,105,179.57C706.63,684.49,717,622.87,717,622.87V413.61Z"/><polygon fill="#0973d3" points="504.36 304.26 534.89 289.82 639.8 292.6 613.16 307.03 504.36 304.26"/><polygon fill="#096cb5" points="639.8 292.6 738.05 398.62 716.96 413.61 613.16 307.03 639.8 292.6"/><path fill="#76c4ff" d="M525,340.71V497.64s4,85,84.59,144.64a146.59,146.59,0,0,0,27.17-.7l-76.57-300Z"/><path fill="#5fb3ff" d="M612.67,342.94l-52.44-1.33,76.57,300c53.19-6.68,59.48-44.23,59.48-44.23V428.79Z"/><path fill="#116ed3" d="M1074.22,479.58V557L853.82,429.24V353.1Z"/><polygon fill="#1278ff" points="831.51 366.05 831.51 442.19 1051.91 569.91 1051.91 492.53 831.51 366.05"/><polygon fill="#7bc0ff" points="861.91 394.18 861.91 449.31 1021.5 541.79 1021.5 485.76 861.91 394.18"/><polygon fill="#d4edff" points="868.91 419.98 868.91 431.41 902 450.59 902 438.97 868.91 419.98"/><polygon fill="#d4edff" points="906.24 441.75 906.24 453.18 939.33 472.36 939.33 460.74 906.24 441.75"/><polygon fill="#d4edff" points="944.09 463.6 944.09 475.04 977.18 494.21 977.18 482.59 944.09 463.6"/><polygon fill="#d4edff" points="981.42 485.37 981.42 496.81 1014.51 515.98 1014.51 504.36 981.42 485.37"/><polygon fill="#116ed3" points="1051.91 569.91 1074.22 556.96 1074.22 479.58 1051.91 492.53 1051.91 569.91"/><polygon fill="#136dbf" points="831.51 366.05 853.82 353.1 1074.22 479.58 1051.91 492.53 831.51 366.05"/><polygon fill="#428e8a" points="861.91 357.75 861.91 347.19 952.87 398.62 952.87 409.94 861.91 357.75" opacity=".34"/><path fill="#c65a0a" d="M345.07,759.89a2.81,2.81,0,0,1,0-.41V747.74l5.9,3.51.29-.17,135.62-77.54c8.26-4.72,21.75-4.69,30,.07L769.23,819.38a17.05,17.05,0,0,1,2.6,1.83l3.57-5V828c0,3.13-2.06,6.27-6.17,8.64l-134.7,77.8c-8.23,4.76-21.71,4.76-29.95,0L351.23,768.3c-3.93-2.27-6-5.21-6.15-8.18h0Z"/><path fill="#ff831c" d="M769.23,807.2c8.23,4.75,8.23,12.54,0,17.29l-134.7,77.8c-8.23,4.76-21.71,4.76-29.95,0L351.23,756.12c-8.24-4.76-8.22-12.51,0-17.23l135.62-77.53c8.26-4.72,21.75-4.69,30,.07Z"/><polygon fill="#e5e5e5" points="742.81 811.92 729.71 819.51 636.19 765.55 648.77 757.69 742.81 811.92"/><polygon fill="#e5e5e5" points="720.54 824.49 707.45 832.09 613.93 778.12 626.5 770.27 720.54 824.49"/><polygon fill="#e5e5e5" points="632.72 858.33 629.07 860.44 603.01 845.4 606.51 843.21 632.72 858.33"/><polygon fill="#e5e5e5" points="626.52 861.83 622.87 863.95 596.8 848.91 600.31 846.72 626.52 861.83"/><polygon fill="#e5e5e5" points="620.21 865.38 616.56 867.5 590.5 852.46 594 850.27 620.21 865.38"/><polygon fill="#e5e5e5" points="614.01 868.89 610.36 871.01 584.3 855.97 587.8 853.78 614.01 868.89"/><polygon fill="#d5e200" points="507.31 782.52 497.33 788.31 426.1 747.21 435.68 741.22 507.31 782.52"/><polygon fill="#d5e200" points="489.76 793.79 479.78 799.57 408.55 758.47 418.13 752.49 489.76 793.79"/><polygon fill="#e5e5e5" points="680.2 848.57 675.2 851.47 639.51 830.88 644.31 827.88 680.2 848.57"/><polygon fill="#e5e5e5" points="640.01 825.53 635.01 828.42 599.31 807.83 604.11 804.83 640.01 825.53"/><polygon fill="#e5e5e5" points="600.14 802.67 595.14 805.57 559.45 784.97 564.25 781.97 600.14 802.67"/><polygon fill="#e5e5e5" points="559.95 779.62 554.95 782.52 519.26 761.93 524.05 758.93 559.95 779.62"/><polygon fill="#e5e5e5" points="519.26 756.3 514.26 759.2 478.56 738.6 483.36 735.61 519.26 756.3"/><polygon fill="#e5e5e5" points="479.06 733.25 474.06 736.15 438.37 715.56 443.17 712.56 479.06 733.25"/><polygon fill="#eae01c" points="551.32 701.93 533.48 712.56 515.34 701.93 533.33 691.81 551.32 701.93"/><polygon fill="#eae01c" points="529.58 689.23 511.73 699.85 493.59 689.23 511.58 679.11 529.58 689.23"/><polygon fill="#eae01c" points="529.71 714.64 511.87 725.26 493.72 714.64 511.71 704.51 529.71 714.64"/><polygon fill="#eae01c" points="507.96 701.93 490.12 712.56 471.98 701.93 489.97 691.81 507.96 701.93"/><polygon fill="#f4f4f4" points="590.5 894.17 667.23 748.28 636.19 730.35 556.91 874.79 590.5 894.17" opacity=".21"/><polygon fill="#f4f4f4" points="537.88 863.76 614.61 717.87 599.59 709.63 520.31 854.07 537.88 863.76" opacity=".21"/><polygon fill="#0c6eaa" points="1100.61 651.67 1100.61 841.14 837.91 689.67 837.91 500.76 1100.61 651.67"/><polygon fill="#0f6ed6" points="1091.85 657.63 1091.85 847.11 829.15 695.64 829.15 506.72 1091.85 657.63"/><polygon fill="#0b5faa" points="1091.85 847.11 1100.61 841.14 1100.61 651.67 1091.85 657.63 1091.85 847.11"/><polygon fill="#0c6eaa" points="837.91 500.76 829.15 506.72 843.17 514.77 837.91 500.76"/><polygon fill="#0e63af" points="829.15 545.47 1091.85 692.66 1091.85 728.05 829.15 580.5 829.15 545.47"/><polygon fill="#0d578e" points="843.17 620.65 932.42 670.65 932.42 676.73 843.17 626.6 843.17 620.65"/><polygon fill="#0d578e" points="843.17 630.72 932.42 680.72 932.42 686.79 843.17 636.66 843.17 630.72"/><polygon fill="#0d578e" points="843.17 640.78 932.42 690.78 932.42 696.85 843.17 646.73 843.17 640.78"/><polygon fill="#0d578e" points="843.17 650.84 932.42 700.84 932.42 706.91 843.17 656.79 843.17 650.84"/><polygon fill="#1c9af9" points="1064.84 762.46 1064.84 805 1009.8 773.49 1009.8 730.75 1064.84 762.46"/><polygon fill="#248eed" points="955.54 579.33 986.74 786.5 829.15 695.64 829.15 506.72 955.54 579.33" opacity=".29"/><polygon fill="#428e8a" points="846.29 505.57 846.29 494.21 952.87 554.75 952.87 566.79 846.29 505.57" opacity=".34"/><polygon fill="#428e8a" points="1091.85 866.36 1105.38 857.12 940.67 762.11 925.77 770.6 1091.85 866.36" opacity=".34"/></svg>