<svg xmlns="http://www.w3.org/2000/svg" id="Layer_1" x="0" y="0" enable-background="new 0 0 2950 2950" version="1.1" viewBox="0 0 2950 2950" xml:space="preserve"><g><g><path fill="#fcd600" d="M276.8,1547.3C121,1550.3-3,1679.1,0.1,1834.9c3,155.9,131.8,279.8,287.7,276.8
			c156.3-3,280.3-131.8,276.8-287.7C560.9,1668.2,432.7,1544.2,276.8,1547.3z M286.7,2058c-126.2,2.4-230.5-97.9-232.9-224.1
			c-2.4-126.2,97.9-230.5,224.1-232.9c126.2-2.4,230.5,97.9,232.9,224.1C513.2,1951.2,412.9,2055.5,286.7,2058z"/><path fill="#ee9b20" d="M451.1,1675.5c-41.1-35.2-94.7-56.1-153.1-54.9C171.8,1623,71.5,1727.3,74,1853.5
			c1.1,57.7,23.5,110,59.6,149.6c-47.8-40.9-78.5-101.3-79.8-169.1c-2.4-126.2,97.9-230.5,224.1-232.9
			C346.3,1599.7,408.3,1628.6,451.1,1675.5z"/><path fill="#fdbe10" d="M510.8,1825.1c2.4,126.2-97.9,230.5-224.1,232.9c-58.4,1.1-112-19.7-153.1-54.9
			c-36.1-39.5-58.5-91.9-59.6-149.6c-2.4-126.2,97.9-230.5,224.1-232.9c58.4-1.1,112,19.7,153.1,54.9
			C487.2,1715,509.7,1767.3,510.8,1825.1z"/><path fill="#ee9b20" d="M306.8,1817.9l-2.6-1c-11.2-4.3-19.5-8.1-25.9-11.9c-14.7-8.5-20.4-17.1-20.4-30.6c0-4.5,1.4-19.8,19.4-27.1
			c6-2.5,13.2-3.7,21.4-3.7c1.7,0,3.3,0,4.8,0.1c18.1,0.9,32,6.6,40.4,11.2l8.2,4.4l14.2-42.1l-5.6-3.2c-7.7-4.3-23.7-11.5-49-13.2
			v-23.2c0-5-4.1-9.1-9.1-9.1h-27c-5,0-9.1,4.1-9.1,9.1v27.5c-35.4,10.6-57.9,38.8-57.9,73.2c0,34.1,20.5,59.1,62.8,76.4
			c3.3,1.4,6.9,2.7,10.5,4c7.2,2.8,13.2,5.5,18.4,8.2c18.1,9.6,25.1,19.7,25.1,35.8c0,15.7-8.5,27.3-24,32.8
			c-6.4,2.3-13.9,3.4-22.1,3.4c-1.5,0-3,0-4.5-0.1c-17.7-0.8-36.4-6.5-51.1-15.6l-8.6-5.3l-13,43.2l4.8,3.2
			c13.4,9,37.2,15.8,59.8,17.4v19.3c0,5,4.1,9.1,9.1,9.1h27c5,0,9.1-4.1,9.1-9.1v-23.1c39.2-10.3,63.3-39.7,63.3-77.9
			C375,1861.5,354.6,1836.9,306.8,1817.9z"/><path fill="#fcd600" d="M299.8,1809.8l-2.6-1c-11.2-4.3-19.5-8.1-25.9-11.9c-14.7-8.5-20.4-17.1-20.4-30.6c0-4.5,1.4-19.8,19.4-27.1
			c6-2.5,13.2-3.7,21.4-3.7c1.7,0,3.3,0,4.8,0.1c18.1,0.9,32,6.6,40.4,11.2l8.2,4.4l14.2-42.1l-5.6-3.2c-7.7-4.3-23.7-11.5-49-13.2
			v-23.2c0-5-4.1-9.1-9.1-9.1h-27.1c-5,0-9.1,4.1-9.1,9.1v27.5c-35.4,10.6-58,38.8-58,73.2c0,34.1,20.5,59.1,62.8,76.4
			c3.3,1.4,6.9,2.7,10.5,4c7.2,2.8,13.2,5.5,18.4,8.2c18.1,9.7,25.1,19.7,25.1,35.8c0,15.7-8.5,27.3-24,32.8
			c-6.4,2.3-13.9,3.4-22.1,3.4c-1.5,0-3,0-4.5-0.1c-17.7-0.8-36.4-6.5-51.2-15.6l-8.6-5.3l-13,43.2l4.8,3.2
			c13.4,9,37.2,15.8,59.8,17.4v19.3c0,5,4.1,9.1,9.1,9.1h27.1c5,0,9.1-4.1,9.1-9.1v-23.1c39.2-10.3,63.3-39.7,63.3-77.9
			C368,1853.4,347.6,1828.8,299.8,1809.8z"/></g><g><path fill="#2685db" d="M1729.3,2404.8c-129.6,69.9-268.8,103.3-406.3,103.4c-24,0.1-47.7-0.9-71.8-3.3
			c-282.5-22.2-548.6-184.4-692.8-453.9c-14.1-26.1-26.7-52.9-37.8-79.8l-0.2-0.3c-91.3-221.5-84.1-463.5,4.8-671.9
			c8.8-21.4,19-42.7,29.9-63.1l6.8-12.8c24.2-44.7,52.5-87,84.1-126.9c28.4-35.3,59.7-68.7,93.9-99.3
			c50.8-46.1,107.8-86.8,170.5-120.5c6.9-3.7,14-7.4,21-10.9v-0.1c1.3-0.6,2.7-1.3,3.9-1.9c119-59.3,245.3-88.5,370.4-90.4
			c4.7-0.1,9.4-0.1,14.2-0.1c5.1,0,10.2,0,15.2,0.1c38.1,0.7,76,4.1,113.6,9.7c12,1.8,24,3.8,35.9,6.2c4.9,1,9.7,1.9,14.6,3
			c4.5,1,8.9,1.9,13.4,2.9c5.5,1.3,11.1,2.7,16.6,4.1c4.3,1.1,8.5,2.1,12.7,3.3c5,1.3,9.9,2.6,14.8,4.1c4,1.1,8.1,2.2,12.1,3.5
			c5.2,1.5,10.4,3.2,15.6,4.8c3.9,1.3,7.9,2.6,11.8,4c1.1,0.3,2.2,0.6,3.3,1.1c4.6,1.5,9.2,3.1,13.6,4.8c1,0.3,1.8,0.6,2.8,1
			c4.8,1.7,9.5,3.5,14.2,5.3c7.3,2.8,14.6,5.8,21.9,8.8c4.5,1.8,8.8,3.7,13.3,5.7c6.1,2.7,12.2,5.4,18.3,8.2c7,3.2,13.8,6.6,20.8,10
			c1.3,0.6,2.7,1.3,3.9,1.9c1.5,0.7,3,1.5,4.4,2.2c4.9,2.5,9.7,5,14.5,7.6c1.5,0.7,2.9,1.5,4.4,2.4c6.4,3.4,12.9,7.1,19.2,10.7
			c6.1,3.4,12,7.1,18,10.7c16.9,10.3,33.4,21,49.6,32.6c4,2.8,8,5.7,11.9,8.5c8.1,5.9,16.2,12,24.1,18.3c3.9,3.1,7.9,6.2,11.7,9.5
			c2.9,2.2,5.6,4.6,8.4,6.9c6.8,5.7,13.5,11.4,20.1,17.4c9.5,8.3,18.7,17,27.8,26c2,1.8,4,3.8,6,5.9c4.5,4.4,8.8,8.8,13.1,13.2
			c4.3,4.4,8.4,8.8,12.6,13.4c4,4.4,8.2,9,12.1,13.5c4.2,4.6,8.1,9.3,12.1,14c9.8,11.6,19.3,23.5,28.5,35.7c0.2,0.3,0.2,0.3,0.2,0.3
			c27.5,35.9,52.3,74.5,74.4,115.8C2307.8,1651.8,2150.2,2177.9,1729.3,2404.8z"/><path fill="#41bb96" d="M2093.6,1956.1c11.4,36.6-82,119.9-98.9,99.9c-16.4-19.9-70.5-79.7-99.7-111.8
			c-28.9-32.3-67.4-83.3-73.5-127.9c-5.7-44.8-31.6-62.8-66.5-93.2c-35-29.7-55.9-79.6-42.2-95.7c13.5-16.5-82.5,12.9-82.5,12.9
			s-48.6,48.6-65.3,75.5c-17,27-94.9-7.1-102.6-10.4c-7.9-3.2-86.2-65.8-107.9-87c-21.8-21.5-12.4-59.4-23.7-111.5
			c-11.8-52.2,26.2-98.1,28.4-116.4c2.1-18.6,14.7-73.2,30.1-86.1c15.7-12.6,72.8-45.1,98.2-55.9c25.7-10.9,56.2,1.3,65.4,2.2
			c9.7,1,17.3,4.4,22.3-19.6c5.5-23.7,100.2-19.4,130-28.1c29.5-8.4,22.9-60.2,16-73.1c-6.7-12.5-38.7,6-50.3,12.2
			c-11.6,6.2-47.3-1.6-76.3-17.1c-29.3-15.8-16.5,16.3-11.6,28.7c5.2,12.1-2,29.4-2,29.4s-56.7-19-69.7-35.7
			c-13.6-16.8-42.4-11.6-42.4-11.6s18.6,34.8,31.7,56.1c12.9,21.7-19.8,4.8-49.2-13.8c-29.5-18.7-66.7,18-66.7,18s-12.9,56.5-8.7,75
			c4,19.1-46.1,37-87.8,20.3c-41.4-16.2-12.8-34.6,19.9-46.5c32.6-11.8,26-38.1-14.4-71.7c-40.4-33.5,28.2-33.1,10.7-85.2
			c-17-51.9,39.5-30,17.5-51c-21.8-21.5,10.3-14.7,25-15.2c14.7-0.4,24.7-1.2,60-15.7c35.6-15,27.3-35.9,27.9-54.1
			c0.1-3.7,1-7.8,2.2-11.8c5-15.6,16.5-31.3,16.5-31.3s-80-15.5-87.2-12.8c-4.5,1.5,3.4,24,13.4,47.1c7.6,17.5,16.4,35.3,21.9,44.4
			c13.2,21.6-32.9,2.8-58.8-17.7c-25.8-20.2-45.5,9.5-68.1,3.8c-18-4.6-3.9-11.3,11.2-29.9c3.9-4.8,7.9-10.4,11.5-16.9
			c17.4-31.7,17.9-50,55-92.3c37-42.4,96.9-41.9,96.9-41.9s-0.6-4.3-0.6-10.5c12,1.8,24,3.8,35.9,6.2c4.9,1,9.7,1.9,14.6,3
			c4.5,1,8.9,1.9,13.4,2.9c5.5,1.3,11.1,2.7,16.6,4.1c4.3,1.1,8.5,2.1,12.7,3.3c5,1.3,9.9,2.6,14.8,4.1c4,1.1,8.1,2.2,12.1,3.5
			c5.2,1.5,10.4,3.2,15.6,4.8c3.9,1.3,7.9,2.6,11.8,4c1.1,0.3,2.2,0.6,3.3,1.1c4.6,1.5,9.2,3.1,13.6,4.8c1,0.3,1.8,0.6,2.8,1
			c4.8,1.7,9.5,3.5,14.2,5.3c7.3,2.8,14.6,5.8,21.9,8.8c4.5,1.8,8.8,3.7,13.3,5.7c6.1,2.7,12.2,5.4,18.3,8.2
			c8.3,3.8,16.5,7.9,24.7,12c1.5,0.7,3,1.5,4.4,2.2c4.9,2.5,9.7,5,14.5,7.6c1.5,0.7,2.9,1.5,4.4,2.4c6.4,3.4,12.9,7.1,19.2,10.7
			c6.1,3.4,12,7.1,18,10.7c16.9,10.3,33.4,21,49.6,32.6c4,2.8,8,5.7,11.9,8.5c8.1,5.9,16.2,12,24.1,18.3c3.9,3.1,7.9,6.2,11.7,9.5
			c2.9,2.2,5.6,4.6,8.4,6.9c6.8,5.7,13.5,11.4,20.1,17.4c9.5,8.3,18.7,17,27.8,26c2,1.8,4,3.8,6,5.9c4.5,4.4,8.8,8.8,13.1,13.2
			c4.3,4.4,8.4,8.8,12.6,13.4c4,4.4,8.2,9,12.1,13.5c4.2,4.6,8.1,9.3,12.1,14c9.8,11.6,19.3,23.5,28.5,35.7c0.2,0.3,0.2,0.3,0.2,0.3
			c2.9,10,4,16.1,3.6,17.6c-2.5,10.9-22.2,3.5-33.3-3.3c-11.1-6.8-39.1,6.5-47.8,6.6c-8.9,0.3-27-11.1-36.4,4
			c-9.4,15,22.7,33,37.5,37.5c14.9,4.5,31.4-6.5,49.7-19.3c18.7-13,22,14,44.8,47.3c22.7,33.1-45.9,127.9-66.8,143.7
			c-20.7,15.7-49.1-28.8-64.4-50.5c-15.3-21.6-29.9-8.8-51.2-32.2c-21.7-23.6-46.9-49.6-74.1-61.9c-27.7-12.2-34.6,34.4-19.7,58.3
			c15.2,23.8,32,19.4,56.1,26.7c24.1,7.1,38.4,33.8,54.3,45.6c15.9,11.8,52,45.1,59.6,44.8c8-0.5,93.4-40,93.4-40
			s2.2,134.3,13.2,156.2c10.8,22.5,23.5,135.4,56.9,179c33.4,43.9-14.2,79.5-12.9,88.8C2070.7,1772.5,2081.8,1919.2,2093.6,1956.1z"/><path fill="#41ba95" d="M812.7,1066.4c0,0-37.1-1.5-43.1-18.2c-6-16.7,52.2-51.1,54.7-59.4c2.5-8.3,155.3-116.7,182.1-113.1
			c26.8,3.5,60.4,66.2,27.1,108.1c-33.3,41.9-98.6,100.1-97.8,140.5c0.8,40.5-16.1,69.6-44.3,49.8c-28.2-19.7-50.8-28.5-47.4-61.3
			C847.4,1080.1,812.7,1066.4,812.7,1066.4z"/><path fill="#41ba95" d="M634.4,1276.7c0,0-18.5-118,87.1-123.4c105.5-5.4,59.3,36.5,34.3,40C730.8,1196.8,656.3,1169.1,634.4,1276.7
			z"/><path fill="#41ba95" d="M1356.3,1972.3c-1.3,45.6-1.7,92.8,26.5,119.2c28.4,26.7,36.4,76.4,23.4,89.3
			c-12.8,13.2-52.8,55.5-52.8,55.5s57.7,86.1,37,119.3c-21.1,33.4-57.6,51-40.5,62.2c17.5,11-15.1,70.1-16.8,72.3
			c-0.5,0.7-4.5,7.8-10.1,18.3c-24,0.1-47.7-0.9-71.8-3.3l-11.2-31l-109.6-192.9c0,0-149.5,10.3-175.1-37.4
			c-25.6-47.7-68.3-144.5-63.3-193.3c5.1-49.3-37.5-14.3-80.5-16.5c-42.7-2.3-69.1-26.8-83.5-24.4c-14.5,2.4-72.6,18.4-99.3,10.3
			c-10.9-3.3-55-22.3-108.1-48.6l-0.2-0.3c-91.3-221.5-84.2-463.5,4.8-672c16.1-1.6,31.1-4.7,36.3-10.4c7.6-8.3-1.2-34.7-6.3-52.7
			l6.8-12.8c1.2,0.6,2,1.4,3,2.5c32.7,30.2,41.4,23.8,20.3,113c-20.7,88.9,23.9,47,46.7,64.7c22.7,17.7,61.3,67.2,62.4,39.9
			c1-27.6-23.8-13.4-20-37.4c3.9-23.7,13.5-73.8,12.3-98.5c-1.5-24.5,16.3-39.2,36.7-24.4c20.5,14.3,50.8-0.4,74.5,22.2
			c23.8,22.1,103.8,15.1,77.6,33.4c-25.8,18.5-56.9,49.4-74.4,56.8c-17.9,7.6-48.9,31.8-19.2,29.9c29.7-1.9,65.1-7.7,41.1,26.5
			c-24.5,34-52.2,31-44.2,51.3c8.1,20.6,7.7,28.3-21.9,65c-29.5,37.1,18.2,48-3.9,77.8c-21.8,29.6-53.9,45.7-38.7,77.8
			c15.2,32.2,25.2,62.5,25.2,62.5s-71.6-34.6-102.7,27.9c-31.5,62.7-41.5,89.7-26.2,108.9c15.8,19.4,45.8,35.2,61.2,19
			c14.9-16.3,10-82.7,37.4-55.5c27.1,27.4,3.8,68.2,15.9,69.2c12.4,0.8,40.4-32.2,57-6.6c16.6,25.6,49.2,62.4,73.4,36.5
			c24.4-25.6,24-84.4,57.3-74.1c33,10.5,44.9,22.8,58.3,6c13.4-16.8,24.8-40.4,41.9-29.3c17,10.8,42.2,34.6,64.9,33.6
			c22.7-1,28.9-33.5,53.5-8.5c24.6,25,39.1,36.7,76.5,28.2C1245.1,1933.3,1357.2,1926.9,1356.3,1972.3z"/><path fill="#41ba95" d="M740.1,996.9c5.5,36.5-44.9,115.7-68.7,135.6c-12.3,10.4-20.2-10.7-25.2-36.3
			C674.5,1060.9,705.9,1027.4,740.1,996.9z"/><path fill="#41ba95" d="M712.5,1239.6c0,0,2.6-32.3,37.4-20.2C784.8,1231.6,711.4,1261.7,712.5,1239.6z"/><path fill="#41ba95" d="M1080.9,1056.5c0,0-1.6-40.1,23.1-42.4C1128.6,1011.8,1108.9,1067.8,1080.9,1056.5z"/></g><g><polygon fill="#fdbe10" points="327.8 1263 302.1 1229.8 706.1 913.6 734.3 950"/><path fill="#fdbe10" d="M445,1003.3c-111.2,87.8-163.7,204-117.2,259.7c46.5,55.7,174.4,29.6,285.5-58.1
			c111.2-87.8,163.6-204,117.1-259.7C684,889.5,556.2,915.6,445,1003.3z"/><g><path fill="#fcd600" d="M419.3,970.1c-111.2,87.8-163.7,204-117.2,259.7c46.5,55.7,174.4,29.6,285.5-58.1
				c111.2-87.8,163.6-204,117.2-259.7C658.3,856.3,530.5,882.4,419.3,970.1z M571.7,1152.5c-90,71.1-193.5,92.1-231.2,47.1
				c-37.6-45.1,4.8-139.2,94.8-210.2c90-71.1,193.5-92.1,231.2-47.1C704.2,987.3,661.7,1081.4,571.7,1152.5z"/><path fill="#ee9b20" d="M581.1,920.4c-39.6,9.9-84.1,32.1-125.7,64.9c-90,71.1-132.5,165.2-94.8,210.2
				c17.2,20.6,48.2,27.4,85.4,21.9c-46,11.5-85.2,6.4-105.5-17.8c-37.6-45.1,4.8-139.2,94.8-210.2
				C484.2,950.8,537,926.9,581.1,920.4z"/><path fill="#fdbe10" d="M666.5,942.2c37.7,45.1-4.8,139.2-94.8,210.3c-41.6,32.9-86.2,55-125.7,64.9c-37.2,5.5-68.2-1.3-85.4-21.9
				c-37.7-45.1,4.8-139.2,94.8-210.2c41.6-32.9,86.2-55,125.7-64.9C618.3,914.9,649.3,921.6,666.5,942.2z"/><path fill="#ee9b20" d="M517.8,1053l-2.2,1.1c-9.3,4.6-16.3,7.8-22,10c-13,5-19.5,5-23.4,0.1c-1.3-1.7-4.6-8,6.2-20.8
				c3.6-4.3,8.5-8.7,14.3-13.3c1.2-0.9,2.4-1.8,3.5-2.7c13.3-9.7,24.9-15.4,32.2-18.4l7.1-2.9l-1.7-23.4l-4.9,1.9
				c-6.7,2.7-20.3,9-39,22.4l-6.6-8.5c-1.4-1.8-5.5-1.1-9.1,1.7l-19.4,15c-3.6,2.8-5.4,6.5-3.9,8.4l7.8,10.1
				c-22.4,23.6-30.6,46.5-20.8,59.1c9.7,12.5,31.6,10.3,66.9-6.8c2.8-1.3,5.7-2.8,8.7-4.4c6-3,11.1-5.3,15.6-7.2
				c15.7-6.5,23.6-6.7,28.2-0.8c4.5,5.8,1.6,14.8-7.9,25.4c-4,4.4-9,9-15,13.6c-1.1,0.8-2.1,1.6-3.3,2.5c-13,9.6-28,17.8-41.2,22.7
				l-7.7,2.8l2.9,23.1l4.4-1.5c12.2-4.2,31.2-14.9,48-26.9l5.5,7.1c1.4,1.8,5.5,1.1,9.1-1.7l19.4-15c3.6-2.8,5.4-6.5,3.9-8.4
				l-6.6-8.5c25.3-25.6,34.2-49.8,23.3-63.8C579.2,1031.1,557.6,1033.4,517.8,1053z"/><path fill="#fcd600" d="M510.5,1053.9l-2.2,1.1c-9.3,4.6-16.3,7.8-22,10c-13,5-19.5,5-23.4,0.1c-1.3-1.7-4.6-8,6.2-20.8
				c3.6-4.3,8.4-8.7,14.3-13.3c1.2-0.9,2.4-1.8,3.5-2.6c13.3-9.7,24.9-15.4,32.2-18.4l7.1-2.9l-1.7-23.4l-4.9,1.9
				c-6.7,2.7-20.3,9-39,22.4l-6.6-8.5c-1.4-1.8-5.5-1.1-9.1,1.7l-19.4,15c-3.6,2.8-5.4,6.5-3.9,8.4l7.8,10.1
				c-22.4,23.6-30.6,46.5-20.8,59.1c9.7,12.5,31.6,10.3,66.9-6.8c2.8-1.3,5.7-2.8,8.7-4.4c6-3,11.1-5.3,15.6-7.2
				c15.7-6.5,23.6-6.7,28.2-0.8c4.5,5.8,1.6,14.8-7.9,25.4c-4,4.4-9,9-15,13.6c-1.1,0.8-2.1,1.6-3.2,2.4c-13,9.6-28,17.8-41.2,22.7
				l-7.7,2.9l2.9,23.1l4.4-1.5c12.2-4.2,31.2-14.9,48-26.9l5.5,7.1c1.4,1.8,5.5,1.1,9.1-1.7l19.5-15c3.6-2.8,5.4-6.5,3.9-8.4
				l-6.6-8.5c25.3-25.6,34.2-49.8,23.3-63.8C571.9,1032,550.3,1034.4,510.5,1053.9z"/></g></g><g><g><g><g><g><g><polygon fill="#f4c999" points="2715.1 2416.6 2714.7 2463.9 2752.1 2464.9 2753 2419.5"/></g></g><g><g><polygon fill="#f4c999" points="2889.2 2416.6 2889.5 2463.9 2852.2 2464.9 2851.2 2419.5"/></g></g><path fill="#e53a48" d="M2949.7,1848.5c-1.6,12.7-9.1,24.8-20.4,32.5l-29.9,20.5c-2.1-3.3-3.6-7-4.5-11.1l-6.6-28.9l-3-16
						l-1.9-10.3l-6.4-33.8l8.2-18c6.8-27.1,14-53.2,28.4-61.5c0,0,8.5,25,17.7,58.8l0.3,1.2c5.4,20.7,10.9,44.5,14.8,67.8
						L2949.7,1848.5z"/><g><path fill="#f4c999" d="M2551.8,1817.8c-0.4,0.2-12.4-7.5-12.4-7.5s-37.7-32.8-42.2-35.6c0,0-4.2,2.9-0.3,8.7
							c3.8,5.7,10.8,12.6,10.8,12.6s-4.4,5.3-12.1,5.1c-7.6-0.1-11.9-1.8-11.9-1.8s-14.6-12.3-18.2-12.7c-3.6-0.4-4.1,3.2-4.1,3.2
							s-7.3-0.3-6,4.2c1.3,4.5,3.5,7.7,6.3,9.8c2.8,2.1,27.3,20,29.9,20.9c2.6,0.9,33.2,10.4,33.2,10.4l11.9,5.7L2551.8,1817.8z"/><path fill="#e53a48" d="M2714.5,1861.5l11.3-60.1l-36.7-79.5c0,0-22.5,65.5-32.8,127.8l-121.4-44.6l-14.6,32.4l133.8,76.4
							c21.3,12.3,48.3,0.5,53.7-23.5L2714.5,1861.5z"/></g><polygon fill="#353434" points="2885.8 1999 2895.2 2430.6 2844.2 2430.6 2801.4 2077.3 2761.4 2430.6 2707.5 2430.6 2713.1 1999"/><path fill="#e53a48" d="M2913.7,1721.9L2913.7,1721.9c-68.9-42.1-155.7-42.1-224.6,0l0,0c0,0,34,74.1,26.1,139.6
						c-7.9,65.6-11.5,147.5-11.5,147.5h189.4c0,0-8.8-154.8-2.4-208.5C2897,1746.8,2913.7,1721.9,2913.7,1721.9z"/><g><g><path fill="#c3c3c3" d="M2734.3,1944.3l62.7,1.1l66.5,1.2c0,0,0,0,0,0c-0.1,4.9-5.7,8.8-12.5,8.7l-66.5-1.2l-38-0.7
								c-0.1,0-0.1,0-0.2,0c0,0,0,0,0,0l-105.8-1.8c-6.7-0.2-12-4.3-11.9-9.1L2734.3,1944.3z"/></g><path fill="#c3c3c3" d="M2638.6,1951l118.1,2.1c2,0,3.7-1.3,3.7-2.9c0-0.3-0.1-0.6-0.2-0.9l-50.4-121.3c-1.3-3.5-5.2-5.9-9.7-6
							l-118.1-2.1c-2,0-3.6,1.2-3.7,2.8c0,0.3,0.1,0.7,0.2,1l50.4,121.3C2630.2,1948.5,2634.1,1950.9,2638.6,1951z"/><path fill="#e4e4e4" d="M2651.8,1885.2c2.5,5.8,7.6,9.9,11.4,9.1c3.9-0.7,5-6,2.6-11.8c-2.4-5.8-7.5-9.8-11.4-9.1
							C2650.6,1874.2,2649.3,1879.3,2651.8,1885.2z"/><g opacity=".3"><line x1="2760.5" x2="2758.3" y1="1944.7" y2="1944.7" fill="none" stroke="#000" stroke-linecap="round" stroke-linejoin="round" stroke-width="0"/><path fill="#edf1ef" d="M2709.8,1827.9l48.5,116.8l-5.5-0.1l-52.7-122.6C2704.6,1822,2708.5,1824.5,2709.8,1827.9z"/></g></g><path fill="#f4c999" d="M2746.9,1961.6c3.5,4.9,25.5,18.4,41.7,12.4c18.3-6.9,31.2-16.4,42.8-31.6c1.3-1.7,11.8-16.8,11.8-16.8
						l-23.6-27.9c0,0-12.9,17.7-16.4,19.5l-35.3,18.5c-2.3,1.5-3,4.6-1.5,7c0.6,1,1.6,1.7,2.6,2c0.9,0.3,2,0.4,3,0
						c0.1,0,0.1,0,0.1,0l17.4-5.6c2.3-0.8,4.7,1.4,3.9,3.8c-0.2,0.5-0.3,0.9-0.5,1.4c-2.5,6.3-23.1,2.6-44,10.3
						C2746.2,1955.6,2745.2,1959.1,2746.9,1961.6z"/><path fill="#e53a48" d="M2949.7,1848.5c-1.6,12.7-9.1,24.8-20.4,32.5l-29.9,20.5l-65.1,44.6l-32.9-34.9l84-65.7l1.2-1l-3.1-9.3
						l-15.9-46.1l17.7-5.7l42.5-13.5l3.6,10.8l0.3,1.2l16.3,48.9c0,0.1,0.2,0.3,0.2,0.4C2949.9,1837,2950.3,1842.8,2949.7,1848.5z"/><g><path fill="#f4c999" d="M2779.3,1694c-0.6-3.8-1-6.5-1-6.5s-18.8-1.4-20.7-2.1c-3.7-1.4-10.1-12.9-11.6-27.1
							c-1.5-14.2-1.3-28.7-1.2-34.7c0.1-6,0.5-30.2,22.2-40.3c21.8-10.2,51.7-0.6,60.7,21.1c9,21.7,6.7,39,2.8,46
							c-3.8,7-6.5,19-6.7,23.7c-0.1,1.8,0.4,7.6,1.1,14c1.2,12-7,22.9-18.8,25l0,0C2793.4,1715.3,2781.4,1706.7,2779.3,1694z"/><path fill="#323131" d="M2817.4,1631.4c-1.6,2.6-3.5,8.6-3.5,8.6c-3.8-3.9-10-30.8-7-38.1c-1.2,5-40.9-0.4-51.2-2.6
							c-2.1-0.5-4.9,0.5-6.1,2.8c-1.2,2.5-4,14.3-4.6,17.4c-0.7-4.4-0.7-8.6-1-13c-0.3-4.1-14.2-19.2-8.9-27.4
							c7.7-11.9,56.6-8.4,62.6-7.5c6.5,1,27.1,7.8,29,16.9c7.5,3.4,12.8,7.7,12.6,21.7c-0.1,6.8-0.5,13.6-0.8,20.3
							c-0.3,6.7-2.3,12.5-4.3,18.9c-1.7,5.5-3.8,10.8-5.6,16.2c-0.3,1-2.9,8.8-4.7,8.3c-0.3-0.1-2.7-6.8-3.3-8.5
							c-0.9-2.7-0.9-5.5-1.1-8.4c-0.1-1.1-0.3-2.3,0.1-3.3c0.7-1.6,2.6-1.4,4-1.9c4.5-1.4,6.6-6,7-10.3c0.5-4.7,0-10.8-5.2-12.6
							c-2.7-0.9-6.1-0.1-7.8,2.2C2817.5,1631.1,2817.4,1631.3,2817.4,1631.4z"/></g><path fill="#df2242" d="M2834.4,1944.7c-10.1-11-21.1-22.6-31.4-33.4c27.3-21.8,55.6-43.3,82.4-65.8
						c-29.2,21.3-55.3,43.8-84,65.7c11.6,12.5,32.9,34.9,32.9,34.9c31.4-22.1,64.1-42.3,95.1-65.1
						C2897.3,1901.3,2866,1923.6,2834.4,1944.7z"/></g></g><g><g><path fill="#353434" d="M2706.5,2495.3L2706.5,2495.3c0.3,0.5,0.7,1,1,1.2c1.2,0.8,2.2,1.3,13.3,1.4c1.8,0,3.5,0,5.3,0
						c9.4-0.1,18.7-0.5,23.7-0.7c0.1,0,0.1,0,0.2,0c5.8-0.2,7.7,0,11.8-1.6c0,0,0.4-4.6-1.1-8c-0.4-1-1-2.1-1.5-3.4
						c-1.4-3.1-3-6.7-3.9-9.9c-1.3-4.4-0.8-14-0.6-17.4c0.2-2.4-0.2-4.8-0.9-6.9c-0.3-0.8-0.6-1.6-1-2.4c-1.4-2.7-2.2-5.4-3.5-6.5
						c-1.2-1.1-2.3-1.9-3.5-0.8c-1.2,1.1-2.6,1.7-2.6,5c0,3.3,0.9,6.5,0.4,10.6c-0.5,4.1,0.7,9.1-0.6,10.4
						c-1.2,1.3-8.7,0.2-11.4,0.4c-2.7,0.1-5.7,0.9-7.3,0.4c-1.5-0.5-1.9-3.8-1.4-7.6c0.6-3.8,1.6-9.2,1.2-11.7
						c-0.4-2.5-2.3-4.4-3.4-4.9c-1.9-0.8-3.9,2.2-4.9,4.1c-0.3,0.6-0.6,1.2-0.9,1.8c-0.5,0.9-0.9,1.9-1.3,2.9
						c-0.2,0.6-0.5,1.2-0.6,1.8c-0.7,2.3-0.6,4.6-1.3,11.3c-0.7,6.7-0.3,10-1.5,12.6c-1.2,2.6-3.5,6.8-4.3,9.4
						c-0.8,2.6-1.3,3.7-1,5.6C2705.3,2492.7,2705.8,2494.2,2706.5,2495.3z"/><path fill="#353434" d="M2706.5,2495.3L2706.5,2495.3c0.3,0.5,0.7,1,1,1.2c1.2,0.8,2.2,1.3,13.3,1.4c1.8,0,3.5,0,5.3,0
						c9.4-0.1,18.7-0.5,23.7-0.7c0.1,0,0.1,0,0.2,0c5.8-0.2,7.7,0,11.8-1.6c0,0,0-0.3,0-0.7c-4.1,1.2-28.3,1.7-35.5,1.7
						c-7.2,0-15.6-4.5-15.6-7.7c0-3.2,1.6-7.5,1.8-8.7c0.2-1.2,0.7-8.8,1.2-12.8c0.5-4-0.4-5.6-1.2-10.8c-0.2,1.8-0.3,4.3-0.8,8.3
						c-0.7,6.7-0.3,10-1.5,12.6c-1.2,2.6-3.5,6.8-4.3,9.4c-0.8,2.6-1.3,3.7-1,5.6C2705.3,2492.7,2705.8,2494.2,2706.5,2495.3z"/><path fill="#6b6a6e" d="M2724.3,2447.8c0.4,2.5-0.7,7.9-1.2,11.7c-0.6,3.8-0.2,7.1,1.4,7.6c1.5,0.5,4.6-0.3,7.3-0.4
						c2.7-0.1,10.2,0.9,11.4-0.4c1.2-1.3,0.1-6.4,0.6-10.4c0.5-4.1-0.4-7.3-0.4-10.6c0-1.7,0.4-2.7,1-3.5c-0.3-0.4-3.6-2.5-6.3-3.2
						c-2.8-0.6-5.9-0.2-9,1.4c-3.1,1.5-4.6,3.5-4.9,6.6l0,0C2724.1,2447,2724.2,2447.4,2724.3,2447.8z"/><path fill="#353434" d="M2763.7,2505.5c-0.3,0.5-0.7,0.9-1.3,1.2c-1.5,0.8-14.2,1.6-34.6,1.6c-2.3,0-4.4,0-6.3,0
						c-14.4,0-15.8-0.3-17.1-2.1c-0.3-0.3-0.4-0.8-0.6-1.3c-0.8-2.4-0.4-6.3-0.1-8.7c0.4-2.9,1-3.6,1.2-3.8c0.1-0.1,0.8,1.6,1.6,3
						l0,0c0.3,0.5,0.7,1,1,1.2c1.2,0.8,2.2,1.3,13.3,1.4c1.8,0,3.5,0,5.3,0c9.4-0.1,18.7-0.5,23.7-0.7c0.1,0,0.1,0,0.2,0
						c5.8-0.2,7.7,0,11.8-1.6c0.3-0.1,2.3,4.1,2.4,6.1C2764.4,2503,2764.4,2504.4,2763.7,2505.5z"/><path fill="#353434" d="M2721.5,2508.3c-14.4,0-15.8-0.3-17.1-2.1c-0.3-0.3-0.4-0.8-0.6-1.3c-0.8-2.4-0.4-6.3-0.1-8.7
						c0.4-2.9,1-3.6,1.2-3.8c0.1-0.1,0.8,1.6,1.6,3l0,0c0.8,3.6,5.2,8.7,14.6,7.4C2726.6,2502,2724.4,2505.3,2721.5,2508.3z"/><path fill="#353434" d="M2763.7,2505.5c-0.3,0.5-0.7,0.9-1.3,1.2c-0.2,0.1-0.7,0.2-1.4,0.4h0c-4.1,0.7-15.9,1.2-33.2,1.2
						c-20.3,0-21.9-0.1-23.4-2.1c-0.3-0.3-0.4-0.8-0.6-1.3c2.6,1.5,5.5,1.5,10.1,0.4h0c0.6-0.1,1.2-0.3,1.9-0.5
						c5.7-1.5,7.6-3.7,9.1-5.9c1-1.5,1.8-3.2,3-4.4c0.5-0.5,1.1-1,1.8-1.3c3.3-1.5,13.5-1.3,15.9-0.4c1.4,0.5,3,2.5,4.5,4.3
						c1,1.3,1.9,2.5,2.6,3.2c0.9,0.8,2.5,2.2,4.6,3.3h0C2759.1,2504.6,2761.3,2505.4,2763.7,2505.5z"/><path fill="#353434" d="M2753.9,2450c-0.4-0.1-1-0.2-1.6-0.1c-2,0.2-1.1,7.3-1.2,12.3c-0.1,5,1.7,7.7,1,9.5
						c-0.7,1.7-2.4,0.8-4.9-0.1c-2.5-0.9-7-1.9-12.4-2c-5.3-0.1-10.1,1.1-13.2,2.3c-3.1,1.2-4.8,2.1-5.4,0.6c-0.6-1.5-0.1-3.8,0.5-7
						c0.6-3.2,1.2-7.2,0.7-8.9c-0.6-1.6-1.2-4.3-3.6-4.6c0.7-1.7,1.5-3.3,2.2-4.8c1-1.9,3-4.9,4.9-4.1c1.2,0.5,3,2.4,3.4,4.9
						c0.4,2.5-0.7,7.9-1.2,11.7c-0.6,3.8-0.2,7.1,1.4,7.6c1.5,0.5,4.6-0.3,7.3-0.4c2.7-0.1,10.2,0.9,11.4-0.4
						c1.2-1.3,0.1-6.4,0.6-10.4c0.5-4.1-0.4-7.3-0.4-10.6c0-3.3,1.4-3.9,2.6-5c1.2-1.1,2.3-0.3,3.5,0.8c1.2,1.1,2.1,3.7,3.5,6.5
						C2753.3,2448.4,2753.6,2449.2,2753.9,2450z"/><path fill="#fff" d="M2749.2,2453.4c-0.2,0.3-1.7-1.2-3.1-1.8c-1.4-0.6-2.6,0-4.5,0.8c-1.1,0.5-1.9,0.6-2.9,0.7
						c-0.7,0.1-1.5,0.1-2.5,0.3c-0.3,0-0.6,0.1-1,0.2c-1.3,0.3-2.8,0.9-3.8,1.4c-0.9,0.4-1.4,0.6-1.4,0.6l-5.9,0.3
						c0,0-0.2-0.1,0.1-0.4c0.3-0.3,1.5-1.2,3-1.5c0.7-0.1,2.3-0.6,4-1.1c1.4-0.4,3-0.9,4.1-1.2c0.5-0.1,1-0.2,1.3-0.3
						c0.3-0.1,0.6-0.1,0.8-0.2c1.5-0.4,2.4-0.9,4-1.3c1.8-0.5,3.2-1,4.6-1.2c1.4-0.2,2.1,0.6,3.1,1.4
						C2750,2451,2749.8,2452.7,2749.2,2453.4z"/><path fill="#fff" d="M2748,2463.8c-0.2,0.2-1,0.2-2.1,0.1l0,0c-1.1,0-2.4-0.1-3.3-0.1c-1.6,0-5.4-0.1-8.5,0.1
						c-3.2,0.2-5.5,0-8.6,0.1c-3,0.1-4.5,0.8-5.3,1.2c-0.7,0.5-1.6,1.3-1.9,1.1c-0.8-0.7-0.1-2.2,0.9-3c0.3-0.3,0.7-0.6,1.2-0.8
						c1.1-0.6,2.6-1.1,4.6-1.1c3,0.1,4.5,0.3,7.1,0.2c2.6-0.1,4.9-0.2,7.6-0.5c2.8-0.3,4.5-0.6,6.3,0
						C2747.8,2461.6,2748.4,2463.5,2748,2463.8z"/><path fill="#fff" d="M2742.7,2460.7l-2.3,0.4c0,0-2.7-1.1-4.4-1.5c-0.4-0.1-0.9-0.3-1.4-0.4c-1.4-0.4-3-0.7-4.4-0.9
						c-1.5-0.2-3.3-0.1-4.8,0.1c-0.5,0.1-1,0.1-1.4,0.2c-1.9,0.3-3.4,0.9-4.1,1.6c-0.8,0.7-1.1,1.6-1.2,1.4
						c-0.2-0.6-0.8-2.2-0.2-3.1c0.5-0.9,1.1-1.6,4-2.1c2.8-0.5,4.7-0.9,7.3-0.6c0.1,0,0.2,0,0.3,0c2.8,0.3,5.2,1.4,6.9,1.9
						c0.4,0.1,0.9,0.3,1.3,0.5h0c1.3,0.5,2.5,1.1,3.1,1.4C2742.4,2460.1,2742.7,2460.7,2742.7,2460.7z"/><path fill="#fff" d="M2726,2461.4c1-0.9,2.9-1.8,4.5-2.2c1.6-0.3,3.1-1,5.2-1.2c2.1-0.1,3.7-0.3,5.7-0.8
						c1.9-0.4,3.2-0.9,4.8-0.4c1.6,0.5,2.7,2.1,3.3,2c0.7-0.1,1-1.3,0.4-2.5c-0.6-1.2-2-2.3-3.6-2.3c-1.6,0-2.9,0.1-6,0.3
						s-5.8,1-7.6,1.2c-1.8,0.2-4.3,2.3-6.1,3.2c-1.8,0.9-2.9,1.5-3.1,1.9c-0.2,0.4-0.6,1.1-0.6,1.1L2726,2461.4z"/><path fill="#fff" d="M2741.5,2454.3l-5.2,0.6l-0.3,0c0,0-3.9-1.1-6.5-1.3c-2.6-0.2-4.8-0.6-6.7,0c-1.9,0.6-3.2,2.3-3.2,2.3
						c-0.5,0-1-1.1-0.9-2c0.1-0.8,0.7-1.6,2-2.1c1.4-0.5,2.7-0.8,6-0.5c3.3,0.2,6.7,1,9.2,1.4c1.7,0.3,3.8,0.9,4.9,1.2
						C2741.3,2454.2,2741.5,2454.3,2741.5,2454.3z"/><path fill="#fff" d="M2750.6,2445.6c0,1.2-0.5,2.3-1.4,2.3c-0.9,0-1.2-2.7-3.3-3.7c-2-1-4.2-0.5-7.3,0.1
						c-0.2,0-0.4,0.1-0.7,0.1c-3.4,0.7-4.5,1.6-7,3.3c-1,0.7-1.8,1.3-2.5,1.7c-1.1,0.8-2,1.4-2.9,1.9l-1.4,0l0.1-1.8
						c0,0,2.3-2,3.4-3.1c0.3-0.3,0.8-0.7,1.3-1c1.2-0.7,2.7-1.3,4-1.6c0.8-0.2,1.7-0.6,2.6-1c1.1-0.4,2.4-0.9,3.9-1.1
						c2.8-0.5,6.7,0.1,8.1,0.7C2749.1,2443.2,2750.6,2444.5,2750.6,2445.6z"/><path fill="#fff" d="M2743.6,2449.4l-1.2,0.4c0,0-0.4-0.2-1-0.6h0c-1.4-0.8-4.2-2.4-7.1-3.1c-4.1-1.1-5.9-0.5-8.2-0.4
						c-2.3,0.2-4.1,1-5.4,2.1c-1.2,1.1-1.9,2.8-2.8,3c-0.9,0.2-1.6-2.4-0.6-3.5c1.1-1.1,3-2.8,6.2-3.7c3.2-0.9,5.6-0.6,8.6-0.4
						c3,0.2,2.8,0.9,5.6,1.6c2.3,0.6,3.5,1.7,4.7,2.9c0.3,0.3,0.6,0.7,0.9,1L2743.6,2449.4z"/><path fill="#fff" d="M2749.1,2469.7c-0.8,0.1-4.6-3-7.5-3.4c-1.4-0.2-3.2-0.4-5.2-0.5c0,0,0,0,0,0c-2.3-0.1-4.8-0.1-7.1,0.2
						c-4.3,0.5-7.1,2.2-9.8,4c-1.3,0.9-0.8-1.1,0-1.9c0.4-0.4,1-1,1.9-1.6h0c0.9-0.6,2-1.2,3.4-1.6c2.8-0.9,6.9-1.3,9.7-1.3
						c2.8,0,6.1,0.6,7.9,0.8c1.8,0.2,4.9,1.5,6,3C2749.4,2468.8,2749.9,2469.6,2749.1,2469.7z"/><path fill="#6b6a6e" d="M2757.3,2503.7c-2.3-0.2-5.9-3-7.3-5.1c-1.4-2.1-3.6-4.3-7.9-4.9c-4.3-0.6-9.4-0.2-14.2,0.9
						c0.5-0.5,1.1-1,1.8-1.3c3.3-1.5,13.5-1.3,15.9-0.4c1.4,0.5,3,2.5,4.5,4.3c1,1.3,1.9,2.5,2.6,3.2
						C2753.5,2501.2,2755.2,2502.5,2757.3,2503.7z"/><path fill="#6b6a6e" d="M2761,2507.1c-4.1,0.7-15.9,1.2-33.2,1.2c-20.3,0-21.9-0.1-23.4-2.1c-0.3-0.3-0.4-0.8-0.6-1.3
						c2.6,1.5,5.5,1.5,10.1,0.4h0c9.5-0.5,12.7-3.1,23-3.2C2747.2,2502,2752.8,2506.8,2761,2507.1z"/></g></g><g><g><path fill="#353434" d="M2897.7,2495.3L2897.7,2495.3c-0.3,0.5-0.7,1-1,1.2c-1.2,0.8-2.2,1.3-13.3,1.4c-1.8,0-3.5,0-5.3,0
						c-9.4-0.1-18.7-0.5-23.7-0.7c-0.1,0-0.1,0-0.2,0c-5.8-0.2-7.7,0-11.8-1.6c0,0-0.4-4.6,1.1-8c0.4-1,1-2.1,1.5-3.4
						c1.4-3.1,3-6.7,3.9-9.9c1.3-4.4,0.8-14,0.6-17.4c-0.2-2.4,0.2-4.8,0.9-6.9c0.3-0.8,0.6-1.6,1-2.4c1.4-2.7,2.2-5.4,3.5-6.5
						c1.2-1.1,2.3-1.9,3.5-0.8c1.2,1.1,2.6,1.7,2.6,5c0,3.3-0.9,6.5-0.4,10.6c0.5,4.1-0.7,9.1,0.6,10.4c1.2,1.3,8.7,0.2,11.4,0.4
						c2.7,0.1,5.7,0.9,7.3,0.4c1.5-0.5,1.9-3.8,1.4-7.6c-0.6-3.8-1.6-9.2-1.2-11.7c0.4-2.5,2.3-4.4,3.4-4.9c1.9-0.8,3.9,2.2,4.9,4.1
						c0.3,0.6,0.6,1.2,0.9,1.8c0.5,0.9,0.9,1.9,1.3,2.9c0.2,0.6,0.5,1.2,0.6,1.8c0.7,2.3,0.6,4.6,1.3,11.3c0.7,6.7,0.3,10,1.5,12.6
						c1.2,2.6,3.5,6.8,4.3,9.4c0.8,2.6,1.3,3.7,1,5.6C2899,2492.7,2898.4,2494.2,2897.7,2495.3z"/><path fill="#353434" d="M2897.7,2495.3L2897.7,2495.3c-0.3,0.5-0.7,1-1,1.2c-1.2,0.8-2.2,1.3-13.3,1.4c-1.8,0-3.5,0-5.3,0
						c-9.4-0.1-18.7-0.5-23.7-0.7c-0.1,0-0.1,0-0.2,0c-5.8-0.2-7.7,0-11.8-1.6c0,0,0-0.3,0-0.7c4.1,1.2,28.3,1.7,35.5,1.7
						c7.2,0,15.6-4.5,15.6-7.7c0-3.2-1.6-7.5-1.8-8.7c-0.2-1.2-0.7-8.8-1.2-12.8c-0.5-4,0.4-5.6,1.2-10.8c0.2,1.8,0.3,4.3,0.8,8.3
						c0.7,6.7,0.3,10,1.5,12.6c1.2,2.6,3.5,6.8,4.3,9.4c0.8,2.6,1.3,3.7,1,5.6C2899,2492.7,2898.4,2494.2,2897.7,2495.3z"/><path fill="#6b6a6e" d="M2879.9,2447.8c-0.4,2.5,0.7,7.9,1.2,11.7c0.6,3.8,0.2,7.1-1.4,7.6s-4.6-0.3-7.3-0.4
						c-2.7-0.1-10.2,0.9-11.4-0.4c-1.2-1.3-0.1-6.4-0.6-10.4c-0.5-4.1,0.4-7.3,0.4-10.6c0-1.7-0.4-2.7-1-3.5
						c0.3-0.4,3.6-2.5,6.3-3.2c2.8-0.6,5.9-0.2,9,1.4c3.2,1.5,4.6,3.5,4.9,6.6l0,0C2880.1,2447,2880,2447.4,2879.9,2447.8z"/><path fill="#353434" d="M2840.5,2505.5c0.3,0.5,0.7,0.9,1.3,1.2c1.5,0.8,14.2,1.6,34.6,1.6c2.3,0,4.4,0,6.3,0
						c14.4,0,15.8-0.3,17.1-2.1c0.3-0.3,0.4-0.8,0.6-1.3c0.8-2.4,0.4-6.3,0.1-8.7c-0.4-2.9-1-3.6-1.2-3.8c-0.1-0.1-0.8,1.6-1.6,3
						l0,0c-0.3,0.5-0.7,1-1,1.2c-1.2,0.8-2.2,1.3-13.3,1.4c-1.8,0-3.5,0-5.3,0c-9.4-0.1-18.7-0.5-23.7-0.7c-0.1,0-0.1,0-0.2,0
						c-5.8-0.2-7.7,0-11.8-1.6c-0.3-0.1-2.3,4.1-2.4,6.1C2839.8,2503,2839.9,2504.4,2840.5,2505.5z"/><path fill="#353434" d="M2882.7,2508.3c14.4,0,15.8-0.3,17.1-2.1c0.3-0.3,0.4-0.8,0.6-1.3c0.8-2.4,0.4-6.3,0.1-8.7
						c-0.4-2.9-1-3.6-1.2-3.8c-0.1-0.1-0.8,1.6-1.6,3l0,0c-0.8,3.6-5.2,8.7-14.6,7.4C2877.6,2502,2879.8,2505.3,2882.7,2508.3z"/><path fill="#353434" d="M2840.5,2505.5c0.3,0.5,0.7,0.9,1.3,1.2c0.2,0.1,0.7,0.2,1.4,0.4h0c4.1,0.7,15.9,1.2,33.2,1.2
						c20.3,0,21.9-0.1,23.4-2.1c0.3-0.3,0.4-0.8,0.6-1.3c-2.6,1.5-5.5,1.5-10.1,0.4h0c-0.6-0.1-1.2-0.3-1.9-0.5
						c-5.7-1.5-7.6-3.7-9.1-5.9c-1-1.5-1.8-3.2-3-4.4c-0.5-0.5-1.1-1-1.8-1.3c-3.3-1.5-13.5-1.3-15.9-0.4c-1.4,0.5-3,2.5-4.5,4.3
						c-1,1.3-1.9,2.5-2.6,3.2c-0.9,0.8-2.5,2.2-4.6,3.3h0C2845.1,2504.6,2842.9,2505.4,2840.5,2505.5z"/><path fill="#353434" d="M2850.3,2450c0.4-0.1,1-0.2,1.6-0.1c2,0.2,1.1,7.3,1.2,12.3c0.1,5-1.7,7.7-1,9.5c0.7,1.7,2.4,0.8,4.9-0.1
						c2.5-0.9,7-1.9,12.4-2c5.3-0.1,10.1,1.1,13.2,2.3c3.1,1.2,4.8,2.1,5.4,0.6c0.6-1.5,0.1-3.8-0.5-7c-0.6-3.2-1.2-7.2-0.7-8.9
						c0.6-1.6,1.2-4.3,3.6-4.6c-0.7-1.7-1.5-3.3-2.2-4.8c-1-1.9-3-4.9-4.9-4.1c-1.2,0.5-3,2.4-3.4,4.9c-0.4,2.5,0.7,7.9,1.2,11.7
						c0.6,3.8,0.2,7.1-1.4,7.6c-1.5,0.5-4.6-0.3-7.3-0.4c-2.7-0.1-10.2,0.9-11.4-0.4c-1.2-1.3-0.1-6.4-0.6-10.4
						c-0.5-4.1,0.4-7.3,0.4-10.6c0-3.3-1.4-3.9-2.6-5c-1.2-1.1-2.3-0.3-3.5,0.8c-1.2,1.1-2.1,3.7-3.5,6.5
						C2850.9,2448.4,2850.6,2449.2,2850.3,2450z"/><path fill="#fff" d="M2855.1,2453.4c0.2,0.3,1.7-1.2,3.1-1.8c1.4-0.6,2.6,0,4.5,0.8c1.1,0.5,1.9,0.6,2.9,0.7
						c0.7,0.1,1.5,0.1,2.5,0.3c0.3,0,0.6,0.1,1,0.2c1.3,0.3,2.8,0.9,3.8,1.4c0.9,0.4,1.4,0.6,1.4,0.6l5.9,0.3c0,0,0.2-0.1-0.1-0.4
						c-0.3-0.3-1.5-1.2-3-1.5c-0.7-0.1-2.3-0.6-4-1.1c-1.4-0.4-3-0.9-4.1-1.2c-0.5-0.1-1-0.2-1.3-0.3c-0.3-0.1-0.5-0.1-0.8-0.2
						c-1.5-0.4-2.4-0.9-4-1.3c-1.8-0.5-3.2-1-4.6-1.2c-1.4-0.2-2.1,0.6-3.1,1.4C2854.3,2451,2854.4,2452.7,2855.1,2453.4z"/><path fill="#fff" d="M2856.2,2463.8c0.2,0.2,1,0.2,2.1,0.1c0,0,0,0,0,0c1.1,0,2.4-0.1,3.3-0.1c1.6,0,5.4-0.1,8.5,0.1
						c3.2,0.2,5.5,0,8.6,0.1c3,0.1,4.5,0.8,5.3,1.2c0.7,0.5,1.6,1.3,1.9,1.1c0.8-0.7,0.1-2.2-0.9-3c-0.3-0.3-0.7-0.6-1.2-0.8
						c-1.1-0.6-2.6-1.1-4.6-1.1c-3,0.1-4.5,0.3-7.1,0.2c-2.6-0.1-4.9-0.2-7.6-0.5c-2.8-0.3-4.5-0.6-6.3,0
						C2856.5,2461.6,2855.9,2463.5,2856.2,2463.8z"/><path fill="#fff" d="M2861.5,2460.7l2.3,0.4c0,0,2.7-1.1,4.4-1.5c0.4-0.1,0.9-0.3,1.4-0.4c1.4-0.4,3-0.7,4.4-0.9
						c1.5-0.2,3.3-0.1,4.8,0.1c0.5,0.1,1,0.1,1.4,0.2c1.9,0.3,3.4,0.9,4.1,1.6c0.8,0.7,1.1,1.6,1.2,1.4c0.2-0.6,0.8-2.2,0.2-3.1
						c-0.5-0.9-1.1-1.6-4-2.1c-2.8-0.5-4.7-0.9-7.3-0.6c-0.1,0-0.2,0-0.3,0c-2.8,0.3-5.2,1.4-6.9,1.9c-0.4,0.1-0.9,0.3-1.3,0.5h0
						c-1.3,0.5-2.5,1.1-3.1,1.4C2861.8,2460.1,2861.5,2460.7,2861.5,2460.7z"/><path fill="#fff" d="M2878.2,2461.4c-1-0.9-2.9-1.8-4.5-2.2c-1.6-0.3-3.1-1-5.2-1.2c-2.1-0.1-3.7-0.3-5.7-0.8
						c-1.9-0.4-3.2-0.9-4.8-0.4c-1.6,0.5-2.7,2.1-3.3,2c-0.7-0.1-1-1.3-0.4-2.5c0.6-1.2,2-2.3,3.6-2.3c1.6,0,2.9,0.1,6,0.3
						s5.8,1,7.6,1.2c1.8,0.2,4.3,2.3,6.1,3.2c1.8,0.9,2.9,1.5,3.1,1.9c0.2,0.4,0.6,1.1,0.6,1.1L2878.2,2461.4z"/><path fill="#fff" d="M2862.7,2454.3l5.2,0.6l0.3,0c0,0,3.9-1.1,6.5-1.3c2.6-0.2,4.8-0.6,6.7,0c1.9,0.6,3.2,2.3,3.2,2.3
						c0.5,0,1-1.1,0.9-2c-0.1-0.8-0.7-1.6-2-2.1c-1.4-0.5-2.7-0.8-6-0.5c-3.3,0.2-6.7,1-9.2,1.4c-1.7,0.3-3.8,0.9-4.9,1.2
						C2863,2454.2,2862.7,2454.3,2862.7,2454.3z"/><path fill="#fff" d="M2853.6,2445.6c0,1.2,0.5,2.3,1.4,2.3c0.9,0,1.2-2.7,3.3-3.7c2-1,4.2-0.5,7.2,0.1c0.2,0,0.4,0.1,0.7,0.1
						c3.4,0.7,4.5,1.6,7,3.3c1,0.7,1.8,1.3,2.5,1.7c1.1,0.8,2,1.4,2.9,1.9l1.4,0l-0.1-1.8c0,0-2.3-2-3.4-3.1c-0.3-0.3-0.8-0.7-1.3-1
						c-1.2-0.7-2.7-1.3-4-1.6c-0.8-0.2-1.7-0.6-2.6-1c-1.1-0.4-2.4-0.9-3.9-1.1c-2.8-0.5-6.7,0.1-8.1,0.7
						C2855.2,2443.2,2853.6,2444.5,2853.6,2445.6z"/><path fill="#fff" d="M2860.6,2449.4l1.2,0.4c0,0,0.4-0.2,1-0.6l0,0c1.4-0.8,4.2-2.4,7.1-3.1c4.1-1.1,5.9-0.5,8.2-0.4
						c2.3,0.2,4.1,1,5.4,2.1c1.2,1.1,1.9,2.8,2.8,3c0.9,0.2,1.6-2.4,0.6-3.5c-1.1-1.1-3.1-2.8-6.2-3.7c-3.2-0.9-5.6-0.6-8.6-0.4
						c-3,0.2-2.8,0.9-5.6,1.6c-2.3,0.6-3.5,1.7-4.7,2.9c-0.3,0.3-0.6,0.7-1,1L2860.6,2449.4z"/><path fill="#fff" d="M2855.2,2469.7c0.8,0.1,4.6-3,7.5-3.4c1.4-0.2,3.2-0.4,5.2-0.5h0c2.3-0.1,4.8-0.1,7.1,0.2
						c4.3,0.5,7.1,2.2,9.8,4c1.3,0.9,0.8-1.1,0-1.9c-0.4-0.4-1-1-1.9-1.6h0c-0.9-0.6-2-1.2-3.4-1.6c-2.8-0.9-6.9-1.3-9.7-1.3
						c-2.8,0-6.1,0.6-7.9,0.8c-1.8,0.2-4.9,1.5-6,3C2854.8,2468.8,2854.4,2469.6,2855.2,2469.7z"/><path fill="#6b6a6e" d="M2847,2503.7c2.3-0.2,5.9-3,7.3-5.1c1.4-2.1,3.6-4.3,7.8-4.9c4.3-0.6,9.4-0.2,14.2,0.9
						c-0.5-0.5-1.1-1-1.8-1.3c-3.3-1.5-13.5-1.3-15.9-0.4c-1.4,0.5-3,2.5-4.5,4.3c-1,1.3-1.9,2.5-2.6,3.2
						C2850.7,2501.2,2849.1,2502.5,2847,2503.7z"/><path fill="#6b6a6e" d="M2843.2,2507.1c4.1,0.7,15.9,1.2,33.2,1.2c20.3,0,21.9-0.1,23.4-2.1c0.3-0.3,0.4-0.8,0.6-1.3
						c-2.6,1.5-5.5,1.5-10.1,0.4h0c-9.5-0.5-12.7-3.1-23-3.2S2851.5,2506.8,2843.2,2507.1z"/></g></g></g></g><g><g><rect width="34.1" height="22.7" x="1593.3" y="765.3" fill="#e8eae8" transform="rotate(-12.631 1610.165 776.685)"/></g><g><path fill="#e8eae8" d="M585.9,1017.9l-5-22.2l63.1-14.2l5,22.2L585.9,1017.9z M712.2,989.6l-5-22.2l63.1-14.2l5,22.2L712.2,989.6z
				 M838.5,961.3l-5-22.2l63.1-14.2l5,22.2L838.5,961.3z M964.8,933l-5-22.2l63.1-14.2l5,22.2L964.8,933z M1091.1,904.7l-5-22.2
				l63.2-14.2l5,22.2L1091.1,904.7z M1217.4,876.4l-5-22.2l63.1-14.2l5,22.2L1217.4,876.4z M1343.6,848.1l-5-22.2l63.1-14.2l5,22.2
				L1343.6,848.1z M1469.9,819.8l-5-22.2l63.1-14.2l5,22.2L1469.9,819.8z"/></g><g><path fill="#e8eae8" d="M502.9,1060.5c-15-15.2-23.9-24-23.9-24l-14.7-14.6l53.5-12l5,22.2l-13.1,2.9c2.8,2.8,6,6,9.5,9.5
				L502.9,1060.5z"/></g><g><path fill="#e8eae8" d="M877.1,2302.8c-6.7,0-13.4-0.8-20-2.2c-8.8-2-18.1-4.7-27.7-8.2l7.7-21.4c8.7,3.1,17.1,5.6,25,7.4
				c11,2.5,22.3,2.2,33.9-0.8l5.6,22C893.4,2301.7,885.2,2302.8,877.1,2302.8z M964.5,2265.5l-14.3-17.7
				c14.7-11.9,30.3-27.3,46.5-45.9l17.2,14.9C996.8,2236.4,980.2,2252.8,964.5,2265.5z M766.8,2262.7c-18.2-10.4-37.6-22.9-57.6-37
				l13.1-18.5c19.4,13.8,38.2,25.8,55.7,35.9L766.8,2262.7z M655,2184.4c-16.8-13.6-34.2-28.4-51.8-44l15.1-17
				c17.3,15.4,34.4,30,50.9,43.3L655,2184.4z M1056.1,2163.1l-18.4-13.4c11.9-16.5,24.3-34.5,37.8-55.2l19,12.4
				C1080.8,2128,1068.3,2146.3,1056.1,2163.1z M1828.7,2135.3l-1.4-22.7c18.9-1.2,40.6-3.4,66.2-6.8l3,22.5
				C1870.4,2131.8,1848.2,2134.1,1828.7,2135.3z M1759.2,2133.7c-20.8-3.1-43.4-9.2-67.2-18.3l8.1-21.2
				c22.3,8.5,43.3,14.3,62.4,17.1L1759.2,2133.7z M2403.9,2126.2l-2.1-3.4c-8.4-14.5-22.7-25-43.8-32.3l7.4-21.5
				c26.1,9,45,23.3,56,42.4l1.6,2.6L2403.9,2126.2z M1963.4,2118.3l-3.6-22.4c16.7-2.7,33.7-5.5,50.9-8.4l15.5-2.6l3.7,22.4
				l-15.5,2.6C1997.2,2112.8,1980.1,2115.6,1963.4,2118.3z M2096.3,2096.5l-3.5-22.5c22.7-3.5,45.1-6.8,67.1-9.5l2.8,22.5
				C2140.9,2089.8,2118.7,2093,2096.3,2096.5z M553.5,2094.3c-16.6-16-32.7-32.1-48-47.9l16.3-15.8c15.2,15.6,31.1,31.5,47.4,47.3
				L553.5,2094.3z M2452.5,2086.8l-22.7-1.2c0.3-5.6,0.4-11.7,0.5-18.3c0-14.3-0.8-30.3-2.2-47.5l22.6-2c1.6,17.9,2.3,34.5,2.3,49.5
				C2453,2074.3,2452.8,2080.8,2452.5,2086.8z M1629.5,2086.5c-18.9-10.2-38.7-21.9-58.7-34.9l12.4-19c19.5,12.6,38.7,24.1,57,33.9
				L1629.5,2086.5z M2229,2080.6l-1.5-22.7c24.3-1.6,47.4-2,68.6-0.9l-1.2,22.7C2274.5,2078.7,2252.4,2079.2,2229,2080.6z
				 M1130.7,2049.7l-19.3-11.9c11.5-18.6,22.7-37.3,33.6-55.4l1.3-2.2l19.5,11.7l-1.3,2.2C1153.4,2012.4,1142.2,2031,1130.7,2049.7z
				 M1515,2012.6c-17.6-13.1-35.6-27.3-53.4-42.1l14.5-17.5c17.5,14.5,35.1,28.4,52.5,41.3L1515,2012.6z M459.1,1996.9
				c-16.5-18.2-31.4-35.6-44.5-51.4l17.5-14.5c12.9,15.6,27.6,32.6,43.9,50.6L459.1,1996.9z M2419.7,1953.8
				c-3.5-21.4-7.8-43.4-12.8-65.5l22.1-5c5.1,22.5,9.5,44.9,13.1,66.8L2419.7,1953.8z M1200.6,1934.4l-19.3-11.9
				c14.5-23.6,26.2-41.7,36.8-57.2l18.8,12.8C1226.4,1893.3,1214.9,1911.1,1200.6,1934.4z M1410.5,1925.8
				c-17.2-15.8-33.7-31.7-48.9-47.2l16.2-15.9c15,15.3,31.1,30.9,48,46.4L1410.5,1925.8z M373,1891.1
				c-12.2-17.9-14.9-25.5-15.9-29.6l-0.5-4.1c0-9.9,7.5-20.4,25.8-36.3l14.9,17.2c-15.7,13.6-17.8,18.9-18,19.7
				c0.3-1.2,2.2,5.2,12.4,20.4L373,1891.1z M1315.5,1828.1c-2.6-3.1-5-6.1-7.3-9.1c-3.5-4.5-6.3-5.1-8.2-5.1h0
				c-3.1,0-10.1,1.8-22.5,13.4l-15.6-16.5c14-13.3,26.4-19.7,38.1-19.7c0,0,0,0,0.1,0c6.9,0,17.1,2.4,26,13.7
				c2.2,2.8,4.6,5.7,7.1,8.7L1315.5,1828.1z M2390.3,1823.8c-6.1-21.3-12.9-42.7-20.2-63.6l21.4-7.5c7.4,21.3,14.4,43.1,20.6,64.8
				L2390.3,1823.8z M450.3,1798.3l-13-18.6c16.9-11.8,35.9-24.5,56.2-37.9l12.5,19C485.9,1774,467,1786.7,450.3,1798.3z M562.5,1724
				l-12.4-19.1l56.6-36.7l12.4,19L562.5,1724z M2346.2,1697.9c-8.7-20.8-17.9-41.2-27.5-60.7l20.4-10.1c9.8,19.9,19.3,40.8,28.1,62
				L2346.2,1697.9z M675.6,1650l-12.6-18.9c19.1-12.8,37.8-25.5,55.4-38l13.1,18.6C713.6,1624.4,694.8,1637.2,675.6,1650z
				 M2287.3,1578.6c-11.3-19.5-23.3-38.4-35.5-56.2l18.7-12.9c12.6,18.2,24.8,37.6,36.4,57.6L2287.3,1578.6z M786.2,1571.5
				l-13.9-17.9c20.8-16.2,37.6-30.7,50.1-43.1l16,16.1C825.1,1539.8,808,1554.5,786.2,1571.5z M2212,1469.3
				c-14.3-17.4-29.1-34-44.2-49.3l16.2-16c15.6,15.8,31,32.9,45.6,50.9L2212,1469.3z M848.2,1464.9c-3.7-12.1-14.3-30.7-31.7-55
				l18.5-13.2c19,26.8,30.5,46.9,34.9,61.6L848.2,1464.9z M2119.1,1375.3c-17.1-14.2-35-27.4-53.1-39.2l12.5-19
				c18.8,12.4,37.3,26,55.1,40.7L2119.1,1375.3z M775.9,1357.1c-13.4-16.4-28-33.7-43.2-51.3l17.2-14.9
				c15.4,17.8,30.1,35.2,43.7,51.8L775.9,1357.1z M2009,1303.1c-20.5-10.3-40.6-21.1-59.8-32.1l11.3-19.7
				c18.9,10.8,38.6,21.4,58.7,31.5L2009,1303.1z M688.1,1255.6c-15.1-16.7-30.4-33.3-45.4-49.5l16.6-15.5
				c15.2,16.3,30.5,33,45.7,49.8L688.1,1255.6z M1891.2,1235.5c-19.2-12.6-37.9-25.7-55.7-39.1l13.7-18.1
				c17.3,13.1,35.7,25.9,54.4,38.2L1891.2,1235.5z M596.5,1157.1c-16.6-17.5-32.3-33.8-46.6-48.5l16.3-15.8
				c14.3,14.8,30.1,31.2,46.8,48.7L596.5,1157.1z M1782.7,1153.4c-17.4-15.3-33.9-31.2-49.3-47.2l16.4-15.7
				c14.9,15.6,31,31,47.9,45.9L1782.7,1153.4z M1688.6,1054.6c-14.3-18.2-27.6-37.1-39.4-56l19.3-12c11.4,18.2,24.2,36.4,38,54
				L1688.6,1054.6z M1616.2,938.4c-9.9-21.2-18.3-42.8-24.9-64.1l21.7-6.7c6.3,20.4,14.3,41,23.8,61.2L1616.2,938.4z"/></g><g><path fill="#e8eae8" d="M1576.4,808.3c-3.1-22.3-2.6-35.3-2.6-35.9l0.3-8.3l7.9-2.2c0,0,12-3.4,33-8.9l5.7,22
				c-10.5,2.7-18.6,4.9-24.2,6.4c0.2,5.5,0.8,13.5,2.2,23.7L1576.4,808.3z"/></g><g><path fill="#e8eae8" d="M1685.5,759.1l-5.2-22.1c19.7-4.7,41.8-9.7,65.5-14.8l4.7,22.2C1726.9,749.5,1705,754.5,1685.5,759.1z
				 M1815.8,731.2l-4.3-22.3c21.4-4.1,43.6-8,66.1-11.8l3.7,22.4C1859,723.2,1837,727.2,1815.8,731.2z M2271.8,721.2
				c-16.8-7.5-37.5-13.3-61.4-17.3l3.8-22.4c25.8,4.3,48.3,10.7,66.9,19L2271.8,721.2z M1947.2,709.8l-3-22.5
				c22.3-2.9,44.7-5.5,66.9-7.5l2.1,22.6C1991.3,704.3,1969.2,706.8,1947.2,709.8z M2079.3,697.9l-0.9-22.7
				c23.4-0.9,46.1-1,67.7-0.2l-0.9,22.7C2124.2,696.8,2102.1,697,2079.3,697.9z"/></g><g><path fill="#e8eae8" d="M2328.9,785.8c-1.8-10.1-5.3-19.3-10.4-27.6l19.2-12.1c6.8,10.8,11.4,22.8,13.6,35.8L2328.9,785.8z"/></g></g><g><polygon fill="#fdbe10" points="2405.6 1874.2 2443.4 1874.2 2443.4 2398.1 2408.8 2398.1"/><path fill="#fdbe10" d="M2443.4,1874.2c-45.6,2.8-81.8,122.3-80.9,267c0.9,144.7,38.5,259.7,84.1,256.9c45.7-2.8,82-122.4,80.9-267
			C2526.4,1986.4,2488.9,1871.4,2443.4,1874.2z"/><g><path fill="#fcd600" d="M2405.6,1874.2c-45.6,2.8-81.8,122.3-80.9,267c0.9,144.7,38.5,259.7,84.1,256.9c45.7-2.8,82-122.4,80.9-267
				C2488.7,1986.4,2451.2,1871.4,2405.6,1874.2z M2408.5,2348.3c-36.9,2.3-67.4-90.9-68.1-208c-0.7-117.1,28.6-213.9,65.5-216.2
				c36.9-2.3,67.4,90.9,68.1,208C2474.7,2249.2,2445.4,2346,2408.5,2348.3z"/><path fill="#ee9b20" d="M2456.6,1993.2c-12-32.7-27.7-52.1-44.8-51c-36.9,2.3-66.2,99.1-65.5,216.2c0.3,53.6,6.9,102.2,17.4,138.9
				c-14-38-22.9-94-23.3-157c-0.7-117.1,28.6-213.9,65.5-216.2C2426,1922.8,2444.1,1949.7,2456.6,1993.2z"/><path fill="#fdbe10" d="M2474,2132.1c0.7,117.1-28.6,213.9-65.5,216.2c-17.1,1-32.8-18.3-44.8-51c-10.5-36.7-17.1-85.3-17.4-138.9
				c-0.7-117.1,28.6-213.9,65.5-216.2c17.1-1,32.8,18.3,44.8,51C2467.1,2029.9,2473.7,2078.5,2474,2132.1z"/><path fill="#ee9b20" d="M2414.4,2125.4l-0.8-0.9c-3.3-4-5.7-7.5-7.6-11c-4.3-7.9-6-15.9-6-28.4c0-4.2,0.4-18.3,5.7-25.2
				c1.8-2.3,3.9-3.5,6.3-3.5c0.5,0,1,0,1.4,0.1c5.3,0.8,9.4,6.1,11.8,10.4l2.4,4.1l4.2-39.1l-1.6-3c-2.2-4-6.9-10.6-14.3-12.3v-21.6
				c0-4.6-1.2-8.4-2.7-8.4h-7.9c-1.5,0-2.7,3.8-2.7,8.4v25.5c-10.4,9.8-16.9,36-16.9,68c0,31.7,6,54.9,18.4,71c1,1.3,2,2.5,3.1,3.7
				c2.1,2.6,3.9,5.1,5.4,7.6c5.3,9,7.3,18.3,7.3,33.2c0,14.5-2.5,25.4-7,30.4c-1.9,2.1-4.1,3.2-6.5,3.2c-0.4,0-0.9,0-1.3-0.1
				c-5.2-0.8-10.6-6-15-14.5l-2.5-4.9l-3.8,40.1l1.4,3c3.9,8.3,10.9,14.6,17.5,16.1v17.9c0,4.6,1.2,8.4,2.7,8.4h7.9
				c1.5,0,2.7-3.8,2.7-8.4v-21.4c11.5-9.6,18.5-36.8,18.5-72.3C2434.3,2165.9,2428.4,2143.1,2414.4,2125.4z"/><path fill="#fcd600" d="M2412.3,2117.9l-0.8-0.9c-3.3-4-5.7-7.5-7.6-11c-4.3-7.9-6-15.9-6-28.4c0-4.2,0.4-18.3,5.7-25.2
				c1.8-2.3,3.9-3.5,6.3-3.5c0.5,0,1,0,1.4,0.1c5.3,0.8,9.3,6.1,11.8,10.4l2.4,4.1l4.2-39.1l-1.6-2.9c-2.2-4-6.9-10.6-14.3-12.3
				v-21.6c0-4.7-1.2-8.4-2.7-8.4h-7.9c-1.5,0-2.7,3.8-2.7,8.4v25.5c-10.4,9.8-16.9,36-16.9,68c0,31.7,6,54.9,18.4,71
				c1,1.3,2,2.5,3.1,3.7c2.1,2.6,3.9,5.1,5.4,7.6c5.3,9,7.3,18.3,7.3,33.2c0,14.5-2.5,25.4-7,30.4c-1.9,2.1-4.1,3.2-6.5,3.2
				c-0.4,0-0.9,0-1.3-0.1c-5.2-0.8-10.6-6-15-14.5l-2.5-4.9l-3.8,40.1l1.4,3c3.9,8.3,10.9,14.6,17.5,16.2v17.9
				c0,4.7,1.2,8.4,2.7,8.4h7.9c1.5,0,2.7-3.8,2.7-8.4v-21.4c11.5-9.6,18.5-36.8,18.5-72.3
				C2432.3,2158.4,2426.3,2135.6,2412.3,2117.9z"/></g></g><g><path fill="#fcd600" d="M1723.6,1775.8c-155.9,3-279.8,131.8-276.8,287.7c3,155.9,131.8,279.8,287.7,276.8
			c156.3-3,280.3-131.8,276.8-287.7C2007.7,1896.7,1879.5,1772.8,1723.6,1775.8z M1733.5,2286.5c-126.2,2.4-230.5-97.9-232.9-224.1
			c-2.4-126.2,97.9-230.5,224.1-232.9c126.2-2.4,230.5,97.9,232.9,224.1C1960,2179.8,1859.7,2284.1,1733.5,2286.5z"/><path fill="#ee9b20" d="M1897.9,1904c-41.1-35.2-94.7-56.1-153.1-54.9c-126.2,2.4-226.5,106.7-224.1,232.9
			c1.1,57.7,23.5,110,59.6,149.6c-47.8-40.9-78.5-101.3-79.8-169.1c-2.4-126.2,97.9-230.5,224.1-232.9
			C1793.1,1828.2,1855.1,1857.1,1897.9,1904z"/><path fill="#fdbe10" d="M1957.6,2053.6c2.4,126.2-97.9,230.5-224.1,232.9c-58.4,1.1-112-19.7-153.1-54.9
			c-36.1-39.5-58.5-91.9-59.6-149.6c-2.4-126.2,97.9-230.5,224.1-232.9c58.4-1.1,112,19.7,153.1,54.9
			C1934,1943.6,1956.5,1995.9,1957.6,2053.6z"/><path fill="#ee9b20" d="M1753.6,2046.5l-2.6-1c-11.2-4.3-19.5-8.1-25.9-11.9c-14.7-8.5-20.4-17.1-20.4-30.6
			c0-4.5,1.4-19.8,19.4-27.1c6-2.5,13.2-3.7,21.4-3.7c1.7,0,3.3,0,4.8,0.1c18.1,0.9,32,6.6,40.4,11.2l8.2,4.4l14.2-42.1l-5.6-3.2
			c-7.7-4.3-23.7-11.5-49-13.2v-23.2c0-5-4.1-9.1-9.1-9.1h-27c-5,0-9.1,4.1-9.1,9.1v27.5c-35.4,10.6-57.9,38.8-57.9,73.2
			c0,34.1,20.5,59.1,62.8,76.4c3.3,1.4,6.9,2.7,10.5,4c7.2,2.8,13.2,5.5,18.4,8.2c18.1,9.6,25.1,19.7,25.1,35.8
			c0,15.7-8.5,27.3-24,32.8c-6.4,2.3-13.9,3.4-22.1,3.4c-1.5,0-3,0-4.5-0.1c-17.7-0.8-36.4-6.5-51.1-15.6l-8.6-5.3l-13,43.2l4.8,3.2
			c13.4,9,37.2,15.8,59.8,17.4v19.3c0,5,4.1,9.1,9.1,9.1h27c5,0,9.1-4.1,9.1-9.1v-23.1c39.2-10.3,63.3-39.7,63.3-77.9
			C1821.8,2090,1801.4,2065.5,1753.6,2046.5z"/><path fill="#fcd600" d="M1746.6,2038.4l-2.6-1c-11.2-4.3-19.5-8.1-25.9-11.9c-14.7-8.5-20.4-17.1-20.4-30.6
			c0-4.5,1.4-19.8,19.4-27.1c6-2.5,13.2-3.7,21.4-3.7c1.7,0,3.3,0,4.8,0.1c18.1,0.9,32,6.6,40.4,11.2l8.2,4.4l14.2-42.1l-5.6-3.2
			c-7.7-4.3-23.7-11.5-49-13.2V1898c0-5-4.1-9.1-9.1-9.1h-27.1c-5,0-9.1,4.1-9.1,9.1v27.5c-35.4,10.6-58,38.8-58,73.2
			c0,34.1,20.5,59.1,62.8,76.4c3.3,1.4,6.9,2.7,10.5,4c7.2,2.8,13.2,5.5,18.4,8.2c18.1,9.7,25.1,19.7,25.1,35.8
			c0,15.7-8.5,27.3-24,32.8c-6.4,2.3-13.9,3.4-22.1,3.4c-1.5,0-3,0-4.5-0.1c-17.7-0.8-36.4-6.5-51.2-15.6l-8.6-5.3l-13,43.2l4.8,3.2
			c13.4,9,37.2,15.8,59.8,17.4v19.3c0,5,4.1,9.1,9.1,9.1h27.1c5,0,9.1-4.1,9.1-9.1v-23.1c39.2-10.3,63.3-39.7,63.3-77.9
			C1814.8,2081.9,1794.4,2057.4,1746.6,2038.4z"/></g><g><polygon fill="#fdbe10" points="1290.4 1550 1328.1 1550 1328.1 2074 1293.6 2074"/><path fill="#fdbe10" d="M1328.1,1550c-45.6,2.8-81.8,122.3-80.9,267c0.9,144.7,38.5,259.7,84.1,256.9c45.7-2.8,82-122.4,80.9-267
			C1411.2,1662.2,1373.7,1547.2,1328.1,1550z"/><g><path fill="#fcd600" d="M1290.4,1550c-45.6,2.8-81.8,122.3-80.9,267c0.9,144.7,38.5,259.7,84.1,256.9c45.7-2.8,82-122.4,80.9-267
				C1373.5,1662.2,1336,1547.2,1290.4,1550z M1293.3,2024.1c-36.9,2.3-67.4-90.9-68.1-208c-0.7-117.1,28.6-213.9,65.5-216.2
				c36.9-2.3,67.4,90.9,68.1,208C1359.5,1925,1330.2,2021.8,1293.3,2024.1z"/><path fill="#ee9b20" d="M1341.4,1669c-12-32.7-27.7-52.1-44.8-51c-36.9,2.3-66.2,99.1-65.5,216.2c0.3,53.6,6.9,102.2,17.4,138.9
				c-14-38-22.9-94-23.3-157c-0.7-117.1,28.6-213.9,65.5-216.2C1310.7,1598.7,1328.9,1625.5,1341.4,1669z"/><path fill="#fdbe10" d="M1358.8,1807.9c0.7,117.1-28.6,213.9-65.5,216.2c-17.1,1-32.8-18.3-44.8-51
				c-10.5-36.7-17.1-85.3-17.4-138.9c-0.7-117.1,28.6-213.9,65.5-216.2c17.1-1,32.8,18.3,44.8,51
				C1351.9,1705.7,1358.5,1754.3,1358.8,1807.9z"/><path fill="#ee9b20" d="M1299.2,1801.3l-0.8-0.9c-3.3-4-5.7-7.5-7.6-11c-4.3-7.9-6-15.9-6-28.4c0-4.2,0.4-18.3,5.7-25.2
				c1.8-2.3,3.9-3.5,6.3-3.5c0.5,0,1,0,1.4,0.1c5.3,0.8,9.4,6.1,11.8,10.4l2.4,4.1l4.2-39.1l-1.6-3c-2.2-4-6.9-10.6-14.3-12.3V1671
				c0-4.6-1.2-8.4-2.7-8.4h-7.9c-1.5,0-2.7,3.8-2.7,8.4v25.5c-10.4,9.8-16.9,36-16.9,68c0,31.7,6,54.9,18.4,71c1,1.3,2,2.5,3.1,3.7
				c2.1,2.6,3.9,5.1,5.4,7.6c5.3,9,7.3,18.3,7.3,33.2c0,14.5-2.5,25.4-7,30.4c-1.9,2.1-4.1,3.2-6.5,3.2c-0.4,0-0.9,0-1.3-0.1
				c-5.2-0.8-10.6-6-15-14.5l-2.5-4.9l-3.8,40.1l1.4,3c3.9,8.3,10.9,14.6,17.5,16.1v17.9c0,4.6,1.2,8.4,2.7,8.4h7.9
				c1.5,0,2.7-3.8,2.7-8.4v-21.4c11.5-9.6,18.5-36.8,18.5-72.3C1319.1,1841.7,1313.1,1818.9,1299.2,1801.3z"/><path fill="#fcd600" d="M1297.1,1793.7l-0.8-0.9c-3.3-4-5.7-7.5-7.6-11c-4.3-7.9-6-15.9-6-28.4c0-4.2,0.4-18.3,5.7-25.2
				c1.8-2.3,3.9-3.5,6.3-3.5c0.5,0,1,0,1.4,0.1c5.3,0.8,9.3,6.1,11.8,10.4l2.4,4.1l4.2-39.1l-1.6-2.9c-2.2-4-6.9-10.6-14.3-12.3
				v-21.6c0-4.7-1.2-8.4-2.7-8.4h-7.9c-1.5,0-2.7,3.8-2.7,8.4v25.5c-10.4,9.8-16.9,36-16.9,68c0,31.7,6,54.9,18.4,71
				c1,1.3,2,2.5,3.1,3.7c2.1,2.6,3.9,5.1,5.4,7.6c5.3,9,7.3,18.3,7.3,33.2c0,14.5-2.5,25.4-7,30.4c-1.9,2.1-4.1,3.2-6.5,3.2
				c-0.4,0-0.9,0-1.3-0.1c-5.2-0.8-10.6-6-15-14.5l-2.5-4.9l-3.8,40.1l1.4,3c3.9,8.3,10.9,14.6,17.5,16.2v17.9
				c0,4.7,1.2,8.4,2.7,8.4h7.9c1.5,0,2.7-3.8,2.7-8.4v-21.4c11.5-9.6,18.5-36.8,18.5-72.3
				C1317.1,1834.2,1311.1,1811.4,1297.1,1793.7z"/></g></g><g><polygon fill="#fdbe10" points="639.5 2477.6 613.9 2444.4 1017.9 2128.2 1046.1 2164.7"/><path fill="#fdbe10" d="M756.7,2218c-111.2,87.8-163.7,204-117.2,259.7c46.5,55.7,174.4,29.6,285.5-58.1
			c111.2-87.8,163.6-204,117.1-259.7C995.7,2104.2,867.9,2130.2,756.7,2218z"/><g><path fill="#fcd600" d="M731,2184.8c-111.2,87.8-163.7,204-117.2,259.7c46.5,55.7,174.4,29.6,285.5-58.1
				c111.2-87.8,163.6-204,117.2-259.7C970.1,2071,842.2,2097,731,2184.8z M883.4,2367.1c-90,71.1-193.5,92.1-231.2,47.1
				c-37.6-45.1,4.8-139.2,94.8-210.2c90-71.1,193.5-92.1,231.2-47.1C1015.9,2201.9,973.4,2296.1,883.4,2367.1z"/><path fill="#ee9b20" d="M892.8,2135c-39.6,9.9-84.1,32.1-125.7,64.9c-90,71.1-132.5,165.2-94.8,210.2
				c17.2,20.6,48.2,27.4,85.4,21.9c-46,11.5-85.2,6.4-105.5-17.8c-37.6-45.1,4.8-139.2,94.8-210.2
				C795.9,2165.4,848.7,2141.6,892.8,2135z"/><path fill="#fdbe10" d="M978.2,2156.9c37.7,45.1-4.8,139.2-94.8,210.3c-41.6,32.9-86.2,55-125.7,64.9c-37.2,5.5-68.2-1.3-85.4-21.9
				c-37.7-45.1,4.8-139.2,94.8-210.2c41.6-32.9,86.2-55,125.7-64.9C930,2129.5,961,2136.3,978.2,2156.9z"/><path fill="#ee9b20" d="M829.5,2267.7l-2.2,1.1c-9.3,4.6-16.3,7.8-22,10c-13,5-19.5,5-23.4,0.1c-1.3-1.7-4.6-8,6.2-20.8
				c3.6-4.3,8.5-8.7,14.3-13.3c1.2-0.9,2.4-1.8,3.5-2.7c13.3-9.7,24.9-15.4,32.2-18.4l7.1-2.9l-1.7-23.4l-4.9,1.9
				c-6.7,2.7-20.3,9-39,22.4l-6.6-8.5c-1.4-1.8-5.5-1.1-9.1,1.7l-19.4,15c-3.6,2.8-5.4,6.5-3.9,8.4l7.8,10.1
				c-22.4,23.6-30.6,46.5-20.8,59.1c9.7,12.5,31.6,10.3,66.9-6.8c2.8-1.3,5.7-2.8,8.7-4.4c6-3,11.1-5.3,15.6-7.2
				c15.7-6.5,23.6-6.7,28.2-0.8c4.5,5.8,1.6,14.8-7.9,25.4c-4,4.4-9,9-15,13.6c-1.1,0.8-2.1,1.6-3.3,2.5c-13,9.6-28,17.8-41.2,22.7
				l-7.7,2.8l2.9,23.1l4.4-1.5c12.2-4.2,31.2-14.9,48-26.9l5.5,7.1c1.4,1.8,5.5,1.1,9.1-1.7l19.4-15c3.6-2.8,5.4-6.5,3.9-8.4
				l-6.6-8.5c25.3-25.6,34.2-49.8,23.3-63.8C891,2245.8,869.3,2248.1,829.5,2267.7z"/><path fill="#fcd600" d="M822.2,2268.6l-2.2,1.1c-9.3,4.6-16.3,7.8-22,10c-13,5-19.5,5-23.4,0.1c-1.3-1.7-4.6-8,6.2-20.8
				c3.6-4.3,8.4-8.7,14.3-13.3c1.2-0.9,2.4-1.8,3.5-2.6c13.3-9.7,24.9-15.4,32.2-18.4l7.1-2.9l-1.7-23.4l-4.9,1.9
				c-6.7,2.7-20.3,9-39,22.4l-6.6-8.5c-1.4-1.8-5.5-1.1-9.1,1.7l-19.4,15c-3.6,2.8-5.4,6.5-3.9,8.4l7.8,10.1
				c-22.4,23.6-30.6,46.5-20.8,59.1c9.7,12.5,31.6,10.3,66.9-6.8c2.8-1.3,5.7-2.8,8.7-4.4c6-3,11.1-5.3,15.6-7.2
				c15.7-6.5,23.6-6.7,28.2-0.8c4.5,5.8,1.6,14.8-7.9,25.4c-4,4.4-9,9-15,13.6c-1.1,0.8-2.1,1.6-3.2,2.4c-13,9.6-28,17.8-41.2,22.7
				l-7.7,2.9l2.9,23.1l4.4-1.5c12.2-4.2,31.2-14.9,48-26.9l5.5,7.1c1.4,1.8,5.5,1.1,9.1-1.7l19.5-15c3.6-2.8,5.4-6.5,3.9-8.4
				l-6.6-8.5c25.3-25.6,34.2-49.8,23.3-63.8C883.6,2246.7,862,2249,822.2,2268.6z"/></g></g><g><polygon fill="#fdbe10" points="809.5 1201.9 847.2 1201.9 847.2 1725.8 812.7 1725.8"/><path fill="#fdbe10" d="M847.2,1201.9c-45.6,2.8-81.8,122.3-80.9,267c0.9,144.7,38.5,259.7,84.1,256.9c45.7-2.8,82-122.4,80.9-267
			C930.3,1314.1,892.8,1199.1,847.2,1201.9z"/><g><path fill="#fcd600" d="M809.5,1201.9c-45.6,2.8-81.8,122.3-80.9,267c0.9,144.7,38.5,259.7,84.1,256.9c45.7-2.8,82-122.4,80.9-267
				C892.6,1314.1,855.1,1199.1,809.5,1201.9z M812.4,1676c-36.9,2.3-67.4-90.9-68.1-208c-0.7-117.1,28.6-213.9,65.5-216.2
				c36.9-2.3,67.4,90.9,68.1,208C878.6,1576.9,849.3,1673.7,812.4,1676z"/><path fill="#ee9b20" d="M860.5,1320.9c-12-32.7-27.7-52.1-44.8-51c-36.9,2.3-66.2,99.1-65.5,216.2c0.3,53.6,6.9,102.2,17.4,138.9
				c-14-38-22.9-94-23.3-157c-0.7-117.1,28.6-213.9,65.5-216.2C829.8,1250.5,848,1277.4,860.5,1320.9z"/><path fill="#fdbe10" d="M877.9,1459.8c0.7,117.1-28.6,213.9-65.5,216.2c-17.1,1-32.8-18.3-44.8-51c-10.5-36.7-17.1-85.3-17.4-138.9
				c-0.7-117.1,28.6-213.9,65.5-216.2c17.1-1,32.8,18.3,44.8,51C871,1357.6,877.6,1406.2,877.9,1459.8z"/><path fill="#ee9b20" d="M818.3,1453.1l-0.8-0.9c-3.3-4-5.7-7.5-7.6-11c-4.3-7.9-6-15.9-6-28.4c0-4.2,0.4-18.3,5.7-25.2
				c1.8-2.3,3.9-3.5,6.3-3.5c0.5,0,1,0,1.4,0.1c5.3,0.8,9.4,6.1,11.8,10.4l2.4,4.1l4.2-39.1l-1.6-3c-2.2-4-6.9-10.6-14.3-12.3v-21.6
				c0-4.6-1.2-8.4-2.7-8.4h-7.9c-1.5,0-2.7,3.8-2.7,8.4v25.5c-10.4,9.8-16.9,36-16.9,68c0,31.7,6,54.9,18.4,71c1,1.3,2,2.5,3.1,3.7
				c2.1,2.6,3.9,5.1,5.4,7.6c5.3,9,7.3,18.3,7.3,33.2c0,14.5-2.5,25.4-7,30.4c-1.9,2.1-4.1,3.2-6.5,3.2c-0.4,0-0.9,0-1.3-0.1
				c-5.2-0.8-10.6-6-15-14.5l-2.5-4.9l-3.8,40.1l1.4,3c3.9,8.3,10.9,14.6,17.5,16.1v17.9c0,4.6,1.2,8.4,2.7,8.4h7.9
				c1.5,0,2.7-3.8,2.7-8.4v-21.4c11.5-9.6,18.5-36.8,18.5-72.3C838.2,1493.6,832.2,1470.8,818.3,1453.1z"/><path fill="#fcd600" d="M816.2,1445.6l-0.8-0.9c-3.3-4-5.7-7.5-7.6-11c-4.3-7.9-6-15.9-6-28.4c0-4.2,0.4-18.3,5.7-25.2
				c1.8-2.3,3.9-3.5,6.3-3.5c0.5,0,1,0,1.4,0.1c5.3,0.8,9.3,6.1,11.8,10.4l2.4,4.1l4.2-39.1l-1.6-2.9c-2.2-4-6.9-10.6-14.3-12.3
				v-21.6c0-4.7-1.2-8.4-2.7-8.4h-7.9c-1.5,0-2.7,3.8-2.7,8.4v25.5c-10.4,9.8-16.9,36-16.9,68c0,31.7,6,54.9,18.4,71
				c1,1.3,2,2.5,3.1,3.7c2.1,2.6,3.9,5.1,5.4,7.6c5.3,9,7.3,18.3,7.3,33.2c0,14.5-2.5,25.4-7,30.4c-1.9,2.1-4.1,3.2-6.5,3.2
				c-0.4,0-0.9,0-1.3-0.1c-5.2-0.8-10.6-6-15-14.5l-2.5-4.9l-3.8,40.1l1.4,3c3.9,8.3,10.9,14.6,17.5,16.2v17.9
				c0,4.7,1.2,8.4,2.7,8.4h7.9c1.5,0,2.7-3.8,2.7-8.4v-21.4c11.5-9.6,18.5-36.8,18.5-72.3C836.2,1486,830.2,1463.3,816.2,1445.6z"/></g></g><g><polygon fill="#fdbe10" points="2333.4 540.2 2371.1 540.2 2371.1 1064.1 2336.6 1064.1"/><path fill="#fdbe10" d="M2371.1,540.2c-45.6,2.8-81.8,122.3-80.9,267c0.9,144.7,38.5,259.7,84.1,256.9c45.7-2.8,82-122.4,80.9-267
			C2454.1,652.4,2416.7,537.4,2371.1,540.2z"/><g><path fill="#fcd600" d="M2333.4,540.2c-45.6,2.8-81.8,122.3-80.9,267c0.9,144.7,38.5,259.7,84.1,256.9c45.7-2.8,82-122.4,80.9-267
				C2416.4,652.4,2378.9,537.4,2333.4,540.2z M2336.2,1014.2c-36.9,2.3-67.4-90.9-68.1-208c-0.7-117.1,28.6-213.9,65.5-216.2
				c36.9-2.3,67.4,90.9,68.1,208C2402.5,915.2,2373.1,1012,2336.2,1014.2z"/><path fill="#ee9b20" d="M2384.3,659.2c-12-32.7-27.7-52.1-44.8-51c-36.9,2.3-66.2,99.1-65.5,216.2c0.3,53.6,6.9,102.2,17.4,138.9
				c-14-38-22.9-94-23.3-157c-0.7-117.1,28.6-213.9,65.5-216.2C2353.7,588.8,2371.8,615.6,2384.3,659.2z"/><path fill="#fdbe10" d="M2401.8,798c0.7,117.1-28.6,213.9-65.5,216.2c-17.1,1-32.8-18.3-44.8-51c-10.5-36.7-17.1-85.3-17.4-138.9
				c-0.7-117.1,28.6-213.9,65.5-216.2c17.1-1,32.8,18.3,44.8,51C2394.9,695.9,2401.4,744.4,2401.8,798z"/><path fill="#ee9b20" d="M2342.1,791.4l-0.8-0.9c-3.3-4-5.7-7.5-7.6-11c-4.3-7.9-6-15.9-6-28.4c0-4.2,0.4-18.3,5.7-25.2
				c1.8-2.3,3.9-3.5,6.3-3.5c0.5,0,1,0,1.4,0.1c5.3,0.8,9.4,6.1,11.8,10.4l2.4,4.1l4.2-39.1l-1.6-3c-2.2-4-6.9-10.6-14.3-12.3v-21.6
				c0-4.6-1.2-8.4-2.7-8.4h-7.9c-1.5,0-2.7,3.8-2.7,8.4v25.5c-10.4,9.8-16.9,36-16.9,68c0,31.7,6,54.9,18.4,71c1,1.3,2,2.5,3.1,3.7
				c2.1,2.6,3.9,5.1,5.4,7.6c5.3,9,7.3,18.3,7.3,33.2c0,14.5-2.5,25.4-7,30.4c-1.9,2.1-4.1,3.2-6.5,3.2c-0.4,0-0.9,0-1.3-0.1
				c-5.2-0.8-10.6-6-15-14.5l-2.5-4.9l-3.8,40.1l1.4,3c3.9,8.3,10.9,14.6,17.5,16.1v17.9c0,4.6,1.2,8.4,2.7,8.4h7.9
				c1.5,0,2.7-3.8,2.7-8.4v-21.4c11.5-9.6,18.5-36.8,18.5-72.3C2362.1,831.8,2356.1,809.1,2342.1,791.4z"/><path fill="#fcd600" d="M2340.1,783.9l-0.8-0.9c-3.3-4-5.7-7.5-7.6-11c-4.3-7.9-6-15.9-6-28.4c0-4.2,0.4-18.3,5.7-25.2
				c1.8-2.3,3.9-3.5,6.3-3.5c0.5,0,1,0,1.4,0.1c5.3,0.8,9.3,6.1,11.8,10.4l2.4,4.1l4.2-39.1l-1.6-2.9c-2.2-4-6.9-10.6-14.3-12.3
				v-21.6c0-4.7-1.2-8.4-2.7-8.4h-7.9c-1.5,0-2.7,3.8-2.7,8.4v25.5c-10.4,9.8-16.9,36-16.9,68c0,31.7,6,54.9,18.4,71
				c1,1.3,2,2.5,3.1,3.7c2.1,2.6,3.9,5.1,5.4,7.6c5.3,9,7.3,18.3,7.3,33.2c0,14.5-2.5,25.4-7,30.4c-1.9,2.1-4.1,3.2-6.5,3.2
				c-0.4,0-0.9,0-1.3-0.1c-5.2-0.8-10.6-6-15-14.5l-2.5-4.9l-3.8,40.1l1.4,3c3.9,8.3,10.9,14.6,17.5,16.2v17.9
				c0,4.7,1.2,8.4,2.7,8.4h7.9c1.5,0,2.7-3.8,2.7-8.4v-21.4c11.5-9.6,18.5-36.8,18.5-72.3C2360,824.3,2354,801.5,2340.1,783.9z"/></g></g><g><polygon fill="#fdbe10" points="1682.5 1467.8 1656.8 1434.6 2060.8 1118.4 2089 1154.8"/><path fill="#fdbe10" d="M1799.7,1208.1c-111.2,87.8-163.7,204-117.2,259.7c46.5,55.7,174.4,29.6,285.5-58.1
			c111.2-87.8,163.6-204,117.1-259.7C2038.7,1094.3,1910.8,1120.3,1799.7,1208.1z"/><g><path fill="#fcd600" d="M1774,1174.9c-111.2,87.8-163.7,204-117.2,259.7c46.5,55.7,174.4,29.6,285.5-58.1
				c111.2-87.8,163.6-204,117.2-259.7C2013,1061.1,1885.2,1087.1,1774,1174.9z M1926.3,1357.3c-90,71.1-193.5,92.1-231.2,47.1
				c-37.6-45.1,4.8-139.2,94.8-210.2c90-71.1,193.5-92.1,231.2-47.1C2058.8,1192.1,2016.4,1286.2,1926.3,1357.3z"/><path fill="#ee9b20" d="M1935.8,1125.2c-39.6,9.9-84.1,32.1-125.7,64.9c-90,71.1-132.5,165.2-94.8,210.2
				c17.2,20.6,48.2,27.4,85.4,21.9c-46,11.5-85.2,6.4-105.5-17.8c-37.6-45.1,4.8-139.2,94.8-210.2
				C1838.9,1155.5,1891.7,1131.7,1935.8,1125.2z"/><path fill="#fdbe10" d="M2021.2,1147c37.7,45.1-4.8,139.2-94.8,210.3c-41.6,32.9-86.2,55-125.7,64.9c-37.2,5.5-68.2-1.3-85.4-21.9
				c-37.7-45.1,4.8-139.2,94.8-210.2c41.6-32.9,86.2-55,125.7-64.9C1973,1119.6,2004,1126.4,2021.2,1147z"/><path fill="#ee9b20" d="M1872.5,1257.8l-2.2,1.1c-9.3,4.6-16.3,7.8-22,10c-13,5-19.5,5-23.4,0.1c-1.3-1.7-4.6-8,6.2-20.8
				c3.6-4.3,8.5-8.7,14.3-13.3c1.2-0.9,2.4-1.8,3.5-2.7c13.3-9.7,24.9-15.4,32.2-18.4l7.1-2.9l-1.7-23.4l-4.9,1.9
				c-6.7,2.7-20.3,9-39,22.4l-6.6-8.5c-1.4-1.8-5.5-1.1-9.1,1.7l-19.4,15c-3.6,2.8-5.4,6.5-3.9,8.4l7.8,10.1
				c-22.4,23.6-30.6,46.5-20.8,59.1c9.7,12.5,31.6,10.3,66.9-6.8c2.8-1.3,5.7-2.8,8.7-4.4c6-3,11.1-5.3,15.6-7.2
				c15.7-6.5,23.6-6.7,28.2-0.8c4.5,5.8,1.6,14.8-7.9,25.4c-4,4.4-9,9-15,13.6c-1.1,0.8-2.1,1.6-3.3,2.5c-13,9.6-28,17.8-41.2,22.7
				l-7.7,2.8l2.9,23.1l4.4-1.5c12.2-4.2,31.2-14.9,48-26.9l5.5,7.1c1.4,1.8,5.5,1.1,9.1-1.7l19.4-15c3.6-2.8,5.4-6.5,3.9-8.4
				l-6.6-8.5c25.3-25.6,34.2-49.8,23.3-63.8C1933.9,1235.9,1912.3,1238.2,1872.5,1257.8z"/><path fill="#fcd600" d="M1865.2,1258.7l-2.2,1.1c-9.3,4.6-16.3,7.8-22,10c-13,5-19.5,5-23.4,0.1c-1.3-1.7-4.6-8,6.2-20.8
				c3.6-4.3,8.4-8.7,14.3-13.3c1.2-0.9,2.4-1.8,3.5-2.6c13.3-9.7,24.9-15.4,32.2-18.4l7.1-2.9l-1.7-23.4l-4.9,1.9
				c-6.7,2.7-20.3,9-39,22.4l-6.6-8.5c-1.4-1.8-5.5-1.1-9.1,1.7l-19.4,15c-3.6,2.8-5.4,6.5-3.9,8.4l7.8,10.1
				c-22.4,23.6-30.6,46.5-20.8,59.1c9.7,12.5,31.6,10.3,66.9-6.8c2.8-1.3,5.7-2.8,8.7-4.4c6-3,11.1-5.3,15.6-7.2
				c15.7-6.5,23.6-6.7,28.2-0.8c4.5,5.8,1.6,14.8-7.9,25.4c-4,4.4-9,9-15,13.6c-1.1,0.8-2.1,1.6-3.2,2.4c-13,9.6-28,17.8-41.2,22.7
				l-7.7,2.9l2.9,23.1l4.4-1.5c12.2-4.2,31.2-14.9,48-26.9l5.5,7.1c1.4,1.8,5.5,1.1,9.1-1.7l19.5-15c3.6-2.8,5.4-6.5,3.9-8.4
				l-6.6-8.5c25.3-25.6,34.2-49.8,23.3-63.8C1926.6,1236.8,1904.9,1239.1,1865.2,1258.7z"/></g></g><g><path fill="#fcd600" d="M1651.4,441.8c-155.9,3-279.8,131.8-276.8,287.7c3,155.9,131.8,279.8,287.7,276.8
			c156.3-3,280.3-131.8,276.8-287.7C1935.5,562.7,1807.2,438.7,1651.4,441.8z M1661.2,952.5c-126.2,2.4-230.5-97.9-232.9-224.1
			c-2.4-126.2,97.9-230.5,224.1-232.9c126.2-2.4,230.5,97.9,232.9,224.1C1887.7,845.7,1787.4,950,1661.2,952.5z"/><path fill="#ee9b20" d="M1825.7,570c-41.1-35.2-94.7-56.1-153.1-54.9c-126.2,2.4-226.5,106.7-224.1,232.9
			c1.1,57.7,23.5,110,59.6,149.6c-47.8-40.9-78.5-101.3-79.8-169.1c-2.4-126.2,97.9-230.5,224.1-232.9
			C1720.9,494.2,1782.9,523.1,1825.7,570z"/><path fill="#fdbe10" d="M1885.3,719.5c2.4,126.2-97.9,230.5-224.1,232.9c-58.4,1.1-112-19.7-153.1-54.9
			c-36.1-39.5-58.5-91.9-59.6-149.6c-2.4-126.2,97.9-230.5,224.1-232.9c58.4-1.1,112,19.7,153.1,54.9
			C1861.8,609.5,1884.2,661.8,1885.3,719.5z"/><path fill="#ee9b20" d="M1681.3,712.4l-2.6-1c-11.2-4.3-19.5-8.1-25.9-11.9c-14.7-8.5-20.4-17.1-20.4-30.6c0-4.5,1.4-19.8,19.4-27.1
			c6-2.5,13.2-3.7,21.4-3.7c1.7,0,3.3,0,4.8,0.1c18.1,0.9,32,6.6,40.4,11.2l8.2,4.4l14.2-42.1l-5.6-3.2c-7.7-4.3-23.7-11.5-49-13.2
			v-23.2c0-5-4.1-9.1-9.1-9.1h-27c-5,0-9.1,4.1-9.1,9.1v27.5c-35.4,10.6-57.9,38.8-57.9,73.2c0,34.1,20.5,59.1,62.8,76.4
			c3.3,1.4,6.9,2.7,10.5,4c7.2,2.8,13.2,5.5,18.4,8.2c18.1,9.6,25.1,19.7,25.1,35.8c0,15.7-8.5,27.3-24,32.8
			c-6.4,2.3-13.9,3.4-22.1,3.4c-1.5,0-3,0-4.5-0.1c-17.7-0.8-36.4-6.5-51.1-15.6l-8.6-5.3l-13,43.2l4.8,3.2
			c13.4,9,37.2,15.8,59.8,17.4v19.3c0,5,4.1,9.1,9.1,9.1h27c5,0,9.1-4.1,9.1-9.1v-23.1c39.2-10.3,63.3-39.7,63.3-77.9
			C1749.5,756,1729.1,731.4,1681.3,712.4z"/><path fill="#fcd600" d="M1674.3,704.3l-2.6-1c-11.2-4.3-19.5-8.1-25.9-11.9c-14.7-8.5-20.4-17.1-20.4-30.6c0-4.5,1.4-19.8,19.4-27.1
			c6-2.5,13.2-3.7,21.4-3.7c1.7,0,3.3,0,4.8,0.1c18.1,0.9,32,6.6,40.4,11.2l8.2,4.4l14.2-42.1l-5.6-3.2c-7.7-4.3-23.7-11.5-49-13.2
			V564c0-5-4.1-9.1-9.1-9.1h-27.1c-5,0-9.1,4.1-9.1,9.1v27.5c-35.4,10.6-58,38.8-58,73.2c0,34.1,20.5,59.1,62.8,76.4
			c3.3,1.4,6.9,2.7,10.5,4c7.2,2.8,13.2,5.5,18.4,8.2c18.1,9.7,25.1,19.7,25.1,35.8c0,15.7-8.5,27.3-24,32.8
			c-6.4,2.3-13.9,3.4-22.1,3.4c-1.5,0-3,0-4.5-0.1c-17.7-0.8-36.4-6.5-51.2-15.6l-8.6-5.3l-13,43.2l4.8,3.2
			c13.4,9,37.2,15.8,59.8,17.4v19.3c0,5,4.1,9.1,9.1,9.1h27.1c5,0,9.1-4.1,9.1-9.1v-23.1c39.2-10.3,63.3-39.7,63.3-77.9
			C1742.5,747.9,1722.1,723.3,1674.3,704.3z"/></g></g></svg>