<svg xmlns="http://www.w3.org/2000/svg" xmlns:xlink="http://www.w3.org/1999/xlink" id="Layer_1" data-name="Layer 1" viewBox="0 0 680.936 651.813"><defs><linearGradient id="linear-gradient" x1="171.126" y1="389.642" x2="172.256" y2="252.996" gradientUnits="userSpaceOnUse"><stop offset=".01" stop-color="#002d27"/><stop offset=".042" stop-color="#02342e"/><stop offset=".257" stop-color="#0d5f58"/><stop offset=".466" stop-color="#158079"/><stop offset=".664" stop-color="#1b9891"/><stop offset=".847" stop-color="#1fa79f"/><stop offset="1" stop-color="#20aca4"/></linearGradient><linearGradient id="linear-gradient-2" x1="204.313" y1="608.411" x2="202.512" y2="469.374" gradientTransform="matrix(.9667 .0048 -.1688 .933 121.613 -92.748)" gradientUnits="userSpaceOnUse"><stop offset=".01" stop-color="#d68968"/><stop offset="1" stop-color="#ffbc9f"/></linearGradient><linearGradient id="linear-gradient-3" x1="86.173" y1="543.183" x2=".622" y2="474.679" gradientTransform="matrix(.9667 .0048 -.1688 .933 121.613 -92.748)" gradientUnits="userSpaceOnUse"><stop offset=".01" stop-color="#d68968"/><stop offset=".136" stop-color="#df9474"/><stop offset=".455" stop-color="#f0aa8b"/><stop offset=".752" stop-color="#fbb79a"/><stop offset="1" stop-color="#ffbc9f"/></linearGradient><linearGradient id="linear-gradient-4" x1="156.062" y1="380.623" x2="146.155" y2="346.57" xlink:href="#linear-gradient-3"/><linearGradient id="linear-gradient-5" x1="158.909" y1="531.593" x2="122.547" y2="502.477" gradientTransform="matrix(.9667 .0048 -.1688 .933 121.613 -92.748)" xlink:href="#linear-gradient-3"/><linearGradient id="linear-gradient-6" x1="179.703" y1="535.481" x2="143.848" y2="506.771" gradientTransform="matrix(.9667 .0048 -.1688 .933 121.613 -92.748)" xlink:href="#linear-gradient-3"/><linearGradient id="linear-gradient-7" x1="187.298" y1="675.762" x2="97.917" y2="604.191" gradientTransform="matrix(.9667 .0048 -.1688 .933 121.613 -92.748)" gradientUnits="userSpaceOnUse"><stop offset=".01" stop-color="#004ce9"/><stop offset=".03" stop-color="#0152e7"/><stop offset=".212" stop-color="#0a86d2"/><stop offset=".39" stop-color="#12b2c2"/><stop offset=".562" stop-color="#18d3b5"/><stop offset=".724" stop-color="#1debac"/><stop offset=".874" stop-color="#1ffaa6"/><stop offset="1" stop-color="#20ffa4"/></linearGradient><linearGradient id="linear-gradient-8" x1="137.024" y1="749.336" x2="138.72" y2="589.083" gradientTransform="matrix(.9667 .0048 -.1688 .933 121.613 -92.748)" gradientUnits="userSpaceOnUse"><stop offset=".01" stop-color="#153ec2"/><stop offset=".028" stop-color="#1542c4"/><stop offset=".247" stop-color="#156dd9"/><stop offset=".458" stop-color="#158eea"/><stop offset=".659" stop-color="#15a6f5"/><stop offset=".845" stop-color="#15b5fd"/><stop offset="1" stop-color="#15baff"/></linearGradient><linearGradient id="linear-gradient-9" x1="169.252" y1="684.6" x2="170.758" y2="502.291" gradientTransform="matrix(.9667 .0048 -.1688 .933 121.613 -92.748)" xlink:href="#linear-gradient"/><clipPath id="clip-path"><path class="cls-1" d="M202.708 384.41a8.864 8.864 0 0 0-8.459 7.034l-2.955 16.332c-.14-.084-.28-.172-.421-.255l3.342-18.476a8.082 8.082 0 0 0-8.181-9.877 12.312 12.312 0 0 0-11.74 9.777l-2.657 14.692h-.252l3.47-19.176c.98-5.426-2.636-9.847-8.077-9.874a12.243 12.243 0 0 0-11.631 9.775l-3.471 19.185q-.765.004-1.524.04l10.538-58.252a8.066 8.066 0 0 0-8.143-9.876 12.287 12.287 0 0 0-11.7 9.776l-11.945 66.021a36.685 36.685 0 0 0-3.556 3.03c-9.113-15.26-33.534-24.742-39.197-15.283-5.136 8.579 4.042 13.285 4.042 13.285 16.086 12.722 20.994 31.398 22.477 40.673-.544 9.837 5.478 18.08 15.098 21.695l-.015.001-3.926 21.697 51.398.257 4.308-23.814h-.01c9.473-4.625 16.708-12.857 18.412-22.278l1.435-7.93 2.243-12.4 6.996-38.673a5.82 5.82 0 0 0-5.9-7.106Z"/></clipPath><clipPath id="clip-path-2"><path class="cls-1" d="M202.708 384.41a8.864 8.864 0 0 0-8.459 7.034l-2.955 16.332c-.14-.084-.28-.172-.421-.255l3.342-18.476a8.082 8.082 0 0 0-8.181-9.877 12.312 12.312 0 0 0-11.74 9.777l-2.657 14.692h-.252l3.47-19.176c.98-5.426-2.636-9.847-8.077-9.874-5.442-.028-11.117 4.347-12.098 9.773l-3.472 19.184c-.508.004-.55.019-1.056.043l10.538-58.252a8.066 8.066 0 0 0-8.143-9.876 12.287 12.287 0 0 0-11.7 9.776l-11.945 66.021a36.685 36.685 0 0 0-3.556 3.03c-9.113-15.26-33.534-24.742-39.197-15.283-5.136 8.579 4.042 13.285 4.042 13.285 16.086 12.722 20.994 31.398 22.477 40.673-.544 9.837 5.478 18.08 15.098 21.695l-.016.001-3.925 21.697 51.398.257 4.308-23.814 3.394-.113c9.474-4.624 16.708-12.856 18.413-22.277l1.435-7.932 2.243-12.398 6.996-38.673c.707-3.905-5.34-6.974-9.304-6.994Z"/></clipPath><clipPath id="clip-path-3"><path class="cls-1" d="M224.576 125.03s55.705 3.714 86.662 19.812c0 0 18.574-63.153 54.485-65.63 0 0-48.011-23.527-90.254-7.429 0 0-34.777 23.528-50.893 53.246Z"/></clipPath><clipPath id="clip-path-4"><path class="cls-1" d="m335.654 177.062 75.789-6.362s20.871 18.758 26.089 77.782l-1.959 29.92-73.727-5.17s23.78-55.732-26.192-96.17Z"/></clipPath><style>.cls-1{fill:none}.cls-3{fill:#21343a}.cls-4{fill:#fff}.cls-5{fill:#a2ede9}.cls-6{fill:#3c6384}.cls-7{fill:#273435;opacity:.3}.cls-9{fill:#387d84}.cls-23{fill:#54ddb3}.cls-25{fill:#3eaf89}.cls-26{fill:#a0f2b7}.cls-27{fill:#41b790}.cls-28{fill:#2b8e6a}.cls-29{clip-path:url(#clip-path-4)}</style></defs><path d="M626.412 445.735c1.988 11.275-5.962 27.259-17.237 27.259l-63.058-6.843c-11.275 0-22.027-9.14-24.015-20.416l-30.427-123.309c-1.988-11.275 13.948-21.982 25.223-21.982h63.48c11.275 0 22.026 9.14 24.015 20.416Z" style="fill:#3e5a66"/><path class="cls-3" d="M618.244 452.579c1.989 11.275-5.54 20.415-16.815 20.415h-63.48c-11.274 0-22.026-9.14-24.015-20.416l-22.019-124.875c-1.988-11.275 5.541-20.416 16.816-20.416h63.479c11.275 0 22.027 9.14 24.016 20.416Z"/><path class="cls-4" d="M551.918 353.368h-9.953a10.423 10.423 0 0 1-9.844-8.355l-2.056-11.665a7.48 7.48 0 0 1 1.534-6.225 7.291 7.291 0 0 1 5.71-2.544h9.953a10.422 10.422 0 0 1 9.843 8.355l2.058 11.665a7.48 7.48 0 0 1-1.534 6.225 7.29 7.29 0 0 1-5.71 2.544Zm-14.61-26.407a4.948 4.948 0 0 0-3.885 1.693 5.14 5.14 0 0 0-1.012 4.28l2.057 11.665a7.95 7.95 0 0 0 7.497 6.387h9.954a4.95 4.95 0 0 0 3.885-1.694 5.14 5.14 0 0 0 1.013-4.28l-2.058-11.664a7.95 7.95 0 0 0-7.496-6.387Z"/><path class="cls-4" d="M545.979 347.905a10.882 10.882 0 0 1-10.278-8.725 7.794 7.794 0 0 1 1.597-6.487 7.596 7.596 0 0 1 5.95-2.65 10.883 10.883 0 0 1 10.279 8.724 7.794 7.794 0 0 1-1.598 6.487 7.597 7.597 0 0 1-5.95 2.65Zm-2.73-15.481a5.256 5.256 0 0 0-4.126 1.8 5.457 5.457 0 0 0-1.077 4.543 8.41 8.41 0 0 0 7.933 6.756 5.255 5.255 0 0 0 4.125-1.8 5.455 5.455 0 0 0 1.077-4.543 8.411 8.411 0 0 0-7.932-6.756Z"/><path class="cls-5" d="M561.571 186.098a43.583 43.583 0 0 1 24.963 79.31c-1.14 6.984-4.76 19.993-16.237 28.1 0 0 6.511-8.111 1.278-21.4a43.586 43.586 0 1 1-10.004-86.01Z"/><path class="cls-6" d="m556.806 243.832-13.56-15.798a1.771 1.771 0 0 1 .417-2.682 2.361 2.361 0 0 1 3.036.368l9.987 11.635 19.716-24.602a2.355 2.355 0 0 1 3.02-.456 1.777 1.777 0 0 1 .517 2.668Z"/><path class="cls-7" d="m571.575 272.108 14.958-6.7s-4.618 13.53-12.985 18.476l-.247-5.67Z"/><path class="cls-3" d="M75.242 411.97s3.224 20.331 20.282 19.994c11.122-.22 116.463-1.588 116.463-1.588s28.746 1.593 32.417-35.08c4.296-42.923 31.065-216.584 31.065-216.584s-.554-21.013-11.926-23.812Z"/><path d="M234.857 398.182c-1.763 9.165-8.321 17.703-16.941 19.07l-129.913 4.512c-8.62 1.367-14.179-4.955-12.416-14.12l41.49-215.687c1.762-9.166 10.18-17.703 18.8-19.07l120.137-19.052c8.62-1.367 14.179 4.955 12.416 14.12Z" style="fill:#3f5b63"/><path class="cls-5" d="M220.415 367.636c-1.401 7.002-6.542 13.538-13.272 14.605l-101.383 5.971c-6.73 1.067-11.05-3.744-9.65-10.746l31.684-165.11c1.4-7.002 7.992-13.544 14.722-14.61l94.149-13.608c6.73-1.067 11.05 3.743 9.65 10.745Z"/><path class="cls-4" d="M144.265 412.948a5.6 5.6 0 0 1-4.418-1.97 5.957 5.957 0 0 1-1.136-5.014l1.16-6.065a8.996 8.996 0 0 1 8.09-7.123l5.352-.23a5.648 5.648 0 0 1 4.72 1.965 5.956 5.956 0 0 1 1.135 5.013l-1.16 6.066a8.995 8.995 0 0 1-8.088 7.123l-5.353.229a8.062 8.062 0 0 1-.302.006Zm9.35-18.437q-.108 0-.217.006l-5.353.228a7.05 7.05 0 0 0-6.238 5.525l-1.16 6.064a4.026 4.026 0 0 0 .72 3.387 3.705 3.705 0 0 0 3.115 1.251l5.353-.229a7.049 7.049 0 0 0 6.237-5.523l1.16-6.065a4.026 4.026 0 0 0-.719-3.387 3.663 3.663 0 0 0-2.898-1.257ZM205.98 174.735a2.527 2.527 0 0 1-2.133 2.868l-29.156 4.287a2.527 2.527 0 0 1-2.867-2.132 2.527 2.527 0 0 1 2.132-2.868l29.156-4.287a2.527 2.527 0 0 1 2.868 2.132Z"/><path class="cls-7" d="M199.667 351.317c-.635 6.514-6.567 12.21-13.25 12.722l-55.914 4.285c-6.683.512-11.586-4.353-10.952-10.867.635-6.514 6.567-12.21 13.25-12.722l55.914-4.285c6.683-.512 11.586 4.353 10.952 10.867Z"/><path class="cls-4" d="M196.597 346.363c-.634 6.514-6.567 12.21-13.25 12.722l-55.914 4.285c-6.683.512-11.586-4.353-10.952-10.868.635-6.513 6.567-12.21 13.25-12.722l55.914-4.285c6.683-.512 11.587 4.354 10.952 10.868Z"/><path class="cls-9" d="m132.23 355.137.811-8.323-2.904.223.177-1.812 7.768-.596-.176 1.812-2.905.223-.81 8.322ZM138.06 347.806l1.787-.137-.094.962.116-.008a2.293 2.293 0 0 1 .395-.494 3.261 3.261 0 0 1 .522-.408 3.38 3.38 0 0 1 .605-.299 2.277 2.277 0 0 1 .627-.144 2.217 2.217 0 0 1 .639.03 1.368 1.368 0 0 1 .437.169l-.67 1.694a1.57 1.57 0 0 0-.371-.104 2.2 2.2 0 0 0-.51-.01 1.867 1.867 0 0 0-.727.203 1.999 1.999 0 0 0-.585.462 2.45 2.45 0 0 0-.41.66 2.69 2.69 0 0 0-.2.799l-.333 3.415-1.903.146ZM147.462 353.239l-.116.008a4.111 4.111 0 0 1-.872.742 2.646 2.646 0 0 1-1.24.376 2.812 2.812 0 0 1-1.021-.098 2.174 2.174 0 0 1-.802-.423 1.71 1.71 0 0 1-.493-.707 2.072 2.072 0 0 1-.11-.947 2.41 2.41 0 0 1 .313-.986 2.843 2.843 0 0 1 .682-.79 3.427 3.427 0 0 1 .968-.544 4.26 4.26 0 0 1 1.17-.252 4.55 4.55 0 0 1 1.856.181l.02-.212a.933.933 0 0 0-.36-.878 1.505 1.505 0 0 0-1.083-.276 2.56 2.56 0 0 0-1.749.935l-1.29-.814a4.56 4.56 0 0 1 3.229-1.624 3.276 3.276 0 0 1 2.452.563 2.4 2.4 0 0 1 .653 2.177l-.405 4.161-1.873.144Zm.203-2.08a3.413 3.413 0 0 0-.666-.196 2.962 2.962 0 0 0-.768-.033 1.932 1.932 0 0 0-1.08.372 1.074 1.074 0 0 0-.44.743.658.658 0 0 0 .29.652 1.199 1.199 0 0 0 .795.192 1.983 1.983 0 0 0 .71-.188 2.208 2.208 0 0 0 .579-.396 1.98 1.98 0 0 0 .398-.536 1.708 1.708 0 0 0 .182-.61ZM153.147 347.549l.116-.009a3.075 3.075 0 0 1 2.303-1.3 2.8 2.8 0 0 1 1.156.122 1.683 1.683 0 0 1 .776.537 2.141 2.141 0 0 1 .403.897 3.924 3.924 0 0 1 .049 1.197l-.41 4.204-1.902.146.388-3.978a1.377 1.377 0 0 0-.233-1.085 1.118 1.118 0 0 0-.96-.284 1.603 1.603 0 0 0-.705.215 2.068 2.068 0 0 0-.551.478 2.43 2.43 0 0 0-.383.676 3.12 3.12 0 0 0-.187.808l-.331 3.397-1.902.145.676-6.935 1.785-.137ZM161.831 353.093a3.953 3.953 0 0 1-1.225-.075 2.844 2.844 0 0 1-.9-.373 2.281 2.281 0 0 1-.613-.585 2.45 2.45 0 0 1-.35-.697l1.767-.838a1.4 1.4 0 0 0 .583.749 1.494 1.494 0 0 0 .897.191 1.809 1.809 0 0 0 .845-.247.652.652 0 0 0 .348-.462.443.443 0 0 0-.21-.44 2.274 2.274 0 0 0-.847-.252l-.981-.135a3.098 3.098 0 0 1-.668-.174 2.149 2.149 0 0 1-.607-.347 1.564 1.564 0 0 1-.423-.544 1.453 1.453 0 0 1-.112-.778 2.069 2.069 0 0 1 .314-.923 2.672 2.672 0 0 1 .682-.72 3.673 3.673 0 0 1 .964-.495 4.569 4.569 0 0 1 1.154-.236 3.73 3.73 0 0 1 1.778.25 1.884 1.884 0 0 1 1.055 1.149l-1.704.776a.966.966 0 0 0-.538-.548 1.65 1.65 0 0 0-.766-.124 1.693 1.693 0 0 0-.728.217.598.598 0 0 0-.345.44.346.346 0 0 0 .217.364 2.517 2.517 0 0 0 .665.201l1.064.172a2.593 2.593 0 0 1 1.54.69 1.584 1.584 0 0 1 .401 1.282 2.08 2.08 0 0 1-.302.88 2.993 2.993 0 0 1-.688.777 3.784 3.784 0 0 1-1.007.576 4.35 4.35 0 0 1-1.26.279ZM170.562 342.028a3.667 3.667 0 0 1 .748.013 3.056 3.056 0 0 1 .607.136l-.699 1.697a1.407 1.407 0 0 0-.301-.09 1.644 1.644 0 0 0-.41-.01 1.04 1.04 0 0 0-.693.314 1.203 1.203 0 0 0-.318.747l-.056.566 1.772-.135-.154 1.585-1.772.136-.521 5.35-1.902.145.521-5.35-1.278.098.155-1.585 1.277-.098.067-.68a3.34 3.34 0 0 1 .305-1.14 2.816 2.816 0 0 1 .639-.864 3.157 3.157 0 0 1 .907-.575 3.543 3.543 0 0 1 1.106-.26ZM178.279 349.95a5.05 5.05 0 0 1-1.462 1.474 4.31 4.31 0 0 1-2.092.68 3.7 3.7 0 0 1-1.476-.16 2.862 2.862 0 0 1-1.122-.68 2.772 2.772 0 0 1-.678-1.107 3.493 3.493 0 0 1-.139-1.457 4.162 4.162 0 0 1 .414-1.444 4.592 4.592 0 0 1 .884-1.233 4.73 4.73 0 0 1 1.247-.89 4.082 4.082 0 0 1 1.518-.41 3.66 3.66 0 0 1 1.497.158 2.445 2.445 0 0 1 1.044.679 2.62 2.62 0 0 1 .57 1.101 4.098 4.098 0 0 1 .092 1.426l-.017.17a.996.996 0 0 0-.03.156.86.86 0 0 0-.029.157l-5.358.41a1.658 1.658 0 0 0 .168.711 1.371 1.371 0 0 0 .4.475 1.432 1.432 0 0 0 .56.252 2.213 2.213 0 0 0 .644.043 2.173 2.173 0 0 0 1.11-.373 2.752 2.752 0 0 0 .747-.781Zm-1.466-2.557a1.038 1.038 0 0 0-.084-.401 1.133 1.133 0 0 0-.278-.4 1.329 1.329 0 0 0-.49-.285 1.843 1.843 0 0 0-.736-.071 2.071 2.071 0 0 0-1.108.422 2.269 2.269 0 0 0-.746.999ZM180.128 344.582l1.786-.137-.094.963.116-.01a2.288 2.288 0 0 1 .394-.493 3.231 3.231 0 0 1 .523-.407 3.352 3.352 0 0 1 .605-.3 2.274 2.274 0 0 1 .627-.144 2.218 2.218 0 0 1 .638.03 1.38 1.38 0 0 1 .438.169l-.67 1.695a1.561 1.561 0 0 0-.371-.105 2.184 2.184 0 0 0-.51-.01 1.87 1.87 0 0 0-.727.204 2.002 2.002 0 0 0-.586.461 2.452 2.452 0 0 0-.41.66 2.69 2.69 0 0 0-.2.799l-.333 3.415-1.902.145Z"/><path class="cls-7" d="M218.272 299.091c-.782 7.281-7.474 13.567-14.948 14.04l-61.799 3.914c-7.474.473-12.898-5.045-12.117-12.326l10.219-55.765c.782-7.28 7.473-13.566 14.947-14.04l57.809-6.148c7.474-.473 12.9 5.046 12.118 12.325Z"/><path class="cls-6" d="M213.213 291.81c-.8 7.28-7.506 13.549-14.982 14.004l-61.807 3.766c-7.475.455-12.887-5.075-12.088-12.354l10.352-55.74c.799-7.28 7.505-13.549 14.98-14.005l57.823-6.01c7.475-.455 12.887 5.076 12.089 12.354Z"/><path class="cls-4" d="m160.842 293.717-12.514-11.372.915-.487c.206-.11 20.601-11.094 25.027-23.103l.366-.995 16.78 14.636-.37.537a60.234 60.234 0 0 1-8.298 9.227c-4.797 4.387-12.43 9.943-21.555 11.497Zm-10.008-11.068 10.462 9.507c14.96-2.732 26.01-16.636 28.166-19.527l-14.213-12.396c-4.685 10.781-20.413 20.164-24.415 22.416Z"/><path class="cls-4" d="M173.878 282.053a3.455 3.455 0 0 1-1.674.703 3.138 3.138 0 0 1-1.912-.402l.593-1.433a2.097 2.097 0 0 0 .95.278 1.756 1.756 0 0 0 .948-.212l-1.664-1.62-.114.046a5.822 5.822 0 0 1-.896.342 3.361 3.361 0 0 1-.884.136 2.436 2.436 0 0 1-.835-.132 1.997 1.997 0 0 1-.745-.471 2.126 2.126 0 0 1-.654-1.52 2.547 2.547 0 0 1 .157-.887 3.195 3.195 0 0 1 .501-.893l-.753-.733.777-.799.771.751a2.889 2.889 0 0 1 .791-.445 2.919 2.919 0 0 1 .748-.163 2.246 2.246 0 0 1 .665.044 2.754 2.754 0 0 1 .551.188l-.54 1.431a1.483 1.483 0 0 0-.525-.126 1.322 1.322 0 0 0-.612.12l1.568 1.527q.533-.232 1.005-.384a3.474 3.474 0 0 1 .901-.172 2.016 2.016 0 0 1 .81.124 2.145 2.145 0 0 1 .731.485 2.357 2.357 0 0 1 .566.821 2.293 2.293 0 0 1 .163.885 2.556 2.556 0 0 1-.178.884 3.833 3.833 0 0 1-.441.82l.77.75-.777.8Zm-5.158-3.869a.73.73 0 0 0 .499.215 2.176 2.176 0 0 0 .752-.15l-1.28-1.246a1.317 1.317 0 0 0-.19.653.711.711 0 0 0 .219.528Zm4.708.809a.789.789 0 0 0-.5-.241 1.878 1.878 0 0 0-.708.131l1.34 1.306a1.237 1.237 0 0 0 .135-.638.842.842 0 0 0-.267-.558ZM166.714 293.942a36.207 36.207 0 0 1-5.753-.406l.218-1.197c.15.027 14.836 2.574 26.103-5.709l-4.473-5.592.95-.76 5.252 6.565-.49.379c-7.324 5.645-16.15 6.72-21.807 6.72ZM159.626 250.608a4.307 4.307 0 0 1-2.419-.862 3.817 3.817 0 0 1-1.352-2.381l2.241-1.068a2.615 2.615 0 0 0 .58 1.274 2.083 2.083 0 0 0 1.153.704l.31-3.547-.164-.06a7.131 7.131 0 0 1-1.254-.5 3.918 3.918 0 0 1-1.002-.728 2.9 2.9 0 0 1-.642-.99 2.827 2.827 0 0 1-.159-1.291 3.702 3.702 0 0 1 .356-1.291 4.135 4.135 0 0 1 .798-1.126 4.877 4.877 0 0 1 1.188-.873 5.46 5.46 0 0 1 1.522-.532l.14-1.605 1.675-.148-.143 1.643a3.775 3.775 0 0 1 1.274.277 3.433 3.433 0 0 1 .904.56 2.598 2.598 0 0 1 .582.717 3.456 3.456 0 0 1 .307.77l-2.19 1.118a1.825 1.825 0 0 0-.352-.673 1.563 1.563 0 0 0-.725-.473l-.29 3.341a13.38 13.38 0 0 1 1.407.562 4.05 4.05 0 0 1 1.06.703 2.403 2.403 0 0 1 .626.954 3.053 3.053 0 0 1 .13 1.295 4.06 4.06 0 0 1-.421 1.519 4.458 4.458 0 0 1-.879 1.188 4.88 4.88 0 0 1-1.204.847 6.599 6.599 0 0 1-1.38.51l-.143 1.643-1.675.147Zm-.392-9.653a.96.96 0 0 0 .224.749 2.567 2.567 0 0 0 .893.58l.237-2.726a2.459 2.459 0 0 0-.946.565 1.313 1.313 0 0 0-.408.832Zm3.542 5.653a1.055 1.055 0 0 0-.194-.779 2.196 2.196 0 0 0-.829-.557l-.248 2.856a2.342 2.342 0 0 0 .874-.605 1.536 1.536 0 0 0 .397-.915ZM168.174 249.616a1.372 1.372 0 0 1-1.118-.358 1.245 1.245 0 0 1-.383-1.066 1.751 1.751 0 0 1 .576-1.141 1.949 1.949 0 0 1 1.197-.552 1.36 1.36 0 0 1 1.109.35 1.234 1.234 0 0 1 .375 1.057 1.797 1.797 0 0 1-.568 1.15 1.894 1.894 0 0 1-1.188.56ZM171.562 249.318l.194-2.221q1.204-1.18 2.227-2.196l.88-.874.838-.833q.388-.386.696-.7.307-.314.473-.496l.591-.681a3.944 3.944 0 0 0 .425-.584 3.375 3.375 0 0 0 .264-.56 2.386 2.386 0 0 0 .126-.595 1.19 1.19 0 0 0-.396-1.03 1.624 1.624 0 0 0-1.297-.34 2.1 2.1 0 0 0-1.359.592 3.108 3.108 0 0 0-.733 1.129l-2.161-.718a5.118 5.118 0 0 1 .58-1.079 5.027 5.027 0 0 1 .949-1.028 5.674 5.674 0 0 1 1.312-.8 5.114 5.114 0 0 1 1.652-.414 4.788 4.788 0 0 1 1.744.134 3.143 3.143 0 0 1 1.267.676 2.777 2.777 0 0 1 .744 1.11 3.294 3.294 0 0 1 .174 1.439 4.86 4.86 0 0 1-.784 2.245 12.406 12.406 0 0 1-1.602 1.984l-1.759 1.748q-.695.69-1.573 1.546l.066.105 5.214-.458-.187 2.147ZM187.16 248.244a4.373 4.373 0 0 1-2.196-.317 3.982 3.982 0 0 1-1.58-1.26 5.247 5.247 0 0 1-.898-2.023 8.44 8.44 0 0 1-.147-2.608 9.75 9.75 0 0 1 .607-2.674 8.007 8.007 0 0 1 1.267-2.214 6.614 6.614 0 0 1 1.826-1.559 5.48 5.48 0 0 1 2.285-.71 4.38 4.38 0 0 1 2.195.316 3.982 3.982 0 0 1 1.58 1.26 5.247 5.247 0 0 1 .899 2.023 8.462 8.462 0 0 1 .146 2.608 9.774 9.774 0 0 1-.606 2.675 8.001 8.001 0 0 1-1.267 2.213 6.613 6.613 0 0 1-1.827 1.56 5.47 5.47 0 0 1-2.284.71Zm.202-2.315a2.69 2.69 0 0 0 1.251-.434 3.722 3.722 0 0 0 1.012-.997 5.407 5.407 0 0 0 .705-1.442 7.835 7.835 0 0 0 .348-1.753 6.945 6.945 0 0 0-.045-1.728 3.728 3.728 0 0 0-.464-1.33 2.225 2.225 0 0 0-.852-.832 2.086 2.086 0 0 0-1.195-.22 2.725 2.725 0 0 0-1.27.437 3.605 3.605 0 0 0-1.003.995 5.57 5.57 0 0 0-.694 1.432 7.761 7.761 0 0 0-.35 1.762 6.942 6.942 0 0 0 .047 1.72 3.852 3.852 0 0 0 .453 1.339 2.155 2.155 0 0 0 .843.834 2.119 2.119 0 0 0 1.214.217Z"/><path d="M160.961 337.387s9.553-1.674 4.56 23.064l-1.558 7.91s9.822-4.376 15.267 6.226c0 0 9.588-10.6 17.422 4.581 0 0 22.01-6.6 15.417 20.88l-.083 30.328-18.803-.299-64.593 1.892 20.35-85.786Z" style="fill:url(#linear-gradient);opacity:.4"/><path d="M202.708 384.41a8.864 8.864 0 0 0-8.459 7.034l-2.955 16.332c-.14-.084-.28-.172-.421-.255l3.342-18.476a8.082 8.082 0 0 0-8.181-9.877 12.312 12.312 0 0 0-11.74 9.777l-2.657 14.692h-.252l3.47-19.176c.98-5.426-2.636-9.847-8.077-9.874-5.442-.028-11.117 4.347-12.098 9.773l-3.472 19.184c-.508.004-.55.019-1.056.043l10.538-58.252a8.066 8.066 0 0 0-8.143-9.876 12.287 12.287 0 0 0-11.7 9.776l-11.945 66.021a36.685 36.685 0 0 0-3.556 3.03c-9.113-15.26-33.534-24.742-39.197-15.283-5.136 8.579 4.042 13.285 4.042 13.285 16.086 12.722 20.994 31.398 22.477 40.673-.544 9.837 5.478 18.08 15.098 21.695l-.016.001-3.925 21.697 51.398.257 4.308-23.814h-.01c9.473-4.625 16.708-12.857 18.412-22.278l1.435-7.93 2.243-12.4 6.996-38.673a5.82 5.82 0 0 0-5.9-7.106Z" style="fill:#fec0a0"/><g style="clip-path:url(#clip-path)"><path d="m169.516 496.583 4.994-26.746c1.743-.564 17.107-5.053 20.645-24.61l8.464-46.78s3.907-12.273-3.376-14.049c-7.282-1.775 32.106 3.259 33.313 6.91 1.209 3.65 28.58 64.067 28.586 65.75.007 1.681 1.045 14.865-8.765 24.348-9.812 9.484-8.987 8.366-9.812 9.484-.825 1.118-14.746 19.553-26.72 20.333-11.975.781-1.744 4.477-21.467-.108Z" style="fill:url(#linear-gradient-2)"/></g><g style="clip-path:url(#clip-path-2)"><path d="M84.845 402.052s5-8.109 17.528.088c12.529 8.199 16.913 14.95 16.913 14.95l.788 2.528 6.662-6.604-7.843-14.405s-19.4-14.981-20.44-16.11l-1.042-1.126s2.692-1.108-6.533-.033c-9.224 1.075-24.267 11.935-24.267 11.935Z" style="fill:url(#linear-gradient-3)"/></g><path d="M153.977 335.572s4.747 2.931 2.923 13.016l-9.933 54.902 3.185.097 10.538-58.252s.949-8.987-6.713-9.763Z" style="fill:url(#linear-gradient-4)"/><path d="M166.778 374.587s5.898 2.116 4.016 10.8c-1.881 8.681-3.297 18.287-3.297 18.287l3.888-.038 3.247-17.95s3.435-10.608-7.854-11.1Z" style="fill:url(#linear-gradient-5)"/><path d="M186.034 379.168s5.744.39 3.992 10.077l-3.02 16.69 3.866 1.586 3.343-18.476s1.434-9.113-8.181-9.877Z" style="fill:url(#linear-gradient-6)"/><path d="M117.273 491.306a57.458 57.458 0 0 1 35.21-12.088c21.125.107 30.355 12.417 30.355 12.417l-3.881 21.452s-32.415-17.03-65.565-.328Z" style="fill:url(#linear-gradient-7)"/><path d="M113.666 511.246a60.316 60.316 0 0 1 35.221-11.122c21.124.105 30.343 11.45 30.343 11.45l-5.108 88.338H83.785Z" style="fill:url(#linear-gradient-8)"/><path d="m167.495 481.641-8.118 118.271h14.745l5.108-88.337 3.608-19.94s-6.707-7.994-15.343-9.994Z" style="fill:url(#linear-gradient-9);opacity:.4"/><path d="M125.726 485.847s28.42-32.426 49.692-1.857c0 0-35.204-8.279-49.692 1.857Z" style="fill:#d88f6f"/><path class="cls-5" d="M107.815 51.9a53.597 53.597 0 0 0-30.697 97.533c1.4 8.589 5.854 24.586 19.967 34.557 0 0-8.007-9.976-1.571-26.318A53.6 53.6 0 1 0 107.815 51.9Z"/><path class="cls-6" d="m76.077 102.18 17.151 10.37v18.837l11.21-11.583 16.655 14.656 10.385-51.368Zm5.481.583 41.873-14.427-29.11 22.145Zm14.007 9.708 25.959-19.748-18.047 24.713-7.912 8.176Zm24.038 17.565-13.657-12.018 22.09-30.248.133-.102Z"/><path class="cls-7" d="M77.118 149.433s10.61 7.008 18.396 8.239c0 0-2.379 5.839-2.409 10.068 0 0-13.514-3.74-15.987-18.307Z"/><path class="cls-23" d="M224.576 125.03s55.705 3.714 86.662 19.812c0 0 18.574-63.153 54.485-65.63 0 0-53.037-27.94-96.967-2.502 0 0-28.064 18.6-44.18 48.32Z"/><path class="cls-25" d="m246.578 96.318 7.699 22.52 40.872 9.906 22.28-11.624s22.29-6.95 22.29 5.433 0 50.513-4.954 50.022-8.668-19.065-54.484-27.733-79.338-12.383-83.629-14.86-12.03 3.715-14.351-6.19a147.003 147.003 0 0 1-3.071-18.296l3.608-11.424Z" style="clip-path:url(#clip-path-3)"/><path class="cls-26" d="M287.336 68.174s-29.715 14.055 3.376 29.891c0 0 31.206 7.549 42.745-12.091 0 0 10.543-17.826-20.006-21.008Z"/><path class="cls-25" d="M316.53 84.474a11.598 11.598 0 0 1-3.612 3.67 9.438 9.438 0 0 1-5.138 1.448l.281-3.994a6.102 6.102 0 0 0 2.618-.54 5.877 5.877 0 0 0 2.203-1.657l-5.543-1.63-.246.246a19.645 19.645 0 0 1-1.962 1.886 11.251 11.251 0 0 1-2.102 1.402 7.468 7.468 0 0 1-2.21.733 5.063 5.063 0 0 1-2.264-.153 4.515 4.515 0 0 1-1.797-.99 4.294 4.294 0 0 1-1.124-1.66 5.835 5.835 0 0 1-.356-2.213 8.686 8.686 0 0 1 .508-2.651l-2.51-.739 1.28-2.778 2.567.756a9.61 9.61 0 0 1 1.611-1.99 9.794 9.794 0 0 1 1.74-1.296 7.031 7.031 0 0 1 1.706-.721 7.775 7.775 0 0 1 1.543-.255l-.151 3.925a4.346 4.346 0 0 0-2.86 1.392l5.222 1.537q1.143-1.188 2.2-2.118a11.64 11.64 0 0 1 2.117-1.504 6.2 6.2 0 0 1 2.136-.718 5.373 5.373 0 0 1 2.243.2 4.938 4.938 0 0 1 2.112 1.17 4.644 4.644 0 0 1 1.154 1.81 5.898 5.898 0 0 1 .298 2.233 10.23 10.23 0 0 1-.416 2.412l2.568.756-1.279 2.778Zm-16.208-2.429a2.001 2.001 0 0 0 1.434-.128 7.316 7.316 0 0 0 1.761-1.272l-4.26-1.253a3.164 3.164 0 0 0 .07 1.722 1.448 1.448 0 0 0 .995.931Zm12.498-3.98a2.12 2.12 0 0 0-1.455.069 6.298 6.298 0 0 0-1.668 1.175l4.464 1.314a2.865 2.865 0 0 0-.199-1.619 1.722 1.722 0 0 0-1.142-.938Z"/><path class="cls-27" d="M365.723 79.213s17.288 9.212 23.79 34.29a202.014 202.014 0 0 0-54.298 2.526s11.362-37.669 30.508-36.816Z"/><path class="cls-27" d="M365.723 79.213c-16.36-2.71-36.133 26.284-36.133 26.284 1.38-2.125 5.625 10.532 5.625 10.532Z"/><path class="cls-28" d="M335.215 116.029s22.76-28.11 44.102-24.142c0 0-13.595-25.584-31.66-5.987l-18.067 19.597Z"/><path class="cls-23" d="m335.654 177.062 75.789-6.362s20.871 18.758 26.089 77.782l-1.959 29.92-73.727-5.17s23.78-55.732-26.192-96.17Z"/><g class="cls-29"><path class="cls-25" d="m355.536 199.16 4.025-13.756 41.728-3.848 24.26 12.684-14.804-38.775s-70.929-.505-75.09 4.64-11.99 10.667-14.925 17.2 1.956 24.038 1.956 24.038l5.808 14.784Z"/></g><g class="cls-29"><path class="cls-25" d="m366.372 255.99 10.128 11.194 42.072 3.3 18.468-14.494 8.928 39.019-44.03 10.418-40.092-2.652s-11.234-2.169-17.859-4.782-21.3-2.984-21.3-2.984Z"/></g><path class="cls-26" d="M415.637 215.149s-9.167-19.785-29.044-13.806-14.007 22.612-5.2 30.44 22.503 15.654 34.244 0a13.124 13.124 0 0 0 0-16.634Z"/><path class="cls-25" d="M406.636 220.135a11.824 11.824 0 0 1-.987 5.274 7.824 7.824 0 0 1-3.57 3.75l-2.05-4.099a4.989 4.989 0 0 0 1.93-1.715 5.557 5.557 0 0 0 .938-2.638l-5.683.87-.07.356a19.715 19.715 0 0 1-.597 2.758 10.32 10.32 0 0 1-.996 2.34 6.213 6.213 0 0 1-1.472 1.721 4.196 4.196 0 0 1-2.027.867 4.46 4.46 0 0 1-2.107-.176 5.309 5.309 0 0 1-1.915-1.146 7.966 7.966 0 0 1-1.576-2.042 11.456 11.456 0 0 1-1.085-2.865l-2.572.394-.5-3.338 2.633-.403a10.303 10.303 0 0 1 .238-2.704 9.251 9.251 0 0 1 .746-2.07 5.981 5.981 0 0 1 1.048-1.484 6.291 6.291 0 0 1 1.175-.948l2.123 3.973a3.64 3.64 0 0 0-1.014 1 4.14 4.14 0 0 0-.637 1.67l5.354-.82q.297-1.695.669-3.095a10.86 10.86 0 0 1 .95-2.448 5.175 5.175 0 0 1 1.417-1.674 4.476 4.476 0 0 1 2.036-.81 4.893 4.893 0 0 1 2.48.214 5.82 5.82 0 0 1 2.027 1.283 8.055 8.055 0 0 1 1.536 2.086 13.512 13.512 0 0 1 1.029 2.586l2.632-.403.499 3.338Zm-15.274 4.87a1.642 1.642 0 0 0 1.154-.771 6.818 6.818 0 0 0 .78-2.057l-4.367.668a4.31 4.31 0 0 0 1.046 1.682 1.616 1.616 0 0 0 1.387.479Zm8.42-9.576a1.742 1.742 0 0 0-1.207.722 5.847 5.847 0 0 0-.754 1.919l4.577-.7a3.904 3.904 0 0 0-1.1-1.52 1.869 1.869 0 0 0-1.515-.421Z"/><path class="cls-23" d="M399.013 324.87s57.337 16.04 71.848 8.484c0 0-10.568 46.423 11.723 53.8 0 0-74.262 13.878-83.571-62.285Z"/><path class="cls-27" d="M482.584 387.154s38.082-.983 46.441-37.206l-52.321 6.559-7.785 9.256s0 17.622 13.666 21.391Z"/><path class="cls-28" d="M476.704 356.507s11.085 25.234 27.988 24.663c0 0-13.557 5.11-22.108 5.984 0 0-13.38-4.842-13.665-21.391Z"/><path class="cls-25" d="m403.376 344.426 6.448-8.667s26.984 7.647 41.224 5.062l17.31 15.686 2.503-23.153s-24.2 7.25-71.848-8.485Z"/><path class="cls-26" d="M423.329 373.72s8.613-9.936 29.607-1.56c0 0 20.36 8.546 8.286 14.994 0 0-15.413 1.978-37.893-13.435Z"/><path class="cls-4" d="m452.207 365.222-.051-1.857a57.408 57.408 0 0 0 3.954-.227l.203 1.847a59.552 59.552 0 0 1-4.106.237Zm-4.105-.035a73.656 73.656 0 0 1-4.091-.275l.207-1.848a71.58 71.58 0 0 0 3.969.268Zm12.29-.738-.37-1.826q.355-.06.708-.126l.403 1.82q-.37.069-.74.132Zm-20.441-.026a90.931 90.931 0 0 1-4.02-.68l.411-1.818a89.12 89.12 0 0 0 3.924.663Zm-7.996-1.527c-1.294-.302-2.618-.639-3.935-.999l.576-1.78c1.291.353 2.589.683 3.857.98Zm-7.822-2.134a129.843 129.843 0 0 1-3.84-1.26l.71-1.739c1.26.435 2.53.852 3.776 1.238Zm-7.63-2.631c-1.241-.47-2.5-.966-3.744-1.476l.822-1.696c1.226.503 2.467.992 3.689 1.454Zm-7.439-3.05a155.374 155.374 0 0 1-3.646-1.666l.923-1.651c1.185.56 2.395 1.112 3.597 1.643Zm-7.241-3.423a143.51 143.51 0 0 1-3.544-1.852l1.024-1.6c1.121.606 2.296 1.22 3.492 1.824Zm-7.036-3.824-.387-.251a57.07 57.07 0 0 1-2.681-2.5l1.483-1.262a55.019 55.019 0 0 0 2.523 2.358l.161.097Zm-5.747-5.617a52.556 52.556 0 0 1-2.447-3.037l1.665-1.051a50.745 50.745 0 0 0 2.36 2.928Zm-4.647-6.23a51.913 51.913 0 0 1-1.943-3.329l1.812-.82a50.31 50.31 0 0 0 1.874 3.212Zm-3.627-6.772a55.663 55.663 0 0 1-1.43-3.537l1.915-.592c.424 1.162.89 2.315 1.384 3.425Zm-2.614-7.148a63.254 63.254 0 0 1-.954-3.663l1.976-.383a61.55 61.55 0 0 0 .927 3.563Zm-1.693-7.365a75.532 75.532 0 0 1-.543-3.724l2.007-.205c.149 1.233.327 2.457.53 3.64Zm-.907-7.461a93.14 93.14 0 0 1-.204-3.745l2.018-.06c.043 1.244.11 2.481.2 3.676Zm1.755-7.487-2.02-.003c.003-1.217.025-2.476.068-3.742l2.018.058a114.695 114.695 0 0 0-.066 3.687Zm.245-7.374-2.016-.107c.076-1.213.17-2.467.282-3.728l2.012.15a146.23 146.23 0 0 0-.278 3.685Zm.645-7.365-2.01-.189c.134-1.203.285-2.451.449-3.709l2.004.221a190.543 190.543 0 0 0-.443 3.676Zm.955-7.347-2-.25c.176-1.199.37-2.44.574-3.692l1.997.276a250.927 250.927 0 0 0-.57 3.666Zm1.193-7.326-1.994-.298q.323-1.83.669-3.674l1.99.316q-.344 1.833-.665 3.656Zm1.366-7.308-1.987-.33q.36-1.826.734-3.661l1.985.343q-.373 1.828-.732 3.648Zm1.487-7.294-1.983-.352q.384-1.826.777-3.659l1.98.359q-.39 1.829-.774 3.652Zm1.562-7.302-1.98-.363q.395-1.823.793-3.65l1.98.365q-.398 1.826-.793 3.648Zm1.587-7.295-1.98-.364.79-3.644 1.98.36q-.393 1.825-.79 3.648Zm1.57-7.296-1.981-.356q.386-1.822.763-3.643l1.984.348q-.378 1.825-.765 3.65Zm1.51-7.305-1.985-.337q.366-1.825.717-3.645l1.988.323q-.352 1.828-.72 3.659Zm1.408-7.322-1.992-.308q.334-1.828.647-3.65l1.995.29q-.314 1.83-.65 3.668Zm1.257-7.353-1.998-.268c.197-1.242.383-2.476.553-3.668l2.002.243c-.171 1.2-.359 2.443-.557 3.693Zm1.057-7.395-2.006-.214c.157-1.242.302-2.48.43-3.678l2.01.182a200.01 200.01 0 0 1-.434 3.71Zm.794-7.428-2.013-.147c.108-1.243.2-2.484.276-3.687l2.016.107a161.12 161.12 0 0 1-.279 3.727Zm.465-7.46-2.018-.063c.045-1.243.073-2.484.082-3.69l2.02.014c-.01 1.221-.038 2.48-.084 3.739Zm-1.964-7.44c-.03-1.24-.08-2.48-.152-3.682l2.017-.1c.071 1.222.123 2.48.153 3.741Zm-.437-7.354a88.599 88.599 0 0 0-.432-3.657l2.003-.237c.17 1.217.318 2.471.44 3.728Zm-1.023-7.292a76.046 76.046 0 0 0-.76-3.604l1.972-.396c.285 1.203.547 2.443.779 3.686Zm-1.702-7.165a67.138 67.138 0 0 0-1.134-3.51l1.92-.576a68.832 68.832 0 0 1 1.164 3.603Zm-205.5-6.22-1.75-.926c.03-.049.764-1.218 2.227-3.209l1.673 1.04c-1.417 1.928-2.142 3.083-2.15 3.095Zm203.032-.74a61.662 61.662 0 0 0-1.54-3.374l1.838-.769a63.595 63.595 0 0 1 1.586 3.473Zm-198.571-5.371-1.63-1.097c.79-.991 1.619-1.998 2.465-2.992l1.59 1.146a114.78 114.78 0 0 0-2.425 2.943Zm195.28-1.29a59.902 59.902 0 0 0-1.959-3.182l1.726-.963a61.815 61.815 0 0 1 2.019 3.278Zm-190.33-4.525-1.55-1.19c.864-.953 1.758-1.909 2.657-2.842l1.51 1.232a128.32 128.32 0 0 0-2.617 2.8Zm186.208-1.723a61.712 61.712 0 0 0-2.36-2.942l1.587-1.147c.842.985 1.66 2.005 2.433 3.03Zm-180.884-3.804-1.47-1.272c.926-.907 1.88-1.813 2.833-2.692l1.43 1.312c-.94.866-1.88 1.758-2.793 2.652Zm175.976-1.945a66.81 66.81 0 0 0-2.721-2.668l1.432-1.309a68.803 68.803 0 0 1 2.8 2.746Zm-170.309-3.282-1.387-1.35c.984-.855 1.994-1.707 3.001-2.532l1.343 1.388c-.993.812-1.988 1.651-2.957 2.494Zm164.706-1.91a75.463 75.463 0 0 0-3.026-2.381l1.272-1.443a77.53 77.53 0 0 1 3.107 2.444Zm-158.713-2.995-1.296-1.424c1.04-.801 2.104-1.595 3.163-2.36l1.247 1.461c-1.042.753-2.09 1.535-3.114 2.323Zm152.53-1.624a86.744 86.744 0 0 0-3.271-2.1l1.117-1.547a89.247 89.247 0 0 1 3.348 2.148Zm-146.225-2.93-1.197-1.497c1.09-.737 2.207-1.468 3.319-2.17l1.144 1.53c-1.094.692-2.193 1.41-3.266 2.136Zm139.58-1.133a102.085 102.085 0 0 0-3.461-1.834l.973-1.628c1.197.606 2.386 1.235 3.532 1.871Zm-132.976-3.04-1.088-1.565c1.14-.671 2.306-1.333 3.467-1.966l1.03 1.597a122.913 122.913 0 0 0-3.409 1.933Zm125.976-.505q-.471-.218-.95-.434-1.336-.603-2.661-1.179l.862-1.679q1.34.582 2.689 1.191.486.22.965.44Zm-7.26-3.158a201.28 201.28 0 0 0-3.683-1.474l.786-1.711c1.228.478 2.48.98 3.722 1.49Zm-111.828-.096-.97-1.629c1.187-.599 2.4-1.185 3.605-1.743l.908 1.659a118.97 118.97 0 0 0-3.543 1.713Zm104.429-2.78a185.76 185.76 0 0 0-3.749-1.323l.702-1.742c1.255.428 2.53.878 3.792 1.34Zm-97.28-.53-.844-1.688a119.34 119.34 0 0 1 3.731-1.505l.777 1.714a117.7 117.7 0 0 0-3.664 1.478Zm89.752-2.036a172.9 172.9 0 0 0-3.81-1.157l.608-1.77c1.28.372 2.578.766 3.858 1.171Zm-82.368-.797-.71-1.74c1.27-.437 2.562-.858 3.84-1.25l.64 1.761c-1.255.385-2.524.799-3.77 1.229Zm74.717-1.429c-1.29-.341-2.59-.67-3.868-.975l.507-1.798c1.295.31 2.614.642 3.92.989Zm-67.13-.9-.569-1.782a118.7 118.7 0 0 1 3.93-.988l.496 1.801c-1.285.3-2.583.626-3.858.97Zm59.367-.953a151.211 151.211 0 0 0-3.92-.776l.397-1.821c1.316.242 2.654.507 3.976.787Zm-51.616-.853-.423-1.816c1.321-.26 2.666-.501 3.998-.716l.35 1.83a116.16 116.16 0 0 0-3.925.702Zm43.756-.594a142.582 142.582 0 0 0-3.96-.56l.276-1.84c1.332.169 2.685.36 4.021.57Zm-35.881-.678-.276-1.84c1.335-.17 2.695-.32 4.043-.444l.203 1.848c-1.324.123-2.66.27-3.97.436Zm27.944-.33c-1.328-.13-2.67-.24-3.989-.33l.148-1.853c1.341.091 2.705.204 4.054.336Zm-19.989-.41-.13-1.853c1.342-.08 2.71-.139 4.068-.175l.06 1.856c-1.335.036-2.68.094-3.998.172Zm12.002-.13a128.42 128.42 0 0 0-4.003-.084l.012-1.857c1.344.007 2.714.036 4.072.086Z"/></svg>