<svg xmlns="http://www.w3.org/2000/svg" xmlns:xlink="http://www.w3.org/1999/xlink" viewBox="0 0 900 600"><defs><linearGradient id="linear-gradient" x1="491.889" y1="456.758" x2="435.538" y2="296.281" gradientUnits="userSpaceOnUse"><stop offset="0" stop-color="#41b790"/><stop offset=".355" stop-color="#34a1a7"/><stop offset=".473" stop-color="#288f97"/><stop offset=".664" stop-color="#197883"/><stop offset=".844" stop-color="#106a77"/><stop offset="1" stop-color="#0d6573"/></linearGradient><linearGradient id="linear-gradient-2" x1="551.113" y1="467.345" x2="519.098" y2="376.173" gradientUnits="userSpaceOnUse"><stop offset="0" stop-color="#41b790"/><stop offset=".355" stop-color="#34a1a7" stop-opacity=".565"/><stop offset=".437" stop-color="#2c949c" stop-opacity=".444"/><stop offset=".591" stop-color="#1e808a" stop-opacity=".251"/><stop offset=".74" stop-color="#15717d" stop-opacity=".112"/><stop offset=".879" stop-color="#0f6876" stop-opacity=".029"/><stop offset="1" stop-color="#0d6573" stop-opacity="0"/></linearGradient><linearGradient id="linear-gradient-3" x1="652.627" y1="999.885" x2="636.521" y2="1069.371" gradientTransform="rotate(6.154 5068.402 801.84)" gradientUnits="userSpaceOnUse"><stop offset="0" stop-color="#47c69c"/><stop offset="1" stop-color="#2b6d95"/></linearGradient><linearGradient id="linear-gradient-4" x1="643.215" y1="992.324" x2="614.444" y2="1116.448" xlink:href="#linear-gradient-3"/><linearGradient id="linear-gradient-5" x1="11043.06" y1="-2619.33" x2="11065.801" y2="-2547.741" gradientTransform="scale(-1 1) rotate(15.266 -6014.693 -44746.3)" xlink:href="#linear-gradient-3"/><clipPath id="clip-path"><path d="M254.336 492.964c9.408-6.085 11.849-33.991 1.931-31.247-10.543 2.917-22.265.635-19.434-10.325 2.831-10.96-4.265-22.86-9.613-15.075-8.918 12.986-6.128-9.547-16.26-8.346-10.134 1.201-18.14 21.66-8.365 23.354 19.952 3.459-14.672 13.805 5.234 26.927 0 0 18.072 5.313 12.972 13.496s-6.183 21.883 15.474 27.904c12.353 3.433 24.757-6.005 25.006-4.038.25 1.968 9.508-7.915 9.508-7.915l3.417-6.847Z" style="fill:none"/></clipPath><style>.cls-3{fill:#269e9b}.cls-4{fill:#fff}.cls-5{fill:#24bece}.cls-6{fill:#0d6573}.cls-12{fill:#a0f2b7}.cls-18{fill:#f2c386}.cls-19{fill:#3fba8e}.cls-20{fill:#2f8c6b}.cls-23{fill:#e0865a}.cls-24{fill:#264460}.cls-29{fill:#2bcc77}</style></defs><g style="isolation:isolate"><g id="Layer_1" data-name="Layer 1"><path class="cls-3" d="M226.915 514.333h-66.698a1.775 1.775 0 0 1 0-3.55h66.698a1.775 1.775 0 0 1 0 3.55ZM640.933 515.026h-66.698a1.775 1.775 0 1 1 0-3.55h66.698a1.775 1.775 0 1 1 0 3.55ZM693.225 515.026h-29.739a1.775 1.775 0 1 1 0-3.55h29.739a1.775 1.775 0 1 1 0 3.55ZM719.783 515.026h-14.87a1.775 1.775 0 1 1 0-3.55h14.87a1.775 1.775 0 1 1 0 3.55Z"/><path class="cls-3" d="M188.917 511.964a1.452 1.452 0 0 1-1.452-1.452v-123.04l31.063-30.993a1.452 1.452 0 1 1 2.051 2.057l-30.21 30.141v121.835a1.452 1.452 0 0 1-1.452 1.452ZM226.725 350.004a1.452 1.452 0 0 1-1.048-2.458l46.568-48.51 1.413-82.757a1.453 1.453 0 0 1 .66-1.193l84.257-54.706a1.453 1.453 0 0 1 1.581 0l81.445 52.776a1.452 1.452 0 0 1 .663 1.215l.1 44.375h43.905a1.452 1.452 0 1 1 0 2.904h-45.353a1.452 1.452 0 0 1-1.453-1.449l-.102-45.036-79.994-51.836-82.818 53.773-1.41 82.553a1.452 1.452 0 0 1-.404.981l-46.962 48.921a1.447 1.447 0 0 1-1.048.447ZM703.254 514.703a1.452 1.452 0 0 1-1.452-1.452V299.028h-23.403a1.453 1.453 0 0 1-1.286-.778l-23.983-45.765h-37.074a1.452 1.452 0 0 1-1.452-1.453v-37.81a1.452 1.452 0 0 1 1.452-1.452h31.89l-69.725-80.141-76.592 80.09h30.312a1.452 1.452 0 0 1 1.452 1.453v45.751a1.452 1.452 0 0 1-1.452 1.453h-25.485a1.452 1.452 0 0 1 0-2.905h24.032v-42.847h-32.257a1.452 1.452 0 0 1-1.05-2.456l80.042-83.697a1.452 1.452 0 0 1 2.145.05l72.863 83.748a1.452 1.452 0 0 1-1.096 2.406h-33.627v34.905h36.5a1.452 1.452 0 0 1 1.287.778l23.983 45.766h23.976a1.452 1.452 0 0 1 1.452 1.452V513.25a1.452 1.452 0 0 1-1.452 1.452Z"/><path class="cls-4" d="M306.66 173.184c-3.534-10.616-10.293-18.591-22.906-5.348-12.613 13.243-9.845-14.476-25.041-11.58-6.857 1.307-11.473 8.53-14.476 16.066 0 0-14.43-13.612-27.215 8.557 0 0-8.441 8.168-24.79 10.237h144.373s-26.41-7.315-29.944-17.932ZM689.05 176.96c-3.417-10.266-9.953-17.977-22.149-5.172-12.197 12.805-9.52-13.997-24.214-11.197-6.63 1.263-11.094 8.248-13.998 15.534 0 0-13.953-13.161-26.315 8.275 0 0-8.163 7.898-23.972 9.898h139.604s-25.538-7.073-28.955-17.338ZM384.307 137.544c-2.402-7.216-6.996-12.637-15.569-3.635-8.574 9.001-6.692-9.84-17.021-7.87-4.66.887-7.798 5.797-9.84 10.919 0 0-9.808-9.252-18.498 5.816 0 0-5.737 5.552-16.85 6.958h98.132s-17.951-4.972-20.354-12.188Z"/><path class="cls-4" d="M593.667 194.117c-1.625-4.884-4.735-8.552-10.537-2.46-5.802 6.091-4.529-6.66-11.52-5.327-3.153.601-5.277 3.924-6.658 7.39 0 0-6.638-6.261-12.52 3.937 0 0-3.882 3.757-11.403 4.708h66.412s-12.148-3.364-13.774-8.248Z"/><path class="cls-5" d="M587.494 499.52c1.49 8.457-4.156 15.313-12.613 15.313H289.513c-8.458 0-16.522-6.856-18.013-15.312l-28.684-193.97c-1.492-8.458 4.156-15.313 12.613-15.313h279.85c8.456 0 16.52 6.855 18.012 15.312Z"/><path class="cls-6" d="M566.423 497.112H291.276L262.033 304.97h275.148l29.242 192.142z"/><path class="cls-5" d="M341.291 372.715h-29.534a14.966 14.966 0 0 1-14.325-12.153l-4.277-24.257a11.034 11.034 0 0 1 2.274-9.182 10.772 10.772 0 0 1 8.435-3.769h29.534a14.966 14.966 0 0 1 14.325 12.154L352 359.764a11.036 11.036 0 0 1-2.273 9.182 10.773 10.773 0 0 1-8.436 3.768Zm-37.427-44.767a6.258 6.258 0 0 0-4.916 2.128 6.524 6.524 0 0 0-1.269 5.431l4.277 24.257a10.539 10.539 0 0 0 9.801 8.357h29.534a6.259 6.259 0 0 0 4.916-2.127 6.524 6.524 0 0 0 1.27-5.432l-4.278-24.257a10.539 10.539 0 0 0-9.801-8.357Z"/><path class="cls-5" d="M333.17 362.003h-16.716a8.47 8.47 0 0 1-8.108-6.878l-2.421-13.729a6.245 6.245 0 0 1 1.287-5.197 6.097 6.097 0 0 1 4.774-2.133H328.7a8.47 8.47 0 0 1 8.108 6.879l2.42 13.728a6.243 6.243 0 0 1-1.286 5.198 6.097 6.097 0 0 1-4.774 2.132Zm-21.184-25.337a3.544 3.544 0 0 0-2.783 1.204 3.693 3.693 0 0 0-.718 3.075l2.421 13.728a5.964 5.964 0 0 0 5.548 4.73h16.715a3.541 3.541 0 0 0 2.782-1.204 3.693 3.693 0 0 0 .719-3.074l-2.421-13.729a5.965 5.965 0 0 0-5.548-4.73ZM399.997 385.998a2.95 2.95 0 0 1-2.95 2.95h-84.752a2.95 2.95 0 0 1-2.95-2.95 2.95 2.95 0 0 1 2.95-2.95h84.752a2.95 2.95 0 0 1 2.95 2.95ZM401.53 399.184c0 1.224-1.321 2.217-2.95 2.217h-84.752c-1.63 0-2.95-.993-2.95-2.217 0-1.225 1.32-2.219 2.95-2.219h84.752c1.629 0 2.95.994 2.95 2.219ZM404.595 413.377c0 .84-1.32 1.52-2.95 1.52h-84.752c-1.63 0-2.95-.68-2.95-1.52 0-.839 1.32-1.52 2.95-1.52h84.752c1.63 0 2.95.681 2.95 1.52ZM401.92 426.306a1.598 1.598 0 0 1-1.665 1.52h-47.849a1.598 1.598 0 0 1-1.666-1.52 1.598 1.598 0 0 1 1.666-1.52h47.85a1.598 1.598 0 0 1 1.665 1.52ZM403.147 436.213a1.598 1.598 0 0 1-1.666 1.52h-47.849a1.598 1.598 0 0 1-1.665-1.52 1.598 1.598 0 0 1 1.665-1.52h47.849a1.598 1.598 0 0 1 1.666 1.52ZM384.071 449.485c0 .84-.445 1.52-.995 1.52h-28.583c-.549 0-.994-.68-.994-1.52 0-.839.445-1.52.994-1.52h28.583c.55 0 .995.681.995 1.52Z"/><path d="M350.594 459.126c.787 4.46-1.668 8.075-5.48 8.075h-7.107c-3.813 0-7.541-3.616-8.328-8.075l-4.093-23.212c-.786-4.46 1.668-8.075 5.48-8.075h7.107c3.813 0 7.542 3.615 8.328 8.075Z" style="fill:#2edfe8"/><path d="m562.81 457.011 15.755-15.027-15.755.31v-54.71H415.154v36.318a33.626 33.626 0 0 0 33.626 33.626h113.035l.107.33.346-.33h.542Z" style="fill:#d1d3d4;mix-blend-mode:multiply"/><path d="M415.154 374.43s-10.257 71.716 38.744 70.418c49.001-1.297 68.601-72.133 68.601-72.133Z" style="fill:url(#linear-gradient)"/><path d="m451.399 444.848 136.333-3.09s51.145-34.536 51.145-176.82l-116.377-.723s4.8 162.179-71.101 180.633Z" style="fill:#4ad3a5"/><path style="fill:#22af79" d="m518.252 330.638 26.886-30.362 77.814.693 11.745 29.355 4.18-65.386-116.378-.723-4.247 66.423z"/><path class="cls-12" d="M512.695 417.093s7.388-38.165 41.688-52.615c34.3-14.45 55.375 16.028 33.338 50.867Z"/><path class="cls-12" d="M512.695 417.093s-7.254 26.377 24.513 25.568c0 0 36.108 3.28 50.513-27.316l-7.627-18.38Z"/><path d="M570.032 414.987a18.489 18.489 0 0 1-3.115 7.79 12.235 12.235 0 0 1-6.618 4.669l-1.899-6.911a7.8 7.8 0 0 0 3.484-2.045 8.69 8.69 0 0 0 2.239-3.761l-8.984-.393-.213.525a30.884 30.884 0 0 1-1.756 4.05 16.094 16.094 0 0 1-2.239 3.286 9.692 9.692 0 0 1-2.78 2.194 6.562 6.562 0 0 1-3.373.714 6.99 6.99 0 0 1-3.18-.91 8.325 8.325 0 0 1-2.59-2.34 12.46 12.46 0 0 1-1.795-3.611 17.92 17.92 0 0 1-.796-4.725l-4.065-.179.249-5.272 4.16.182a16.057 16.057 0 0 1 1.188-4.075 14.406 14.406 0 0 1 1.773-2.95 9.353 9.353 0 0 1 2.059-1.958 9.835 9.835 0 0 1 2.09-1.097l2.05 6.74a5.69 5.69 0 0 0-1.86 1.225 6.475 6.475 0 0 0-1.485 2.369l8.463.37q.972-2.51 1.967-4.545a17.015 17.015 0 0 1 2.201-3.467 8.085 8.085 0 0 1 2.683-2.138 7 7 0 0 1 3.37-.625 7.652 7.652 0 0 1 3.738 1.084 9.102 9.102 0 0 1 2.721 2.582 12.578 12.578 0 0 1 1.721 3.667 21.146 21.146 0 0 1 .794 4.28l4.16.182-.25 5.273Zm-24.912 2.83a2.57 2.57 0 0 0 2.006-.832 10.665 10.665 0 0 0 1.82-2.919l-6.903-.302a6.74 6.74 0 0 0 1.095 2.898 2.528 2.528 0 0 0 1.982 1.156Zm15.829-12.133a2.725 2.725 0 0 0-2.072.741 9.15 9.15 0 0 0-1.74 2.715l7.234.316a6.096 6.096 0 0 0-1.224-2.666 2.921 2.921 0 0 0-2.198-1.106Z" style="fill:#3eaf89"/><path d="M473.85 432.395s119.742 1.259 141.772-36.056c0 0-17.445 44.768-27.89 45.034l-133.834 3.84Z" style="opacity:.8;fill:url(#linear-gradient-2)"/><path d="M633.274 546.31s-59.685 8.808-21.652 12.808 125.245-6.629 21.652-12.807Z" style="fill:#72d14a"/><path style="fill:url(#linear-gradient-3)" d="m657.477 537.061-1.165 10.805-14.262-1.22 7.32-14.905 8.107 5.32z"/><path d="m640.413 542.727-7.533 3.992s-6.816 3.237-8.741 8.958L646 553.733s3.866-14.024-1.066-21.992Z" style="fill:url(#linear-gradient-4)"/><path class="cls-6" d="M665.85 441.337s-.888 17.4-.625 37.455c.31 23.689-7.809 57.983-7.809 57.983s-10.435 7.106-10.858-6.28l3.42-57.456.976-28.505Z"/><path class="cls-6" d="m638.116 443.15-11.281 31.829a35.476 35.476 0 0 1-2.644 5.783c-2.386 4.167-6.889 16.35-.71 28.777l16.933 33.188s8.45-2.053 5.354-11.28c-3.095-9.226-8.61-34.334-8.61-34.334s19.768-30.203 21.955-50.503Z"/><path class="cls-18" d="M597.384 403.898c-.002-1.863 1.752-5.382-3.338-11.689l-.856 7.937s-3.406-4.73-11.752-2.931c0 0-3.967 2.433-.553 5.129 3.415 2.696 9.014 8.726 11.078 9.187Z"/><path class="cls-19" d="m665.225 411.156.015-21.37s3.867 2.77 9.002 12.742l.001.001a104.042 104.042 0 0 1 3.264 7.004l5.292 11.888c6.298 14.19-16.458 14.571-16.458 14.571l-.163-6.134 7.328-6.53Z"/><path class="cls-20" d="M668.025 415.272s3.691-16.074-.633-23.243a71.907 71.907 0 0 1 6.85 10.499s-2.489-.813-3.06 3.387c0 0-3.59 8.72-.633 13.066Z"/><path class="cls-20" d="m672.33 399.094 3.632 6.954s-5.828 6.527-2.456 17.279l-5.48-8.055Z"/><path d="m636.123 434.276-4.04-37.044s-4.181-6.468 10.962-9.607c0 0 9.896-4.004 15.14-.373 0 0 11.246.106 11.316 10.981.07 10.876-2.919 31.515-2.919 31.515l-.732 11.589s-14.275 9.847-29.337 2.31Z" style="fill:url(#linear-gradient-5)"/><path d="M669.333 427.047s-1.003 9.325 3.018 8.255l-6.169.773.4-6.327Z" style="fill:#35a585"/><path class="cls-18" d="M635.398 355.244s-6.715 21.46 6.097 22.342l5.649-1.54-.506 7.678s4.736 4.646 8.074-.599l-.792-9.434s13.185-24.939-7.485-27.429c0 0-9.364-.014-11.037 8.982Z"/><path class="cls-19" d="m637.532 410.522-16.118 12.743a10.05 10.05 0 0 1-9.461-5.612s6.672-9.072 10.844-14.736a62.595 62.595 0 0 1 9.797-10.49s9.155-7.01 4.938 18.095Z"/><path class="cls-23" d="M597.382 402.035s-6.174 2.416-6.668 8.087l3.313 1.869 3.737-5.495Z"/><path class="cls-19" d="M621.414 423.264s-9.823 12.504-20.52-.531l-9.078-9.843s.64-6.778 5.948-6.394l16.246 11.389Z"/><path class="cls-20" d="M637.388 392.04s4.19 12.572-3.538 21.393l1.166 10.693s10.48-10.714 2.372-32.086Z"/><path class="cls-19" d="M601.425 409.063s-6.764 3.08-5.215 8.592l-4.394-4.765s1.195-7.134 5.948-6.394Z"/><path class="cls-24" d="M646.435 346.262s17.256-2.134 16.008 11.164l-3.4 9.741s.573 11.23-3.96 7.726l.464-4.855s1.939 8.216-1.627 3.653-.38-1.39-.38-1.39-8.587.799-11.28-6.62c-2.694-7.419 1.05-16-5.855-13.51 0 0-1.893-11.632 10.03-5.909Z"/><path class="cls-24" d="M643.791 359.424s-1.316-1.295-2.632 2.224c0 0 1.788-7.705-1.155-10.167-2.942-2.463 4.277-.14 5.662.913 1.384 1.052 5.143 3.829 5.327 4.641Z"/><path class="cls-18" d="M641.159 361.648s2.948-6.99 4.478.363c0 0-.026 5.229-3.983 3.836Z"/><path class="cls-23" d="M654.25 377.629a7.541 7.541 0 0 0-7.311 1.529l-.88 2.445s3.563.05 4.962.017a34.563 34.563 0 0 1 3.58.207Z"/><path d="M658.188 384.486s.687-9.154-12.129-2.883l-2.43 1.86-.584 4.162s11.201-2.497 15.344-.536Z" style="fill:#b2d152"/><path d="M653.662 419.416s-12.699 5.062-17.695 13.43l.443 8.326 1.706 1.978s4.327-17.25 15.546-23.733Z" style="fill:#26383f;opacity:.4"/><path d="M650.256 472.496a72.731 72.731 0 0 0 8.996-27.169l6.598-3.99s.215 34.47-16.867 42.967Z" style="fill:#094349"/><path d="M275.063 419.62s-1.635 19.1 16.045 16.592c17.68-2.507 21.839 7.522 14.705 22.722-7.133 15.2 9.42 12.51 16.765 15.234 7.343 2.723 13.98 22.557-8.635 40.665H303.27l-41.237-17.72-10.395-7.078 10.395-62.11-2.573-9.821Z" style="opacity:.3;fill:#302f2a"/><path class="cls-29" d="M254.336 492.964c9.408-6.085 11.849-33.991 1.931-31.247-10.543 2.917-22.265.635-19.434-10.325 2.831-10.96-4.265-22.86-9.613-15.075-8.918 12.986-6.128-9.547-16.26-8.346-10.134 1.201-18.14 21.66-8.365 23.354 19.952 3.459-14.672 13.805 5.234 26.927 0 0 18.072 5.313 12.972 13.496s-6.183 21.883 15.474 27.904c12.353 3.433 24.757-6.005 25.006-4.038.25 1.968 9.508-7.915 9.508-7.915l3.417-6.847Z"/><g style="clip-path:url(#clip-path)"><path d="M246.407 457.12s-21.06 3.083-10.224 26.349c0 0 5.627 11.015-3.1 12.24-8.726 1.225-11.403 20.348 8.617 31 20.02 10.651 32.89 2.418 32.89 2.418Z" style="opacity:.2;fill:#302f2a"/></g><path class="cls-29" d="M292.823 524.188s35.184-26.177 14.45-38.468c0 0-30.18-2.55-18.487-19.28 11.694-16.73 11.6-32.608-5.64-29.424-17.24 3.184-13.042-9.317-8.083-17.396 4.96-8.08-26.482-12.58-25.98 9.462.5 22.045 20.6 21.121-4.338 34.867 0 0-11.475 6.227 6.893 26.086 0 0 8.997 12.893-6.867 9.3 0 0-17.41 3.959.608 19.448 0 0 17.821 15.53 47.444 5.405Z"/><path class="cls-6" d="M259.28 469.966a39.505 39.505 0 0 1 6.168 4.974 225.699 225.699 0 0 1-2.95-16.688h-.009l.004-.03c-2.032-14.856-2.534-30.823.55-45.284l1.198.255c-2.81 13.18-2.61 27.644-.986 41.359 3.424-11.618 15.094-17.52 15.223-17.584l.544 1.098c-.136.067-13.567 6.876-15.293 20.16.9 6.534 2.095 12.85 3.414 18.725l4.734 17.122c.379-5.773 2.799-11.996 7.2-18.395a71.271 71.271 0 0 1 11.242-12.629l.789.938a69.944 69.944 0 0 0-11.036 12.407c-4.101 5.968-8.317 14.583-6.653 23.255l.845 3.058c4.643 14.23 8.876 23.718 8.931 23.842l-1.117.502c-.056-.124-4.298-9.632-8.955-23.894l-.003.001c-.175-.48-.33-.967-.47-1.458a299.056 299.056 0 0 1-3.976-13.445 266.239 266.239 0 0 1-2.72-11.004v-.004c-1.094-1.232-12.289-13.388-23.847-9.31l-.407-1.156c5.357-1.89 11.436-.788 17.58 3.185Z"/><path class="cls-3" d="M356.315 213.838h-14.49v-14.49h14.49Zm-12.23-2.259h9.971v-9.971h-9.971ZM356.315 230.512h-14.49v-14.49h14.49Zm-12.23-2.26h9.971v-9.971h-9.971Z"/><path class="cls-3" d="M356.315 213.838h-14.49v-14.49h14.49Zm-12.23-2.259h9.971v-9.971h-9.971ZM356.315 230.512h-14.49v-14.49h14.49Zm-12.23-2.26h9.971v-9.971h-9.971ZM376.712 213.838h-14.49v-14.49h14.49Zm-12.23-2.259h9.97v-9.971h-9.97ZM376.712 230.512h-14.49v-14.49h14.49Zm-12.23-2.26h9.97v-9.971h-9.97Z"/><path class="cls-3" d="M376.712 213.838h-14.49v-14.49h14.49Zm-12.23-2.259h9.97v-9.971h-9.97ZM376.712 230.512h-14.49v-14.49h14.49Zm-12.23-2.26h9.97v-9.971h-9.97Z"/><path d="m241.543 313.604 22.128-23.367h26.75a4.693 4.693 0 0 0-4.77 3.428 16.281 16.281 0 0 1-6.038 7.898l-4.787 3.407-12.538.246c-7.048 7.447-13.928 9.022-20.745 8.388Z" style="fill:#18959b"/><path class="cls-18" d="M233.897 308.039s-8.534 10.964 12.909 24.552l-2.375-16.062s-1.403-6.035 4.797-10.674Z"/><path d="m246.1 307.031-3.72-.2-8.483 1.208a9.647 9.647 0 0 0-1.637 4.806 8.926 8.926 0 0 0 2.512 2.59c2.127 1.333 6.566 2.192 9.893 2.677l-.234-1.583a10.332 10.332 0 0 1 2.037-7.945Z" style="fill:#b39264"/><path class="cls-18" d="m240.533 276.75-12.761 4.608A20.979 20.979 0 0 0 215.01 294.3c-3.48 10.188-10.437 39.999-10.437 39.999l5.22 1.566 17.399-36.506 17.999-5.136Z"/><path class="cls-6" d="m232.46 229.984.21 1.467.36 2.507 2.175 13.728 9.333 3.24.436-22.195-4.986-.866c-6.003-.82-7.355.798-7.529 2.12Z"/><path class="cls-19" d="M279.89 234.855s.193-5.696-7.304-7.43c0 0-12.3 1.31-13.746 19.367l-3.353 20.885 24.404 3.606s1.694-32.117 0-36.428Z"/><path class="cls-18" d="M255.722 213.657s-1.428 18.765 6.117 14.28c0 0 7.595-4.364 8.228-8.966 0 0 4.648 3.76 6.383-2.735 1.734-6.494-.998-4.032-3.717-3.75 0 0-.2-9.301-9.714-9.967 0 0-7.32 4.211-7.297 11.138Z"/><path class="cls-24" d="M272.733 212.487c-3.92.477-2.931 3.8-2.931 3.8-16.64 3.043-14.188-10.747-14.188-10.747-.744-4.596 2.383-9.281 12.633-7.76 0 0 6.8 1.116 7.713 7.84v6.177Z"/><path class="cls-24" d="M256.443 200.875s-6.511 7.383-5.742 21.397c0 0-.111-9.017 5.985-11.424l3.781-10.218ZM272.586 201.899s10.846 12.439 19.001 7.647c0 0-9.796 14.238-17.357-2.265Z"/><path class="cls-18" d="M272.586 213.864v13.561c-1.921 5.321-7.497 6.062-7.497 6.062v-7.796Z"/><path class="cls-23" d="M265.089 225.691s5.242-4.036 4.978-6.72l2.519 1.718v1.642s-1.296 4.034-7.497 5.094Z"/><path class="cls-18" d="M277.927 244.116s3.398-7.769-1.967-10.629c0 0-6.775 0-9.186 6.49-2.17 5.84-12.86 14.573-12.86 14.573l4.592 4.617s16.838-10.546 19.42-15.05Z"/><path class="cls-18" d="M258.506 259.168a108.817 108.817 0 0 0-9.278-13.859l-2.078-3.704-4.549 3.182s4.836 25.668 15.905 14.38Z"/><path class="cls-18" d="M247.15 241.605s-1.939-5.853-8.03-6.75l-6.09-.897s-2.079 11.351 7.06 11.351Z"/><path d="M277.927 244.116s-9.554 19.863-22.44 23.561l1.077-6.853s18.757-12.677 21.363-16.708Z" style="fill:#349b73"/><path d="M255.487 267.677c-18.96 9.913-40.148 16.512-40.477 26.623 0 0 24.04 25.882 29.269 18.178 13.676-20.154 40.067-3.412 35.612-41.195Z" style="fill:#2f738e"/><path d="M227.772 281.358s6.357 14.357 12.251 15.378l-4.693-18.845Z" style="fill:#1f556a"/><path class="cls-19" d="m204.573 334.299-14.484 5.935 14.484 5.794 5.221-10.163-5.221-1.566z"/><path class="cls-18" d="m280.644 239.284 19.555 45.379-7.241 2.651-12.314-25.278v-22.752z"/><path class="cls-18" d="m296.79 276.752 14.088 13.476s-15.565 1.92-17.92-2.914Z"/><path d="M242.601 120.005a32.226 32.226 0 0 0-18.457 58.642c.842 5.164 3.52 14.783 12.005 20.777 0 0-4.814-5.997-.944-15.823a32.228 32.228 0 1 0 7.396-63.596Z" style="fill:#27c16c"/><path class="cls-4" d="m254.61 149.731 2.218-10.972-33.31 11.476 10.312 6.237v11.325l6.74-6.964 10.014 8.811 4.026-19.91v-.002Zm.228-8.22-.086.429.006-.368Z"/><path style="fill:#85e8c2" d="m233.83 156.472 21.008-14.961-14.268 19.322-6.74 6.964v-11.325z"/></g></g></svg>