<svg xmlns="http://www.w3.org/2000/svg" id="Layer_1" x="0" y="0" enable-background="new 0 0 2500 2500" version="1.1" viewBox="0 0 2500 2500" xml:space="preserve"><path d="M2306.68,2177.16H375.99c-2.08,0-3.77-1.69-3.77-3.77c0-2.08,1.69-3.77,3.77-3.77h1930.69c2.08,0,3.77,1.69,3.77,3.77
			C2310.45,2175.47,2308.76,2177.16,2306.68,2177.16z"/><path d="M757.17,2136.43c-1.03,0-1.87-0.83-1.89-1.86c-0.01-1.04,0.82-1.9,1.86-1.91c14.89-0.2,29.95-1.51,44.77-3.88
				c1.01-0.18,1.99,0.53,2.16,1.56c0.16,1.03-0.54,2-1.57,2.16c-15,2.4-30.24,3.73-45.31,3.93
				C757.19,2136.43,757.18,2136.43,757.17,2136.43z M712.05,2133.67c-0.09,0-0.17-0.01-0.26-0.02c-13.3-1.83-26.51-4.57-39.26-8.16
				c-1.73-0.49-3.47-1-5.2-1.52c-1-0.3-1.56-1.36-1.26-2.35c0.3-0.99,1.34-1.56,2.35-1.25c1.71,0.52,3.42,1.02,5.13,1.5
				c12.58,3.54,25.62,6.25,38.75,8.05c1.03,0.14,1.75,1.09,1.61,2.12C713.79,2132.99,712.98,2133.67,712.05,2133.67z
				 M846.22,2122.17c-0.8,0-1.55-0.52-1.8-1.32c-0.31-0.99,0.24-2.05,1.24-2.36c14.34-4.48,28.4-10.04,41.79-16.5
				c0.94-0.45,2.07-0.06,2.52,0.88c0.45,0.94,0.06,2.06-0.88,2.52c-13.56,6.55-27.8,12.17-42.31,16.71
				C846.59,2122.14,846.4,2122.17,846.22,2122.17z M626.67,2105.71c-0.35,0-0.71-0.1-1.03-0.31c-8.26-5.38-15.4-11.56-21.24-18.37
				c-3.34-3.9-6.29-8.18-8.8-12.77c-3.46-0.92-6.95-2.08-10.43-3.47c-0.97-0.39-1.44-1.48-1.06-2.45c0.39-0.97,1.47-1.44,2.45-1.05
				c2.68,1.07,5.36,2,8.03,2.78c0.17-0.23,0.39-0.43,0.67-0.57c0.92-0.47,2.07-0.1,2.53,0.83c0.12,0.23,0.24,0.46,0.35,0.69
				c7.45,1.83,14.67,2.51,21.94,2.04c3.14-0.21,6.34-0.79,9.49-1.73c1.01-0.3,2.05,0.27,2.35,1.27c0.29,1-0.27,2.05-1.27,2.35
				c-3.43,1.02-6.9,1.66-10.33,1.88c-6.56,0.43-13.04-0.03-19.7-1.38c1.98,3.24,4.2,6.3,6.63,9.14c5.6,6.54,12.48,12.48,20.43,17.66
				c0.87,0.57,1.12,1.74,0.55,2.61C627.89,2105.41,627.29,2105.71,626.67,2105.71z M927.38,2082.9c-0.6,0-1.19-0.29-1.55-0.82
				c-0.59-0.86-0.37-2.03,0.49-2.62c6.91-4.75,13.67-9.84,20.08-15.13c5.06-4.18,10.05-8.59,14.82-13.13
				c0.75-0.72,1.95-0.69,2.67,0.07c0.72,0.75,0.69,1.95-0.07,2.67c-4.84,4.6-9.89,9.07-15.02,13.3
				c-6.5,5.36-13.34,10.52-20.35,15.33C928.12,2082.79,927.75,2082.9,927.38,2082.9z M547.48,2047.27c-0.42,0-0.84-0.14-1.18-0.42
				c-4.98-4.02-10.28-8.6-16.19-14c-5.86-5.35-11.75-10.89-17.5-16.44c-0.75-0.72-0.77-1.92-0.05-2.67
				c0.72-0.75,1.92-0.77,2.66-0.05c5.73,5.53,11.6,11.04,17.43,16.37c5.86,5.35,11.09,9.88,16.01,13.85
				c0.81,0.65,0.94,1.84,0.29,2.65C548.57,2047.03,548.03,2047.27,547.48,2047.27z M663.93,2046.66c-0.3,0-0.6-0.07-0.88-0.22
				c-0.92-0.49-1.27-1.63-0.79-2.55c3.37-6.39,5.14-13.07,5.14-19.3c0-7.34-2.37-13.88-7.04-19.44c-0.35-0.41-0.71-0.82-1.08-1.21
				c-0.71-0.76-0.68-1.95,0.08-2.67c0.75-0.71,1.96-0.68,2.66,0.09c0.42,0.44,0.82,0.89,1.21,1.36c5.19,6.17,7.93,13.73,7.93,21.87
				c0,6.84-1.93,14.13-5.58,21.06C665.26,2046.3,664.61,2046.66,663.93,2046.66z M589.85,2029.15c-0.14,0-0.29-0.02-0.43-0.05
				c-1.01-0.24-1.64-1.25-1.4-2.27c1.22-5.2,3.19-10.1,5.85-14.57c5.14-8.62,13.7-15.41,24.09-19.11c0.98-0.35,2.06,0.16,2.41,1.14
				c0.35,0.98-0.16,2.06-1.14,2.41c-9.57,3.41-17.43,9.63-22.12,17.49c-2.47,4.13-4.29,8.68-5.42,13.5
				C591.48,2028.57,590.71,2029.15,589.85,2029.15z M992.79,2020.89c-0.41,0-0.81-0.13-1.15-0.39c-0.82-0.64-0.98-1.82-0.34-2.65
				c9.1-11.77,17.44-24.38,24.78-37.48c0.51-0.91,1.66-1.23,2.57-0.72c0.91,0.51,1.23,1.66,0.73,2.57
				c-7.43,13.26-15.88,26.03-25.09,37.94C993.91,2020.63,993.35,2020.89,992.79,2020.89z M482.17,1984.71c-0.5,0-1.01-0.2-1.38-0.6
				c-10.31-11.02-20.44-22.43-30.11-33.9c-0.67-0.8-0.57-1.99,0.23-2.66c0.8-0.67,1.98-0.57,2.66,0.23
				c9.63,11.42,19.71,22.78,29.98,33.76c0.71,0.76,0.67,1.95-0.09,2.67C483.09,1984.54,482.63,1984.71,482.17,1984.71z
				 M1036.93,1942.24c-0.22,0-0.45-0.04-0.68-0.13c-0.97-0.37-1.45-1.46-1.08-2.44c5.38-13.99,9.76-28.46,13.04-43
				c0.23-1.01,1.23-1.65,2.25-1.43c1.01,0.23,1.65,1.24,1.42,2.25c-3.32,14.73-7.76,29.37-13.2,43.53
				C1038.4,1941.79,1037.69,1942.24,1036.93,1942.24z M423.86,1915.54c-0.57,0-1.13-0.26-1.5-0.75
				c-9.12-12.04-18.01-24.44-26.42-36.86c-0.59-0.86-0.36-2.03,0.5-2.62c0.86-0.58,2.03-0.36,2.62,0.5
				c8.37,12.36,17.22,24.71,26.3,36.7c0.63,0.83,0.47,2.01-0.36,2.64C424.66,1915.41,424.26,1915.54,423.86,1915.54z
				 M1056.7,1854.26c-0.05,0-0.09,0-0.14,0c-1.04-0.08-1.82-0.98-1.75-2.02c0.51-7,0.77-14.1,0.77-21.09
				c0-7.94-0.34-15.96-0.99-23.82c-0.09-1.04,0.68-1.95,1.72-2.04c1.03-0.1,1.95,0.68,2.04,1.72c0.67,7.97,1.01,16.09,1.01,24.13
				c0,7.09-0.26,14.27-0.77,21.36C1058.5,1853.5,1057.67,1854.26,1056.7,1854.26z M373.15,1840.62c-0.64,0-1.26-0.33-1.62-0.91
				c-7.78-12.95-15.27-26.25-22.26-39.52c-0.49-0.92-0.13-2.06,0.79-2.55c0.92-0.48,2.06-0.13,2.55,0.79
				c6.96,13.2,14.41,26.44,22.16,39.33c0.53,0.89,0.25,2.05-0.64,2.59C373.82,1840.53,373.48,1840.62,373.15,1840.62z
				 M331.01,1760.57c-0.71,0-1.4-0.41-1.72-1.1c-6.27-13.79-12.19-27.86-17.57-41.82c-0.37-0.97,0.11-2.06,1.08-2.44
				c0.96-0.38,2.06,0.11,2.44,1.08c5.35,13.9,11.23,27.9,17.48,41.61c0.43,0.95,0.01,2.07-0.94,2.5
				C331.54,1760.52,331.27,1760.57,331.01,1760.57z M298.53,1676.15c-0.8,0-1.54-0.51-1.8-1.32c-4.57-14.46-8.69-29.16-12.27-43.67
				c-0.25-1.01,0.37-2.03,1.38-2.28c1.04-0.25,2.04,0.37,2.28,1.38c3.56,14.44,7.66,29.05,12.2,43.44c0.31,0.99-0.24,2.05-1.23,2.37
				C298.91,1676.12,298.72,1676.15,298.53,1676.15z M276.91,1588.35c-0.89,0-1.69-0.64-1.85-1.56c-2.64-14.9-4.79-30.01-6.39-44.91
				c-0.11-1.04,0.64-1.97,1.67-2.08c1.03-0.11,1.97,0.63,2.08,1.67c1.59,14.81,3.73,29.83,6.36,44.65c0.18,1.03-0.5,2-1.53,2.19
				C277.13,1588.34,277.02,1588.35,276.91,1588.35z M267.31,1498.45c-1.01,0-1.85-0.8-1.89-1.82c-0.23-6.85-0.35-13.85-0.36-20.79
				c0-8.13,0.17-16.4,0.49-24.59c0.04-1.04,0.98-1.83,1.96-1.81c1.04,0.04,1.85,0.92,1.81,1.96c-0.33,8.14-0.49,16.36-0.49,24.44
				c0,6.9,0.13,13.85,0.36,20.66c0.03,1.04-0.78,1.91-1.82,1.95C267.36,1498.45,267.33,1498.45,267.31,1498.45z M270.93,1408.1
				c-0.07,0-0.14,0-0.22-0.01c-1.03-0.12-1.78-1.05-1.66-2.09c1.71-14.97,3.99-30.06,6.78-44.87c0.19-1.03,1.19-1.7,2.2-1.5
				c1.02,0.19,1.69,1.18,1.5,2.2c-2.77,14.72-5.04,29.72-6.73,44.6C272.69,1407.39,271.87,1408.1,270.93,1408.1z M287.65,1319.24
				c-0.16,0-0.32-0.02-0.48-0.06c-1.01-0.27-1.61-1.3-1.34-2.31c3.87-14.6,8.31-29.21,13.21-43.42c0.34-0.98,1.42-1.5,2.4-1.17
				c0.98,0.34,1.51,1.41,1.17,2.4c-4.87,14.12-9.29,28.64-13.13,43.16C289.25,1318.68,288.49,1319.24,287.65,1319.24z
				 M317.16,1233.75c-0.25,0-0.5-0.05-0.75-0.15c-0.95-0.41-1.4-1.52-0.98-2.48c5.99-13.91,12.56-27.7,19.53-40.98
				c0.48-0.93,1.63-1.27,2.54-0.79c0.92,0.48,1.28,1.62,0.79,2.55c-6.92,13.2-13.45,26.9-19.41,40.72
				C318.58,1233.32,317.89,1233.75,317.16,1233.75z M359.21,1153.7c-0.35,0-0.69-0.09-1.01-0.29c-0.88-0.56-1.15-1.72-0.59-2.6
				c8.08-12.83,16.74-25.41,25.74-37.39c0.62-0.83,1.81-1,2.64-0.38c0.84,0.63,1,1.81,0.38,2.64c-8.93,11.9-17.54,24.4-25.56,37.14
				C360.45,1153.39,359.84,1153.7,359.21,1153.7z M413.53,1081.44c-0.45,0-0.89-0.16-1.26-0.48c-0.78-0.69-0.84-1.89-0.15-2.66
				c10.11-11.31,20.77-22.25,31.7-32.49c0.75-0.71,1.96-0.68,2.66,0.09c0.71,0.76,0.68,1.95-0.08,2.67
				c-10.84,10.17-21.43,21.02-31.46,32.25C414.56,1081.23,414.05,1081.44,413.53,1081.44z M479.44,1019.67
				c-0.56,0-1.12-0.25-1.49-0.73c-0.64-0.82-0.49-2.01,0.33-2.65c6.18-4.82,12.54-9.53,18.92-14.03
				c5.93-4.18,12.03-8.29,18.15-12.22c0.88-0.56,2.04-0.31,2.61,0.57c0.56,0.88,0.31,2.04-0.57,2.61
				c-6.07,3.91-12.13,7.99-18.02,12.13c-6.33,4.46-12.65,9.14-18.77,13.92C480.26,1019.54,479.85,1019.67,479.44,1019.67z
				 M555.42,970.69c-0.67,0-1.33-0.36-1.66-1c-0.49-0.92-0.14-2.06,0.78-2.55c13.14-6.96,26.9-13.57,40.9-19.65
				c0.97-0.41,2.07,0.02,2.48,0.98c0.41,0.96-0.03,2.07-0.98,2.48c-13.91,6.03-27.59,12.6-40.64,19.52
				C556.02,970.62,555.72,970.69,555.42,970.69z M638.31,934.63c-0.78,0-1.51-0.49-1.78-1.26c-0.35-0.98,0.17-2.06,1.15-2.4
				c13.93-4.89,28.48-9.48,43.25-13.63c1-0.28,2.04,0.3,2.32,1.31c0.28,1-0.3,2.04-1.31,2.33c-14.69,4.13-29.17,8.69-43.02,13.56
				C638.73,934.59,638.52,934.63,638.31,934.63z M725.32,910.07c-0.87,0-1.64-0.6-1.84-1.48c-0.22-1.02,0.42-2.02,1.44-2.25
				c14.37-3.17,29.34-6.06,44.5-8.61c1.01-0.17,2,0.52,2.17,1.55c0.17,1.03-0.52,2-1.55,2.17c-15.1,2.54-30.01,5.42-44.32,8.58
				C725.6,910.06,725.46,910.07,725.32,910.07z M814.51,894.98c-0.94,0-1.75-0.7-1.87-1.65c-0.13-1.03,0.61-1.97,1.64-2.1
				c14.57-1.8,29.74-3.37,45.08-4.67c0.94-0.09,1.95,0.68,2.04,1.72c0.09,1.04-0.68,1.95-1.72,2.04c-15.3,1.3-30.41,2.86-44.93,4.65
				C814.66,894.98,814.59,894.98,814.51,894.98z M1221.39,888.43c0,0-0.01,0-0.01,0c-15.08-0.09-30.17-0.29-45.27-0.55
				c-1.04-0.02-1.87-0.88-1.85-1.92c0.02-1.04,0.78-1.85,1.92-1.85c15.08,0.26,30.16,0.46,45.23,0.55c1.04,0.01,1.88,0.86,1.87,1.9
				C1223.27,887.59,1222.43,888.43,1221.39,888.43z M1266.64,888.35c-1.03,0-1.87-0.83-1.89-1.87c-0.01-1.04,0.82-1.89,1.86-1.91
				c15.92-0.17,30.7-0.5,45.2-0.99c0.87-0.04,1.91,0.78,1.95,1.82c0.03,1.04-0.78,1.91-1.82,1.95c-14.53,0.5-29.34,0.82-45.28,0.99
				C1266.66,888.35,1266.65,888.35,1266.64,888.35z M904.67,887.26c-0.99,0-1.83-0.78-1.88-1.79c-0.06-1.04,0.74-1.93,1.78-1.98
				c14.58-0.76,29.82-1.33,45.29-1.7c1.16-0.07,1.9,0.8,1.93,1.84c0.03,1.04-0.8,1.9-1.84,1.93c-15.44,0.37-30.64,0.94-45.18,1.7
				C904.74,887.25,904.71,887.26,904.67,887.26z M1130.91,886.98c-0.01,0-0.03,0-0.04,0l-10.9-0.24c-11.45-0.25-22.9-0.5-34.34-0.73
				c-1.04-0.02-1.87-0.88-1.85-1.92c0.02-1.04,0.92-1.84,1.92-1.85c11.45,0.23,22.9,0.48,34.35,0.73l10.9,0.24
				c1.04,0.02,1.87,0.88,1.84,1.92C1132.77,886.17,1131.93,886.98,1130.91,886.98z M1040.42,885.27c-0.01,0-0.01,0-0.02,0
				c-13.59-0.17-27.17-0.27-40.74-0.27l-4.48,0h0c-1.04,0-1.89-0.84-1.89-1.88c0-1.04,0.84-1.89,1.88-1.89l4.49,0
				c13.58,0,27.18,0.1,40.78,0.27c1.04,0.01,1.87,0.87,1.86,1.91C1042.29,884.44,1041.45,885.27,1040.42,885.27z M1357.08,885.16
				c-0.99,0-1.82-0.77-1.88-1.76c-0.07-1.04,0.72-1.94,1.76-2c15.4-0.99,30.55-2.22,45.03-3.68c0.99-0.11,1.96,0.65,2.06,1.69
				c0.11,1.04-0.65,1.96-1.69,2.06c-14.52,1.46-29.72,2.7-45.17,3.69C1357.16,885.16,1357.12,885.16,1357.08,885.16z
				 M1447.09,876.02c-0.92,0-1.73-0.68-1.86-1.62c-0.15-1.03,0.57-1.99,1.6-2.13c15.14-2.18,30.12-4.69,44.53-7.49
				c0.97-0.19,2.01,0.47,2.21,1.49c0.2,1.02-0.47,2.01-1.49,2.21c-14.47,2.8-29.51,5.33-44.71,7.52
				C1447.27,876.01,1447.18,876.02,1447.09,876.02z M1535.88,858.71c-0.85,0-1.61-0.57-1.83-1.43c-0.25-1.01,0.36-2.03,1.37-2.29
				c14.49-3.64,29.12-7.73,43.47-12.17c0.99-0.31,2.05,0.25,2.36,1.24c0.31,1-0.25,2.05-1.24,2.36
				c-14.42,4.46-29.11,8.57-43.66,12.22C1536.18,858.69,1536.03,858.71,1535.88,858.71z M1622.3,832c-0.77,0-1.49-0.47-1.77-1.23
				c-0.36-0.98,0.14-2.06,1.12-2.42c14.05-5.18,28.15-10.8,41.93-16.72c0.95-0.41,2.07,0.03,2.47,0.99
				c0.41,0.96-0.03,2.07-0.99,2.48c-13.84,5.95-28.01,11.6-42.12,16.8C1622.73,831.96,1622.51,832,1622.3,832z M1705.41,796.3
				c-0.69,0-1.36-0.39-1.69-1.05c-0.46-0.93-0.08-2.06,0.86-2.52c13.43-6.62,26.87-13.68,39.96-21c0.91-0.5,2.06-0.18,2.57,0.73
				c0.51,0.91,0.18,2.06-0.73,2.57c-13.15,7.35-26.65,14.44-40.14,21.09C1705.98,796.24,1705.69,796.3,1705.41,796.3z
				 M1784.39,752.18c-0.63,0-1.24-0.31-1.6-0.88c-0.55-0.88-0.29-2.04,0.6-2.6c12.69-7.98,25.35-16.38,37.6-24.99
				c0.85-0.6,2.03-0.39,2.63,0.46c0.6,0.85,0.39,2.03-0.46,2.63c-12.31,8.64-25.01,17.09-37.76,25.1
				C1785.08,752.09,1784.73,752.18,1784.39,752.18z M1858.42,700.19c-0.56,0-1.11-0.25-1.48-0.72c-0.64-0.82-0.5-2.01,0.32-2.65
				c11.82-9.24,23.54-18.9,34.84-28.71c0.79-0.68,1.97-0.6,2.66,0.19c0.68,0.79,0.6,1.98-0.19,2.66
				c-11.35,9.85-23.12,19.56-34.99,28.84C1859.24,700.06,1858.83,700.19,1858.42,700.19z M1926.72,640.87
				c-0.49,0-0.99-0.19-1.36-0.58c-0.72-0.75-0.7-1.94,0.05-2.67c10.8-10.42,21.46-21.24,31.67-32.17c0.71-0.76,1.9-0.8,2.67-0.09
				c0.76,0.71,0.8,1.9,0.09,2.66c-10.26,10.98-20.96,21.85-31.81,32.31C1927.66,640.7,1927.19,640.87,1926.72,640.87z
				 M1988.46,574.77c-0.43,0-0.86-0.14-1.21-0.44c-0.8-0.67-0.9-1.86-0.23-2.66c9.67-11.52,19.12-23.41,28.09-35.34
				c0.62-0.83,1.81-1,2.64-0.37c0.83,0.63,1,1.81,0.37,2.64c-9.01,11.98-18.5,23.93-28.21,35.5
				C1989.53,574.54,1989,574.77,1988.46,574.77z M2042.8,502.46c-0.36,0-0.73-0.1-1.05-0.32c-0.87-0.58-1.1-1.75-0.52-2.62
				c1.77-2.65,3.53-5.31,5.28-7.98c0.57-0.87,1.74-1.12,2.61-0.55c0.87,0.57,1.12,1.74,0.55,2.61c-1.75,2.68-3.52,5.36-5.31,8.02
				C2044,502.16,2043.41,502.46,2042.8,502.46z"/><path d="M1458.36,477.44v1249.42c0,83.29-67.51,150.84-150.8,150.84H679.27c-83.29,0-150.83-67.54-150.83-150.84V477.44
							c0-83.29,67.54-150.84,150.83-150.84h628.29C1390.85,326.61,1458.36,394.15,1458.36,477.44z"/><path d="M1307.56,1881.47H679.27c-85.25,0-154.61-69.36-154.61-154.61V477.44c0-85.25,69.36-154.61,154.61-154.61h628.29
							c85.23,0,154.57,69.36,154.57,154.61v1249.42C1462.13,1812.12,1392.79,1881.47,1307.56,1881.47z M679.27,330.38
							c-81.09,0-147.06,65.97-147.06,147.06v1249.42c0,81.09,65.97,147.06,147.06,147.06h628.29c81.07,0,147.03-65.97,147.03-147.06
							V477.44c0-81.09-65.96-147.06-147.03-147.06H679.27z"/><path fill="#fff" d="M1485.52,477.44v1249.42c0,83.29-67.51,150.84-150.8,150.84H706.43c-83.29,0-150.83-67.54-150.83-150.84
							V477.44c0-83.29,67.54-150.84,150.83-150.84h628.29C1418.01,326.61,1485.52,394.15,1485.52,477.44z"/><path d="M1334.72,1881.47H706.43c-85.25,0-154.61-69.36-154.61-154.61V477.44c0-85.25,69.36-154.61,154.61-154.61h628.29
							c85.23,0,154.57,69.36,154.57,154.61v1249.42C1489.29,1812.12,1419.95,1881.47,1334.72,1881.47z M706.43,330.38
							c-81.09,0-147.06,65.97-147.06,147.06v1249.42c0,81.09,65.97,147.06,147.06,147.06h628.29c81.07,0,147.03-65.97,147.03-147.06
							V477.44c0-81.09-65.96-147.06-147.03-147.06H706.43z"/><circle cx="687.93" cy="1284.64" r="27.39"/><rect width="370.73" height="7.54" x="1009.84" y="1280.87"/><rect width="178.83" height="7.54" x="765.92" y="1280.87"/><g><circle cx="687.93" cy="1381.57" r="27.39"/><rect width="337.33" height="7.54" x="1043.24" y="1377.8"/><rect width="217.99" height="7.54" x="765.92" y="1377.8"/></g><g><path fill="#bf92fb" d="M1279.4,1185.77H781.44c-29.62,0-53.64-24.01-53.64-53.64v-118.85c0-29.62,24.01-53.64,53.64-53.64
								h497.96c29.62,0,53.64,24.01,53.64,53.64v118.85C1333.04,1161.76,1309.02,1185.77,1279.4,1185.77z"/><path d="M1279.4,1189.54H781.44c-31.65,0-57.41-25.75-57.41-57.41v-118.85c0-31.65,25.76-57.41,57.41-57.41h497.96
								c31.65,0,57.41,25.75,57.41,57.41v118.85C1336.81,1163.79,1311.06,1189.54,1279.4,1189.54z M781.44,963.42
								c-27.5,0-49.87,22.37-49.87,49.87v118.85c0,27.5,22.37,49.87,49.87,49.87h497.96c27.5,0,49.86-22.37,49.86-49.87v-118.85
								c0-27.5-22.37-49.87-49.86-49.87H781.44z"/></g><g><path d="M1163.72,326.61l-7.84,28.96c-3.34,12.33-16.86,21.11-32.48,21.11H917.73c-15.63,0-29.14-8.79-32.48-21.11l-7.84-28.96
						H1163.72z"/><path d="M1123.39,380.45H917.73c-17.46,0-32.31-9.83-36.12-23.9l-7.84-28.96c-0.31-1.13-0.07-2.34,0.64-3.28
						s1.82-1.48,2.99-1.48h286.31c1.17,0,2.28,0.55,2.99,1.48s0.95,2.14,0.64,3.28l-7.84,28.96
						C1155.7,370.63,1140.85,380.45,1123.39,380.45z M882.33,330.38l6.55,24.2c2.88,10.62,15.01,18.33,28.84,18.33h205.66
						c13.84,0,25.97-7.71,28.84-18.33l6.55-24.21H882.33z"/></g><g><path fill="#fff" d="M1380.57,1532.58v166.04c0,23.78-19.26,43.04-43.04,43.04H748.92c-23.75,0-43-19.26-43-43.04v-166.04
					c0-23.75,19.26-43,43-43h588.61C1361.32,1489.57,1380.57,1508.83,1380.57,1532.58z"/><path d="M1337.53,1745.43H748.92c-25.79,0-46.78-21-46.78-46.81v-166.04c0-25.79,20.98-46.77,46.78-46.77h588.61
					c25.81,0,46.81,20.98,46.81,46.77v166.04C1384.34,1724.43,1363.34,1745.43,1337.53,1745.43z M748.92,1493.35
					c-21.63,0-39.23,17.6-39.23,39.23v166.04c0,21.65,17.6,39.27,39.23,39.27h588.61c21.65,0,39.27-17.62,39.27-39.27v-166.04
					c0-21.63-17.62-39.23-39.27-39.23H748.92z"/></g><g><path d="M829.78,1583.9c0,1.23-0.06,2.28-0.16,3.15c-0.11,0.87-0.27,1.57-0.48,2.1c-0.21,0.53-0.48,0.92-0.8,1.18
					c-0.32,0.26-0.67,0.38-1.05,0.38h-20.65v66.48c0,0.43-0.14,0.81-0.41,1.15c-0.28,0.34-0.73,0.62-1.37,0.83
					c-0.64,0.21-1.5,0.38-2.58,0.51c-1.08,0.13-2.43,0.19-4.05,0.19c-1.61,0-2.96-0.06-4.05-0.19c-1.08-0.13-1.94-0.3-2.58-0.51
					c-0.64-0.21-1.09-0.49-1.37-0.83c-0.28-0.34-0.41-0.72-0.41-1.15v-66.48h-20.65c-0.43,0-0.79-0.13-1.09-0.38
					c-0.29-0.26-0.55-0.65-0.76-1.18c-0.21-0.53-0.37-1.23-0.48-2.1c-0.11-0.87-0.16-1.92-0.16-3.15c0-1.28,0.05-2.36,0.16-3.25
					c0.11-0.89,0.27-1.6,0.48-2.14c0.21-0.53,0.47-0.91,0.76-1.15c0.3-0.23,0.66-0.35,1.09-0.35h58.13c0.38,0,0.73,0.12,1.05,0.35
					c0.32,0.23,0.58,0.62,0.8,1.15c0.21,0.53,0.37,1.24,0.48,2.14C829.73,1581.54,829.78,1582.63,829.78,1583.9z"/><path d="M900.73,1657.33c0,0.47-0.09,0.86-0.26,1.18c-0.17,0.32-0.57,0.58-1.21,0.8c-0.64,0.21-1.58,0.36-2.81,0.45
					c-1.23,0.08-2.91,0.13-5.03,0.13c-1.79,0-3.21-0.04-4.27-0.13c-1.06-0.09-1.9-0.24-2.52-0.48s-1.05-0.53-1.31-0.89
					c-0.25-0.36-0.47-0.8-0.64-1.31l-7.39-18.42c-0.89-2.08-1.76-3.93-2.61-5.55c-0.85-1.61-1.8-2.96-2.84-4.05
					c-1.04-1.08-2.24-1.9-3.6-2.45c-1.36-0.55-2.93-0.83-4.72-0.83h-5.23v31.42c0,0.43-0.14,0.81-0.42,1.15
					c-0.28,0.34-0.73,0.62-1.37,0.83s-1.49,0.38-2.55,0.51c-1.06,0.13-2.42,0.19-4.08,0.19c-1.62,0-2.96-0.06-4.05-0.19
					c-1.08-0.13-1.94-0.3-2.58-0.51c-0.64-0.21-1.08-0.49-1.34-0.83c-0.25-0.34-0.38-0.72-0.38-1.15v-74.89
					c0-1.87,0.48-3.22,1.44-4.05c0.96-0.83,2.14-1.24,3.54-1.24h21.35c2.17,0,3.95,0.04,5.35,0.13c1.4,0.09,2.68,0.19,3.82,0.32
					c3.31,0.47,6.3,1.28,8.96,2.42s4.91,2.64,6.76,4.49s3.26,4.04,4.24,6.56c0.98,2.53,1.47,5.43,1.47,8.7
					c0,2.76-0.35,5.28-1.05,7.55c-0.7,2.27-1.73,4.3-3.09,6.09c-1.36,1.79-3.04,3.34-5.03,4.65c-2,1.32-4.27,2.38-6.82,3.19
					c1.23,0.6,2.39,1.32,3.47,2.17c1.08,0.85,2.1,1.88,3.06,3.09c0.95,1.21,1.86,2.59,2.71,4.14c0.85,1.55,1.68,3.31,2.49,5.26
					l6.95,16.25c0.64,1.61,1.06,2.79,1.27,3.54C900.62,1656.32,900.73,1656.9,900.73,1657.33z M879.12,1601.37
					c0-2.72-0.61-5.01-1.85-6.88s-3.25-3.19-6.05-3.95c-0.85-0.21-1.82-0.38-2.9-0.51c-1.08-0.13-2.58-0.19-4.49-0.19h-7.52v23.39
					h8.54c2.38,0,4.46-0.29,6.25-0.86c1.79-0.57,3.27-1.38,4.46-2.42c1.19-1.04,2.08-2.28,2.68-3.73
					C878.82,1604.77,879.12,1603.15,879.12,1601.37z"/><path d="M980.59,1653.25c0.51,1.53,0.83,2.74,0.96,3.63c0.13,0.89-0.04,1.56-0.51,2.01c-0.47,0.45-1.3,0.72-2.49,0.83
					c-1.19,0.11-2.83,0.16-4.91,0.16c-2.17,0-3.86-0.03-5.07-0.09c-1.21-0.06-2.14-0.19-2.77-0.38c-0.64-0.19-1.08-0.46-1.34-0.8
					c-0.25-0.34-0.47-0.79-0.64-1.34l-5.55-16.57h-30.97l-5.23,16.13c-0.17,0.6-0.39,1.09-0.67,1.5c-0.28,0.4-0.73,0.72-1.34,0.96
					s-1.49,0.39-2.61,0.48c-1.12,0.08-2.6,0.13-4.43,0.13c-1.95,0-3.48-0.06-4.59-0.19c-1.1-0.13-1.87-0.44-2.29-0.92
					c-0.42-0.49-0.57-1.18-0.45-2.07c0.13-0.89,0.45-2.08,0.96-3.57l25.43-73.17c0.25-0.72,0.55-1.31,0.89-1.75
					c0.34-0.45,0.88-0.79,1.62-1.02c0.74-0.23,1.77-0.38,3.09-0.45c1.31-0.06,3.06-0.1,5.23-0.1c2.51,0,4.5,0.03,5.99,0.1
					s2.64,0.21,3.47,0.45c0.83,0.23,1.43,0.58,1.79,1.05c0.36,0.47,0.67,1.11,0.92,1.91L980.59,1653.25z M942.73,1592.76h-0.06
					L931,1627.82h23.39L942.73,1592.76z"/><path d="M1060.14,1653.63c0,0.98-0.17,1.85-0.51,2.61c-0.34,0.77-0.8,1.4-1.37,1.91s-1.25,0.88-2.04,1.12s-1.58,0.35-2.39,0.35
					h-7.14c-1.49,0-2.77-0.15-3.86-0.45c-1.08-0.3-2.08-0.84-2.99-1.63c-0.91-0.79-1.8-1.85-2.64-3.19
					c-0.85-1.34-1.81-3.07-2.87-5.2l-20.53-38.56c-1.19-2.3-2.4-4.77-3.63-7.43c-1.23-2.66-2.34-5.24-3.31-7.74h-0.13
					c0.17,3.06,0.3,6.11,0.38,9.15c0.08,3.04,0.13,6.17,0.13,9.4v43.15c0,0.43-0.12,0.81-0.35,1.15c-0.23,0.34-0.64,0.63-1.21,0.86
					c-0.57,0.23-1.35,0.41-2.33,0.54c-0.98,0.13-2.23,0.19-3.76,0.19c-1.49,0-2.72-0.06-3.7-0.19c-0.98-0.13-1.75-0.31-2.29-0.54
					c-0.56-0.23-0.94-0.52-1.15-0.86c-0.21-0.34-0.32-0.72-0.32-1.15v-74.13c0-2,0.59-3.49,1.75-4.49c1.17-1,2.6-1.5,4.3-1.5h8.99
					c1.62,0,2.98,0.14,4.08,0.41c1.1,0.28,2.09,0.73,2.96,1.37c0.87,0.64,1.69,1.52,2.45,2.64c0.77,1.13,1.55,2.52,2.36,4.18
					l16.06,30.15c0.94,1.83,1.86,3.62,2.77,5.39c0.91,1.76,1.8,3.53,2.65,5.29c0.85,1.76,1.68,3.5,2.49,5.2
					c0.81,1.7,1.59,3.4,2.36,5.1h0.06c-0.13-2.97-0.22-6.08-0.29-9.31c-0.06-3.23-0.09-6.31-0.09-9.24v-38.69
					c0-0.42,0.13-0.81,0.38-1.15c0.26-0.34,0.68-0.64,1.28-0.89c0.59-0.26,1.38-0.44,2.36-0.54c0.98-0.11,2.23-0.16,3.76-0.16
					c1.44,0,2.66,0.05,3.63,0.16c0.98,0.11,1.73,0.29,2.26,0.54s0.9,0.55,1.12,0.89c0.21,0.34,0.32,0.72,0.32,1.15V1653.63z"/><path d="M1127,1634.76c0,4.33-0.81,8.14-2.42,11.41c-1.61,3.27-3.8,6-6.56,8.19c-2.77,2.19-5.99,3.84-9.69,4.94
					c-3.7,1.1-7.65,1.66-11.86,1.66c-2.85,0-5.49-0.23-7.94-0.7c-2.44-0.47-4.6-1.03-6.47-1.69c-1.87-0.66-3.43-1.35-4.69-2.07
					c-1.25-0.72-2.15-1.36-2.71-1.91c-0.55-0.55-0.95-1.35-1.18-2.39c-0.24-1.04-0.35-2.54-0.35-4.49c0-1.32,0.04-2.42,0.13-3.31
					c0.08-0.89,0.22-1.61,0.42-2.17c0.19-0.55,0.45-0.95,0.76-1.18c0.32-0.23,0.69-0.35,1.12-0.35c0.6,0,1.44,0.35,2.52,1.05
					c1.08,0.7,2.47,1.48,4.18,2.33c1.7,0.85,3.73,1.63,6.08,2.33c2.36,0.7,5.09,1.05,8.19,1.05c2.04,0,3.87-0.24,5.48-0.73
					c1.62-0.49,2.99-1.18,4.11-2.07c1.12-0.89,1.98-2,2.58-3.32c0.59-1.32,0.89-2.78,0.89-4.4c0-1.87-0.51-3.47-1.53-4.81
					c-1.02-1.34-2.35-2.53-3.98-3.57c-1.64-1.04-3.5-2.02-5.58-2.93c-2.08-0.91-4.23-1.88-6.44-2.9s-4.36-2.18-6.44-3.47
					c-2.08-1.3-3.94-2.85-5.58-4.65c-1.64-1.81-2.96-3.94-3.98-6.41c-1.02-2.46-1.53-5.42-1.53-8.86c0-3.95,0.73-7.42,2.2-10.42
					c1.47-3,3.44-5.48,5.93-7.46c2.49-1.98,5.42-3.45,8.8-4.43c3.38-0.98,6.96-1.47,10.74-1.47c1.96,0,3.91,0.15,5.86,0.45
					c1.96,0.3,3.78,0.7,5.48,1.21c1.7,0.51,3.21,1.08,4.53,1.72c1.31,0.64,2.19,1.17,2.61,1.59c0.42,0.43,0.71,0.79,0.86,1.08
					c0.15,0.3,0.28,0.69,0.38,1.18c0.11,0.49,0.18,1.11,0.22,1.85c0.04,0.74,0.06,1.67,0.06,2.77c0,1.23-0.03,2.27-0.1,3.12
					c-0.06,0.85-0.17,1.55-0.32,2.1c-0.15,0.55-0.36,0.96-0.64,1.21c-0.28,0.26-0.65,0.38-1.12,0.38c-0.47,0-1.21-0.3-2.23-0.89
					c-1.02-0.59-2.28-1.24-3.76-1.94c-1.49-0.7-3.21-1.34-5.16-1.91c-1.95-0.57-4.1-0.86-6.44-0.86c-1.83,0-3.42,0.22-4.78,0.67
					s-2.5,1.06-3.41,1.85c-0.91,0.79-1.59,1.73-2.04,2.84s-0.67,2.27-0.67,3.5c0,1.83,0.5,3.41,1.49,4.75
					c1,1.34,2.34,2.53,4.02,3.57c1.68,1.04,3.58,2.02,5.7,2.93c2.12,0.91,4.29,1.88,6.5,2.9c2.21,1.02,4.38,2.18,6.5,3.47
					c2.12,1.3,4.01,2.85,5.67,4.65s3,3.93,4.02,6.37C1126.49,1628.57,1127,1631.45,1127,1634.76z"/><path d="M1186.08,1583.9c0,1.27-0.05,2.35-0.16,3.22c-0.11,0.87-0.28,1.56-0.51,2.07c-0.24,0.51-0.5,0.89-0.8,1.15
					c-0.3,0.26-0.64,0.38-1.02,0.38h-26.96v22.18h25.3c0.38,0,0.72,0.11,1.02,0.32c0.3,0.21,0.56,0.57,0.8,1.08
					c0.23,0.51,0.4,1.19,0.51,2.04c0.11,0.85,0.16,1.91,0.16,3.19c0,1.28-0.05,2.34-0.16,3.19c-0.11,0.85-0.28,1.55-0.51,2.1
					c-0.24,0.55-0.5,0.95-0.8,1.18c-0.3,0.23-0.64,0.35-1.02,0.35h-25.3v30.72c0,0.47-0.13,0.87-0.38,1.21
					c-0.25,0.34-0.71,0.63-1.37,0.86c-0.66,0.23-1.52,0.41-2.58,0.54c-1.06,0.13-2.42,0.19-4.08,0.19c-1.61,0-2.96-0.06-4.05-0.19
					c-1.08-0.13-1.94-0.31-2.58-0.54c-0.64-0.23-1.09-0.52-1.37-0.86c-0.28-0.34-0.42-0.74-0.42-1.21v-74.76
					c0-1.87,0.48-3.22,1.44-4.05c0.96-0.83,2.14-1.24,3.54-1.24h38.81c0.38,0,0.72,0.12,1.02,0.35c0.3,0.23,0.56,0.62,0.8,1.15
					c0.23,0.53,0.4,1.24,0.51,2.14C1186.03,1581.54,1186.08,1582.63,1186.08,1583.9z"/><path d="M1248.61,1652.93c0,1.23-0.06,2.26-0.16,3.09c-0.11,0.83-0.27,1.5-0.48,2.01c-0.21,0.51-0.48,0.88-0.8,1.11
					c-0.32,0.23-0.67,0.35-1.05,0.35h-41.43c-1.4,0-2.58-0.41-3.54-1.24c-0.96-0.83-1.44-2.18-1.44-4.05v-71.9
					c0-1.87,0.48-3.22,1.44-4.05c0.96-0.83,2.14-1.24,3.54-1.24h41.17c0.38,0,0.72,0.11,1.02,0.32c0.29,0.21,0.55,0.58,0.76,1.11
					c0.21,0.53,0.37,1.21,0.48,2.04s0.16,1.88,0.16,3.16c0,1.19-0.06,2.2-0.16,3.03c-0.11,0.83-0.27,1.5-0.48,2.01
					c-0.21,0.51-0.47,0.88-0.76,1.12c-0.3,0.23-0.64,0.35-1.02,0.35h-29.45v20.14h24.92c0.38,0,0.73,0.12,1.05,0.35
					c0.32,0.23,0.58,0.6,0.8,1.08c0.21,0.49,0.37,1.15,0.48,1.98c0.1,0.83,0.16,1.84,0.16,3.03c0,1.23-0.06,2.25-0.16,3.06
					c-0.11,0.81-0.27,1.46-0.48,1.94c-0.21,0.49-0.48,0.84-0.8,1.05c-0.32,0.21-0.67,0.32-1.05,0.32h-24.92v23.27h29.7
					c0.38,0,0.73,0.12,1.05,0.35c0.32,0.23,0.58,0.6,0.8,1.11s0.37,1.18,0.48,2.01C1248.56,1650.67,1248.61,1651.7,1248.61,1652.93z
					"/><path d="M1324.59,1657.33c0,0.47-0.09,0.86-0.26,1.18c-0.17,0.32-0.57,0.58-1.21,0.8c-0.64,0.21-1.58,0.36-2.81,0.45
					c-1.23,0.08-2.91,0.13-5.03,0.13c-1.79,0-3.21-0.04-4.27-0.13c-1.06-0.09-1.9-0.24-2.52-0.48s-1.05-0.53-1.31-0.89
					c-0.25-0.36-0.47-0.8-0.64-1.31l-7.39-18.42c-0.89-2.08-1.76-3.93-2.61-5.55c-0.85-1.61-1.8-2.96-2.84-4.05
					c-1.04-1.08-2.24-1.9-3.6-2.45c-1.36-0.55-2.93-0.83-4.72-0.83h-5.23v31.42c0,0.43-0.14,0.81-0.42,1.15
					c-0.28,0.34-0.73,0.62-1.37,0.83s-1.49,0.38-2.55,0.51c-1.06,0.13-2.42,0.19-4.08,0.19c-1.62,0-2.96-0.06-4.05-0.19
					c-1.08-0.13-1.94-0.3-2.58-0.51s-1.08-0.49-1.34-0.83c-0.25-0.34-0.38-0.72-0.38-1.15v-74.89c0-1.87,0.48-3.22,1.44-4.05
					c0.96-0.83,2.14-1.24,3.54-1.24h21.35c2.17,0,3.95,0.04,5.35,0.13c1.4,0.09,2.68,0.19,3.82,0.32c3.31,0.47,6.3,1.28,8.96,2.42
					s4.91,2.64,6.76,4.49c1.85,1.85,3.26,4.04,4.24,6.56c0.98,2.53,1.47,5.43,1.47,8.7c0,2.76-0.35,5.28-1.05,7.55
					c-0.7,2.27-1.73,4.3-3.09,6.09c-1.36,1.79-3.04,3.34-5.03,4.65c-2,1.32-4.27,2.38-6.82,3.19c1.23,0.6,2.39,1.32,3.47,2.17
					c1.08,0.85,2.1,1.88,3.06,3.09c0.95,1.21,1.86,2.59,2.71,4.14c0.85,1.55,1.68,3.31,2.49,5.26l6.95,16.25
					c0.64,1.61,1.06,2.79,1.27,3.54C1324.48,1656.32,1324.59,1656.9,1324.59,1657.33z M1302.98,1601.37c0-2.72-0.61-5.01-1.85-6.88
					s-3.25-3.19-6.05-3.95c-0.85-0.21-1.82-0.38-2.9-0.51c-1.08-0.13-2.58-0.19-4.49-0.19h-7.52v23.39h8.54
					c2.38,0,4.46-0.29,6.25-0.86c1.79-0.57,3.27-1.38,4.46-2.42c1.19-1.04,2.08-2.28,2.68-3.73
					C1302.68,1604.77,1302.98,1603.15,1302.98,1601.37z"/></g><g><path fill="#fec524" d="M1257.33,706.82c0,59.91-23.33,114.3-61.39,154.72H867.36c-4.89-5.2-9.57-10.66-13.98-16.34
						c-29.71-38.23-47.41-86.25-47.41-138.38c0-124.61,101.06-225.68,225.68-225.68c60.56,0,115.53,23.86,156.07,62.66
						C1230.63,584.92,1257.33,642.77,1257.33,706.82z"/><path d="M1146.39,865.31H872.52c-0.83,0-1.63-0.27-2.29-0.78c-6.9-5.27-13.44-10.86-19.46-16.61
						c-45.61-43.75-70.72-102.62-70.72-165.75c0-126.52,102.91-229.45,229.4-229.45c71.35,0,137.41,32.35,181.25,88.75
						c31.53,40.58,48.2,89.23,48.2,140.69c0,72.11-32.88,138.57-90.22,182.36C1148.02,865.04,1147.22,865.31,1146.39,865.31z
						 M873.8,857.77h271.31c54.83-42.35,86.25-106.28,86.25-175.59c0-49.77-16.12-96.82-46.62-136.07
						c-42.4-54.55-106.29-85.84-175.29-85.84c-122.34,0-221.86,99.55-221.86,221.91c0,61.06,24.29,117.99,68.4,160.3
						C861.5,847.75,867.49,852.9,873.8,857.77z"/><path fill="#fff" d="M1085.9,707.03c0,8.49-1.5,16.14-4.51,22.95c-3.01,6.81-7.28,12.68-12.81,17.62
						c-5.53,4.94-12.19,8.88-19.98,11.84c-7.8,2.96-16.43,4.84-25.91,5.63l-3.11,31.68c-0.1,0.79-0.32,1.48-0.67,2.07
						c-0.35,0.59-0.99,1.08-1.92,1.48c-0.94,0.39-2.22,0.71-3.85,0.96c-1.63,0.25-3.68,0.37-6.14,0.37c-3.16,0-5.7-0.15-7.63-0.44
						c-1.92-0.3-3.43-0.72-4.51-1.26c-1.09-0.54-1.8-1.26-2.15-2.15c-0.35-0.89-0.42-1.88-0.22-2.96l3.11-30.05
						c-4.25-0.59-8.24-1.36-11.99-2.3c-3.75-0.94-7.16-1.97-10.22-3.11c-3.06-1.13-5.7-2.3-7.92-3.48c-2.22-1.18-3.9-2.34-5.03-3.48
						c-1.13-1.13-1.95-2.81-2.44-5.03c-0.5-2.22-0.74-5.5-0.74-9.85c0-3.35,0.1-6.12,0.29-8.29c0.2-2.17,0.54-3.85,1.04-5.03
						c0.49-1.18,1.11-2,1.85-2.44c0.74-0.44,1.61-0.67,2.59-0.67c1.28,0,3.16,0.74,5.63,2.22c2.46,1.48,5.62,3.11,9.48,4.89
						c3.85,1.78,8.51,3.41,13.99,4.89c5.48,1.48,11.92,2.22,19.32,2.22c11.55,0,20.14-2.15,25.76-6.44
						c5.63-4.29,8.44-9.99,8.44-17.1c0-4.74-1.21-8.64-3.63-11.7c-2.42-3.06-5.65-5.75-9.7-8.07c-4.05-2.32-8.61-4.39-13.7-6.22
						c-5.09-1.83-10.29-3.78-15.62-5.85c-5.33-2.07-10.54-4.49-15.62-7.25c-5.09-2.76-9.65-6.17-13.7-10.22
						c-4.05-4.05-7.28-8.96-9.7-14.73c-2.42-5.77-3.63-12.76-3.63-20.95c0-7.4,1.23-14.14,3.7-20.21
						c2.47-6.07,6.02-11.38,10.66-15.92c4.64-4.54,10.34-8.22,17.1-11.03c6.76-2.81,14.44-4.71,23.02-5.7l2.96-29.76
						c0.1-0.79,0.32-1.45,0.67-2c0.34-0.54,0.98-1.04,1.93-1.48c0.94-0.44,2.19-0.76,3.77-0.96c1.58-0.2,3.65-0.3,6.22-0.3
						c3.06,0,5.6,0.15,7.63,0.44c2.02,0.3,3.58,0.72,4.66,1.26c1.09,0.54,1.78,1.26,2.07,2.15c0.3,0.89,0.45,1.88,0.45,2.96
						l-2.96,27.98c2.76,0.4,5.67,0.94,8.73,1.63c3.06,0.69,5.92,1.51,8.59,2.44c2.67,0.94,5.08,1.93,7.25,2.96
						c2.17,1.04,3.68,1.98,4.51,2.81c0.84,0.84,1.48,1.68,1.93,2.52c0.45,0.84,0.79,1.88,1.03,3.11c0.25,1.24,0.42,2.72,0.52,4.44
						c0.1,1.73,0.15,3.73,0.15,6c0,3.06-0.07,5.58-0.22,7.55c-0.15,1.98-0.42,3.48-0.81,4.52c-0.4,1.04-0.84,1.73-1.33,2.07
						c-0.49,0.35-1.09,0.52-1.78,0.52c-1.29,0-3.16-0.64-5.63-1.92c-2.47-1.28-5.51-2.67-9.11-4.15c-3.61-1.48-7.75-2.86-12.44-4.15
						c-4.69-1.28-9.85-1.93-15.47-1.93c-5.13,0-9.53,0.5-13.18,1.48c-3.65,0.99-6.61,2.37-8.88,4.15c-2.27,1.78-3.95,3.9-5.03,6.37
						c-1.09,2.47-1.63,5.18-1.63,8.14c0,4.64,1.23,8.54,3.7,11.7c2.46,3.16,5.75,5.87,9.84,8.14c4.09,2.27,8.73,4.34,13.92,6.22
						c5.18,1.88,10.46,3.85,15.84,5.92c5.38,2.07,10.66,4.47,15.84,7.18c5.18,2.72,9.79,6.07,13.84,10.07
						c4.05,4,7.3,8.84,9.77,14.51C1084.67,692.2,1085.9,699.03,1085.9,707.03z"/></g><g><path d="M1299.85,865.64h-558.6c-2.08,0-3.77-1.69-3.77-3.77s1.69-3.77,3.77-3.77h558.6c2.08,0,3.77,1.69,3.77,3.77
					S1301.93,865.64,1299.85,865.64z"/></g><g><path fill="#fff" d="M910.77,1092.74c0,4.16-0.74,7.9-2.21,11.24c-1.47,3.34-3.56,6.21-6.27,8.63c-2.71,2.42-5.97,4.35-9.79,5.8
					c-3.82,1.45-8.05,2.37-12.69,2.76l-1.52,15.52c-0.05,0.39-0.16,0.72-0.33,1.01c-0.17,0.29-0.48,0.53-0.94,0.73
					c-0.46,0.19-1.09,0.35-1.89,0.47c-0.8,0.12-1.8,0.18-3.01,0.18c-1.55,0-2.79-0.07-3.73-0.22c-0.94-0.15-1.68-0.35-2.21-0.62
					c-0.53-0.27-0.88-0.62-1.05-1.05c-0.17-0.44-0.21-0.92-0.11-1.45l1.52-14.72c-2.08-0.29-4.04-0.66-5.87-1.12
					c-1.84-0.46-3.51-0.97-5-1.52c-1.5-0.56-2.79-1.12-3.88-1.7c-1.09-0.58-1.91-1.15-2.47-1.7c-0.56-0.56-0.95-1.38-1.2-2.47
					s-0.36-2.69-0.36-4.82c0-1.64,0.05-3,0.14-4.06c0.1-1.06,0.27-1.88,0.51-2.47c0.24-0.58,0.54-0.98,0.91-1.2s0.78-0.33,1.27-0.33
					c0.63,0,1.55,0.36,2.75,1.09c1.21,0.73,2.75,1.52,4.64,2.39s4.17,1.67,6.85,2.39c2.68,0.73,5.84,1.09,9.46,1.09
					c5.65,0,9.86-1.05,12.62-3.15c2.75-2.1,4.13-4.9,4.13-8.38c0-2.32-0.59-4.23-1.77-5.73c-1.19-1.5-2.77-2.82-4.75-3.95
					c-1.98-1.14-4.22-2.15-6.71-3.05c-2.49-0.89-5.04-1.85-7.65-2.86c-2.61-1.02-5.16-2.2-7.65-3.55c-2.49-1.35-4.73-3.02-6.71-5
					c-1.98-1.98-3.56-4.39-4.75-7.21c-1.19-2.83-1.78-6.25-1.78-10.26c0-3.63,0.6-6.92,1.81-9.9c1.21-2.97,2.95-5.57,5.22-7.79
					c2.27-2.22,5.06-4.02,8.37-5.4c3.31-1.38,7.07-2.31,11.28-2.79l1.45-14.57c0.05-0.39,0.16-0.71,0.33-0.98
					c0.17-0.27,0.48-0.51,0.94-0.73c0.46-0.22,1.08-0.37,1.85-0.47c0.77-0.1,1.79-0.15,3.05-0.15c1.5,0,2.74,0.07,3.73,0.22
					c0.99,0.14,1.75,0.35,2.28,0.62c0.53,0.27,0.87,0.62,1.02,1.05c0.14,0.44,0.22,0.92,0.22,1.45l-1.45,13.7
					c1.36,0.19,2.78,0.46,4.28,0.8c1.5,0.34,2.9,0.74,4.21,1.2c1.31,0.46,2.49,0.94,3.55,1.45c1.06,0.51,1.8,0.97,2.21,1.38
					c0.41,0.41,0.72,0.82,0.94,1.23c0.22,0.41,0.39,0.92,0.51,1.52c0.12,0.6,0.21,1.33,0.25,2.18c0.05,0.85,0.07,1.82,0.07,2.94
					c0,1.5-0.04,2.73-0.11,3.7c-0.07,0.97-0.21,1.7-0.4,2.21c-0.2,0.51-0.41,0.85-0.65,1.01c-0.24,0.17-0.53,0.25-0.87,0.25
					c-0.63,0-1.55-0.31-2.76-0.94c-1.21-0.63-2.7-1.31-4.46-2.03c-1.76-0.73-3.79-1.4-6.09-2.03c-2.29-0.63-4.82-0.94-7.57-0.94
					c-2.52,0-4.67,0.24-6.46,0.73c-1.79,0.48-3.24,1.16-4.35,2.03c-1.11,0.87-1.94,1.91-2.47,3.12c-0.53,1.21-0.8,2.54-0.8,3.99
					c0,2.27,0.6,4.18,1.81,5.73c1.21,1.55,2.81,2.88,4.82,3.99c2.01,1.11,4.28,2.13,6.82,3.05c2.54,0.92,5.13,1.89,7.76,2.9
					c2.63,1.02,5.22,2.19,7.76,3.52c2.54,1.33,4.8,2.97,6.78,4.93c1.98,1.96,3.58,4.33,4.79,7.11
					C910.16,1085.47,910.77,1088.82,910.77,1092.74z"/><path fill="#fff" d="M1021.42,1096.07c0,4.25-0.74,8.05-2.21,11.38c-1.48,3.34-3.65,6.15-6.53,8.45
					c-2.88,2.3-6.44,4.04-10.7,5.22c-4.25,1.18-9.16,1.78-14.72,1.78c-5.32,0-9.98-0.53-13.99-1.6c-4.01-1.06-7.37-2.62-10.08-4.68
					c-2.71-2.05-4.74-4.59-6.09-7.61c-1.35-3.02-2.03-6.49-2.03-10.4c0-2.66,0.4-5.16,1.2-7.5c0.8-2.34,1.98-4.52,3.55-6.53
					c1.57-2.01,3.53-3.89,5.87-5.66c2.34-1.76,5.04-3.44,8.08-5.04c-2.46-1.35-4.69-2.82-6.67-4.39c-1.98-1.57-3.68-3.29-5.08-5.15
					c-1.4-1.86-2.46-3.9-3.19-6.13c-0.73-2.22-1.09-4.64-1.09-7.25c0-3.77,0.66-7.19,1.99-10.26c1.33-3.07,3.31-5.73,5.95-7.98
					c2.63-2.25,5.93-3.98,9.9-5.18c3.96-1.21,8.55-1.81,13.78-1.81c5.17,0,9.61,0.56,13.3,1.67c3.7,1.11,6.73,2.68,9.1,4.71
					c2.37,2.03,4.12,4.46,5.26,7.29c1.13,2.83,1.7,5.96,1.7,9.39c0,2.27-0.38,4.48-1.12,6.63c-0.75,2.15-1.8,4.19-3.16,6.13
					c-1.36,1.93-3.02,3.76-5,5.47c-1.98,1.72-4.23,3.28-6.74,4.68c2.95,1.55,5.58,3.19,7.9,4.93c2.32,1.74,4.28,3.61,5.87,5.62
					c1.6,2.01,2.82,4.15,3.66,6.42C1020.99,1090.95,1021.42,1093.41,1021.42,1096.07z M1002.57,1097.38c0-1.79-0.3-3.42-0.91-4.89
					c-0.61-1.47-1.55-2.86-2.83-4.17c-1.28-1.3-2.89-2.56-4.82-3.77c-1.93-1.21-4.18-2.44-6.74-3.7c-2.22,1.21-4.18,2.42-5.87,3.63
					c-1.69,1.21-3.09,2.48-4.21,3.81c-1.11,1.33-1.95,2.73-2.5,4.21c-0.56,1.48-0.84,3.06-0.84,4.75c0,3.77,1.22,6.65,3.66,8.63
					c2.44,1.98,6.08,2.97,10.91,2.97c4.74,0,8.28-1.01,10.62-3.05C1001.39,1103.76,1002.57,1100.96,1002.57,1097.38z
					 M1000.39,1050.53c0-1.69-0.24-3.21-0.73-4.57c-0.48-1.35-1.24-2.5-2.28-3.44c-1.04-0.94-2.32-1.66-3.84-2.14
					c-1.52-0.48-3.33-0.72-5.4-0.72c-4.06,0-7.08,0.93-9.06,2.79c-1.98,1.86-2.97,4.44-2.97,7.72c0,1.55,0.25,2.97,0.76,4.28
					c0.51,1.3,1.29,2.54,2.36,3.7c1.06,1.16,2.44,2.3,4.14,3.41c1.69,1.11,3.7,2.3,6.02,3.55c3.53-2.08,6.25-4.3,8.16-6.67
					C999.44,1056.07,1000.39,1053.44,1000.39,1050.53z"/><path fill="#fff" d="M1095.16,1035.45c0,1.4-0.05,2.62-0.15,3.66c-0.1,1.04-0.23,2.01-0.4,2.9c-0.17,0.89-0.4,1.74-0.69,2.54
					c-0.29,0.8-0.63,1.66-1.02,2.57l-30.89,71.57c-0.29,0.63-0.67,1.14-1.12,1.52c-0.46,0.39-1.1,0.69-1.92,0.91
					c-0.82,0.22-1.87,0.36-3.15,0.43c-1.28,0.07-2.86,0.11-4.75,0.11c-2.56,0-4.6-0.09-6.09-0.25c-1.5-0.17-2.6-0.44-3.3-0.8
					c-0.7-0.36-1.08-0.82-1.12-1.38c-0.05-0.56,0.12-1.24,0.5-2.07l33.21-73.24h-39.45c-1.02,0-1.77-0.66-2.28-1.99
					c-0.51-1.33-0.76-3.44-0.76-6.34c0-1.45,0.07-2.69,0.22-3.73c0.14-1.04,0.35-1.9,0.61-2.57c0.27-0.68,0.58-1.16,0.94-1.45
					c0.36-0.29,0.79-0.43,1.27-0.43h55.76c0.87,0,1.6,0.08,2.18,0.25c0.58,0.17,1.04,0.54,1.38,1.12c0.34,0.58,0.59,1.4,0.76,2.47
					C1095.08,1032.31,1095.16,1033.71,1095.16,1035.45z"/><path fill="#fff" d="M1171.95,1089.91c0,4.74-0.73,9.13-2.17,13.16c-1.45,4.04-3.58,7.52-6.38,10.44
					c-2.81,2.92-6.26,5.22-10.37,6.89c-4.11,1.67-8.85,2.5-14.21,2.5c-4.35,0-8.15-0.5-11.39-1.49c-3.24-0.99-6.04-2.42-8.41-4.28
					c-2.37-1.86-4.3-4.12-5.8-6.78c-1.5-2.66-2.7-5.66-3.59-8.99c-0.89-3.34-1.51-6.96-1.85-10.88s-0.51-8.07-0.51-12.47
					c0-3.67,0.18-7.52,0.55-11.53c0.36-4.01,1.06-7.95,2.1-11.82c1.04-3.87,2.5-7.55,4.39-11.06c1.89-3.5,4.32-6.57,7.29-9.21
					c2.97-2.63,6.57-4.72,10.8-6.27c4.23-1.55,9.25-2.32,15.05-2.32c1.84,0,3.69,0.11,5.55,0.33c1.86,0.22,3.59,0.5,5.18,0.83
					c1.59,0.34,2.95,0.73,4.06,1.16c1.11,0.44,1.85,0.81,2.21,1.12c0.36,0.31,0.64,0.67,0.84,1.05c0.19,0.39,0.35,0.81,0.47,1.27
					c0.12,0.46,0.2,1.03,0.25,1.7c0.05,0.68,0.07,1.5,0.07,2.47c0,1.5-0.03,2.74-0.11,3.73c-0.07,0.99-0.21,1.76-0.4,2.32
					c-0.2,0.56-0.46,0.96-0.8,1.2c-0.34,0.24-0.75,0.36-1.23,0.36c-0.58,0-1.33-0.16-2.25-0.47c-0.92-0.31-2.03-0.66-3.34-1.05
					c-1.3-0.39-2.84-0.73-4.6-1.02c-1.77-0.29-3.81-0.44-6.13-0.44c-3.92,0-7.23,0.73-9.94,2.18c-2.71,1.45-4.91,3.42-6.6,5.91
					c-1.69,2.49-2.92,5.38-3.7,8.66c-0.77,3.29-1.19,6.77-1.23,10.44c1.06-0.68,2.28-1.35,3.66-2.03c1.38-0.68,2.87-1.26,4.49-1.74
					c1.62-0.48,3.37-0.88,5.26-1.2c1.89-0.31,3.89-0.47,6.02-0.47c4.74,0,8.8,0.65,12.18,1.96c3.38,1.31,6.15,3.17,8.3,5.58
					c2.15,2.42,3.73,5.34,4.75,8.77C1171.45,1081.88,1171.95,1085.7,1171.95,1089.91z M1153.24,1091.72c0-2.47-0.22-4.63-0.65-6.49
					c-0.43-1.86-1.14-3.43-2.1-4.71c-0.97-1.28-2.25-2.25-3.84-2.9c-1.59-0.65-3.53-0.98-5.8-0.98c-1.36,0-2.68,0.12-3.99,0.36
					c-1.31,0.24-2.59,0.58-3.84,1.02c-1.26,0.43-2.46,0.95-3.62,1.56c-1.16,0.6-2.25,1.25-3.26,1.92c0,5.17,0.29,9.49,0.87,12.94
					c0.58,3.46,1.44,6.2,2.57,8.23c1.13,2.03,2.56,3.47,4.28,4.31c1.72,0.85,3.71,1.27,5.98,1.27c2.22,0,4.17-0.41,5.84-1.23
					c1.67-0.82,3.06-1.98,4.17-3.48c1.11-1.5,1.96-3.25,2.54-5.26C1152.95,1096.28,1153.24,1094.09,1153.24,1091.72z"/></g><g><path d="M1977.6,950.37c-13.57,12.56-33.19,18.24-51.36,14.84c-31.06-5.79-52.88-36.02-58.89-67.04
						c-6.01-31.06,0.51-62.98,7.02-93.9l121.95,96.03C1998.3,918.66,1991.17,937.81,1977.6,950.37z"/><path d="M1936.73,969.95c-3.75,0-7.5-0.34-11.18-1.03c-34.64-6.46-56.05-39.83-61.9-70.03c-6.26-32.34,0.81-65.83,7.03-95.39
						c0.27-1.28,1.18-2.32,2.4-2.77c1.22-0.45,2.59-0.22,3.62,0.58l121.95,96.03c0.8,0.63,1.3,1.55,1.41,2.56
						c2.12,19.52-5.51,39.92-19.9,53.24C1968.5,963.93,1952.58,969.95,1936.73,969.95z M1876.8,811
						c-5.71,27.36-11.32,57.72-5.76,86.46c5.19,26.8,24.89,58.27,55.89,64.05c16.96,3.18,35.41-2.15,48.11-13.9v0
						c12.3-11.38,18.98-28.62,17.67-45.33L1876.8,811z"/><path fill="#fff" d="M1449.58,1313.05c0,0,2.23-112.12-22.48-127.57c-24.71-15.45-35.39,39.06-35.39,39.06
														s-46.77-97.81-68.06-95.38s4.68,70.7,4.68,70.7s-36.58-50.36-52.06-52.34s-19.33,15.43-13.8,26.97
														c0,0-31.13-10.01-25.77,22.42c0,0-21.72-4.75-14.92,24.13c6.81,28.88,37.75,80.79,50.61,96.94
														c30.12,37.83,70.48,64.11,70.48,64.11C1378.92,1376.28,1438.48,1355.79,1449.58,1313.05z"/><path d="M1342.86,1385.86c-0.73,0-1.44-0.21-2.06-0.61c-1.67-1.09-41.21-27.05-71.37-64.92
														c-12.21-15.33-44.26-68.41-51.33-98.42c-2.67-11.31-1.55-19.55,3.3-24.48c3.35-3.4,7.68-4.37,11.01-4.54
														c-0.62-8.61,1.44-15.02,6.16-19.09c5.39-4.65,12.92-4.89,18.3-4.27c-1.4-6.93-0.22-14.18,3.39-19.17
														c3.71-5.13,9.59-7.47,16.49-6.58c10.78,1.38,28.48,20.77,41.04,36.22c-4.85-16.89-9.36-39.06-3.37-48.91
														c2-3.28,5.04-5.24,8.8-5.67c19.87-2.26,53.73,60.95,67.34,88.19c3.35-11.33,10.11-28.37,21.42-33.27
														c3.77-1.64,9.81-2.62,17.12,1.95c25.78,16.12,24.48,119.15,24.25,130.84c-0.01,0.29-0.05,0.59-0.12,0.87
														c-10.83,41.71-65.9,64.76-109.76,71.82C1343.26,1385.84,1343.06,1385.86,1342.86,1385.86z M1233.44,1200.39
														c-2,0-4.79,0.41-6.69,2.35c-2.85,2.93-3.3,8.96-1.3,17.44c6.83,28.99,38.01,80.53,49.89,95.46
														c26.5,33.28,61.51,57.83,68.38,62.49c41.22-6.93,92.03-28.12,102.1-65.6c0.57-30.94-2.03-112.16-20.72-123.85
														c-3.69-2.31-6.99-2.77-10.12-1.43c-10.85,4.7-17.81,29.03-19.58,38.01c-0.31,1.59-1.61,2.81-3.23,3.01
														c-1.67,0.2-3.18-0.65-3.88-2.11c-18.94-39.6-51.3-94.76-64.23-93.26c-1.45,0.17-2.42,0.8-3.21,2.1
														c-5.9,9.7,3.61,44.11,10.99,63.52c0.67,1.77-0.07,3.76-1.73,4.66c-1.66,0.9-3.73,0.43-4.84-1.1
														c-13.78-18.96-39.39-49.52-49.49-50.82c-4.18-0.53-7.34,0.65-9.42,3.52c-3.14,4.35-3.36,12.12-0.5,18.09
														c0.65,1.36,0.43,2.97-0.56,4.11c-0.99,1.13-2.57,1.57-3.99,1.11c-3.29-1.04-12.92-2.82-17.83,1.44
														c-3.39,2.94-4.42,8.58-3.07,16.78c0.21,1.23-0.22,2.49-1.12,3.35c-0.91,0.86-2.18,1.22-3.4,0.95
														C1235.87,1200.59,1234.85,1200.39,1233.44,1200.39z M1449.58,1313.04h0.04H1449.58z"/><path d="M1296.79,1225.92c-1.17,0-2.33-0.54-3.06-1.57l-34.33-47.66c-1.22-1.69-0.83-4.05,0.86-5.26
													c1.69-1.22,4.05-0.83,5.26,0.86l34.33,47.66c1.22,1.69,0.83,4.05-0.86,5.26
													C1298.33,1225.69,1297.56,1225.92,1296.79,1225.92z"/><path d="M1272.46,1247.68c-1.14,0-2.26-0.51-3-1.49l-35.77-47c-1.26-1.66-0.94-4.02,0.72-5.28
													c1.65-1.26,4.02-0.94,5.28,0.72l35.77,47c1.26,1.66,0.94,4.02-0.72,5.28
													C1274.06,1247.43,1273.26,1247.68,1272.46,1247.68z"/><path fill="#71ffcc" d="M1338.54,1401.51l39.27,55.51l131.54-80.39l-41.13-69.58
												C1444.05,1274.67,1312.04,1360.23,1338.54,1401.51z"/><path d="M1377.82,1460.79c-1.19,0-2.35-0.56-3.08-1.59l-39.27-55.51c-0.03-0.05-0.06-0.09-0.1-0.14
												c-15.58-24.27,15.18-58.03,46.25-79.56c33-22.87,75.13-38.62,89.64-19.19c0.08,0.11,0.16,0.22,0.23,0.34l41.13,69.58
												c1.05,1.77,0.48,4.06-1.28,5.14l-131.54,80.39C1379.17,1460.61,1378.49,1460.79,1377.82,1460.79z M1341.67,1399.4
												l37.19,52.56l125.36-76.61l-39.12-66.19c-9.57-12.37-44.27-3.18-79.18,21.02
												C1356.39,1350.65,1329.98,1381.02,1341.67,1399.4z"/><g><path fill="#fff" d="M1357.78,1454.12c26.51,74.51,114.87,281.3,205.21,293c140.27,18.18,334.66-217.17,334.66-217.17
													l-69.49-146.29c-46.26,8.78-148.63,56.23-225.36,124.61l-93.44-161.23C1480.06,1299.37,1335.8,1392.23,1357.78,1454.12z
													"/><path d="M1579,1751.9c-5.57,0-11.05-0.34-16.49-1.04c-106.91-13.84-204.18-283.98-208.27-295.47v0
													c-13.81-38.89,32.07-89,82.5-113.12c35.87-17.15,64.22-16.1,75.83,2.81l91.18,157.33
													c79.61-69.66,180.1-114.17,223.7-122.44l2.86-0.54l71.77,151.09l-1.53,1.85C1892.87,1541.65,1717.56,1751.9,1579,1751.9
													z M1361.34,1452.86c34.1,95.85,120.23,279.92,202.14,290.52c130.11,16.85,311.16-192.09,329.73-214l-67.19-141.44
													c-44.85,9.59-143.32,54.18-220.71,123.15l-3.45,3.08l-95.76-165.23c-11.01-17.92-41.38-11.7-66.1,0.13
													C1392.3,1371.87,1349.32,1419.02,1361.34,1452.86L1361.34,1452.86z"/></g><g><path fill="#fff" d="M1696.53,1567.39c-49.97,218.87-77.39,606-77.39,606h600.81c0,0,85.54-684.71,6.28-734.26
												c-26.54-16.58-52.67-31.18-85.9-41.3c-80.6-24.61-174.51-31.03-251.17-23.59c-22.71,2.2-43.91,5.64-62.81,10.16"/><path d="M2219.95,2177.16h-600.81c-1.05,0-2.05-0.43-2.76-1.2c-0.71-0.77-1.08-1.79-1-2.84
												c0.27-3.88,28.02-389.92,77.48-606.57c0.46-2.03,2.49-3.3,4.51-2.84c2.03,0.46,3.3,2.48,2.84,4.52
												c-46.61,204.14-73.9,559.49-77.01,601.39h593.42c29.43-236.93,68.4-689.29,7.61-727.29
												c-28.12-17.56-53.33-31.24-85-40.89c-74.2-22.65-167.55-31.41-249.71-23.44c-22.49,2.17-43.45,5.56-62.3,10.07
												c-2.01,0.48-4.05-0.76-4.54-2.79c-0.48-2.03,0.77-4.06,2.79-4.55c19.19-4.59,40.49-8.04,63.32-10.24
												c83.1-8.06,177.54,0.81,252.64,23.74c32.45,9.89,58.17,23.83,86.8,41.71c34.14,21.34,43.67,152.27,28.34,389.15
												c-11.35,175.45-32.67,347.06-32.88,348.77C2223.45,2175.75,2221.85,2177.16,2219.95,2177.16z"/></g><g><path fill="#71ffcc" d="M1868.41,1376.66c0,0,36.52,72.49,98.66,80.65c86.01,11.3,131.85-32.04,172.38-58.88
												c0.3-0.2,0.59-0.39,0.88-0.59c-80.6-24.61-174.51-31.03-251.17-23.59L1868.41,1376.66z"/></g><g><path fill="#fff" d="M2117.76,1391.5c0,0-82.44,42.64-140.96,35.84s-80.85-52.9-80.85-52.9s48.4-36.49,44.99-138.75
											c58.29,21.66,148.69,13.98,148.69,13.98S2085.38,1362.93,2117.76,1391.5z"/><path d="M1990.23,1431.86c-4.72,0-9.36-0.24-13.87-0.77c-59.89-6.96-82.86-53.04-83.81-55c-0.78-1.62-0.31-3.57,1.13-4.66
											c0.46-0.35,46.78-36.81,43.49-135.61c-0.04-1.26,0.55-2.45,1.57-3.19c1.02-0.73,2.33-0.91,3.52-0.47
											c56.81,21.11,146.16,13.83,147.05,13.76c1.05-0.1,2.14,0.28,2.92,1.03c0.78,0.75,1.2,1.79,1.16,2.87
											c-0.04,1.11-3.8,111.78,26.87,138.85c0.93,0.82,1.4,2.05,1.24,3.29c-0.15,1.24-0.9,2.32-2.01,2.89
											C2116.35,1396.48,2047.24,1431.86,1990.23,1431.86z M1900.75,1375.32c5.64,9.49,28.63,42.71,76.48,48.28
											c48.98,5.69,116.18-24.53,134.2-33.18c-26.25-30.73-26.12-116.36-25.7-136.67c-18.09,1.2-89.26,4.55-140.9-12.67
											C1946.24,1327.9,1910.76,1366.25,1900.75,1375.32z"/></g><g><path fill="#fff" d="M2029.34,1288.84c-44.13,6-115.73,12.03-164.21-32.79c-90.22-83.41,6.44-383.34,123.2-376.02
											c202.01,12.66,111.86,212.59,111.86,212.59s31.89-18.69,40.29,12.44c10.61,39.2-45.35,72.05-45.35,72.05l-7.5,98.9"/><path d="M1975.55,1296.74c-39.75,0-80.92-8.28-112.99-37.92c-53.79-49.73-42.22-171.43-4.03-260.68
											c33.93-79.29,82.62-124.87,130.02-121.87c58.11,3.64,98.15,23.03,119,57.63c32.24,53.49,9.17,126.56-0.38,151.58
											c6.15-2.03,14.55-3.5,22.12-0.4c7.23,2.96,12.21,9.35,14.81,19.01c10.27,37.96-35.64,69.12-45.38,75.24l-7.35,96.98
											c-0.16,2.08-2.01,3.62-4.04,3.48c-2.08-0.16-3.63-1.97-3.48-4.04l7.49-98.9c0.09-1.23,0.78-2.34,1.85-2.97
											c0.53-0.31,53.35-31.86,43.62-67.81c-1.96-7.27-5.46-11.97-10.39-13.99c-8.6-3.52-20.5,1.56-24.35,3.82
											c-1.41,0.83-3.2,0.65-4.43-0.45c-1.22-1.1-1.59-2.86-0.92-4.35c0.42-0.92,40.95-92.58,4.34-153.3
											c-19.5-32.34-57.52-50.5-113-53.97c-43.37-2.73-90.48,42.22-122.61,117.31c-37.19,86.88-49.05,204.79,2.21,252.18
											c44.91,41.52,109.7,38.82,161.15,31.82c2.06-0.27,3.97,1.17,4.25,3.23c0.28,2.06-1.17,3.96-3.23,4.24
											C2012.81,1294.89,1994.34,1296.74,1975.55,1296.74z"/><ellipse cx="1898.68" cy="1032.81" rx="14.15" ry="10.52" transform="rotate(-72.938 1898.603 1032.802)"/><path fill="#fff" d="M1889.69,1004.96c4.21-2.99,23-9.71,33.26,9.47"/><path d="M1922.96,1018.2c-1.35,0-2.65-0.72-3.33-1.99c-3.11-5.81-7.33-9.38-12.54-10.61c-6.62-1.56-13.22,1.02-15.22,2.43
											c-1.69,1.21-4.05,0.8-5.25-0.89c-1.2-1.7-0.81-4.05,0.89-5.26c3.53-2.51,12.44-5.71,21.3-3.62
											c7.31,1.72,13.35,6.7,17.47,14.39c0.98,1.84,0.29,4.12-1.55,5.1C1924.17,1018.06,1923.56,1018.2,1922.96,1018.2z"/><ellipse cx="1986.79" cy="1064.28" rx="14.15" ry="10.52" transform="rotate(-72.938 1986.716 1064.27)"/><path fill="#fff" d="M1977.81,1036.42c4.21-2.99,23-9.71,33.26,9.47"/><path d="M2011.08,1049.67c-1.35,0-2.65-0.72-3.33-1.99c-3.11-5.81-7.33-9.38-12.55-10.61
											c-6.62-1.56-13.22,1.02-15.21,2.43c-1.7,1.21-4.05,0.8-5.26-0.89c-1.2-1.7-0.81-4.05,0.89-5.26
											c3.53-2.51,12.43-5.71,21.3-3.63c7.31,1.72,13.35,6.7,17.47,14.39c0.98,1.84,0.29,4.12-1.55,5.1
											C2012.29,1049.52,2011.68,1049.67,2011.08,1049.67z"/><g><path fill="#fff" d="M1938.32,1058.19c-9.25,19.06-18.5,38.11-27.75,57.17c-1.52,3.14-3.08,6.43-2.97,9.92
											c0.15,4.52,3.18,8.56,6.93,11.09c3.75,2.53,8.18,3.82,12.54,5.06"/><path d="M1927.07,1145.2c-0.34,0-0.69-0.05-1.04-0.15c-4.37-1.25-9.32-2.67-13.61-5.56c-5.2-3.51-8.41-8.78-8.58-14.09
											c-0.15-4.5,1.79-8.48,3.34-11.69l27.75-57.17c0.91-1.87,3.16-2.66,5.04-1.75c1.87,0.91,2.66,3.17,1.75,5.04l-27.75,57.17
											c-1.25,2.58-2.67,5.51-2.59,8.15c0.1,2.86,2.11,5.96,5.27,8.09c3.29,2.22,7.45,3.41,11.46,4.56
											c2,0.57,3.16,2.66,2.59,4.66C1930.22,1144.12,1928.71,1145.2,1927.07,1145.2z"/></g><g><path fill="#fff" d="M1956.31,1185.06c-15.94,17.99-32.93,14.47-47.53,3.55"/><path d="M1932.06,1201.5c-8.16,0-16.74-3.28-25.54-9.86c-1.67-1.25-2.01-3.61-0.76-5.28c1.24-1.67,3.61-2.01,5.28-0.76
											c16.1,12.03,29.98,11.04,42.45-3.04c1.38-1.56,3.76-1.7,5.32-0.32c1.56,1.38,1.7,3.76,0.32,5.32
											C1950.91,1196.85,1941.78,1201.5,1932.06,1201.5z"/></g><g><path d="M2229.1,1117.32c-54.48,82.82-138.71,122.53-138.35,117.32c0-0.04,4.38-57.52,4.38-57.52s55.96-32.83,45.32-72.07
											c-8.4-31.13-40.29-12.42-40.29-12.42s-3.66,17.27-15.89,15.13c-12.92-2.21-4.81-59.33-4.92-68.63
											c0,0-38.8-55.06-19.73-79.96c-35.18-4.81-70.01-13.54-101.79-29.39c-31.75-15.86-60.05-40.47-75.26-72.54
											c-15.2-32.07-15.78-71.96,3.08-102.04c10.28,26.9,34.71,46.55,63.06,51.58c4.89-17.88,1.66-36.99-5.5-54.08
											c19.62,9.05,35.55,23.31,47.64,41.27c27.62-19.4,63.85-21.1,96-10.82c32.14,10.28,59.76,31.42,83.8,55.09
											c14.95,14.73,29.21,31.31,34.89,51.54c5.07,18.1,1.41,39.71-12.02,52.27C2288.97,991.38,2259.25,1071.45,2229.1,1117.32z"/><path d="M2090.93,1238.74c-0.44,0-0.8-0.05-1.09-0.14c-1.84-0.62-2.98-2.32-2.85-4.23c0,0,0,0.01,0,0.01
											c0,0,0.15-2.02,4.38-57.55c0.09-1.23,0.78-2.34,1.85-2.97c0.54-0.31,53.35-31.85,43.59-67.83
											c-1.96-7.26-5.44-11.96-10.36-13.98c-8.44-3.47-19.28,1.24-23.03,3.12c-2.08,7.36-8.26,18.32-19.79,16.3
											c-12.62-2.16-11.34-30.45-8.75-61.76c0.32-3.91,0.61-7.37,0.69-9.44c-5.13-7.53-34.03-51.89-22.06-78.18
											c-37.7-5.62-69.6-15.11-97.35-28.95c-35.28-17.62-62.62-44.01-76.98-74.3c-16.72-35.27-15.46-75.76,3.29-105.66
											c0.76-1.21,2.1-1.89,3.56-1.75c1.42,0.14,2.64,1.07,3.15,2.41c9.34,24.41,30.87,42.74,56.73,48.52
											c3.87-18.29-1.11-36.15-6.17-48.21c-0.6-1.43-0.26-3.09,0.86-4.17c1.12-1.08,2.79-1.36,4.2-0.71
											c18.66,8.61,34.47,21.88,47.04,39.49c26.44-17,61.24-20.38,96.16-9.21c28.34,9.06,56.24,27.38,85.3,56
											c14.31,14.1,29.77,31.45,35.88,53.21c5.28,18.86,1.44,39.16-9.52,52.28c32.31,17.73,52.34,40.65,59.54,68.17
											c10.71,40.91-8.74,82.49-26.94,110.18v0C2181.23,1196.95,2103.83,1238.74,2090.93,1238.74z M2098.74,1179.33
											c-0.61,8.07-2.99,39.27-3.89,51.05c16.84-6.27,84.19-43.83,131.09-115.13c14.21-21.61,36.48-63.88,25.94-104.12
											c-6.96-26.6-27.18-48.71-60.1-65.73c-1.09-0.56-1.84-1.62-2-2.83c-0.17-1.21,0.26-2.43,1.16-3.27
											c11.63-10.88,16.04-30.37,10.96-48.5c-5.63-20.05-20.3-36.47-33.91-49.87c-28.19-27.77-55.11-45.49-82.3-54.19
											c-34.06-10.89-67.84-7.13-92.68,10.32c-0.83,0.58-1.86,0.8-2.85,0.62c-1-0.18-1.88-0.76-2.44-1.6
											c-10.21-15.16-22.83-27.09-37.61-35.57c4.24,13.19,6.93,30.09,2.24,47.27c-0.52,1.88-2.4,3.06-4.3,2.72
											c-27.38-4.86-50.83-22.54-62.83-46.87c-13.58,26.74-13.46,62.01,0.76,92.01c13.64,28.77,39.76,53.91,73.54,70.78
											c28.37,14.15,61.28,23.65,100.62,29.03c1.33,0.18,2.46,1.06,2.98,2.3c0.51,1.24,0.32,2.66-0.49,3.73
											c-14.25,18.61,9.47,60.81,19.82,75.5c0.44,0.62,0.68,1.37,0.69,2.13c0.02,2.09-0.29,5.93-0.73,11.25
											c-3.78,45.71-0.04,53.27,2.52,53.71c8.48,1.48,11.54-12.07,11.57-12.2c0.22-1.03,0.87-1.93,1.78-2.46
											c0.7-0.41,17.23-9.96,31.03-4.31c7.23,2.96,12.21,9.35,14.81,19C2154.4,1142.06,2108.48,1173.21,2098.74,1179.33z
											 M2229.1,1117.32h0.04H2229.1z"/></g></g><g><path fill="#71ffcc" d="M1722.6,1728.12l126.12,21.13c3.43,0.57,6.68-1.74,7.25-5.17l22.41-133.73
									c0.57-3.43-1.74-6.68-5.17-7.25l-126.12-21.13c-3.43-0.57-6.68,1.74-7.25,5.17l-22.41,133.73
									C1716.86,1724.3,1719.17,1727.54,1722.6,1728.12z"/><path d="M1835.49,1750.47c-1.53,0-3.07-0.13-4.61-0.38l-91.7-15.37l0,0c-7.25-1.22-13.59-5.18-17.86-11.17
									c-4.27-5.99-5.95-13.27-4.73-20.52l16.64-99.31c1.22-7.25,5.18-13.59,11.17-17.86c5.98-4.27,13.27-5.95,20.52-4.73
									l91.7,15.37c7.25,1.22,13.59,5.18,17.86,11.17c4.27,5.99,5.95,13.27,4.73,20.52l-16.64,99.31
									c-1.22,7.25-5.18,13.59-11.17,17.86C1846.7,1748.72,1841.17,1750.47,1835.49,1750.47z M1740.43,1727.28l91.7,15.37
									c5.25,0.88,10.55-0.34,14.9-3.44c4.35-3.1,7.22-7.7,8.11-12.96l16.64-99.31c0.88-5.26-0.34-10.55-3.44-14.9
									c-3.1-4.34-7.7-7.22-12.96-8.11l-91.7-15.37c-5.25-0.88-10.56,0.34-14.9,3.44c-4.35,3.1-7.23,7.7-8.11,12.96l-16.64,99.31
									c-0.88,5.26,0.34,10.55,3.44,14.9C1730.57,1723.52,1735.17,1726.4,1740.43,1727.28L1740.43,1727.28z"/></g><g><path fill="#fff" d="M1818.95,1834.4c0,0-79.58-63.54-105.96-53.79s18.4,58.84,18.4,58.84s-116.41-35.08-127.11-17.38
									c-10.7,17.69,56.74,38.13,56.74,38.13s-60.02-1.78-70.67,8.86s0.37,23.86,12.45,26.45c0,0-26,17.86,1.92,32.9
									c0,0-16.44,13.78,9.62,25.62c26.06,11.84,83.94,18.83,103.86,18.55c46.65-0.68,90.51-15.98,90.51-15.98
									C1825.54,1925.64,1845.03,1868.09,1818.95,1834.4z"/><path d="M1717.1,1976.36c-20.05,0-77.76-6.82-104.33-18.89c-10.26-4.66-15.92-10.4-16.83-17.06
									c-0.62-4.54,1.15-8.41,2.98-11.06c-6.9-4.61-10.56-9.98-10.89-15.99c-0.37-6.82,3.8-12.68,7.45-16.46
									c-6.07-3.05-10.87-8.21-12.54-13.9c-1.74-5.91-0.06-11.8,4.74-16.6c7.36-7.35,32.17-9.48,51.3-9.99
									c-15.67-6.28-34.85-15.82-38.8-26.11c-1.34-3.5-1.04-7.02,0.87-10.18c10.02-16.58,83.32,1.9,119.44,12.21
									c-9.21-11.76-22.26-31.34-19.09-44.37c1.24-5.09,4.79-8.85,10.28-10.88c27.56-10.2,101.3,47.74,109.62,54.38
									c0.24,0.19,0.45,0.4,0.63,0.64c25.49,32.92,10.59,88.61-9.91,126.3c-0.45,0.82-1.18,1.45-2.07,1.76
									c-1.81,0.63-44.98,15.51-91.7,16.19C1717.88,1976.35,1717.5,1976.36,1717.1,1976.36z M1650.72,1863.82
									c-22.44,0-51.75,1.95-57.7,7.91c-2.84,2.83-3.79,5.91-2.84,9.13c1.45,4.92,7.22,9.63,13.41,10.96
									c1.47,0.32,2.61,1.48,2.91,2.96c0.29,1.48-0.32,2.99-1.57,3.84c-2.72,1.88-9.71,8.14-9.36,14.34
									c0.24,4.27,3.91,8.35,10.93,12.13c1.1,0.59,1.83,1.69,1.96,2.94c0.13,1.24-0.37,2.47-1.33,3.27
									c-0.03,0.02-4.33,3.77-3.7,8.12c0.55,3.86,4.86,7.72,12.47,11.18c26.14,11.87,84.02,18.47,102.24,18.21
									c40.98-0.59,80.23-12.78,87.96-15.31c18.99-35.51,32.75-86.69,10.14-116.43c-21.98-17.49-82.06-60.28-101.94-52.92
									c-4.15,1.53-5.16,3.92-5.57,5.59c-2.7,11.08,14.17,34.82,25.45,47.17c1.14,1.25,1.31,3.12,0.4,4.55
									c-0.91,1.43-2.66,2.09-4.28,1.6c-54.64-16.46-117.11-28.43-122.8-19.04c-0.71,1.17-0.79,2.24-0.28,3.57
									c3.9,10.18,35.73,23.19,54.88,29c1.81,0.55,2.93,2.35,2.63,4.22c-0.31,1.86-2.01,3.18-3.83,3.16
									C1657.77,1863.88,1654.33,1863.82,1650.72,1863.82z"/><path d="M1659.43,1901.19c-0.04,0-0.09,0-0.13,0l-56.64-1.91c-2.08-0.07-3.71-1.81-3.64-3.9c0.07-2.04,1.74-3.64,3.76-3.64
								c0.04,0,0.09,0,0.13,0l56.64,1.91c2.08,0.07,3.71,1.81,3.64,3.9C1663.13,1899.59,1661.46,1901.19,1659.43,1901.19z"/><g><path d="M1661.69,1932.6c-0.01,0-0.02,0-0.03,0l-56.98-0.42c-2.08-0.02-3.76-1.72-3.74-3.8c0.01-2.07,1.7-3.74,3.77-3.74
								c0.01,0,0.02,0,0.03,0l56.98,0.42c2.08,0.02,3.76,1.72,3.74,3.8C1665.44,1930.93,1663.76,1932.6,1661.69,1932.6z"/></g></g><g><path fill="#71ffcc" d="M1819.24,1983.81l67.23,10.21l33.33-150.52l-78.65-18.63
							C1801.06,1819.83,1771.13,1974.27,1819.24,1983.81z"/><path d="M1886.47,1997.79c-0.19,0-0.38-0.01-0.57-0.04l-67.23-10.21c-0.06-0.01-0.11-0.02-0.17-0.03
							c-28.29-5.61-31.28-51.18-25.24-88.51c6.41-39.62,24.23-80.91,48.35-77.87c0.13,0.02,0.27,0.04,0.4,0.07l78.65,18.63
							c2.01,0.47,3.26,2.47,2.81,4.49l-33.33,150.52C1889.77,1996.59,1888.22,1997.79,1886.47,1997.79z M1819.9,1980.09l63.65,9.67
							l31.77-143.45l-74.82-17.72c-15.53-1.64-32.99,29.67-39.78,71.61C1794.98,1935.67,1798.54,1975.76,1819.9,1980.09z"/></g><g><path fill="#fff" d="M2157.64,1404.33c43.28,15.12,125.2,60.81,162.98,133.6c39.28,75.7,78.78,427.43-23.42,499.7
							c-81.73,57.79-423.7-33.45-423.7-33.45c-61.02-34.99-31.11-195.47,42.39-177.03l258.79,21.02c0,0-43.58-265.95-36.65-320.55"/><path d="M2200.71,2060.62c-128.34,0.01-317.64-49.99-328.19-52.81c-0.32-0.08-0.62-0.21-0.9-0.37
							c-37.77-21.66-42.8-89.53-23.7-136.9c14.7-36.46,40.35-54.05,68.57-47.13l253.68,20.61c-6.01-37.16-42.39-265.75-35.89-316.88
							c0.27-2.07,2.16-3.54,4.22-3.27c2.07,0.26,3.53,2.15,3.27,4.22c-6.79,53.44,36.19,316.81,36.63,319.47
							c0.18,1.14-0.17,2.31-0.95,3.17c-0.78,0.85-1.89,1.29-3.08,1.2l-258.79-21.02c-0.21-0.02-0.41-0.05-0.61-0.1
							c-35.16-8.82-53.71,26.83-60.05,42.56c-17.86,44.3-13.98,107.28,20.04,127.29c14.68,3.86,342.1,89.02,420.07,33.89
							c100.37-70.96,60.7-420.8,22.25-494.88c-37.81-72.86-118.91-117.12-160.87-131.78c-1.97-0.69-3-2.84-2.32-4.8
							c0.69-1.97,2.84-3,4.81-2.32c43.01,15.03,126.18,60.47,165.08,135.43c18.87,36.37,39.66,140.87,41.77,252.8
							c1.42,75.47-5.3,208.54-66.37,251.71C2278.94,2055.15,2243.15,2060.62,2200.71,2060.62z"/></g><g><path fill="#fff" d="M1391.7,1224.53c0,0-2.53,36.54,15.38,40.21"/><path d="M1407.09,1268.51c-0.25,0-0.5-0.02-0.76-0.08c-20.9-4.27-18.5-42.54-18.39-44.16c0.14-2.08,1.9-3.65,4.02-3.5
							c2.08,0.14,3.65,1.94,3.51,4.02c-0.63,9.25,0.36,33.8,12.37,36.26c2.04,0.42,3.36,2.41,2.94,4.45
							C1410.41,1267.28,1408.84,1268.51,1407.09,1268.51z"/></g><g><path fill="#fff" d="M2035.07,927.21c-0.11,0-0.23-0.01-0.35-0.02c-52.53-4.86-101.94-36.04-128.94-81.36
					c-1.06-1.79-0.48-4.1,1.31-5.17c1.79-1.07,4.1-0.48,5.17,1.31c25.78,43.29,72.97,73.07,123.15,77.71
					c2.07,0.19,3.6,2.03,3.41,4.1C2038.64,925.74,2036.99,927.21,2035.07,927.21z"/></g><g><path fill="#fff" d="M2086.05,1024.76c-1.22,0-2.42-0.59-3.14-1.68c-9.32-13.98-13.35-31.54-11.03-48.18
					c0.29-2.06,2.18-3.51,4.25-3.22c2.06,0.29,3.5,2.19,3.21,4.25c-2.06,14.84,1.53,30.49,9.84,42.96c1.16,1.73,0.69,4.07-1.05,5.23
					C2087.49,1024.56,2086.77,1024.76,2086.05,1024.76z"/></g><g><path fill="#fff" d="M2182.34,1153.67c-1.26,0-2.49-0.63-3.2-1.78c-1.1-1.77-0.56-4.09,1.2-5.2
					c24.13-15.05,41.95-39.49,48.9-67.07c6.95-27.57,2.83-57.54-11.3-82.23c-1.03-1.81-0.41-4.11,1.4-5.15
					c1.82-1.04,4.12-0.41,5.15,1.4c15.09,26.36,19.48,58.37,12.07,87.81c-7.42,29.45-26.45,55.56-52.22,71.62
					C2183.71,1153.48,2183.03,1153.67,2182.34,1153.67z"/></g><g><path fill="#fff" d="M2054.62,894.9c-0.01,0-0.03,0-0.05,0c-30.06-0.41-59.7-12.63-81.32-33.52c-1.5-1.45-1.54-3.83-0.09-5.33
					c1.45-1.5,3.83-1.54,5.33-0.09c20.25,19.57,48.02,31.01,76.18,31.4c2.08,0.03,3.75,1.74,3.72,3.82
					C2058.36,893.25,2056.68,894.9,2054.62,894.9z"/></g><g><path fill="#fff" d="M2141.8,841.54c-0.74,0-1.48-0.22-2.14-0.67c-3.37-2.33-6.78-4.6-10.18-6.86l-50.09-33.33
					c-1.73-1.15-2.21-3.49-1.05-5.23c1.16-1.74,3.5-2.2,5.23-1.05l50.09,33.33c3.44,2.29,6.88,4.58,10.29,6.93
					c1.71,1.18,2.14,3.53,0.96,5.25C2144.18,840.97,2143,841.54,2141.8,841.54z"/></g><g><path fill="#fff" d="M2174.34,933.37c-0.97,0-1.95-0.37-2.68-1.12c-1.46-1.48-1.45-3.87,0.04-5.33
					c8.39-8.27,11.99-21.65,9.38-34.91c-2.03-10.29-7.43-20.36-16.05-29.91c-1.4-1.55-1.27-3.93,0.27-5.33
					c1.54-1.39,3.93-1.28,5.32,0.27c9.55,10.58,15.56,21.86,17.86,33.51c3.09,15.71-1.31,31.71-11.48,41.74
					C2176.25,933.01,2175.3,933.37,2174.34,933.37z"/></g></g><g><path fill="#71ffcc" d="M2014.14,574.78l26.63-15.52l-19.08-67.51l-20.68-20.73l-6.45,90.31
					C1992.78,572.28,2004.52,580.33,2014.14,574.78z"/><path d="M2007.51,580.35c-3.35,0-6.69-1.01-9.61-3.02c-5.42-3.74-8.13-10.11-7.07-16.62l6.41-89.97
					c0.1-1.47,1.06-2.75,2.45-3.27c1.37-0.51,2.94-0.18,3.98,0.87l20.68,20.73c0.45,0.45,0.78,1.02,0.96,1.64l19.09,67.51
					c0.47,1.66-0.24,3.42-1.73,4.28l-26.63,15.52c0,0-0.01,0-0.01,0.01C2013.36,579.58,2010.43,580.35,2007.51,580.35z
					 M2014.14,574.78h0.04H2014.14z M2004.18,479.53l-5.86,82.06c-0.63,4,0.83,7.43,3.87,9.53c3.07,2.12,6.83,2.26,10.06,0.39
					l24.1-14.05l-18.03-63.75L2004.18,479.53z"/><g><path fill="#71ffcc" d="M2021.65,508.36l29.83,105.53l169.22-196.43c7.77-9.02,0.75-22.93-11.13-22.03l-283.54,21.5l76.41,66.92"/><path d="M2051.48,617.65c-0.27,0-0.54-0.03-0.81-0.09c-1.36-0.3-2.44-1.32-2.81-2.66l-29.84-105.53c-0.57-2,0.6-4.09,2.6-4.65
						c2.01-0.56,4.09,0.6,4.65,2.6l27.93,98.78l164.64-191.12c3.09-3.58,2.69-7.81,1.29-10.58c-1.4-2.76-4.55-5.59-9.28-5.24
						L1935.27,420l69.65,61c1.57,1.37,1.72,3.75,0.35,5.32c-1.37,1.57-3.75,1.72-5.32,0.35l-76.41-66.92
						c-1.14-1-1.57-2.59-1.09-4.03c0.48-1.44,1.78-2.45,3.29-2.57l283.54-21.5c7.04-0.53,13.4,3.05,16.58,9.36
						c3.19,6.31,2.3,13.55-2.31,18.9l-169.22,196.43C2053.62,617.19,2052.57,617.65,2051.48,617.65z"/><g><line x1="2221.95" x2="2070.88" y1="401.79" y2="477.52" fill="#fff"/><path d="M2070.88,481.29c-1.38,0-2.71-0.76-3.37-2.08c-0.94-1.86-0.18-4.13,1.68-5.06l151.08-75.73
						c1.86-0.93,4.13-0.18,5.06,1.68c0.94,1.86,0.18,4.13-1.68,5.06l-151.08,75.73C2072.02,481.16,2071.45,481.29,2070.88,481.29z"/></g></g></g><g><circle cx="1704.01" cy="552.37" r="125.61" fill="#bf92fb"/></g><g><path d="M1684,655.64c-70.35,0.01-128.15-56.62-129.33-127.23c-1.19-71.33,55.88-130.33,127.21-131.52
					c34.46-0.58,67.27,12.34,92.11,36.37c24.84,24.03,38.84,56.29,39.41,90.84l0,0c0.57,34.55-12.34,67.27-36.36,92.11
					c-24.03,24.84-56.29,38.84-90.85,39.41C1685.47,655.63,1684.73,655.64,1684,655.64z M1684.09,404.41c-0.7,0-1.39,0.01-2.08,0.02
					c-67.17,1.12-120.91,56.68-119.8,123.85c1.12,67.17,56.55,120.92,123.85,119.8c32.54-0.54,62.92-13.72,85.55-37.12
					c22.63-23.39,34.78-54.2,34.24-86.74l0,0c-0.54-32.54-13.72-62.92-37.11-85.55C1745.86,416.54,1715.86,404.41,1684.09,404.41z"/><path d="M1685.32,655.63c-44.57,0-81.62-57.14-82.8-128.02c-0.57-34.24,7.18-66.62,21.83-91.18
					c14.98-25.13,35.42-39.17,57.54-39.54c0.29-0.01,0.58-0.01,0.87-0.01c44.57,0,81.63,57.14,82.81,128.01l0,0
					c1.19,71.33-34.42,129.97-79.37,130.72C1685.9,655.63,1685.61,655.63,1685.32,655.63z M1682.77,404.43c-0.25,0-0.5,0-0.76,0.01
					c-19.41,0.32-37.59,13.06-51.19,35.86c-13.94,23.37-21.31,54.34-20.76,87.2c1.11,66.76,34.79,120.6,75.25,120.6
					c0.25,0,0.5,0,0.76-0.01c40.79-0.68,73.07-55.88,71.95-123.06l0,0C1756.91,458.27,1723.22,404.43,1682.77,404.43z"/><path d="M1686.13,655.62c-2.05,0-3.74-1.65-3.77-3.71l-4.18-251.19c-0.03-2.08,1.62-3.8,3.71-3.83c0.02,0,0.04,0,0.06,0
					c2.05,0,3.74,1.65,3.77,3.71l4.18,251.19c0.03,2.08-1.62,3.8-3.71,3.83C1686.17,655.62,1686.15,655.62,1686.13,655.62z"/><path d="M1558.44,532.12c-2.05,0-3.74-1.65-3.77-3.71c-0.03-2.08,1.62-3.8,3.71-3.83l251.19-4.18c0.02,0,0.04,0,0.06,0
					c2.05,0,3.74,1.65,3.77,3.71c0.03,2.08-1.62,3.8-3.71,3.83l-251.19,4.18C1558.48,532.12,1558.46,532.12,1558.44,532.12z"/></g><g><path fill="#fff" d="M474.9,1354.2c-20.65,81.78-112.03,157.22-161.85,165.81c-0.44,0.08-0.88,0.08-1.33,0
					c-49.82-8.58-141.21-84.03-161.85-165.81c-17.91-70.92-11.02-153.79-8.8-175.1c0.28-2.74,2.67-4.58,5.09-3.93
					c86.85,23.25,149.91-31.72,163.49-44.92c1.57-1.52,3.9-1.52,5.47,0c13.58,13.2,76.64,68.16,163.47,44.92
					c2.42-0.65,4.8,1.2,5.09,3.93C485.89,1200.41,492.8,1283.28,474.9,1354.2z"/><path d="M312.38,1523.84c-0.43,0-0.87-0.04-1.3-0.11c-50.3-8.67-143.76-84.97-164.87-168.6c-17.9-70.91-11.33-152.96-8.9-176.41
					c0.26-2.5,1.55-4.71,3.54-6.09c1.84-1.27,4.13-1.67,6.27-1.1c85.53,22.9,148.2-32.62,159.89-43.98c3.06-2.96,7.66-2.97,10.72,0
					c11.69,11.36,74.35,66.88,159.86,43.98c2.14-0.57,4.43-0.17,6.27,1.1c1.99,1.37,3.28,3.59,3.54,6.09
					c2.45,23.45,9.04,105.47-8.87,176.41l0,0c-21.12,83.63-114.57,159.93-164.87,168.6C313.25,1523.8,312.82,1523.84,312.38,1523.84
					z M145.18,1178.81c-0.07,0.02-0.32,0.22-0.36,0.68c-2.41,23.15-8.9,104.08,8.71,173.79c20.43,80.92,110.44,154.67,158.84,163.01
					c48.44-8.34,138.45-82.1,158.88-163.01l0,0c17.61-69.73,11.09-150.65,8.68-173.79c-0.05-0.46-0.29-0.66-0.37-0.68
					c-15.06,4.03-29.45,5.74-43,5.74c-66.98,0-113.91-41.74-124.06-51.6C300.07,1144.82,234.66,1202.76,145.18,1178.81z
					 M474.9,1354.2h0.04H474.9z"/><path fill="#fec524" d="M313.16,1474.87c-0.52,0.12-1.04,0.12-1.56,0c-38.73-9.28-108.16-69.52-123.37-129.73
					c-10.87-43.04-10.58-92.37-8.96-122.37c0.13-2.34,2.01-4.04,4.12-3.77c6.57,0.82,13.14,1.23,19.68,1.23
					c49.32,0,87.08-23.07,107.2-38.92c1.27-1,2.96-1,4.23,0c20.12,15.85,57.88,38.92,107.18,38.92c6.54,0,13.11-0.41,19.68-1.23
					c2.1-0.26,3.99,1.43,4.12,3.77c1.63,29.99,1.92,79.33-8.94,122.37C421.32,1405.36,351.89,1465.59,313.16,1474.87z"/><ellipse cx="312.37" cy="1327.28" fill="#fff" rx="64.2" ry="71.02"/><g><path fill="#fff" d="M286.12,1335.86l8.94,9.89c1.63,1.8,4.26,1.8,5.89,0l37.69-41.69"/><path d="M298,1358.4c-4.29,0-8.41-1.85-11.33-5.07l-8.94-9.89c-4.19-4.63-3.83-11.79,0.81-15.98
					c4.64-4.19,11.78-3.83,15.98,0.81l3.49,3.86l32.24-35.67c4.18-4.63,11.34-5,15.98-0.81c4.64,4.19,5,11.34,0.81,15.98
					l-37.69,41.69C306.41,1356.56,302.28,1358.4,298,1358.4z"/></g></g></svg>